<svg xmlns="http://www.w3.org/2000/svg" viewBox="4008 58 48 48">
  <defs>
    <style>
      .cls-1 {
        fill: #35589a;
      }

      .cls-2 {
        fill: #fff;
      }
    </style>
  </defs>
  <g id="Facebook" transform="translate(2977)">
    <circle id="Ellipse_215" data-name="Ellipse 215" class="cls-1" cx="24" cy="24" r="24" transform="translate(1031 58)"/>
    <g id="facebook-logo" transform="matrix(0.966, -0.259, 0.259, 0.966, 1372.399, 253.818)">
      <path id="Path_335" data-name="Path 335" class="cls-2" d="M35.7.005,32.306,0c-3.815,0-6.281,2.53-6.281,6.445V9.416H22.611a.534.534,0,0,0-.534.534v4.305a.534.534,0,0,0,.534.534h3.414V25.654a.534.534,0,0,0,.534.534h4.455a.534.534,0,0,0,.534-.534V14.79h3.992a.534.534,0,0,0,.534-.534l0-4.305a.534.534,0,0,0-.534-.534H31.548V6.9c0-1.211.289-1.825,1.866-1.825H35.7a.534.534,0,0,0,.534-.534v-4A.534.534,0,0,0,35.7.005Z" transform="matrix(0.966, 0.259, -0.259, 0.966, -287.154, -268.757)"/>
    </g>
  </g>
</svg>
