<svg xmlns="http://www.w3.org/2000/svg" viewBox="4105 147 48 48">
  <defs>
    <style>
      .cls-1 {
        fill: #27323e;
      }

      .cls-2 {
        fill: #fff;
      }
    </style>
  </defs>
  <g id="Github" transform="translate(2977)">
    <circle id="Ellipse_217" data-name="Ellipse 217" class="cls-1" cx="24" cy="24" r="24" transform="translate(1128 147)"/>
    <g id="github-2" data-name="github" transform="translate(1137 150.671)">
      <g id="Group_42" data-name="Group 42" transform="translate(0 5.329)">
        <path id="Path_346" data-name="Path 346" class="cls-2" d="M14.806,5.329A14.876,14.876,0,0,0,10.129,34.3c.74.137,1.011-.322,1.011-.716,0-.354-.013-1.288-.02-2.529-4.119.9-4.989-1.994-4.989-1.994A3.926,3.926,0,0,0,4.487,26.89c-1.346-.922.1-.9.1-.9a3.11,3.11,0,0,1,2.268,1.533,3.147,3.147,0,0,0,4.311,1.235,3.174,3.174,0,0,1,.94-1.988c-3.287-.376-6.745-1.651-6.745-7.347a5.763,5.763,0,0,1,1.525-3.991,5.357,5.357,0,0,1,.144-3.933s1.244-.4,4.072,1.523a13.977,13.977,0,0,1,7.415,0C21.344,11.1,22.586,11.5,22.586,11.5a5.365,5.365,0,0,1,.148,3.933,5.752,5.752,0,0,1,1.522,3.991c0,5.71-3.461,6.967-6.76,7.336A3.556,3.556,0,0,1,18.5,29.509c0,1.988-.019,3.591-.019,4.078,0,.4.267.861,1.018.715A14.878,14.878,0,0,0,14.806,5.329Z" transform="translate(0 -5.329)"/>
      </g>
    </g>
  </g>
</svg>
