<svg xmlns="http://www.w3.org/2000/svg" viewBox="4168 123 48 48">
  <defs>
    <style>
      .cls-1 {
        fill: #583753;
      }

      .cls-2 {
        fill: #fff;
      }
    </style>
  </defs>
  <g id="Slack" transform="translate(2977)">
    <circle id="Ellipse_218" data-name="Ellipse 218" class="cls-1" cx="24" cy="24" r="24" transform="translate(1191 123)"/>
    <g id="slack-2" data-name="slack" transform="translate(1202 133.993)">
      <g id="Group_41" data-name="Group 41" transform="translate(0 0.007)">
        <path id="Path_343" data-name="Path 343" class="cls-2" d="M25.887,13.95a2.316,2.316,0,0,0-2.919-1.487l-2.334.759c-.517-1.593-1.068-3.286-1.584-4.875l2.334-.759a2.316,2.316,0,1,0-1.432-4.405l-2.334.759L16.86,1.608a2.315,2.315,0,1,0-4.4,1.432l.759,2.334L8.339,6.957c-.46-1.419-.757-2.334-.757-2.334a2.316,2.316,0,0,0-4.405,1.43l.759,2.335-2.408.783a2.316,2.316,0,0,0,1.43,4.4l2.408-.783L6.95,17.668l-2.408.783a2.316,2.316,0,0,0,1.43,4.4l2.41-.783.783,2.408a2.316,2.316,0,0,0,4.4-1.43l-.782-2.408,4.875-1.584.783,2.408a2.316,2.316,0,0,0,4.4-1.43c0-.01-.31-.956-.783-2.408l2.334-.759A2.317,2.317,0,0,0,25.887,13.95ZM11.356,16.238c-.518-1.593-1.068-3.286-1.584-4.875l4.875-1.584,1.584,4.875Z" transform="translate(0 -0.007)"/>
      </g>
    </g>
  </g>
</svg>
