<svg xmlns="http://www.w3.org/2000/svg" viewBox="-1021 325 68 44.552">
  <defs>
    <style>
      .cls-1 {
        fill: #ff4b55;
      }

      .cls-2 {
        fill: #ffe15a;
      }
    </style>
  </defs>
  <g id="china" transform="translate(-1021 236.725)">
    <path id="Path_754" data-name="Path 754" class="cls-1" d="M62.907,88.275H5.093A5.093,5.093,0,0,0,0,93.368v34.367a5.093,5.093,0,0,0,5.093,5.093H62.907A5.093,5.093,0,0,0,68,127.734V93.368A5.093,5.093,0,0,0,62.907,88.275Z"/>
    <g id="Group_766" data-name="Group 766" transform="translate(5.263 91.624)">
      <path id="Path_755" data-name="Path 755" class="cls-2" d="M45.655,138.606l1.118,3.351,3.533.027a.476.476,0,0,1,.279.859l-2.842,2.1,1.066,3.368a.476.476,0,0,1-.731.531L45.2,146.787l-2.874,2.054a.476.476,0,0,1-.731-.531l1.066-3.368-2.842-2.1a.476.476,0,0,1,.279-.859l3.533-.027,1.118-3.351A.476.476,0,0,1,45.655,138.606Z" transform="translate(-39.628 -134.988)"/>
      <path id="Path_756" data-name="Path 756" class="cls-2" d="M170.124,146.459l.8,1.093,1.293-.4a.183.183,0,0,1,.2.281l-.792,1.1.784,1.105a.183.183,0,0,1-.2.28l-1.291-.413-.809,1.088a.183.183,0,0,1-.329-.108l-.006-1.355-1.284-.433a.183.183,0,0,1,0-.346l1.287-.424.015-1.355A.183.183,0,0,1,170.124,146.459Z" transform="translate(-151.268 -142.015)"/>
      <path id="Path_757" data-name="Path 757" class="cls-2" d="M143.532,114.674l1.347.146.575-1.227a.183.183,0,0,1,.344.04l.277,1.327,1.345.167a.183.183,0,0,1,.068.34l-1.176.673.256,1.331a.183.183,0,0,1-.3.17l-1-.91-1.186.655a.183.183,0,0,1-.255-.235l.556-1.236-.99-.926A.182.182,0,0,1,143.532,114.674Z" transform="translate(-129.556 -113.488)"/>
      <path id="Path_758" data-name="Path 758" class="cls-2" d="M145.664,220.823l-.8,1.093-1.293-.4a.183.183,0,0,0-.2.281l.792,1.1L143.374,224a.183.183,0,0,0,.2.28l1.291-.413.809,1.088a.183.183,0,0,0,.329-.108l.006-1.355,1.284-.433a.183.183,0,0,0,0-.346l-1.287-.424-.015-1.355A.183.183,0,0,0,145.664,220.823Z" transform="translate(-129.558 -206.503)"/>
      <path id="Path_759" data-name="Path 759" class="cls-2" d="M171.2,190.516l-1.347.146-.575-1.227a.183.183,0,0,0-.344.04l-.277,1.327-1.345.167a.183.183,0,0,0-.068.34l1.176.673-.256,1.331a.183.183,0,0,0,.3.17l1-.91,1.186.655a.183.183,0,0,0,.255-.235l-.556-1.236.99-.926A.182.182,0,0,0,171.2,190.516Z" transform="translate(-150.215 -179.257)"/>
    </g>
  </g>
</svg>
