<svg xmlns="http://www.w3.org/2000/svg" viewBox="-1204 325 68 44.552">
  <defs>
    <style>
      .cls-1 {
        fill: #f5f5f5;
      }

      .cls-2 {
        fill: #ff4b55;
      }

      .cls-3 {
        fill: #41479b;
      }
    </style>
  </defs>
  <g id="united-states" transform="translate(-1204 236.725)">
    <path id="Path_708" data-name="Path 708" class="cls-1" d="M62.907,88.276H5.093A5.093,5.093,0,0,0,0,93.369v34.366a5.093,5.093,0,0,0,5.093,5.093H62.907A5.093,5.093,0,0,0,68,127.735V93.369A5.093,5.093,0,0,0,62.907,88.276Z" transform="translate(0 -0.001)"/>
    <g id="Group_764" data-name="Group 764" transform="translate(0 88.275)">
      <path id="Path_709" data-name="Path 709" class="cls-2" d="M2.109,91.7h67.44a5.093,5.093,0,0,0-4.812-3.427H6.922A5.094,5.094,0,0,0,2.109,91.7Z" transform="translate(-1.829 -88.276)"/>
      <rect id="Rectangle_172" data-name="Rectangle 172" class="cls-2" width="68" height="3.427" transform="translate(0 13.708)"/>
      <rect id="Rectangle_173" data-name="Rectangle 173" class="cls-2" width="68" height="3.427" transform="translate(0 6.854)"/>
      <path id="Path_710" data-name="Path 710" class="cls-2" d="M0,245.353a1.173,1.173,0,0,0,1.172,1.172H68V243.1H0Z" transform="translate(0 -222.536)"/>
      <rect id="Rectangle_174" data-name="Rectangle 174" class="cls-2" width="68" height="3.427" transform="translate(0 34.271)"/>
      <path id="Path_711" data-name="Path 711" class="cls-2" d="M69.549,397.92H2.109a5.094,5.094,0,0,0,4.813,3.427H64.736A5.094,5.094,0,0,0,69.549,397.92Z" transform="translate(-1.829 -356.795)"/>
      <rect id="Rectangle_175" data-name="Rectangle 175" class="cls-2" width="68" height="3.427" transform="translate(0 27.417)"/>
    </g>
    <path id="Path_712" data-name="Path 712" class="cls-3" d="M1.172,112.265h29.31a1.173,1.173,0,0,0,1.172-1.172V89.447a1.172,1.172,0,0,0-1.172-1.172H5.093A5.093,5.093,0,0,0,0,93.368v17.724A1.172,1.172,0,0,0,1.172,112.265Z" transform="translate(0 0)"/>
    <g id="Group_765" data-name="Group 765" transform="translate(1.893 90.89)">
      <path id="Path_713" data-name="Path 713" class="cls-1" d="M15.652,108.043l.26.778.82.006a.111.111,0,0,1,.065.2l-.66.487.248.782a.111.111,0,0,1-.17.123l-.667-.477-.667.477a.111.111,0,0,1-.17-.123l.248-.782-.66-.487a.111.111,0,0,1,.065-.2l.82-.006.26-.778A.11.11,0,0,1,15.652,108.043Z" transform="translate(-14.253 -107.968)"/>
      <path id="Path_714" data-name="Path 714" class="cls-1" d="M15.652,138.7l.26.778.82.006a.111.111,0,0,1,.065.2l-.66.487.248.782a.111.111,0,0,1-.17.123l-.667-.477-.667.477a.111.111,0,0,1-.17-.123l.248-.782-.66-.487a.111.111,0,0,1,.065-.2l.82-.006.26-.778A.11.11,0,0,1,15.652,138.7Z" transform="translate(-14.253 -134.551)"/>
      <path id="Path_715" data-name="Path 715" class="cls-1" d="M15.652,169.352l.26.778.82.006a.111.111,0,0,1,.065.2l-.66.487.248.782a.111.111,0,0,1-.17.123l-.667-.477-.667.477a.111.111,0,0,1-.17-.123l.248-.782-.66-.487a.111.111,0,0,1,.065-.2l.82-.006.26-.778A.11.11,0,0,1,15.652,169.352Z" transform="translate(-14.253 -161.134)"/>
      <path id="Path_716" data-name="Path 716" class="cls-1" d="M15.652,200.006l.26.778.82.006a.111.111,0,0,1,.065.2l-.66.487.248.782a.111.111,0,0,1-.17.123l-.667-.477-.667.477a.111.111,0,0,1-.17-.123l.248-.782-.66-.487a.111.111,0,0,1,.065-.2l.82-.006.26-.778A.11.11,0,0,1,15.652,200.006Z" transform="translate(-14.253 -187.717)"/>
      <path id="Path_717" data-name="Path 717" class="cls-1" d="M15.652,230.661l.26.778.82.006a.111.111,0,0,1,.065.2l-.66.487.248.782a.111.111,0,0,1-.17.123l-.667-.477-.667.477a.111.111,0,0,1-.17-.123l.248-.782-.66-.487a.111.111,0,0,1,.065-.2l.82-.006.26-.778A.11.11,0,0,1,15.652,230.661Z" transform="translate(-14.253 -214.3)"/>
      <path id="Path_718" data-name="Path 718" class="cls-1" d="M39.445,123.073l.26.778.82.006a.111.111,0,0,1,.065.2l-.66.487.248.782a.111.111,0,0,1-.17.123l-.667-.477-.667.477a.111.111,0,0,1-.17-.123l.248-.782-.66-.487a.111.111,0,0,1,.065-.2l.82-.006.26-.778A.11.11,0,0,1,39.445,123.073Z" transform="translate(-34.886 -121.001)"/>
      <path id="Path_719" data-name="Path 719" class="cls-1" d="M39.445,153.727l.26.778.82.006a.111.111,0,0,1,.065.2l-.66.487.248.782a.111.111,0,0,1-.17.123l-.667-.477-.667.477a.111.111,0,0,1-.17-.123l.248-.782-.66-.487a.111.111,0,0,1,.065-.2l.82-.006.26-.778A.11.11,0,0,1,39.445,153.727Z" transform="translate(-34.886 -147.584)"/>
      <path id="Path_720" data-name="Path 720" class="cls-1" d="M39.445,184.381l.26.778.82.006a.111.111,0,0,1,.065.2l-.66.487.248.782a.111.111,0,0,1-.17.123l-.667-.477-.667.477a.111.111,0,0,1-.17-.123l.248-.782-.66-.487a.111.111,0,0,1,.065-.2l.82-.006.26-.778A.11.11,0,0,1,39.445,184.381Z" transform="translate(-34.886 -174.167)"/>
      <path id="Path_721" data-name="Path 721" class="cls-1" d="M39.445,215.036l.26.778.82.006a.111.111,0,0,1,.065.2l-.66.487.248.782a.111.111,0,0,1-.17.123l-.667-.477-.667.477a.111.111,0,0,1-.17-.123l.248-.782-.66-.487a.111.111,0,0,1,.065-.2l.82-.006.26-.778A.11.11,0,0,1,39.445,215.036Z" transform="translate(-34.886 -200.75)"/>
      <path id="Path_722" data-name="Path 722" class="cls-1" d="M63.238,108.043l.26.778.82.006a.111.111,0,0,1,.065.2l-.66.487.248.782a.111.111,0,0,1-.17.123l-.667-.477-.667.477a.111.111,0,0,1-.17-.123l.248-.782-.66-.487a.111.111,0,0,1,.065-.2l.82-.006.26-.778A.11.11,0,0,1,63.238,108.043Z" transform="translate(-55.519 -107.968)"/>
      <path id="Path_723" data-name="Path 723" class="cls-1" d="M63.238,138.7l.26.778.82.006a.111.111,0,0,1,.065.2l-.66.487.248.782a.111.111,0,0,1-.17.123l-.667-.477-.667.477a.111.111,0,0,1-.17-.123l.248-.782-.66-.487a.111.111,0,0,1,.065-.2l.82-.006.26-.778A.11.11,0,0,1,63.238,138.7Z" transform="translate(-55.519 -134.551)"/>
      <path id="Path_724" data-name="Path 724" class="cls-1" d="M63.238,169.352l.26.778.82.006a.111.111,0,0,1,.065.2l-.66.487.248.782a.111.111,0,0,1-.17.123l-.667-.477-.667.477a.111.111,0,0,1-.17-.123l.248-.782-.66-.487a.111.111,0,0,1,.065-.2l.82-.006.26-.778A.11.11,0,0,1,63.238,169.352Z" transform="translate(-55.519 -161.134)"/>
      <path id="Path_725" data-name="Path 725" class="cls-1" d="M63.238,200.006l.26.778.82.006a.111.111,0,0,1,.065.2l-.66.487.248.782a.111.111,0,0,1-.17.123l-.667-.477-.667.477a.111.111,0,0,1-.17-.123l.248-.782-.66-.487a.111.111,0,0,1,.065-.2l.82-.006.26-.778A.11.11,0,0,1,63.238,200.006Z" transform="translate(-55.519 -187.717)"/>
      <path id="Path_726" data-name="Path 726" class="cls-1" d="M63.238,230.661l.26.778.82.006a.111.111,0,0,1,.065.2l-.66.487.248.782a.111.111,0,0,1-.17.123l-.667-.477-.667.477a.111.111,0,0,1-.17-.123l.248-.782-.66-.487a.111.111,0,0,1,.065-.2l.82-.006.26-.778A.11.11,0,0,1,63.238,230.661Z" transform="translate(-55.519 -214.3)"/>
      <path id="Path_727" data-name="Path 727" class="cls-1" d="M87.032,123.073l.26.778.82.006a.111.111,0,0,1,.065.2l-.66.487.248.782a.111.111,0,0,1-.17.123l-.667-.477-.667.477a.111.111,0,0,1-.17-.123l.248-.782-.66-.487a.111.111,0,0,1,.065-.2l.82-.006.26-.778A.11.11,0,0,1,87.032,123.073Z" transform="translate(-76.152 -121.001)"/>
      <path id="Path_728" data-name="Path 728" class="cls-1" d="M87.032,153.727l.26.778.82.006a.111.111,0,0,1,.065.2l-.66.487.248.782a.111.111,0,0,1-.17.123l-.667-.477-.667.477a.111.111,0,0,1-.17-.123l.248-.782-.66-.487a.111.111,0,0,1,.065-.2l.82-.006.26-.778A.11.11,0,0,1,87.032,153.727Z" transform="translate(-76.152 -147.584)"/>
      <path id="Path_729" data-name="Path 729" class="cls-1" d="M87.032,184.381l.26.778.82.006a.111.111,0,0,1,.065.2l-.66.487.248.782a.111.111,0,0,1-.17.123l-.667-.477-.667.477a.111.111,0,0,1-.17-.123l.248-.782-.66-.487a.111.111,0,0,1,.065-.2l.82-.006.26-.778A.11.11,0,0,1,87.032,184.381Z" transform="translate(-76.152 -174.167)"/>
      <path id="Path_730" data-name="Path 730" class="cls-1" d="M87.032,215.036l.26.778.82.006a.111.111,0,0,1,.065.2l-.66.487.248.782a.111.111,0,0,1-.17.123l-.667-.477-.667.477a.111.111,0,0,1-.17-.123l.248-.782-.66-.487a.111.111,0,0,1,.065-.2l.82-.006.26-.778A.11.11,0,0,1,87.032,215.036Z" transform="translate(-76.152 -200.75)"/>
      <path id="Path_731" data-name="Path 731" class="cls-1" d="M110.824,108.043l.26.778.82.006a.111.111,0,0,1,.065.2l-.66.487.248.782a.111.111,0,0,1-.17.123l-.668-.477-.667.477a.111.111,0,0,1-.17-.123l.248-.782-.66-.487a.111.111,0,0,1,.065-.2l.82-.006.26-.778A.11.11,0,0,1,110.824,108.043Z" transform="translate(-96.785 -107.968)"/>
      <path id="Path_732" data-name="Path 732" class="cls-1" d="M110.824,138.7l.26.778.82.006a.111.111,0,0,1,.065.2l-.66.487.248.782a.111.111,0,0,1-.17.123l-.668-.477-.667.477a.111.111,0,0,1-.17-.123l.248-.782-.66-.487a.111.111,0,0,1,.065-.2l.82-.006.26-.778A.111.111,0,0,1,110.824,138.7Z" transform="translate(-96.785 -134.551)"/>
      <path id="Path_733" data-name="Path 733" class="cls-1" d="M110.824,169.352l.26.778.82.006a.111.111,0,0,1,.065.2l-.66.487.248.782a.111.111,0,0,1-.17.123l-.668-.477-.667.477a.111.111,0,0,1-.17-.123l.248-.782-.66-.487a.111.111,0,0,1,.065-.2l.82-.006.26-.778A.111.111,0,0,1,110.824,169.352Z" transform="translate(-96.785 -161.134)"/>
      <path id="Path_734" data-name="Path 734" class="cls-1" d="M110.824,200.006l.26.778.82.006a.111.111,0,0,1,.065.2l-.66.487.248.782a.111.111,0,0,1-.17.123l-.668-.477-.667.477a.111.111,0,0,1-.17-.123l.248-.782-.66-.487a.111.111,0,0,1,.065-.2l.82-.006.26-.778A.111.111,0,0,1,110.824,200.006Z" transform="translate(-96.785 -187.717)"/>
      <path id="Path_735" data-name="Path 735" class="cls-1" d="M110.824,230.661l.26.778.82.006a.111.111,0,0,1,.065.2l-.66.487.248.782a.111.111,0,0,1-.17.123l-.668-.477-.667.477a.111.111,0,0,1-.17-.123l.248-.782-.66-.487a.111.111,0,0,1,.065-.2l.82-.006.26-.778A.111.111,0,0,1,110.824,230.661Z" transform="translate(-96.785 -214.3)"/>
      <path id="Path_736" data-name="Path 736" class="cls-1" d="M134.618,123.073l.26.778.82.006a.111.111,0,0,1,.065.2l-.66.487.248.782a.111.111,0,0,1-.17.123l-.667-.477-.667.477a.111.111,0,0,1-.17-.123l.248-.782-.66-.487a.111.111,0,0,1,.065-.2l.82-.006.26-.778A.11.11,0,0,1,134.618,123.073Z" transform="translate(-117.419 -121.001)"/>
      <path id="Path_737" data-name="Path 737" class="cls-1" d="M134.618,153.727l.26.778.82.006a.111.111,0,0,1,.065.2l-.66.487.248.782a.111.111,0,0,1-.17.123l-.667-.477-.667.477a.111.111,0,0,1-.17-.123l.248-.782-.66-.487a.111.111,0,0,1,.065-.2l.82-.006.26-.778A.11.11,0,0,1,134.618,153.727Z" transform="translate(-117.419 -147.584)"/>
      <path id="Path_738" data-name="Path 738" class="cls-1" d="M134.618,184.381l.26.778.82.006a.111.111,0,0,1,.065.2l-.66.487.248.782a.111.111,0,0,1-.17.123l-.667-.477-.667.477a.111.111,0,0,1-.17-.123l.248-.782-.66-.487a.111.111,0,0,1,.065-.2l.82-.006.26-.778A.11.11,0,0,1,134.618,184.381Z" transform="translate(-117.419 -174.167)"/>
      <path id="Path_739" data-name="Path 739" class="cls-1" d="M134.618,215.036l.26.778.82.006a.111.111,0,0,1,.065.2l-.66.487.248.782a.111.111,0,0,1-.17.123l-.667-.477-.667.477a.111.111,0,0,1-.17-.123l.248-.782-.66-.487a.111.111,0,0,1,.065-.2l.82-.006.26-.778A.11.11,0,0,1,134.618,215.036Z" transform="translate(-117.419 -200.75)"/>
      <path id="Path_740" data-name="Path 740" class="cls-1" d="M158.412,108.043l.259.778.82.006a.111.111,0,0,1,.065.2l-.66.487.248.782a.111.111,0,0,1-.17.123l-.667-.477-.667.477a.111.111,0,0,1-.17-.123l.248-.782-.66-.487a.111.111,0,0,1,.065-.2l.82-.006.26-.778A.11.11,0,0,1,158.412,108.043Z" transform="translate(-138.052 -107.968)"/>
      <path id="Path_741" data-name="Path 741" class="cls-1" d="M158.412,138.7l.259.778.82.006a.111.111,0,0,1,.065.2l-.66.487.248.782a.111.111,0,0,1-.17.123l-.667-.477-.667.477a.111.111,0,0,1-.17-.123l.248-.782-.66-.487a.111.111,0,0,1,.065-.2l.82-.006.26-.778A.11.11,0,0,1,158.412,138.7Z" transform="translate(-138.052 -134.551)"/>
      <path id="Path_742" data-name="Path 742" class="cls-1" d="M158.412,169.352l.259.778.82.006a.111.111,0,0,1,.065.2l-.66.487.248.782a.111.111,0,0,1-.17.123l-.667-.477-.667.477a.111.111,0,0,1-.17-.123l.248-.782-.66-.487a.111.111,0,0,1,.065-.2l.82-.006.26-.778A.11.11,0,0,1,158.412,169.352Z" transform="translate(-138.052 -161.134)"/>
      <path id="Path_743" data-name="Path 743" class="cls-1" d="M158.412,200.006l.259.778.82.006a.111.111,0,0,1,.065.2l-.66.487.248.782a.111.111,0,0,1-.17.123l-.667-.477-.667.477a.111.111,0,0,1-.17-.123l.248-.782-.66-.487a.111.111,0,0,1,.065-.2l.82-.006.26-.778A.11.11,0,0,1,158.412,200.006Z" transform="translate(-138.052 -187.717)"/>
      <path id="Path_744" data-name="Path 744" class="cls-1" d="M158.412,230.661l.259.778.82.006a.111.111,0,0,1,.065.2l-.66.487.248.782a.111.111,0,0,1-.17.123l-.667-.477-.667.477a.111.111,0,0,1-.17-.123l.248-.782-.66-.487a.111.111,0,0,1,.065-.2l.82-.006.26-.778A.11.11,0,0,1,158.412,230.661Z" transform="translate(-138.052 -214.3)"/>
      <path id="Path_745" data-name="Path 745" class="cls-1" d="M182.205,123.073l.26.778.82.006a.111.111,0,0,1,.065.2l-.66.487.248.782a.111.111,0,0,1-.17.123l-.667-.477-.667.477a.111.111,0,0,1-.17-.123l.248-.782-.66-.487a.111.111,0,0,1,.065-.2l.82-.006.26-.778A.11.11,0,0,1,182.205,123.073Z" transform="translate(-158.685 -121.001)"/>
      <path id="Path_746" data-name="Path 746" class="cls-1" d="M182.205,153.727l.26.778.82.006a.111.111,0,0,1,.065.2l-.66.487.248.782a.111.111,0,0,1-.17.123l-.667-.477-.667.477a.111.111,0,0,1-.17-.123l.248-.782-.66-.487a.111.111,0,0,1,.065-.2l.82-.006.26-.778A.11.11,0,0,1,182.205,153.727Z" transform="translate(-158.685 -147.584)"/>
      <path id="Path_747" data-name="Path 747" class="cls-1" d="M182.205,184.381l.26.778.82.006a.111.111,0,0,1,.065.2l-.66.487.248.782a.111.111,0,0,1-.17.123l-.667-.477-.667.477a.111.111,0,0,1-.17-.123l.248-.782-.66-.487a.111.111,0,0,1,.065-.2l.82-.006.26-.778A.11.11,0,0,1,182.205,184.381Z" transform="translate(-158.685 -174.167)"/>
      <path id="Path_748" data-name="Path 748" class="cls-1" d="M182.205,215.036l.26.778.82.006a.111.111,0,0,1,.065.2l-.66.487.248.782a.111.111,0,0,1-.17.123l-.667-.477-.667.477a.111.111,0,0,1-.17-.123l.248-.782-.66-.487a.111.111,0,0,1,.065-.2l.82-.006.26-.778A.11.11,0,0,1,182.205,215.036Z" transform="translate(-158.685 -200.75)"/>
      <path id="Path_749" data-name="Path 749" class="cls-1" d="M206,108.043l.26.778.82.006a.111.111,0,0,1,.065.2l-.66.487.248.782a.111.111,0,0,1-.17.123l-.667-.477-.667.477a.111.111,0,0,1-.17-.123l.248-.782-.66-.487a.111.111,0,0,1,.065-.2l.82-.006.26-.778A.11.11,0,0,1,206,108.043Z" transform="translate(-179.319 -107.968)"/>
      <path id="Path_750" data-name="Path 750" class="cls-1" d="M206,138.7l.26.778.82.006a.111.111,0,0,1,.065.2l-.66.487.248.782a.111.111,0,0,1-.17.123l-.667-.477-.667.477a.111.111,0,0,1-.17-.123l.248-.782-.66-.487a.111.111,0,0,1,.065-.2l.82-.006.26-.778A.11.11,0,0,1,206,138.7Z" transform="translate(-179.319 -134.551)"/>
      <path id="Path_751" data-name="Path 751" class="cls-1" d="M206,169.352l.26.778.82.006a.111.111,0,0,1,.065.2l-.66.487.248.782a.111.111,0,0,1-.17.123l-.667-.477-.667.477a.111.111,0,0,1-.17-.123l.248-.782-.66-.487a.111.111,0,0,1,.065-.2l.82-.006.26-.778A.11.11,0,0,1,206,169.352Z" transform="translate(-179.319 -161.134)"/>
      <path id="Path_752" data-name="Path 752" class="cls-1" d="M206,200.006l.26.778.82.006a.111.111,0,0,1,.065.2l-.66.487.248.782a.111.111,0,0,1-.17.123l-.667-.477-.667.477a.111.111,0,0,1-.17-.123l.248-.782-.66-.487a.111.111,0,0,1,.065-.2l.82-.006.26-.778A.11.11,0,0,1,206,200.006Z" transform="translate(-179.319 -187.717)"/>
      <path id="Path_753" data-name="Path 753" class="cls-1" d="M206,230.661l.26.778.82.006a.111.111,0,0,1,.065.2l-.66.487.248.782a.111.111,0,0,1-.17.123l-.667-.477-.667.477a.111.111,0,0,1-.17-.123l.248-.782-.66-.487a.111.111,0,0,1,.065-.2l.82-.006.26-.778A.11.11,0,0,1,206,230.661Z" transform="translate(-179.319 -214.3)"/>
    </g>
  </g>
</svg>
