<svg xmlns="http://www.w3.org/2000/svg" viewBox="-620.792 427.744 23.821 29.259">
  <defs>
    <style>
      .cls-1 {
        opacity: 0.7;
      }

      .cls-2 {
        fill: #0070c9;
      }
    </style>
  </defs>
  <g id="pdf-file" class="cls-1" transform="translate(-620.792 427.744)">
    <path id="Path_783" data-name="Path 783" class="cls-2" d="M119.959,298.188c0-.486-.337-.776-.932-.776a2.061,2.061,0,0,0-.493.047v1.559a1.872,1.872,0,0,0,.4.031C119.567,299.048,119.959,298.728,119.959,298.188Z" transform="translate(-114.059 -279.363)"/>
    <path id="Path_784" data-name="Path 784" class="cls-2" d="M194.344,297.681a2.463,2.463,0,0,0-.54.047v3.453a2.164,2.164,0,0,0,.415.024A1.636,1.636,0,0,0,196,299.357,1.514,1.514,0,0,0,194.344,297.681Z" transform="translate(-184.762 -279.616)"/>
    <path id="Path_785" data-name="Path 785" class="cls-2" d="M61.231,0H49.479a3.119,3.119,0,0,0-3.114,3.114V14.629h-.3a1.255,1.255,0,0,0-1.255,1.255v7.61a1.255,1.255,0,0,0,1.255,1.255h.3v1.4a3.117,3.117,0,0,0,3.114,3.114H65.514a3.117,3.117,0,0,0,3.113-3.114V7.37ZM48.1,17.258a9.837,9.837,0,0,1,1.613-.109,2.53,2.53,0,0,1,1.613.423,1.543,1.543,0,0,1,.564,1.221,1.687,1.687,0,0,1-.485,1.253,2.448,2.448,0,0,1-1.715.556,3.091,3.091,0,0,1-.407-.023v1.887H48.1ZM65.514,27.352H49.479a1.208,1.208,0,0,1-1.206-1.207v-1.4H63.22a1.255,1.255,0,0,0,1.255-1.255v-7.61a1.255,1.255,0,0,0-1.255-1.255H48.273V3.114a1.208,1.208,0,0,1,1.206-1.205L60.517,1.9v4.08a2.16,2.16,0,0,0,2.16,2.16l4-.011.045,18.019A1.207,1.207,0,0,1,65.514,27.352ZM52.65,22.442V17.258a10.748,10.748,0,0,1,1.613-.109,3.4,3.4,0,0,1,2.161.563,2.335,2.335,0,0,1,.892,1.989,2.675,2.675,0,0,1-.877,2.138A3.788,3.788,0,0,1,54,22.52,10.331,10.331,0,0,1,52.65,22.442ZM61.2,19.372v.971H59.3v2.122H58.1V17.188h3.226v.978H59.3v1.206Z" transform="translate(-44.806)"/>
  </g>
</svg>
