<svg xmlns="http://www.w3.org/2000/svg" viewBox="0 0 1295.86 833.84"><defs><style>.cls-1{fill:#e8836b;}.cls-2{fill:#ffbb10;}.cls-3{fill:#e88f7e;}.cls-4{fill:#eaeaea;}.cls-5{fill:#ca4e4b;}.cls-6{fill:#686868;}.cls-7{fill:#afafaf;}.cls-8{fill:#e5a310;}.cls-9{fill:#fff;}.cls-10{fill:#4d1e51;}.cls-11{fill:#563d40;}</style></defs><title>Asset 2</title><g id="Layer_2" data-name="Layer 2"><g id="Layer_1-2" data-name="Layer 1"><rect class="cls-1" x="382.17" y="325.11" width="34.24" height="80.87" transform="translate(116.57 -96.11) rotate(16.04)"/><rect class="cls-2" x="-190.4" y="400.87" width="914.17" height="1" transform="translate(-215.17 395.15) rotate(-55.66)"/><polygon class="cls-2" points="1171.74 501.61 607.09 182.02 11.33 262.62 11.19 261.63 607.29 180.98 607.43 181.06 1172.23 500.74 1171.74 501.61"/><polygon class="cls-2" points="561.3 609.51 561.05 608.54 1237.86 431.8 1018.07 151.91 1132.18 23.72 1132.93 24.39 1019.37 151.95 1239.59 432.38 1238.85 432.58 561.3 609.51"/><path class="cls-3" d="M805.86,733.43l-31-8L814.54,601.2a168.3,168.3,0,0,0,11-44.34L841,413.32l74.54,19.3L889.64,577.26a168.65,168.65,0,0,1-14.32,44Z"/><path class="cls-4" d="M895.64,491.47l-55.78-15-19-4L844,382.16a77.43,77.43,0,0,1,94.38-55.54h0Z"/><polygon class="cls-1" points="362.86 595.99 469.98 700.05 429.2 727.24 374.86 709.43 362.86 643.05 362.86 595.99"/><path class="cls-4" d="M99.84,821h275V621.13c0-93.45-60.58-160.64-136.52-160.64h0c-100.14,0-138.5,132.17-138.5,225.62Z"/><path class="cls-1" d="M227.69,453.19h0l28.72-48.42h0a37.22,37.22,0,0,1,6.36-8c18-17,49.29-13.07,70,8.79,18.71,19.76,22.32,47.42,9.56,65.1h0l-28.6,45.4a39.83,39.83,0,0,1-4.92,7.81l0,0h0a37.5,37.5,0,0,1-6.84,6.52c-19.94,14.62-50.53,6.8-68.34-17.47C219.34,493.58,217.61,469.52,227.69,453.19Z"/><path class="cls-5" d="M256.76,435a58.82,58.82,0,0,0,2.49,16.52c9.72,31.92,28.61,47.88,54.06,52.44,2.49.45,5,.76,7.45,1l21.56-34.21h0c12.76-17.69,9.15-45.33-9.57-65.1-20.7-21.86-52-25.79-70-8.79a37.22,37.22,0,0,0-6.36,8h0Z"/><ellipse class="cls-1" cx="332.05" cy="384.51" rx="105.51" ry="77.25" transform="translate(-103.79 645.56) rotate(-80.11)"/><ellipse class="cls-6" cx="151.92" cy="638.33" rx="43.03" ry="27.38" transform="translate(-210.33 91.23) rotate(-20.12)"/><ellipse class="cls-1" cx="152.97" cy="641.18" rx="39.39" ry="24.66" transform="translate(-211.25 91.76) rotate(-20.12)"/><path class="cls-1" d="M190.43,629.2s12.6,71.38,44.38,90.47c33.77,20.3,132.57,59,132.57,59l-12.66,39.79S200.38,804.21,168.37,763.6s-52.75-110.08-52.75-110.08Z"/><path class="cls-7" d="M186,560.23s5,43.68,10.62,55.87S179.89,600.18,186,560.23Z"/><path class="cls-7" d="M94.81,596.39s5,43.68,10.62,55.87S88.66,636.34,94.81,596.39Z"/><rect class="cls-8" x="179.91" y="804.97" width="195.96" height="16.01" rx="8" ry="8" transform="translate(555.78 1625.95) rotate(-180)"/><path class="cls-2" d="M362.23,821H648.72a11.59,11.59,0,0,0,10.93-7.75l59.41-169.09a11.58,11.58,0,0,0-10.93-15.42H421.64a11.59,11.59,0,0,0-10.93,7.74L351.3,805.55A11.59,11.59,0,0,0,362.23,821Z"/><ellipse class="cls-9" cx="549.5" cy="734.66" rx="22.7" ry="20.86" transform="translate(-361.48 843.21) rotate(-60)"/><path class="cls-7" d="M263.19,545.84l-12.07-7.58a82.38,82.38,0,0,1-36-49.1l-3.06-11.78S202.84,519.67,263.19,545.84Z"/><rect class="cls-4" x="38.98" y="820.98" width="1256.88" height="12.87" transform="translate(1334.84 1654.82) rotate(-180)"/><path class="cls-10" d="M365.6,339.83a185.1,185.1,0,0,0,40.15,9.31c11.64,1.33,18.49-1,26.77-7.36,9.55-7.33,27.2-55.66,9.86-53.77-56.33,6.15-61.11.45-78-7.23-22.23-10.09-47.21-24.7-67.14-16.24-27.63,11.73-27.77,28.31-56.58,104.58-23.79,63-3.26,67.68-3.26,67.68s18.08-9.09,21.31-22.06-5.72-35.75,3.65-49,29-13.94,28.17,2.73a52.38,52.38,0,0,1-9.47,27.69s23.33-29.21,26.67-48.12-13.49-38.66,14.92-25.45C338.63,330,354.65,336,365.6,339.83Z"/><path class="cls-4" d="M1105.86,483.43l-.06.06c-.85-2.88-1.74-5.78-2.7-8.72h0c-20.17-95.08-78.1-223.33-154.87-207-58.22,12.35-90.15,90.56-70,185.64l14,66.12c4.14,19.54,12.1,39.46,22.6,58.08l63.2,255.86h275.39Z"/><path class="cls-1" d="M978.55,262.19h0l-28.72-48.42h0a37.22,37.22,0,0,0-6.36-8c-18-17-49.29-13.07-70,8.79-18.71,19.76-22.32,47.42-9.56,65.1h0l28.6,45.4a39.83,39.83,0,0,0,4.92,7.81l0,0h0a37.5,37.5,0,0,0,6.84,6.52c19.94,14.62,50.53,6.8,68.34-17.47C986.9,302.58,988.63,278.52,978.55,262.19Z"/><path class="cls-5" d="M949.54,238.65a87.26,87.26,0,0,1-9.85,39.86c-10.63,20.09-26.65,30.82-46.76,34.42-2.49.45-5,.76-7.45,1l-21.56-34.21h0c-12.76-17.69-9.15-45.33,9.57-65.1,20.7-21.86,52-25.79,70-8.79a37.22,37.22,0,0,1,6.36,8h0Z"/><ellipse class="cls-1" cx="872.19" cy="193.86" rx="79.3" ry="105.51" transform="translate(-20.34 152.73) rotate(-9.89)"/><path class="cls-7" d="M943.05,354.84l12.07-7.58a82.38,82.38,0,0,0,36-49.1l3.06-11.78S1003.4,328.67,943.05,354.84Z"/><path class="cls-11" d="M786.1,145A24.41,24.41,0,0,0,789,168.25c9,12.35,26.41,29.16,51.83,22.17,32.19-8.85,65.27-33.7,75.46-41.78a39.89,39.89,0,0,0,9.57-10.81c5.53-9.34,9.59-25-12.38-38.11C881.2,80.4,817.44,65.46,786.1,145Z"/><path class="cls-11" d="M795.56,138.43s-13.7,4.06-11.7,36.65c1.75,28.56,10.92,36.3,10.92,36.3Z"/><path class="cls-11" d="M889.49,165.78s13.37,57.06,18.37,53.63-7-43.42,13-50.27,31.33,41.07,31.33,41.07,6.67-53.64-14.83-77.06S889.49,165.78,889.49,165.78Z"/><path class="cls-10" d="M645,488.85l-2,2a6.76,6.76,0,0,0-.7,8.75L713,597.35l19.49-4.88L651.76,489.26A4.53,4.53,0,0,0,645,488.85Z"/><ellipse class="cls-6" cx="997.43" cy="487.03" rx="32.97" ry="51.81" transform="translate(84.5 1118.39) rotate(-60.69)"/><ellipse class="cls-1" cx="992.86" cy="481.82" rx="26.02" ry="41.55" transform="translate(86.71 1111.75) rotate(-60.69)"/><path class="cls-7" d="M962.32,393.32s-5.25,46.08-11.2,58.94S968.81,435.47,962.32,393.32Z"/><path class="cls-7" d="M1062.56,442.47s-5.25,46.08-11.2,58.94S1069.06,484.62,1062.56,442.47Z"/><path class="cls-1" d="M955.86,463s-25.13,72.22-61.45,86.76C862.27,562.66,781.58,594.66,755.48,605c-7.16-3.38-14.11-7.86-15.1-12.79-1.54-7.73-9.12-29.62-16.4-41a6.63,6.63,0,0,0-.4-.8l-10.38-18a8.24,8.24,0,1,0-14.27,8.24l9.44,16.34c.8,7.82-2,22.4-2,22.4s-21.23-10.62-25.48-21.23a118.61,118.61,0,0,0-8.32-17.16l-12.73-17s-8.67,46.88-.18,68.12c8.37,20.91,47.12,39.53,65.1,47.22a16.44,16.44,0,0,0,4.46,1.18l-.15.27s186.92,2.74,227.1-34.16S1029.69,501,1029.69,501Z"/><path class="cls-3" d="M766.77,758.12s-10.19,26.32-37.91,40.31c-27,13.62-54.8,13.13-48.89,22s88.13-8.74,103.82-22.74c17.07-15.23,21.26,20.71,39.63,23s21.64-7.4,21.64-7.4-30.36-20.6-26.3-36.2S766.77,758.12,766.77,758.12Z"/><path class="cls-5" d="M722,821s32.83-7.55,45.83-21.55,25.73-5.25,25.73-5.25-14.73,23.34-44.73,26.8"/><path class="cls-3" d="M766.86,758.43s16-76,29-77,8.15,58,22,88C829.86,795.43,766.86,758.43,766.86,758.43Z"/><path class="cls-1" d="M813.86,246.43s6.51,16.27,3.26,22.78-3.26,14.1,9.76,9.76,10.85-22.78,10.85-22.78Z"/><ellipse class="cls-11" cx="842.52" cy="235.03" rx="4.68" ry="7.02" transform="translate(-31.78 208.88) rotate(-13.87)"/><ellipse class="cls-11" cx="805.52" cy="241.03" rx="4.04" ry="6.06" transform="translate(-33.55 295.02) rotate(-20.34)"/><path class="cls-11" d="M830.14,223.08l-1.7-2.47c.68-.46,16.77-11.39,28.36-7.17l-1,2.82C845.61,212.56,830.29,223,830.14,223.08Z"/><path class="cls-11" d="M790.46,232.7l-1.7-2.47c.68-.47,16.77-11.4,28.36-7.18l-1,2.82C805.93,222.18,790.61,232.59,790.46,232.7Z"/><path class="cls-10" d="M373.79,372.56c-7.72-7.57-26-4.43-26.17-4.39l-.52-3c.81-.14,20-3.43,28.79,5.21Z"/><path class="cls-10" d="M418.38,393.06c-7.72-7.56-26-4.42-26.16-4.39l-.53-2.95c.81-.15,20-3.43,28.79,5.2Z"/><ellipse class="cls-11" cx="782.38" cy="151.93" rx="42.48" ry="39.5"/><path class="cls-6" d="M820.86,472.43s35.67,0,63.33,9l4.06,19.13h0a132.67,132.67,0,0,0-54.73-25.48Z"/><path class="cls-10" d="M347.36,274.77s65.09,8.31,72.8-3.63c0,0,11.31,19.85-12.65,21.56S347.36,274.77,347.36,274.77Z"/><ellipse class="cls-10" cx="361.1" cy="390.89" rx="6.06" ry="4.04" transform="translate(-102.62 651.96) rotate(-76.65)"/><ellipse class="cls-10" cx="405.69" cy="404.2" rx="6.06" ry="4.04" transform="translate(-81.27 705.58) rotate(-76.65)"/><path class="cls-1" d="M404.55,413.32c-5.25,8.06-.2,14-.2,14l-23.08.9Z"/><path class="cls-5" d="M399.44,437.06s9.08-7.35,3.68-11-16.87,3.24-21.85,2.16S385.7,445.39,399.44,437.06Z"/><path class="cls-5" d="M852.42,287.36l-.45-1.95c.27-.07,27.16-6.51,30-22.25l2,.35C880.87,280.54,853.58,287.08,852.42,287.36Z"/><path class="cls-5" d="M365,463.45c-1.16-.27-28.45-6.81-31.48-23.84l2-.35c2.8,15.74,29.69,22.18,30,22.24Z"/><line class="cls-4" x1="708.73" y1="512.93" x2="713.79" y2="489.42"/><path class="cls-4" d="M708.73,514.43a1.73,1.73,0,0,1-.32,0,1.5,1.5,0,0,1-1.15-1.78l5.06-23.52a1.5,1.5,0,0,1,2.94.63l-5.07,23.52A1.49,1.49,0,0,1,708.73,514.43Z"/><line class="cls-4" x1="722.93" y1="529.53" x2="746.8" y2="532.52"/><path class="cls-4" d="M746.8,534l-.18,0-23.87-3a1.5,1.5,0,0,1-1.31-1.67,1.51,1.51,0,0,1,1.68-1.31L747,531a1.5,1.5,0,0,1-.19,3Z"/><line class="cls-4" x1="715.75" y1="519.87" x2="749.16" y2="500.56"/><path class="cls-4" d="M715.75,521.37a1.5,1.5,0,0,1-.75-2.8l33.4-19.31a1.5,1.5,0,0,1,1.51,2.6L716.5,521.17A1.43,1.43,0,0,1,715.75,521.37Z"/><rect class="cls-2" x="542.42" y="23.49" width="1" height="586.11" transform="translate(-18.66 34.43) rotate(-3.57)"/><rect class="cls-2" x="625.1" y="179.59" width="1" height="177.18" transform="translate(-42.02 135.59) rotate(-11.97)"/><circle class="cls-2" cx="524.67" cy="24.05" r="8.02"/><circle class="cls-2" cx="1132.55" cy="24.05" r="8.02"/><circle class="cls-2" cx="1171.98" cy="499.49" r="8.02"/><circle class="cls-2" cx="8.02" cy="778.69" r="8.02"/><circle class="cls-2" cx="607.22" cy="181.51" r="8.02"/><circle class="cls-2" cx="643.97" cy="354.84" r="8.02"/><circle class="cls-2" cx="561.17" cy="609.03" r="8.02"/><circle class="cls-2" cx="241.5" cy="8.02" r="8.02"/><circle class="cls-2" cx="11.28" cy="262.01" r="8.02"/><polygon class="cls-2" points="643.64 355.21 241.54 8.72 13.75 261.48 13 260.81 241.45 7.32 241.82 7.64 644.3 354.46 643.64 355.21"/><path class="cls-2" d="M5.72,474.87a1.5,1.5,0,0,0,0-3,1.5,1.5,0,0,0,0,3Z"/><rect class="cls-4" x="610.66" y="418.62" width="41.24" height="41.24" rx="7.41" ry="7.41" transform="translate(767.07 1196.22) rotate(-135)"/><circle class="cls-6" cx="631.28" cy="439.24" r="4.7"/><rect class="cls-4" x="687.36" y="430.33" width="41.24" height="41.24" rx="7.41" ry="7.41" transform="translate(1160.56 1157.89) rotate(-155.12)"/><circle class="cls-6" cx="711.05" cy="462.21" r="4.7"/><circle class="cls-6" cx="704.83" cy="439.61" r="4.7"/></g></g></svg>