<svg xmlns="http://www.w3.org/2000/svg" viewBox="1071.416 1766 18.507 22.747"><defs><style>.a{fill:#fff;}</style></defs><g transform="translate(1071.416 1766)"><path class="a" d="M25.429,20.583a5.169,5.169,0,0,1,2.462-4.337,5.292,5.292,0,0,0-4.169-2.254c-1.754-.184-3.455,1.05-4.349,1.05-.911,0-2.287-1.031-3.769-1a5.552,5.552,0,0,0-4.672,2.85c-2.02,3.5-.513,8.638,1.422,11.466.968,1.384,2.1,2.931,3.58,2.876,1.449-.06,1.99-.924,3.739-.924,1.733,0,2.24.924,3.751.889,1.555-.025,2.534-1.391,3.469-2.788a11.451,11.451,0,0,0,1.586-3.23,5,5,0,0,1-3.049-4.6Z" transform="translate(-9.972 -8.486)"/><path class="a" d="M22.182,12.367A5.09,5.09,0,0,0,23.346,8.72,5.178,5.178,0,0,0,20,10.454,4.843,4.843,0,0,0,18.8,13.965a4.282,4.282,0,0,0,3.381-1.6Z" transform="translate(-9.578 -8.72)"/></g></svg>