<svg xmlns="http://www.w3.org/2000/svg" viewBox="500 690.72 27 27">
  <defs>
    <style>
      .cls-1 {
        fill: #0070c9;
      }
    </style>
  </defs>
  <g id="down-arrow" transform="translate(500 690.72)">
    <g id="Group_51" data-name="Group 51">
      <path id="Path_354" data-name="Path 354" class="cls-1" d="M27,13.5A13.5,13.5,0,1,0,13.5,27,13.516,13.516,0,0,0,27,13.5Zm-25.651,0A12.151,12.151,0,1,1,13.5,25.651,12.164,12.164,0,0,1,1.349,13.5Z"/>
      <path id="Path_355" data-name="Path 355" class="cls-1" d="M168.95,139.283l3.793-3.793a.674.674,0,1,0-.952-.952l-2.643,2.643v-10.1a.677.677,0,0,0-1.354,0v10.1l-2.643-2.643a.674.674,0,0,0-.953.952l3.793,3.793a.685.685,0,0,0,.958.006Z" transform="translate(-154.971 -119.441)"/>
    </g>
  </g>
</svg>
