<svg xmlns="http://www.w3.org/2000/svg" viewBox="293 9653 19.463 36">
  <defs>
    <style>
      .cls-1 {
        fill: #fff;
      }
    </style>
  </defs>
  <g id="facebook-logo" transform="translate(270.923 9653)">
    <path id="Path_335" data-name="Path 335" class="cls-1" d="M40.808.007,36.139,0C30.894,0,27.5,3.477,27.5,8.86v4.085H22.811a.734.734,0,0,0-.734.734V19.6a.734.734,0,0,0,.734.734H27.5V35.266a.734.734,0,0,0,.734.734h6.124a.734.734,0,0,0,.734-.734V20.332h5.488a.734.734,0,0,0,.734-.734l0-5.919a.735.735,0,0,0-.734-.734H35.1V9.482c0-1.664.4-2.509,2.565-2.509h3.145a.734.734,0,0,0,.734-.734V.742A.734.734,0,0,0,40.808.007Z"/>
  </g>
</svg>
