<svg xmlns="http://www.w3.org/2000/svg" viewBox="663 9652 40 39.167">
  <defs>
    <style>
      .cls-1 {
        fill: #fff;
      }
    </style>
  </defs>
  <g id="github" transform="translate(663 9646.671)">
    <g id="Group_42" data-name="Group 42" transform="translate(0 5.329)">
      <path id="Path_346" data-name="Path 346" class="cls-1" d="M20,5.329A20.092,20.092,0,0,0,13.68,44.461c1,.185,1.365-.435,1.365-.968,0-.478-.017-1.74-.028-3.415C9.455,41.291,8.28,37.386,8.28,37.386a5.3,5.3,0,0,0-2.22-2.937c-1.818-1.245.135-1.22.135-1.22A4.2,4.2,0,0,1,9.258,35.3c1.785,3.068,4.683,2.182,5.823,1.668a4.286,4.286,0,0,1,1.27-2.685c-4.44-.507-9.11-2.23-9.11-9.922a7.783,7.783,0,0,1,2.06-5.39,7.236,7.236,0,0,1,.195-5.312s1.68-.54,5.5,2.057a18.878,18.878,0,0,1,10.015,0c3.817-2.6,5.5-2.058,5.5-2.058a7.246,7.246,0,0,1,.2,5.312,7.768,7.768,0,0,1,2.055,5.39c0,7.713-4.675,9.41-9.13,9.908a4.8,4.8,0,0,1,1.358,3.718c0,2.685-.025,4.85-.025,5.507,0,.537.36,1.162,1.375.965A20.094,20.094,0,0,0,20,5.329Z" transform="translate(0 -5.329)"/>
    </g>
  </g>
</svg>
