<svg xmlns="http://www.w3.org/2000/svg" xmlns:xlink="http://www.w3.org/1999/xlink" viewBox="5060 4513.24 152.76 152.76"><defs><style>.a{fill:url(#a);}.b{fill:url(#b);}.c{fill:url(#c);}</style><linearGradient id="a" x1="0.5" x2="0.5" y2="1" gradientUnits="objectBoundingBox"><stop offset="0" stop-color="#414141" stop-opacity="0.098"/><stop offset="1" stop-color="#646464" stop-opacity="0"/></linearGradient><linearGradient id="b" x1="0.5" x2="0.5" y2="1" gradientUnits="objectBoundingBox"><stop offset="0" stop-color="#fff" stop-opacity="0.169"/><stop offset="1" stop-color="#fff" stop-opacity="0"/></linearGradient><linearGradient id="c" x1="0.5" y1="0.979" x2="0.174" y2="0.135" gradientUnits="objectBoundingBox"><stop offset="0" stop-color="#f66055"/><stop offset="1" stop-color="#f79f55"/></linearGradient></defs><g transform="translate(4880.172 4217)"><g transform="translate(179.828 296.24)"><g transform="translate(17.1 16.53)"><circle class="a" cx="59.565" cy="59.565" r="59.565"/><path d="M-1.987-6.551H-5.43V0h-5.858V-6.551H-23.34v-5.228l11.191-18.477H-5.43v19.022h3.443Zm-9.3-4.682V-24.376L-18.91-11.233ZM7.656-8.146A5.775,5.775,0,0,0,9.02-5.134a3.866,3.866,0,0,0,2.939,1.06,3.967,3.967,0,0,0,3.391-1.564,6.409,6.409,0,0,0,1.165-3.937,6.839,6.839,0,0,0-1.092-3.937,3.824,3.824,0,0,0-3.4-1.606,5.853,5.853,0,0,0-1.89.273,3.756,3.756,0,0,0-2.121,1.869l-5.375-.252L4.779-30.045H21.555v5.081H9.1L8.013-18.309a12.51,12.51,0,0,1,2.163-1.2,9.156,9.156,0,0,1,3.17-.483,9.523,9.523,0,0,1,6.593,2.541q2.813,2.541,2.813,7.391A11.6,11.6,0,0,1,20.043-2.52Q17.335.8,11.939.8A10.765,10.765,0,0,1,4.8-1.533,9.054,9.054,0,0,1,1.693-8.146Z" transform="translate(59.901 71.54)"/><path d="M-35.548-1.079a3.491,3.491,0,0,0,1.054-.133,2.318,2.318,0,0,0,1.206-.952,3.9,3.9,0,0,0,.54-1.447,5.52,5.52,0,0,0,.1-.978,4.552,4.552,0,0,0-.689-2.691,2.544,2.544,0,0,0-2.219-.958H-37.8v7.16Zm-3.523-8.246h3.777A3.56,3.56,0,0,1-32.311-7.96a5.031,5.031,0,0,1,.946,3.155,6.286,6.286,0,0,1-.559,2.685A3.446,3.446,0,0,1-35.307,0h-3.764Zm15.417,5.5-1.416-4.12-1.5,4.12Zm-2.076-5.5H-24.3L-20.918,0H-22.3l-.946-2.793h-3.688L-27.945,0H-29.24Zm5.578,0h1.473L-16-4.843l2.679-4.481h1.479l-3.523,5.567V0h-1.263V-3.758Zm11.52,6.316A2.548,2.548,0,0,0-8.257-1.72a2.482,2.482,0,0,0,2.215.927A3.921,3.921,0,0,0-4.747-1a1.439,1.439,0,0,0,1.13-1.409,1.217,1.217,0,0,0-.476-1.085A4.807,4.807,0,0,0-5.6-4.043l-1.263-.286a5.72,5.72,0,0,1-1.752-.616A1.951,1.951,0,0,1-9.508-6.69a2.688,2.688,0,0,1,.87-2.063A3.489,3.489,0,0,1-6.175-9.56a4.278,4.278,0,0,1,2.491.708A2.554,2.554,0,0,1-2.658-6.589H-3.845a2.336,2.336,0,0,0-.406-1.149,2.36,2.36,0,0,0-1.961-.73A2.269,2.269,0,0,0-7.819-8a1.47,1.47,0,0,0-.489,1.092,1.066,1.066,0,0,0,.571,1A8.384,8.384,0,0,0-6.042-5.4l1.308.3a4.006,4.006,0,0,1,1.46.59,2.211,2.211,0,0,1,.889,1.9A2.369,2.369,0,0,1-3.512-.394,5.046,5.046,0,0,1-6.131.273,3.915,3.915,0,0,1-8.854-.616a3,3,0,0,1-.965-2.393ZM5.426-9.325H6.689v8.214h4.723V0H5.426Zm8.651,0h6.8v1.143H15.308v2.831h5.148v1.079H15.308v3.161H20.97V0H14.077Zm9.971,0h6.468v1.143H25.311v2.831h4.577V-4.24H25.311V0H24.047Zm15.906,0v1.111H36.811V0H35.529V-8.214H32.387V-9.325Z" transform="translate(59.9 90.246)"/><path d="M1.955-3.24a2.744,2.744,0,0,0,.4,1.388,2.673,2.673,0,0,0,2.386,1,4.223,4.223,0,0,0,1.395-.219A1.55,1.55,0,0,0,7.355-2.591,1.31,1.31,0,0,0,6.843-3.76a5.177,5.177,0,0,0-1.627-.595l-1.36-.308a6.16,6.16,0,0,1-1.887-.663,2.1,2.1,0,0,1-.957-1.88,2.9,2.9,0,0,1,.937-2.222A3.757,3.757,0,0,1,4.6-10.295a4.607,4.607,0,0,1,2.683.762A2.751,2.751,0,0,1,8.388-7.1H7.109a2.516,2.516,0,0,0-.437-1.237A2.542,2.542,0,0,0,4.56-9.119a2.443,2.443,0,0,0-1.729.506A1.583,1.583,0,0,0,2.3-7.437a1.148,1.148,0,0,0,.615,1.08,9.028,9.028,0,0,0,1.825.547l1.408.321a4.315,4.315,0,0,1,1.572.636A2.381,2.381,0,0,1,8.682-2.81,2.551,2.551,0,0,1,7.468-.424a5.434,5.434,0,0,1-2.82.718A4.217,4.217,0,0,1,1.716-.663,3.229,3.229,0,0,1,.677-3.24Zm13.6-.875L14.034-8.552l-1.62,4.437Zm-2.235-5.927h1.538L18.5,0h-1.49L16-3.008H12.024L10.938,0H9.543Zm6.419,0H21.1V-1.2h5.086V0H19.742Zm7.916,0h7.321v1.23h-6v3.049h5.544V-4.6H28.984v3.4h6.1V0H27.658ZM44.529-5.8a3.051,3.051,0,0,0,1.34-.239,1.378,1.378,0,0,0,.752-1.354,1.3,1.3,0,0,0-.8-1.326,3.6,3.6,0,0,0-1.34-.191H42.055V-5.8Zm.458,4.635a2.069,2.069,0,0,0,1.784-.725,1.825,1.825,0,0,0,.335-1.107,1.473,1.473,0,0,0-.978-1.49A3.7,3.7,0,0,0,44.755-4.7h-2.7v3.534Zm-4.266-8.88h4.313a2.86,2.86,0,0,1,2.509,1.053,2.433,2.433,0,0,1,.438,1.436A2.26,2.26,0,0,1,47.441-6a2.639,2.639,0,0,1-.807.588,3.413,3.413,0,0,1,1.155.663,2.406,2.406,0,0,1,.677,1.812,2.8,2.8,0,0,1-.608,1.757A3.426,3.426,0,0,1,44.967,0H40.722Z" transform="translate(36.901 30.23)"/></g><g transform="translate(0)"><path class="b" d="M76.38,152.76a76.024,76.024,0,0,1-42.705-13.044A76.6,76.6,0,0,1,6,106.111a76.28,76.28,0,0,1,7.042-72.435A76.6,76.6,0,0,1,46.65,6a76.279,76.279,0,0,1,72.435,7.042A76.6,76.6,0,0,1,146.757,46.65a76.279,76.279,0,0,1-7.042,72.435,76.6,76.6,0,0,1-33.6,27.673A75.9,75.9,0,0,1,76.38,152.76Zm-.215-144.6a68.01,68.01,0,1,0,68.009,68.009A68.086,68.086,0,0,0,76.165,8.156Z" transform="translate(0 0)"/><path class="c" d="M64.228,152.76h-.2v-.008a4.275,4.275,0,0,1,0-8.531v-.045a68.557,68.557,0,0,0,13.492-1.381,67.654,67.654,0,0,0,24.318-10.233,68.214,68.214,0,0,0,24.64-29.923,67.645,67.645,0,0,0,3.963-12.766,68.681,68.681,0,0,0,0-27.412,67.645,67.645,0,0,0-10.233-24.319A68.205,68.205,0,0,0,90.284,13.5,67.641,67.641,0,0,0,77.518,9.538a68.653,68.653,0,0,0-27.413,0A67.636,67.636,0,0,0,25.787,19.771a68.393,68.393,0,0,0-18.37,18.37c-.218.323-.437.652-.649.98L0,34.716c.234-.359.467-.709.691-1.041A76.594,76.594,0,0,1,34.3,6,75.96,75.96,0,0,1,48.633,1.552a77.122,77.122,0,0,1,30.786,0,75.972,75.972,0,0,1,27.311,11.493A76.6,76.6,0,0,1,134.4,46.65a75.946,75.946,0,0,1,4.451,14.337,77.122,77.122,0,0,1,0,30.787,75.977,75.977,0,0,1-11.493,27.311,76.605,76.605,0,0,1-33.6,27.673,76.021,76.021,0,0,1-14.337,4.451,76.945,76.945,0,0,1-14.992,1.55l-.117,0Z" transform="translate(12.354)"/></g></g></g></svg>