<svg xmlns="http://www.w3.org/2000/svg" xmlns:xlink="http://www.w3.org/1999/xlink" viewBox="1238.432 5880.593 596.13 387.907">
  <defs>
    <style>
      .cls-1 {
        fill: #50adff;
        font-size: 15px;
        font-family: Helvetica;
      }

      .cls-2 {
        fill: #e73d5d;
      }

      .cls-3 {
        fill: #ffbb10;
      }

      .cls-4 {
        fill: #5e3361;
      }

      .cls-10, .cls-11, .cls-12, .cls-13, .cls-5, .cls-9 {
        fill: none;
      }

      .cls-6 {
        fill: #f79f55;
      }

      .cls-7 {
        fill: #5485f3;
      }

      .cls-8 {
        fill: #fff;
      }

      .cls-9 {
        stroke: #5485f3;
      }

      .cls-10, .cls-11, .cls-12, .cls-13, .cls-9 {
        stroke-miterlimit: 10;
      }

      .cls-10 {
        stroke: #e73d5d;
      }

      .cls-11 {
        stroke: #ffbb10;
      }

      .cls-12 {
        stroke: #5e3361;
      }

      .cls-13 {
        stroke: #f79f55;
      }

      .cls-14 {
        fill: #f59d54;
      }

      .cls-15 {
        fill: #2a2e3d;
      }

      .cls-16 {
        filter: url(#Path_1144);
      }
    </style>
    <filter id="Path_1144" x="1428.767" y="5880.593" width="332.139" height="387.907" filterUnits="userSpaceOnUse">
      <feOffset dy="-4" input="SourceAlpha"/>
      <feGaussianBlur stdDeviation="15" result="blur"/>
      <feFlood flood-opacity="0.102"/>
      <feComposite operator="in" in2="blur"/>
      <feComposite in="SourceGraphic"/>
    </filter>
  </defs>
  <g id="Group_956" data-name="Group 956" transform="translate(592 175)">
    <g id="Group_908" data-name="Group 908" transform="translate(876.385 6005.199)">
      <text id="More_in_the_whitepaper" data-name="More in the whitepaper" class="cls-1" transform="translate(19.935 20.645)"><tspan x="0" y="0">More in the whitepaper</tspan></text>
    </g>
    <g id="Group_955" data-name="Group 955">
      <g id="Group_941" data-name="Group 941" transform="translate(612.432 5713.716)">
        <g id="Group_919" data-name="Group 919" transform="translate(235.492 40.877)">
          <g id="Group_914" data-name="Group 914" transform="translate(0 148.602)">
            <path id="Path_1139" data-name="Path 1139" class="cls-2" d="M192.9,322.4c.021,0,0-.119,0,0A130.718,130.718,0,0,0,241.757,424.46L323.085,322.4H192.9Z" transform="translate(-192.9 -322.344)"/>
          </g>
          <g id="Group_915" data-name="Group 915" transform="translate(0.06 82.878)">
            <path id="Path_1140" data-name="Path 1140" class="cls-3" d="M210.934,212A129.666,129.666,0,0,0,193,277.778H323.185Z" transform="translate(-193 -212)"/>
          </g>
          <g id="Group_916" data-name="Group 916" transform="translate(17.994 47.606)">
            <path id="Path_1141" data-name="Path 1141" class="cls-4" d="M253.427,152.8A130.519,130.519,0,0,0,223.1,188.072L335.351,253.85Z" transform="translate(-223.1 -152.8)"/>
          </g>
          <path id="Path_1142" data-name="Path 1142" class="cls-5" d="M274,133.035A129.838,129.838,0,0,1,355.924,103.9" transform="translate(-225.68 -85.43)"/>
          <g id="Group_917" data-name="Group 917" transform="translate(48.261 18.47)">
            <path id="Path_1143" data-name="Path 1143" class="cls-6" d="M355.824,234.085V103.9A129.962,129.962,0,0,0,273.9,133.035Z" transform="translate(-273.9 -103.9)"/>
          </g>
          <g id="Group_918" data-name="Group 918" transform="translate(33.842)">
            <g class="cls-16" transform="matrix(1, 0, 0, 1, -1473.77, -5929.59)">
              <path id="Path_1144-2" data-name="Path 1144" class="cls-7" d="M249.7,338.037A148.947,148.947,0,1,0,342.885,72.9h-.357V221.5Z" transform="translate(1224.07 5856.69)"/>
            </g>
          </g>
        </g>
        <path id="Path_1266" data-name="Path 1266" class="cls-8" d="M73.881,0A73.881,73.881,0,1,1,0,73.881,73.881,73.881,0,0,1,73.881,0Z" transform="translate(292.095 115.353)"/>
        <path id="Path_1145" data-name="Path 1145" class="cls-9" d="M655.6,306.683,677.883,284.4h96.369" transform="translate(-146.323 -116.559)"/>
        <circle id="Ellipse_370" data-name="Ellipse 370" class="cls-7" cx="4" cy="4" r="4" transform="translate(622.13 163.857)"/>
        <path id="Path_1172" data-name="Path 1172" class="cls-10" d="M145.86,445.9l-39.92,25.62H-17.151" transform="translate(123.594 -182.785)"/>
        <ellipse id="Ellipse_371" data-name="Ellipse 371" class="cls-2" cx="4" cy="3.984" rx="4" ry="3.984" transform="translate(103.523 284.632)"/>
        <path id="Path_1173" data-name="Path 1173" class="cls-11" d="M117.286,253.582l-15.723-11.67H-88.5" transform="translate(125.356 -79.919)"/>
        <ellipse id="Ellipse_372" data-name="Ellipse 372" class="cls-3" cx="4" cy="3.984" rx="4" ry="3.984" transform="translate(34 157.747)"/>
        <path id="Path_1196" data-name="Path 1196" class="cls-12" d="M148.229,171.053,113.076,135.9-.7,135.9H-26.673" transform="translate(123.608 -57.487)"/>
        <ellipse id="Ellipse_373" data-name="Ellipse 373" class="cls-4" cx="4" cy="3.984" rx="4" ry="3.984" transform="translate(92.276 74.191)"/>
        <path id="Path_1212" data-name="Path 1212" class="cls-13" d="M184.494,90.245l-21.61-51.709H20.549" transform="translate(152.314 -16.646)"/>
        <circle id="Ellipse_374" data-name="Ellipse 374" class="cls-6" cx="4" cy="4" r="4" transform="translate(168.62 17.953)"/>
        <path id="Path_1269" data-name="Path 1269" class="cls-7" d="M-10.511-15.125v1.687a17.968,17.968,0,0,0-1.971,2.5A25.378,25.378,0,0,0-14.658-7.09a26.282,26.282,0,0,0-1.418,3.663Q-16.387-2.363-16.881,0h-2.138A26.325,26.325,0,0,1-15.8-8.766,27.75,27.75,0,0,1-12.7-13.181H-21.21v-1.944Zm6.682-.258a4.545,4.545,0,0,1,4.318,2.46A11.006,11.006,0,0,1,1.52-7.713,12.546,12.546,0,0,1,.585-2.524,4.575,4.575,0,0,1-3.84.419,4.432,4.432,0,0,1-7.965-1.987,11.018,11.018,0,0,1-9.093-7.38a13.324,13.324,0,0,1,.677-4.5Q-7.149-15.383-3.83-15.383Zm-.021,14.04a2.752,2.752,0,0,0,2.4-1.332q.892-1.332.892-4.963a12.262,12.262,0,0,0-.645-4.313,2.452,2.452,0,0,0-2.5-1.692,2.617,2.617,0,0,0-2.5,1.606A11.09,11.09,0,0,0-7-7.3a11.62,11.62,0,0,0,.5,3.781A2.752,2.752,0,0,0-3.851-1.343Zm21.3-6.134a3.6,3.6,0,0,1,2.643,1.1,3.6,3.6,0,0,1,1.1,2.643,3.6,3.6,0,0,1-1.1,2.643A3.6,3.6,0,0,1,17.451,0,3.614,3.614,0,0,1,14.8-1.1a3.6,3.6,0,0,1-1.1-2.643,3.6,3.6,0,0,1,1.1-2.643A3.614,3.614,0,0,1,17.451-7.477Zm-1.558-7.842h1.192L8.481.408H7.289ZM6.9-8.959a2.143,2.143,0,0,0,1.574-.65,2.131,2.131,0,0,0,.65-1.563,2.131,2.131,0,0,0-.65-1.563,2.143,2.143,0,0,0-1.574-.65,2.14,2.14,0,0,0-1.563.645,2.126,2.126,0,0,0-.65,1.568,2.131,2.131,0,0,0,.65,1.563A2.131,2.131,0,0,0,6.9-8.959Zm0-5.962a3.6,3.6,0,0,1,2.653,1.1,3.619,3.619,0,0,1,1.1,2.648,3.6,3.6,0,0,1-1.1,2.643A3.614,3.614,0,0,1,6.9-7.434a3.6,3.6,0,0,1-2.643-1.1,3.6,3.6,0,0,1-1.1-2.643,3.619,3.619,0,0,1,1.1-2.648A3.593,3.593,0,0,1,6.9-14.921Zm10.549,13.4a2.131,2.131,0,0,0,1.563-.65,2.131,2.131,0,0,0,.65-1.563,2.131,2.131,0,0,0-.65-1.563,2.131,2.131,0,0,0-1.563-.65,2.143,2.143,0,0,0-1.574.65,2.131,2.131,0,0,0-.65,1.563,2.131,2.131,0,0,0,.65,1.563A2.143,2.143,0,0,0,17.451-1.525Z" transform="translate(595.568 159.343)"/>
        <path id="Path_1265" data-name="Path 1265" class="cls-14" d="M11.5-15.125v1.687a17.968,17.968,0,0,0-1.971,2.5A25.378,25.378,0,0,0,7.358-7.09,26.282,26.282,0,0,0,5.94-3.427Q5.629-2.363,5.135,0H3A26.325,26.325,0,0,1,6.22-8.766a27.75,27.75,0,0,1,3.094-4.415H.806v-1.944ZM27.231-7.477a3.6,3.6,0,0,1,2.643,1.1,3.6,3.6,0,0,1,1.1,2.643,3.6,3.6,0,0,1-1.1,2.643A3.6,3.6,0,0,1,27.231,0a3.614,3.614,0,0,1-2.653-1.1,3.6,3.6,0,0,1-1.1-2.643,3.6,3.6,0,0,1,1.1-2.643A3.614,3.614,0,0,1,27.231-7.477Zm-1.558-7.842h1.192L18.262.408H17.069ZM16.683-8.959a2.143,2.143,0,0,0,1.574-.65,2.131,2.131,0,0,0,.65-1.563,2.131,2.131,0,0,0-.65-1.563,2.143,2.143,0,0,0-1.574-.65,2.14,2.14,0,0,0-1.563.645,2.126,2.126,0,0,0-.65,1.568,2.131,2.131,0,0,0,.65,1.563A2.131,2.131,0,0,0,16.683-8.959Zm0-5.962a3.6,3.6,0,0,1,2.653,1.1,3.619,3.619,0,0,1,1.1,2.648,3.6,3.6,0,0,1-1.1,2.643,3.614,3.614,0,0,1-2.653,1.1,3.6,3.6,0,0,1-2.643-1.1,3.6,3.6,0,0,1-1.1-2.643,3.619,3.619,0,0,1,1.1-2.648A3.593,3.593,0,0,1,16.683-14.921Zm10.549,13.4a2.131,2.131,0,0,0,1.563-.65,2.131,2.131,0,0,0,.65-1.563,2.131,2.131,0,0,0-.65-1.563,2.131,2.131,0,0,0-1.563-.65,2.143,2.143,0,0,0-1.574.65,2.131,2.131,0,0,0-.65,1.563,2.131,2.131,0,0,0,.65,1.563A2.143,2.143,0,0,0,27.231-1.525Z" transform="translate(180.365 16)"/>
        <path id="Path_1264" data-name="Path 1264" class="cls-14" d="M6.555-6.219a3.013,3.013,0,0,0,1.73-.437,1.781,1.781,0,0,0,.637-1.578,1.693,1.693,0,0,0-.891-1.672,2.911,2.911,0,0,0-1.273-.234h-3.8v3.922ZM1.406-11.477H6.719a5.3,5.3,0,0,1,2.164.383A2.71,2.71,0,0,1,10.5-8.383,3.049,3.049,0,0,1,10.074-6.7,3.077,3.077,0,0,1,8.883-5.641a2.348,2.348,0,0,1,1.012.719,2.581,2.581,0,0,1,.379,1.445l.055,1.539a4.731,4.731,0,0,0,.109.977.96.96,0,0,0,.5.7V0H9.031a1.434,1.434,0,0,1-.125-.383,7.348,7.348,0,0,1-.078-.906L8.734-3.2A1.608,1.608,0,0,0,7.9-4.711a3.458,3.458,0,0,0-1.4-.211H2.961V0H1.406ZM16.07-8.555a3.817,3.817,0,0,1,1.727.418A3.184,3.184,0,0,1,19.07-7.055a3.733,3.733,0,0,1,.563,1.477,9.661,9.661,0,0,1,.125,1.844H13.625a3.579,3.579,0,0,0,.6,2.043,2.014,2.014,0,0,0,1.742.77,2.252,2.252,0,0,0,1.758-.727,2.449,2.449,0,0,0,.531-.977h1.383A2.912,2.912,0,0,1,19.277-1.6a3.654,3.654,0,0,1-.691.926A3.277,3.277,0,0,1,17,.172,4.818,4.818,0,0,1,15.852.3,3.524,3.524,0,0,1,13.2-.84a4.423,4.423,0,0,1-1.086-3.184A4.809,4.809,0,0,1,13.211-7.3,3.608,3.608,0,0,1,16.07-8.555Zm2.242,3.7a3.643,3.643,0,0,0-.4-1.461,2.042,2.042,0,0,0-1.93-1.016,2.139,2.139,0,0,0-1.625.7,2.641,2.641,0,0,0-.7,1.777ZM22.32-2.625a2.045,2.045,0,0,0,.352,1.078,2.209,2.209,0,0,0,1.844.68,2.719,2.719,0,0,0,1.375-.34,1.129,1.129,0,0,0,.594-1.051.9.9,0,0,0-.477-.82,5.666,5.666,0,0,0-1.2-.4l-1.117-.281a5.45,5.45,0,0,1-1.578-.594A1.775,1.775,0,0,1,21.2-5.93a2.411,2.411,0,0,1,.855-1.922,3.413,3.413,0,0,1,2.3-.734,3.194,3.194,0,0,1,2.727,1.109,2.407,2.407,0,0,1,.508,1.516H26.266a1.627,1.627,0,0,0-.336-.867,2.143,2.143,0,0,0-1.68-.555,2.008,2.008,0,0,0-1.207.3.955.955,0,0,0-.41.8.991.991,0,0,0,.539.875,3.239,3.239,0,0,0,.922.344l.93.227a7.188,7.188,0,0,1,2.031.711,1.882,1.882,0,0,1,.82,1.7,2.584,2.584,0,0,1-.848,1.93A3.608,3.608,0,0,1,24.445.32,3.464,3.464,0,0,1,21.8-.527a3.206,3.206,0,0,1-.832-2.1Zm10.648-5.93a3.817,3.817,0,0,1,1.727.418,3.184,3.184,0,0,1,1.273,1.082,3.733,3.733,0,0,1,.563,1.477,9.661,9.661,0,0,1,.125,1.844H30.523a3.579,3.579,0,0,0,.6,2.043,2.014,2.014,0,0,0,1.742.77,2.252,2.252,0,0,0,1.758-.727,2.449,2.449,0,0,0,.531-.977h1.383A2.912,2.912,0,0,1,36.176-1.6a3.654,3.654,0,0,1-.691.926A3.277,3.277,0,0,1,33.9.172,4.818,4.818,0,0,1,32.75.3,3.524,3.524,0,0,1,30.1-.84a4.423,4.423,0,0,1-1.086-3.184A4.809,4.809,0,0,1,30.109-7.3,3.608,3.608,0,0,1,32.969-8.555Zm2.242,3.7a3.643,3.643,0,0,0-.4-1.461,2.042,2.042,0,0,0-1.93-1.016,2.139,2.139,0,0,0-1.625.7,2.641,2.641,0,0,0-.7,1.777Zm3.211-3.516h1.336v1.445a3.193,3.193,0,0,1,.8-1.027,2.086,2.086,0,0,1,1.477-.605q.039,0,.133.008l.32.031v1.484a2.1,2.1,0,0,0-.23-.031q-.105-.008-.23-.008a2.007,2.007,0,0,0-1.633.684,2.386,2.386,0,0,0-.57,1.574V0H38.422Zm5.977,0,2.234,6.813,2.336-6.812h1.539L47.352,0h-1.5L42.766-8.367Zm10.8-.187a3.817,3.817,0,0,1,1.727.418A3.184,3.184,0,0,1,58.2-7.055a3.733,3.733,0,0,1,.563,1.477,9.661,9.661,0,0,1,.125,1.844H52.75a3.579,3.579,0,0,0,.6,2.043,2.014,2.014,0,0,0,1.742.77,2.252,2.252,0,0,0,1.758-.727,2.449,2.449,0,0,0,.531-.977h1.383A2.912,2.912,0,0,1,58.4-1.6a3.654,3.654,0,0,1-.691.926,3.277,3.277,0,0,1-1.586.844A4.818,4.818,0,0,1,54.977.3,3.524,3.524,0,0,1,52.328-.84a4.423,4.423,0,0,1-1.086-3.184A4.809,4.809,0,0,1,52.336-7.3,3.608,3.608,0,0,1,55.2-8.555Zm2.242,3.7a3.643,3.643,0,0,0-.4-1.461,2.042,2.042,0,0,0-1.93-1.016,2.139,2.139,0,0,0-1.625.7,2.641,2.641,0,0,0-.7,1.777Zm4.063.766a4.148,4.148,0,0,0,.57,2.25A2,2,0,0,0,63.9-.93,1.925,1.925,0,0,0,65.5-1.77a3.966,3.966,0,0,0,.629-2.41,3.564,3.564,0,0,0-.648-2.348,2.023,2.023,0,0,0-1.6-.762,2.114,2.114,0,0,0-1.723.813A3.721,3.721,0,0,0,61.5-4.086Zm2.117-4.43a2.977,2.977,0,0,1,1.609.406,3.78,3.78,0,0,1,.852.82v-4.227H67.43V0H66.164V-1.164A3.043,3.043,0,0,1,65-.047,3.332,3.332,0,0,1,63.461.3,3.117,3.117,0,0,1,61.039-.879a4.6,4.6,0,0,1-1.023-3.129,5.4,5.4,0,0,1,.934-3.168A3.057,3.057,0,0,1,63.617-8.516Zm10.672-2.961H82.25v1.406H75.844v3.484h5.633v1.367H75.844V0H74.289ZM85.133-8.367v5.555a2.342,2.342,0,0,0,.2,1.047,1.417,1.417,0,0,0,1.4.75,1.977,1.977,0,0,0,2-1.312,5.207,5.207,0,0,0,.289-1.93V-8.367H90.43V0H89.1l.016-1.234a2.837,2.837,0,0,1-.68.8,2.991,2.991,0,0,1-1.953.656,2.519,2.519,0,0,1-2.437-1.2A3.56,3.56,0,0,1,83.7-2.68V-8.367Zm7.492,0h1.336V-7.18a3.747,3.747,0,0,1,1.258-1.055,3.354,3.354,0,0,1,1.477-.32A2.435,2.435,0,0,1,99.1-7.312a4.411,4.411,0,0,1,.344,1.945V0h-1.43V-5.273a2.856,2.856,0,0,0-.227-1.234,1.374,1.374,0,0,0-1.359-.781,2.768,2.768,0,0,0-.82.1,2.113,2.113,0,0,0-1.016.688,2.07,2.07,0,0,0-.457.855,5.758,5.758,0,0,0-.105,1.262V0H92.625Zm9.789,4.281a4.147,4.147,0,0,0,.57,2.25,2,2,0,0,0,1.828.906,1.925,1.925,0,0,0,1.605-.84,3.966,3.966,0,0,0,.629-2.41,3.564,3.564,0,0,0-.648-2.348,2.023,2.023,0,0,0-1.6-.762,2.114,2.114,0,0,0-1.723.813A3.721,3.721,0,0,0,102.414-4.086Zm2.117-4.43a2.977,2.977,0,0,1,1.609.406,3.78,3.78,0,0,1,.852.82v-4.227h1.352V0h-1.266V-1.164a3.043,3.043,0,0,1-1.164,1.117A3.332,3.332,0,0,1,104.375.3a3.117,3.117,0,0,1-2.422-1.176,4.6,4.6,0,0,1-1.023-3.129,5.4,5.4,0,0,1,.934-3.168A3.057,3.057,0,0,1,104.531-8.516Z" transform="translate(180.365 40.631)"/>
        <path id="Path_1263" data-name="Path 1263" class="cls-4" d="M5.715.419a4.834,4.834,0,0,1-3.958-1.5A5.561,5.561,0,0,1,.526-4.727h2.02A5.009,5.009,0,0,0,3.1-2.557,2.938,2.938,0,0,0,5.822-1.343a3.563,3.563,0,0,0,2.449-.816A2.681,2.681,0,0,0,9.2-4.265a2.451,2.451,0,0,0-.972-2.224,4.919,4.919,0,0,0-2.7-.634q-.193,0-.392.005t-.4.016V-8.809q.3.032.5.043t.44.011A4.037,4.037,0,0,0,7.455-9.1,2.184,2.184,0,0,0,8.68-11.247a2.1,2.1,0,0,0-.816-1.772,3.046,3.046,0,0,0-1.9-.623,2.819,2.819,0,0,0-2.675,1.289,4.468,4.468,0,0,0-.462,2.02H.913A5.8,5.8,0,0,1,1.6-13.256,4.335,4.335,0,0,1,5.758-15.4,5.634,5.634,0,0,1,9.4-14.357a3.683,3.683,0,0,1,1.289,3.035,3.387,3.387,0,0,1-.763,2.3A3.2,3.2,0,0,1,8.7-8.164,3.338,3.338,0,0,1,10.6-6.88a3.884,3.884,0,0,1,.682,2.326A4.74,4.74,0,0,1,9.829-.967,5.72,5.72,0,0,1,5.715.419Zm21.517-7.9a3.6,3.6,0,0,1,2.643,1.1,3.6,3.6,0,0,1,1.1,2.643,3.6,3.6,0,0,1-1.1,2.643A3.6,3.6,0,0,1,27.231,0a3.614,3.614,0,0,1-2.653-1.1,3.6,3.6,0,0,1-1.1-2.643,3.6,3.6,0,0,1,1.1-2.643A3.614,3.614,0,0,1,27.231-7.477Zm-1.558-7.842h1.192L18.262.408H17.069ZM16.683-8.959a2.143,2.143,0,0,0,1.574-.65,2.131,2.131,0,0,0,.65-1.563,2.131,2.131,0,0,0-.65-1.563,2.143,2.143,0,0,0-1.574-.65,2.14,2.14,0,0,0-1.563.645,2.126,2.126,0,0,0-.65,1.568,2.131,2.131,0,0,0,.65,1.563A2.131,2.131,0,0,0,16.683-8.959Zm0-5.962a3.6,3.6,0,0,1,2.653,1.1,3.619,3.619,0,0,1,1.1,2.648,3.6,3.6,0,0,1-1.1,2.643,3.614,3.614,0,0,1-2.653,1.1,3.6,3.6,0,0,1-2.643-1.1,3.6,3.6,0,0,1-1.1-2.643,3.619,3.619,0,0,1,1.1-2.648A3.593,3.593,0,0,1,16.683-14.921Zm10.549,13.4a2.131,2.131,0,0,0,1.563-.65,2.131,2.131,0,0,0,.65-1.563,2.131,2.131,0,0,0-.65-1.563,2.131,2.131,0,0,0-1.563-.65,2.143,2.143,0,0,0-1.574.65,2.131,2.131,0,0,0-.65,1.563,2.131,2.131,0,0,0,.65,1.563A2.143,2.143,0,0,0,27.231-1.525Z" transform="translate(106.515 70.11)"/>
        <path id="Path_1261" data-name="Path 1261" class="cls-3" d="M2.718-3.921A2.681,2.681,0,0,0,4.254-1.633a3.707,3.707,0,0,0,1.59.322,2.984,2.984,0,0,0,2.546-1.1,3.935,3.935,0,0,0,.827-2.428,3.173,3.173,0,0,0-.983-2.492,3.412,3.412,0,0,0-2.358-.881,3.551,3.551,0,0,0-1.713.387A3.67,3.67,0,0,0,2.943-6.746l-1.676-.1,1.171-8.282h7.992v1.869H3.889L3.233-8.98a4.8,4.8,0,0,1,1.021-.612,5.18,5.18,0,0,1,1.987-.354A5.084,5.084,0,0,1,9.829-8.583,4.512,4.512,0,0,1,11.3-5.124,5.935,5.935,0,0,1,9.953-1.278,5.214,5.214,0,0,1,5.65.387,5.48,5.48,0,0,1,2.326-.671,4.2,4.2,0,0,1,.709-3.921ZM27.231-7.477a3.6,3.6,0,0,1,2.643,1.1,3.6,3.6,0,0,1,1.1,2.643,3.6,3.6,0,0,1-1.1,2.643A3.6,3.6,0,0,1,27.231,0a3.614,3.614,0,0,1-2.653-1.1,3.6,3.6,0,0,1-1.1-2.643,3.6,3.6,0,0,1,1.1-2.643A3.614,3.614,0,0,1,27.231-7.477Zm-1.558-7.842h1.192L18.262.408H17.069ZM16.683-8.959a2.143,2.143,0,0,0,1.574-.65,2.131,2.131,0,0,0,.65-1.563,2.131,2.131,0,0,0-.65-1.563,2.143,2.143,0,0,0-1.574-.65,2.14,2.14,0,0,0-1.563.645,2.126,2.126,0,0,0-.65,1.568,2.131,2.131,0,0,0,.65,1.563A2.131,2.131,0,0,0,16.683-8.959Zm0-5.962a3.6,3.6,0,0,1,2.653,1.1,3.619,3.619,0,0,1,1.1,2.648,3.6,3.6,0,0,1-1.1,2.643,3.614,3.614,0,0,1-2.653,1.1,3.6,3.6,0,0,1-2.643-1.1,3.6,3.6,0,0,1-1.1-2.643,3.619,3.619,0,0,1,1.1-2.648A3.593,3.593,0,0,1,16.683-14.921Zm10.549,13.4a2.131,2.131,0,0,0,1.563-.65,2.131,2.131,0,0,0,.65-1.563,2.131,2.131,0,0,0-.65-1.563,2.131,2.131,0,0,0-1.563-.65,2.143,2.143,0,0,0-1.574.65,2.131,2.131,0,0,0-.65,1.563,2.131,2.131,0,0,0,.65,1.563A2.143,2.143,0,0,0,27.231-1.525Z" transform="translate(48.087 151.749)"/>
        <path id="Path_1259" data-name="Path 1259" class="cls-2" d="M2.105-10.893v-1.482a7.877,7.877,0,0,0,2.922-.682,3.362,3.362,0,0,0,1.235-2.261H7.788V0H5.726V-10.893ZM14.953-3.921a2.681,2.681,0,0,0,1.536,2.288,3.707,3.707,0,0,0,1.59.322,2.984,2.984,0,0,0,2.546-1.1,3.935,3.935,0,0,0,.827-2.428,3.173,3.173,0,0,0-.983-2.492,3.412,3.412,0,0,0-2.358-.881A3.551,3.551,0,0,0,16.4-7.82a3.67,3.67,0,0,0-1.219,1.074l-1.676-.1,1.171-8.282h7.992v1.869H16.124L15.469-8.98a4.8,4.8,0,0,1,1.021-.612,5.18,5.18,0,0,1,1.987-.354,5.084,5.084,0,0,1,3.588,1.364,4.512,4.512,0,0,1,1.472,3.459,5.935,5.935,0,0,1-1.348,3.846,5.214,5.214,0,0,1-4.3,1.665A5.48,5.48,0,0,1,14.561-.671a4.2,4.2,0,0,1-1.617-3.25ZM39.467-7.477a3.6,3.6,0,0,1,2.643,1.1,3.6,3.6,0,0,1,1.1,2.643,3.6,3.6,0,0,1-1.1,2.643A3.6,3.6,0,0,1,39.467,0a3.614,3.614,0,0,1-2.653-1.1,3.6,3.6,0,0,1-1.1-2.643,3.6,3.6,0,0,1,1.1-2.643A3.614,3.614,0,0,1,39.467-7.477Zm-1.558-7.842H39.1L30.5.408H29.3ZM28.918-8.959a2.143,2.143,0,0,0,1.574-.65,2.131,2.131,0,0,0,.65-1.563,2.131,2.131,0,0,0-.65-1.563,2.143,2.143,0,0,0-1.574-.65,2.14,2.14,0,0,0-1.563.645,2.126,2.126,0,0,0-.65,1.568,2.131,2.131,0,0,0,.65,1.563A2.131,2.131,0,0,0,28.918-8.959Zm0-5.962a3.6,3.6,0,0,1,2.653,1.1,3.619,3.619,0,0,1,1.1,2.648,3.6,3.6,0,0,1-1.1,2.643,3.614,3.614,0,0,1-2.653,1.1,3.6,3.6,0,0,1-2.643-1.1,3.6,3.6,0,0,1-1.1-2.643,3.619,3.619,0,0,1,1.1-2.648A3.593,3.593,0,0,1,28.918-14.921Zm10.549,13.4a2.131,2.131,0,0,0,1.563-.65,2.131,2.131,0,0,0,.65-1.563A2.131,2.131,0,0,0,41.03-5.3a2.131,2.131,0,0,0-1.563-.65,2.143,2.143,0,0,0-1.574.65,2.131,2.131,0,0,0-.65,1.563,2.131,2.131,0,0,0,.65,1.563A2.143,2.143,0,0,0,39.467-1.525Z" transform="translate(116.515 280.055)"/>
        <path id="Path_1262" data-name="Path 1262" class="cls-4" d="M5.531-6.625A3.487,3.487,0,0,0,7.063-6.9a1.575,1.575,0,0,0,.859-1.547,1.491,1.491,0,0,0-.914-1.516,4.108,4.108,0,0,0-1.531-.219H2.7v3.555Zm.523,5.3a2.365,2.365,0,0,0,2.039-.828,2.085,2.085,0,0,0,.383-1.266,1.684,1.684,0,0,0-1.117-1.7,4.229,4.229,0,0,0-1.57-.242H2.7v4.039ZM1.18-11.477h4.93a3.268,3.268,0,0,1,2.867,1.2,2.78,2.78,0,0,1,.5,1.641,2.583,2.583,0,0,1-.617,1.781,3.016,3.016,0,0,1-.922.672,3.9,3.9,0,0,1,1.32.758,2.75,2.75,0,0,1,.773,2.07,3.2,3.2,0,0,1-.7,2.008A3.916,3.916,0,0,1,6.031,0H1.18ZM15.023-.906a1.939,1.939,0,0,0,1.918-1.059,5.274,5.274,0,0,0,.52-2.355,4.194,4.194,0,0,0-.375-1.906,2.11,2.11,0,0,0-2.047-1.156,2.018,2.018,0,0,0-1.875.984,4.563,4.563,0,0,0-.586,2.375A3.969,3.969,0,0,0,13.164-1.8,2.064,2.064,0,0,0,15.023-.906Zm.055-7.7a3.789,3.789,0,0,1,2.734,1.078A4.21,4.21,0,0,1,18.93-4.359a5.442,5.442,0,0,1-.984,3.344A3.561,3.561,0,0,1,14.891.3,3.449,3.449,0,0,1,12.148-.863,4.613,4.613,0,0,1,11.133-4,4.991,4.991,0,0,1,12.2-7.359,3.592,3.592,0,0,1,15.078-8.609Zm6.93.242v5.555a2.342,2.342,0,0,0,.2,1.047,1.417,1.417,0,0,0,1.4.75,1.977,1.977,0,0,0,2-1.312,5.207,5.207,0,0,0,.289-1.93V-8.367H27.3V0H25.977l.016-1.234a2.837,2.837,0,0,1-.68.8,2.991,2.991,0,0,1-1.953.656,2.519,2.519,0,0,1-2.437-1.2A3.56,3.56,0,0,1,20.57-2.68V-8.367Zm7.492,0h1.336V-7.18a3.747,3.747,0,0,1,1.258-1.055,3.354,3.354,0,0,1,1.477-.32,2.435,2.435,0,0,1,2.406,1.242,4.411,4.411,0,0,1,.344,1.945V0h-1.43V-5.273a2.856,2.856,0,0,0-.227-1.234A1.374,1.374,0,0,0,33.3-7.289a2.768,2.768,0,0,0-.82.1,2.113,2.113,0,0,0-1.016.688,2.07,2.07,0,0,0-.457.855,5.758,5.758,0,0,0-.105,1.262V0H29.5ZM38.68-10.7H40.1v2.336h1.336v1.148H40.1v5.461a.591.591,0,0,0,.3.586,1.262,1.262,0,0,0,.547.086q.1,0,.219,0t.273-.02V0a3.139,3.139,0,0,1-.5.1,4.791,4.791,0,0,1-.566.031,1.527,1.527,0,0,1-1.336-.5A2.239,2.239,0,0,1,38.68-1.68V-7.219H37.547V-8.367H38.68ZM48.07-8.367h1.555q-.3.8-1.32,3.672-.766,2.156-1.281,3.516A23.768,23.768,0,0,1,45.3,2.727a1.965,1.965,0,0,1-1.719.7,3.372,3.372,0,0,1-.457-.023,3.61,3.61,0,0,1-.395-.086V2.039a4.851,4.851,0,0,0,.531.125,2.074,2.074,0,0,0,.289.023,1.012,1.012,0,0,0,.574-.129,1.189,1.189,0,0,0,.309-.316q.039-.062.281-.641T45.07.242L41.977-8.367H43.57l2.242,6.813Zm7.555-3.109h5.164a3.5,3.5,0,0,1,2.469.863A3.133,3.133,0,0,1,64.2-8.187a3.527,3.527,0,0,1-.836,2.34,3.167,3.167,0,0,1-2.57,1H57.18V0H55.625Zm7,3.3A1.727,1.727,0,0,0,61.688-9.9a3.385,3.385,0,0,0-1.414-.242H57.18v3.977h3.094a2.957,2.957,0,0,0,1.7-.445A1.765,1.765,0,0,0,62.625-8.18ZM66-8.367h1.336v1.445a3.193,3.193,0,0,1,.8-1.027,2.086,2.086,0,0,1,1.477-.605q.039,0,.133.008l.32.031v1.484a2.1,2.1,0,0,0-.23-.031q-.105-.008-.23-.008a2.007,2.007,0,0,0-1.633.684,2.386,2.386,0,0,0-.57,1.574V0H66ZM74.609-.906a1.939,1.939,0,0,0,1.918-1.059,5.274,5.274,0,0,0,.52-2.355,4.194,4.194,0,0,0-.375-1.906,2.11,2.11,0,0,0-2.047-1.156A2.018,2.018,0,0,0,72.75-6.4a4.563,4.563,0,0,0-.586,2.375A3.969,3.969,0,0,0,72.75-1.8,2.064,2.064,0,0,0,74.609-.906Zm.055-7.7A3.789,3.789,0,0,1,77.4-7.531a4.21,4.21,0,0,1,1.117,3.172,5.442,5.442,0,0,1-.984,3.344A3.561,3.561,0,0,1,74.477.3,3.449,3.449,0,0,1,71.734-.863,4.613,4.613,0,0,1,70.719-4a4.991,4.991,0,0,1,1.07-3.359A3.592,3.592,0,0,1,74.664-8.609Zm8.477.094a3.05,3.05,0,0,1,1.719.484,3.86,3.86,0,0,1,.813.8V-8.289h1.3V-.68A5.611,5.611,0,0,1,86.5,1.836a3.366,3.366,0,0,1-3.3,1.7,4.054,4.054,0,0,1-2.273-.605,2.361,2.361,0,0,1-1.031-1.895h1.43a1.591,1.591,0,0,0,.406.867,2.071,2.071,0,0,0,1.5.469,2.064,2.064,0,0,0,2.117-1.141,6.424,6.424,0,0,0,.273-2.4A2.759,2.759,0,0,1,84.6-.211,3.379,3.379,0,0,1,83.031.1a3.352,3.352,0,0,1-2.379-.965,4.243,4.243,0,0,1-1.02-3.191A4.833,4.833,0,0,1,80.66-7.336,3.177,3.177,0,0,1,83.141-8.516Zm2.531,4.3a3.488,3.488,0,0,0-.641-2.3,2.052,2.052,0,0,0-1.633-.75,2.016,2.016,0,0,0-2.031,1.391,5.453,5.453,0,0,0-.289,1.945,3.453,3.453,0,0,0,.574,2.152,1.854,1.854,0,0,0,1.543.738,2.166,2.166,0,0,0,2.133-1.367A4.41,4.41,0,0,0,85.672-4.219Zm3.453-4.148h1.336v1.445a3.193,3.193,0,0,1,.8-1.027,2.086,2.086,0,0,1,1.477-.605q.039,0,.133.008l.32.031v1.484a2.1,2.1,0,0,0-.23-.031q-.105-.008-.23-.008a2.007,2.007,0,0,0-1.633.684,2.386,2.386,0,0,0-.57,1.574V0H89.125Zm6.367,6.141a1.158,1.158,0,0,0,.445.961,1.651,1.651,0,0,0,1.055.352,3.207,3.207,0,0,0,1.438-.344A1.935,1.935,0,0,0,99.6-3.125V-4.258a2.406,2.406,0,0,1-.664.273,5.659,5.659,0,0,1-.8.156l-.852.109a3.257,3.257,0,0,0-1.148.32A1.248,1.248,0,0,0,95.492-2.227ZM98.9-5.07a.764.764,0,0,0,.648-.406,1.236,1.236,0,0,0,.094-.539,1.142,1.142,0,0,0-.512-1.043,2.745,2.745,0,0,0-1.465-.324,1.861,1.861,0,0,0-1.562.594,1.953,1.953,0,0,0-.336.977H94.453a2.416,2.416,0,0,1,1-2.152A4.122,4.122,0,0,1,97.7-8.57a4.554,4.554,0,0,1,2.4.563,1.908,1.908,0,0,1,.914,1.75v4.82a.617.617,0,0,0,.09.352.433.433,0,0,0,.379.133q.094,0,.211-.012t.25-.035V.039a3.916,3.916,0,0,1-.5.117,3.654,3.654,0,0,1-.469.023,1.157,1.157,0,0,1-1.055-.516,1.99,1.99,0,0,1-.242-.773,3.578,3.578,0,0,1-1.234.977,3.818,3.818,0,0,1-1.773.414,2.637,2.637,0,0,1-1.9-.707,2.349,2.349,0,0,1-.738-1.77A2.279,2.279,0,0,1,94.75-4a3.457,3.457,0,0,1,1.906-.789Zm4.414-3.3H104.7V-7.18a4.674,4.674,0,0,1,.906-.9,2.726,2.726,0,0,1,1.578-.477,2.484,2.484,0,0,1,1.609.492,2.573,2.573,0,0,1,.625.828,3.039,3.039,0,0,1,1.1-1,3.073,3.073,0,0,1,1.422-.324,2.325,2.325,0,0,1,2.3,1.219,3.984,3.984,0,0,1,.328,1.766V0h-1.461V-5.812a1.354,1.354,0,0,0-.418-1.148,1.654,1.654,0,0,0-1.02-.312,2.024,2.024,0,0,0-1.426.555,2.436,2.436,0,0,0-.6,1.852V0h-1.43V-5.461a2.837,2.837,0,0,0-.2-1.242,1.239,1.239,0,0,0-1.2-.586,2.062,2.062,0,0,0-1.449.617,3.025,3.025,0,0,0-.652,2.234V0h-1.406Z" transform="translate(106.515 95.69)"/>
        <path id="Path_1260" data-name="Path 1260" class="cls-3" d="M1.367-11.477H9.328v1.406H2.922v3.484H8.555v1.367H2.922V0H1.367ZM10.8-8.328h1.43V0H10.8Zm0-3.148h1.43v1.594H10.8ZM14.4-8.367h1.336v1.445a3.193,3.193,0,0,1,.8-1.027,2.086,2.086,0,0,1,1.477-.605q.039,0,.133.008l.32.031v1.484a2.1,2.1,0,0,0-.23-.031q-.105-.008-.23-.008a2.007,2.007,0,0,0-1.633.684,2.386,2.386,0,0,0-.57,1.574V0H14.4Zm6.125,5.742a2.045,2.045,0,0,0,.352,1.078,2.209,2.209,0,0,0,1.844.68,2.719,2.719,0,0,0,1.375-.34,1.129,1.129,0,0,0,.594-1.051.9.9,0,0,0-.477-.82,5.666,5.666,0,0,0-1.2-.4l-1.117-.281a5.45,5.45,0,0,1-1.578-.594,1.775,1.775,0,0,1-.906-1.578,2.411,2.411,0,0,1,.855-1.922,3.413,3.413,0,0,1,2.3-.734,3.194,3.194,0,0,1,2.727,1.109A2.407,2.407,0,0,1,25.8-5.961H24.469a1.627,1.627,0,0,0-.336-.867,2.143,2.143,0,0,0-1.68-.555,2.008,2.008,0,0,0-1.207.3.955.955,0,0,0-.41.8.991.991,0,0,0,.539.875,3.239,3.239,0,0,0,.922.344l.93.227a7.188,7.188,0,0,1,2.031.711,1.882,1.882,0,0,1,.82,1.7,2.584,2.584,0,0,1-.848,1.93A3.608,3.608,0,0,1,22.648.32,3.464,3.464,0,0,1,20-.527a3.206,3.206,0,0,1-.832-2.1ZM27.969-10.7h1.422v2.336h1.336v1.148H29.391v5.461a.591.591,0,0,0,.3.586,1.262,1.262,0,0,0,.547.086q.1,0,.219,0t.273-.02V0a3.139,3.139,0,0,1-.5.1,4.791,4.791,0,0,1-.566.031,1.527,1.527,0,0,1-1.336-.5,2.239,2.239,0,0,1-.352-1.309V-7.219H26.836V-8.367h1.133ZM41.078-6.625A3.487,3.487,0,0,0,42.609-6.9a1.575,1.575,0,0,0,.859-1.547,1.491,1.491,0,0,0-.914-1.516,4.108,4.108,0,0,0-1.531-.219H38.25v3.555Zm.523,5.3a2.365,2.365,0,0,0,2.039-.828,2.085,2.085,0,0,0,.383-1.266,1.684,1.684,0,0,0-1.117-1.7,4.229,4.229,0,0,0-1.57-.242H38.25v4.039ZM36.727-11.477h4.93a3.268,3.268,0,0,1,2.867,1.2,2.78,2.78,0,0,1,.5,1.641,2.583,2.583,0,0,1-.617,1.781,3.016,3.016,0,0,1-.922.672,3.9,3.9,0,0,1,1.32.758,2.75,2.75,0,0,1,.773,2.07,3.2,3.2,0,0,1-.7,2.008A3.916,3.916,0,0,1,41.578,0H36.727ZM50.57-.906a1.939,1.939,0,0,0,1.918-1.059,5.274,5.274,0,0,0,.52-2.355,4.194,4.194,0,0,0-.375-1.906,2.11,2.11,0,0,0-2.047-1.156,2.018,2.018,0,0,0-1.875.984,4.563,4.563,0,0,0-.586,2.375A3.969,3.969,0,0,0,48.711-1.8,2.064,2.064,0,0,0,50.57-.906Zm.055-7.7a3.789,3.789,0,0,1,2.734,1.078,4.21,4.21,0,0,1,1.117,3.172,5.442,5.442,0,0,1-.984,3.344A3.561,3.561,0,0,1,50.438.3,3.449,3.449,0,0,1,47.7-.863,4.613,4.613,0,0,1,46.68-4a4.991,4.991,0,0,1,1.07-3.359A3.592,3.592,0,0,1,50.625-8.609Zm5.523.242h1.336V-7.18a3.747,3.747,0,0,1,1.258-1.055,3.354,3.354,0,0,1,1.477-.32,2.435,2.435,0,0,1,2.406,1.242,4.411,4.411,0,0,1,.344,1.945V0h-1.43V-5.273a2.856,2.856,0,0,0-.227-1.234,1.374,1.374,0,0,0-1.359-.781,2.768,2.768,0,0,0-.82.1,2.113,2.113,0,0,0-1.016.688,2.07,2.07,0,0,0-.457.855,5.758,5.758,0,0,0-.105,1.262V0H56.148Zm10.3,0v5.555a2.342,2.342,0,0,0,.2,1.047,1.417,1.417,0,0,0,1.4.75,1.977,1.977,0,0,0,2-1.312,5.207,5.207,0,0,0,.289-1.93V-8.367H71.75V0H70.422l.016-1.234a2.837,2.837,0,0,1-.68.8A2.991,2.991,0,0,1,67.8.227a2.519,2.519,0,0,1-2.437-1.2,3.56,3.56,0,0,1-.352-1.711V-8.367Zm8.328,5.742a2.045,2.045,0,0,0,.352,1.078,2.209,2.209,0,0,0,1.844.68,2.719,2.719,0,0,0,1.375-.34,1.129,1.129,0,0,0,.594-1.051.9.9,0,0,0-.477-.82,5.666,5.666,0,0,0-1.2-.4l-1.117-.281a5.45,5.45,0,0,1-1.578-.594,1.775,1.775,0,0,1-.906-1.578,2.411,2.411,0,0,1,.855-1.922,3.413,3.413,0,0,1,2.3-.734,3.194,3.194,0,0,1,2.727,1.109,2.407,2.407,0,0,1,.508,1.516H78.727a1.627,1.627,0,0,0-.336-.867,2.143,2.143,0,0,0-1.68-.555,2.008,2.008,0,0,0-1.207.3.955.955,0,0,0-.41.8.991.991,0,0,0,.539.875,3.239,3.239,0,0,0,.922.344l.93.227a7.188,7.188,0,0,1,2.031.711,1.882,1.882,0,0,1,.82,1.7,2.584,2.584,0,0,1-.848,1.93A3.608,3.608,0,0,1,76.906.32a3.464,3.464,0,0,1-2.645-.848,3.206,3.206,0,0,1-.832-2.1Zm19.867-8.852v1.367H90.781V0H89.2V-10.109H85.336v-1.367ZM97.43-.906a1.939,1.939,0,0,0,1.918-1.059,5.274,5.274,0,0,0,.52-2.355,4.194,4.194,0,0,0-.375-1.906,2.11,2.11,0,0,0-2.047-1.156A2.018,2.018,0,0,0,95.57-6.4a4.563,4.563,0,0,0-.586,2.375A3.969,3.969,0,0,0,95.57-1.8,2.064,2.064,0,0,0,97.43-.906Zm.055-7.7a3.789,3.789,0,0,1,2.734,1.078,4.21,4.21,0,0,1,1.117,3.172,5.442,5.442,0,0,1-.984,3.344A3.561,3.561,0,0,1,97.3.3,3.449,3.449,0,0,1,94.555-.863,4.613,4.613,0,0,1,93.539-4a4.991,4.991,0,0,1,1.07-3.359A3.592,3.592,0,0,1,97.484-8.609Zm6.93.242v5.555a2.342,2.342,0,0,0,.2,1.047,1.417,1.417,0,0,0,1.4.75,1.977,1.977,0,0,0,2-1.312,5.207,5.207,0,0,0,.289-1.93V-8.367h1.406V0h-1.328l.016-1.234a2.837,2.837,0,0,1-.68.8,2.991,2.991,0,0,1-1.953.656,2.519,2.519,0,0,1-2.437-1.2,3.56,3.56,0,0,1-.352-1.711V-8.367Zm7.531,0h1.336v1.445a3.193,3.193,0,0,1,.8-1.027,2.086,2.086,0,0,1,1.477-.605q.039,0,.133.008l.32.031v1.484a2.1,2.1,0,0,0-.23-.031q-.105-.008-.23-.008a2.007,2.007,0,0,0-1.633.684,2.386,2.386,0,0,0-.57,1.574V0h-1.406Zm5.289,0h1.336V-7.18a3.747,3.747,0,0,1,1.258-1.055,3.354,3.354,0,0,1,1.477-.32,2.435,2.435,0,0,1,2.406,1.242,4.411,4.411,0,0,1,.344,1.945V0h-1.43V-5.273a2.856,2.856,0,0,0-.227-1.234,1.374,1.374,0,0,0-1.359-.781,2.768,2.768,0,0,0-.82.1A2.113,2.113,0,0,0,119.2-6.5a2.07,2.07,0,0,0-.457.855,5.758,5.758,0,0,0-.105,1.262V0h-1.406Zm9.977,6.141a1.158,1.158,0,0,0,.445.961,1.651,1.651,0,0,0,1.055.352,3.207,3.207,0,0,0,1.438-.344,1.935,1.935,0,0,0,1.172-1.867V-4.258a2.406,2.406,0,0,1-.664.273,5.658,5.658,0,0,1-.8.156l-.852.109a3.257,3.257,0,0,0-1.148.32A1.248,1.248,0,0,0,127.211-2.227Zm3.406-2.844a.764.764,0,0,0,.648-.406,1.236,1.236,0,0,0,.094-.539,1.142,1.142,0,0,0-.512-1.043,2.745,2.745,0,0,0-1.465-.324,1.861,1.861,0,0,0-1.562.594,1.953,1.953,0,0,0-.336.977h-1.312a2.416,2.416,0,0,1,1-2.152,4.122,4.122,0,0,1,2.238-.605,4.554,4.554,0,0,1,2.4.563,1.908,1.908,0,0,1,.914,1.75v4.82a.617.617,0,0,0,.09.352.433.433,0,0,0,.379.133q.094,0,.211-.012t.25-.035V.039a3.917,3.917,0,0,1-.5.117,3.654,3.654,0,0,1-.469.023,1.157,1.157,0,0,1-1.055-.516,1.99,1.99,0,0,1-.242-.773,3.578,3.578,0,0,1-1.234.977,3.818,3.818,0,0,1-1.773.414,2.637,2.637,0,0,1-1.9-.707,2.349,2.349,0,0,1-.738-1.77,2.279,2.279,0,0,1,.727-1.8,3.457,3.457,0,0,1,1.906-.789Zm4.414-3.3h1.391V-7.18a4.674,4.674,0,0,1,.906-.9,2.726,2.726,0,0,1,1.578-.477,2.484,2.484,0,0,1,1.609.492,2.573,2.573,0,0,1,.625.828,3.039,3.039,0,0,1,1.1-1,3.073,3.073,0,0,1,1.422-.324,2.325,2.325,0,0,1,2.3,1.219,3.984,3.984,0,0,1,.328,1.766V0h-1.461V-5.812a1.354,1.354,0,0,0-.418-1.148,1.654,1.654,0,0,0-1.02-.312,2.024,2.024,0,0,0-1.426.555,2.436,2.436,0,0,0-.6,1.852V0h-1.43V-5.461a2.837,2.837,0,0,0-.2-1.242,1.239,1.239,0,0,0-1.2-.586,2.062,2.062,0,0,0-1.449.617,3.025,3.025,0,0,0-.652,2.234V0h-1.406Zm16.813-.187a3.817,3.817,0,0,1,1.727.418,3.184,3.184,0,0,1,1.273,1.082,3.733,3.733,0,0,1,.563,1.477,9.661,9.661,0,0,1,.125,1.844H149.4a3.579,3.579,0,0,0,.6,2.043,2.014,2.014,0,0,0,1.742.77,2.252,2.252,0,0,0,1.758-.727,2.449,2.449,0,0,0,.531-.977h1.383a2.912,2.912,0,0,1-.363,1.027,3.654,3.654,0,0,1-.691.926,3.277,3.277,0,0,1-1.586.844A4.818,4.818,0,0,1,151.625.3,3.524,3.524,0,0,1,148.977-.84a4.423,4.423,0,0,1-1.086-3.184A4.809,4.809,0,0,1,148.984-7.3,3.608,3.608,0,0,1,151.844-8.555Zm2.242,3.7a3.643,3.643,0,0,0-.4-1.461,2.042,2.042,0,0,0-1.93-1.016,2.139,2.139,0,0,0-1.625.7,2.641,2.641,0,0,0-.7,1.777Zm3.172-3.516h1.336V-7.18a3.747,3.747,0,0,1,1.258-1.055,3.354,3.354,0,0,1,1.477-.32,2.435,2.435,0,0,1,2.406,1.242,4.411,4.411,0,0,1,.344,1.945V0h-1.43V-5.273a2.855,2.855,0,0,0-.227-1.234,1.374,1.374,0,0,0-1.359-.781,2.768,2.768,0,0,0-.82.1,2.113,2.113,0,0,0-1.016.688,2.07,2.07,0,0,0-.457.855,5.758,5.758,0,0,0-.105,1.262V0h-1.406Zm9.18-2.336h1.422v2.336H169.2v1.148h-1.336v5.461a.591.591,0,0,0,.3.586,1.262,1.262,0,0,0,.547.086q.1,0,.219,0t.273-.02V0a3.139,3.139,0,0,1-.5.1,4.791,4.791,0,0,1-.566.031,1.527,1.527,0,0,1-1.336-.5,2.239,2.239,0,0,1-.352-1.309V-7.219H165.3V-8.367h1.133Z" transform="translate(48.037 178.278)"/>
        <path id="Path_1258" data-name="Path 1258" class="cls-2" d="M1.367-11.477H6.531A3.5,3.5,0,0,1,9-10.613a3.133,3.133,0,0,1,.938,2.426A3.527,3.527,0,0,1,9.1-5.848a3.167,3.167,0,0,1-2.57,1H2.922V0H1.367Zm7,3.3A1.727,1.727,0,0,0,7.43-9.9a3.385,3.385,0,0,0-1.414-.242H2.922v3.977H6.016a2.957,2.957,0,0,0,1.7-.445A1.765,1.765,0,0,0,8.367-8.18Zm3.375-.187h1.336v1.445a3.193,3.193,0,0,1,.8-1.027,2.086,2.086,0,0,1,1.477-.605q.039,0,.133.008l.32.031v1.484a2.1,2.1,0,0,0-.23-.031q-.105-.008-.23-.008a2.007,2.007,0,0,0-1.633.684,2.386,2.386,0,0,0-.57,1.574V0H11.742ZM20.352-.906A1.939,1.939,0,0,0,22.27-1.965a5.274,5.274,0,0,0,.52-2.355,4.194,4.194,0,0,0-.375-1.906,2.11,2.11,0,0,0-2.047-1.156,2.018,2.018,0,0,0-1.875.984,4.563,4.563,0,0,0-.586,2.375A3.969,3.969,0,0,0,18.492-1.8,2.064,2.064,0,0,0,20.352-.906Zm.055-7.7a3.789,3.789,0,0,1,2.734,1.078,4.21,4.21,0,0,1,1.117,3.172,5.442,5.442,0,0,1-.984,3.344A3.561,3.561,0,0,1,20.219.3,3.449,3.449,0,0,1,17.477-.863,4.613,4.613,0,0,1,16.461-4a4.991,4.991,0,0,1,1.07-3.359A3.592,3.592,0,0,1,20.406-8.609Zm6.93-1.242H25.93v-1.625h1.406ZM24.6,2.117a2.8,2.8,0,0,0,1.137-.168q.191-.137.191-.855V-8.328h1.406v9.57a2.525,2.525,0,0,1-.3,1.367,2.053,2.053,0,0,1-1.867.766q-.1,0-.215-.008T24.6,3.336ZM32.969-8.555a3.817,3.817,0,0,1,1.727.418,3.184,3.184,0,0,1,1.273,1.082,3.733,3.733,0,0,1,.563,1.477,9.661,9.661,0,0,1,.125,1.844H30.523a3.579,3.579,0,0,0,.6,2.043,2.014,2.014,0,0,0,1.742.77,2.252,2.252,0,0,0,1.758-.727,2.449,2.449,0,0,0,.531-.977h1.383A2.912,2.912,0,0,1,36.176-1.6a3.654,3.654,0,0,1-.691.926A3.277,3.277,0,0,1,33.9.172,4.818,4.818,0,0,1,32.75.3,3.524,3.524,0,0,1,30.1-.84a4.423,4.423,0,0,1-1.086-3.184A4.809,4.809,0,0,1,30.109-7.3,3.608,3.608,0,0,1,32.969-8.555Zm2.242,3.7a3.643,3.643,0,0,0-.4-1.461,2.042,2.042,0,0,0-1.93-1.016,2.139,2.139,0,0,0-1.625.7,2.641,2.641,0,0,0-.7,1.777Zm6.4-3.758a3.648,3.648,0,0,1,2.3.688,3.294,3.294,0,0,1,1.066,2.367H43.609a2.524,2.524,0,0,0-.57-1.285,1.8,1.8,0,0,0-1.43-.512,1.975,1.975,0,0,0-1.922,1.313,5.214,5.214,0,0,0-.375,2.1,3.955,3.955,0,0,0,.531,2.117,1.822,1.822,0,0,0,1.672.859A1.828,1.828,0,0,0,42.9-1.5a2.943,2.943,0,0,0,.707-1.465h1.367A3.67,3.67,0,0,1,43.8-.527a3.656,3.656,0,0,1-2.4.77,3.2,3.2,0,0,1-2.617-1.2,4.59,4.59,0,0,1-.977-3,5.048,5.048,0,0,1,1.07-3.43A3.459,3.459,0,0,1,41.609-8.609ZM46.664-10.7h1.422v2.336h1.336v1.148H48.086v5.461a.591.591,0,0,0,.3.586,1.262,1.262,0,0,0,.547.086q.1,0,.219,0t.273-.02V0a3.139,3.139,0,0,1-.5.1,4.791,4.791,0,0,1-.566.031,1.527,1.527,0,0,1-1.336-.5,2.239,2.239,0,0,1-.352-1.309V-7.219H45.531V-8.367h1.133Zm16.867-.773v1.367H59.664V0H58.086V-10.109H54.219v-1.367Zm2.945,2.922a3.817,3.817,0,0,1,1.727.418,3.184,3.184,0,0,1,1.273,1.082,3.733,3.733,0,0,1,.563,1.477,9.66,9.66,0,0,1,.125,1.844H64.031a3.579,3.579,0,0,0,.6,2.043,2.014,2.014,0,0,0,1.742.77,2.252,2.252,0,0,0,1.758-.727,2.449,2.449,0,0,0,.531-.977h1.383A2.912,2.912,0,0,1,69.684-1.6a3.654,3.654,0,0,1-.691.926,3.277,3.277,0,0,1-1.586.844A4.818,4.818,0,0,1,66.258.3,3.524,3.524,0,0,1,63.609-.84a4.423,4.423,0,0,1-1.086-3.184A4.809,4.809,0,0,1,63.617-7.3,3.608,3.608,0,0,1,66.477-8.555Zm2.242,3.7a3.643,3.643,0,0,0-.4-1.461,2.042,2.042,0,0,0-1.93-1.016,2.139,2.139,0,0,0-1.625.7,2.641,2.641,0,0,0-.7,1.777Zm4.25,2.625a1.158,1.158,0,0,0,.445.961,1.651,1.651,0,0,0,1.055.352,3.207,3.207,0,0,0,1.438-.344,1.935,1.935,0,0,0,1.172-1.867V-4.258a2.406,2.406,0,0,1-.664.273,5.659,5.659,0,0,1-.8.156l-.852.109a3.257,3.257,0,0,0-1.148.32A1.248,1.248,0,0,0,72.969-2.227ZM76.375-5.07a.764.764,0,0,0,.648-.406,1.236,1.236,0,0,0,.094-.539,1.142,1.142,0,0,0-.512-1.043,2.745,2.745,0,0,0-1.465-.324,1.861,1.861,0,0,0-1.562.594,1.953,1.953,0,0,0-.336.977H71.93a2.416,2.416,0,0,1,1-2.152,4.122,4.122,0,0,1,2.238-.605,4.554,4.554,0,0,1,2.4.563,1.908,1.908,0,0,1,.914,1.75v4.82a.617.617,0,0,0,.09.352.433.433,0,0,0,.379.133q.094,0,.211-.012T79.414-1V.039a3.916,3.916,0,0,1-.5.117,3.654,3.654,0,0,1-.469.023,1.157,1.157,0,0,1-1.055-.516,1.99,1.99,0,0,1-.242-.773,3.578,3.578,0,0,1-1.234.977,3.818,3.818,0,0,1-1.773.414,2.637,2.637,0,0,1-1.9-.707A2.349,2.349,0,0,1,71.5-2.2,2.279,2.279,0,0,1,72.227-4a3.457,3.457,0,0,1,1.906-.789Zm4.414-3.3H82.18V-7.18a4.674,4.674,0,0,1,.906-.9,2.726,2.726,0,0,1,1.578-.477,2.484,2.484,0,0,1,1.609.492,2.573,2.573,0,0,1,.625.828,3.039,3.039,0,0,1,1.1-1,3.073,3.073,0,0,1,1.422-.324,2.325,2.325,0,0,1,2.3,1.219,3.984,3.984,0,0,1,.328,1.766V0H90.586V-5.812a1.354,1.354,0,0,0-.418-1.148,1.654,1.654,0,0,0-1.02-.312,2.024,2.024,0,0,0-1.426.555,2.436,2.436,0,0,0-.6,1.852V0H85.7V-5.461a2.837,2.837,0,0,0-.2-1.242,1.239,1.239,0,0,0-1.2-.586,2.062,2.062,0,0,0-1.449.617A3.025,3.025,0,0,0,82.2-4.437V0H80.789Z" transform="translate(116.515 307.381)"/>
      </g>
    </g>
    <path id="Path_1268" data-name="Path 1268" class="cls-7" d="M-31.738-11.789a4.7,4.7,0,0,1,3.383,1.148A4.056,4.056,0,0,1-27.02-8.031h-1.516a3.154,3.154,0,0,0-1.027-1.758,3.256,3.256,0,0,0-2.16-.648,3.464,3.464,0,0,0-2.738,1.191A5.431,5.431,0,0,0-35.5-5.594a5.3,5.3,0,0,0,.941,3.27A3.289,3.289,0,0,0-31.754-1.07a2.967,2.967,0,0,0,2.617-1.32,5.021,5.021,0,0,0,.711-1.828h1.516A5.179,5.179,0,0,1-28.254-1.18,4.781,4.781,0,0,1-31.941.3,4.867,4.867,0,0,1-35.3-.914,6.31,6.31,0,0,1-37.09-5.859a6.317,6.317,0,0,1,1.344-4.164A4.908,4.908,0,0,1-31.738-11.789Zm6.57,3.422h1.336v1.445a3.193,3.193,0,0,1,.8-1.027,2.086,2.086,0,0,1,1.477-.605q.039,0,.133.008l.32.031v1.484a2.1,2.1,0,0,0-.23-.031q-.105-.008-.23-.008a2.007,2.007,0,0,0-1.633.684,2.386,2.386,0,0,0-.57,1.574V0h-1.406Zm8.609,7.461a1.939,1.939,0,0,0,1.918-1.059,5.274,5.274,0,0,0,.52-2.355A4.194,4.194,0,0,0-14.5-6.227a2.11,2.11,0,0,0-2.047-1.156,2.018,2.018,0,0,0-1.875.984A4.563,4.563,0,0,0-19-4.023,3.969,3.969,0,0,0-18.418-1.8,2.064,2.064,0,0,0-16.559-.906Zm.055-7.7A3.789,3.789,0,0,1-13.77-7.531a4.21,4.21,0,0,1,1.117,3.172,5.442,5.442,0,0,1-.984,3.344A3.561,3.561,0,0,1-16.691.3,3.449,3.449,0,0,1-19.434-.863,4.613,4.613,0,0,1-20.449-4a4.991,4.991,0,0,1,1.07-3.359A3.592,3.592,0,0,1-16.5-8.609Zm6.172.242,1.609,6.594L-7.09-8.367h1.578l1.641,6.555L-2.16-8.367H-.754L-3.184,0H-4.645l-1.7-6.477L-8,0H-9.457l-2.414-8.367Zm11.8,4.281a4.148,4.148,0,0,0,.57,2.25A2,2,0,0,0,3.863-.93a1.925,1.925,0,0,0,1.605-.84A3.966,3.966,0,0,0,6.1-4.18a3.564,3.564,0,0,0-.648-2.348,2.023,2.023,0,0,0-1.6-.762,2.114,2.114,0,0,0-1.723.813A3.721,3.721,0,0,0,1.465-4.086Zm2.117-4.43a2.977,2.977,0,0,1,1.609.406,3.78,3.78,0,0,1,.852.82v-4.227H7.395V0H6.129V-1.164A3.043,3.043,0,0,1,4.965-.047,3.332,3.332,0,0,1,3.426.3,3.117,3.117,0,0,1,1-.879,4.6,4.6,0,0,1-.02-4.008,5.4,5.4,0,0,1,.914-7.176,3.057,3.057,0,0,1,3.582-8.516Zm6.727,5.891a2.045,2.045,0,0,0,.352,1.078,2.209,2.209,0,0,0,1.844.68,2.719,2.719,0,0,0,1.375-.34,1.129,1.129,0,0,0,.594-1.051A.9.9,0,0,0,14-3.078a5.666,5.666,0,0,0-1.2-.4l-1.117-.281A5.45,5.45,0,0,1,10.1-4.352,1.775,1.775,0,0,1,9.191-5.93a2.411,2.411,0,0,1,.855-1.922,3.413,3.413,0,0,1,2.3-.734,3.194,3.194,0,0,1,2.727,1.109,2.407,2.407,0,0,1,.508,1.516H14.254a1.627,1.627,0,0,0-.336-.867,2.143,2.143,0,0,0-1.68-.555,2.008,2.008,0,0,0-1.207.3.955.955,0,0,0-.41.8.991.991,0,0,0,.539.875,3.239,3.239,0,0,0,.922.344l.93.227a7.188,7.188,0,0,1,2.031.711,1.882,1.882,0,0,1,.82,1.7,2.584,2.584,0,0,1-.848,1.93A3.608,3.608,0,0,1,12.434.32,3.464,3.464,0,0,1,9.789-.527a3.206,3.206,0,0,1-.832-2.1Zm8.242.4A1.158,1.158,0,0,0,19-1.266a1.651,1.651,0,0,0,1.055.352,3.207,3.207,0,0,0,1.438-.344A1.935,1.935,0,0,0,22.66-3.125V-4.258A2.406,2.406,0,0,1,22-3.984a5.659,5.659,0,0,1-.8.156l-.852.109A3.257,3.257,0,0,0,19.2-3.4,1.248,1.248,0,0,0,18.551-2.227ZM21.957-5.07a.764.764,0,0,0,.648-.406,1.236,1.236,0,0,0,.094-.539,1.142,1.142,0,0,0-.512-1.043,2.745,2.745,0,0,0-1.465-.324,1.861,1.861,0,0,0-1.562.594,1.953,1.953,0,0,0-.336.977H17.512a2.416,2.416,0,0,1,1-2.152,4.122,4.122,0,0,1,2.238-.605,4.554,4.554,0,0,1,2.4.563,1.908,1.908,0,0,1,.914,1.75v4.82a.617.617,0,0,0,.09.352.433.433,0,0,0,.379.133q.094,0,.211-.012T25-1V.039a3.917,3.917,0,0,1-.5.117,3.654,3.654,0,0,1-.469.023,1.157,1.157,0,0,1-1.055-.516,1.99,1.99,0,0,1-.242-.773A3.578,3.578,0,0,1,21.5-.133a3.818,3.818,0,0,1-1.773.414,2.637,2.637,0,0,1-1.9-.707,2.349,2.349,0,0,1-.738-1.77A2.279,2.279,0,0,1,17.809-4a3.457,3.457,0,0,1,1.906-.789Zm4.453-6.406h1.406V0H26.41Zm7,2.922a3.817,3.817,0,0,1,1.727.418A3.184,3.184,0,0,1,36.41-7.055a3.733,3.733,0,0,1,.563,1.477A9.661,9.661,0,0,1,37.1-3.734H30.965a3.579,3.579,0,0,0,.6,2.043,2.014,2.014,0,0,0,1.742.77,2.252,2.252,0,0,0,1.758-.727,2.449,2.449,0,0,0,.531-.977H36.98A2.912,2.912,0,0,1,36.617-1.6a3.654,3.654,0,0,1-.691.926A3.277,3.277,0,0,1,34.34.172,4.818,4.818,0,0,1,33.191.3,3.524,3.524,0,0,1,30.543-.84a4.423,4.423,0,0,1-1.086-3.184A4.809,4.809,0,0,1,30.551-7.3,3.608,3.608,0,0,1,33.41-8.555Zm2.242,3.7a3.643,3.643,0,0,0-.4-1.461,2.042,2.042,0,0,0-1.93-1.016,2.139,2.139,0,0,0-1.625.7A2.641,2.641,0,0,0,31-4.852Z" transform="translate(1188.485 5905.335)"/>
    <path id="Path_1267" data-name="Path 1267" class="cls-15" d="M-19.722-14.346v1.709h-4.834V0h-1.973V-12.637h-4.834v-1.709Zm3.477,13.213a2.424,2.424,0,0,0,2.4-1.323A6.592,6.592,0,0,0-13.2-5.4a5.242,5.242,0,0,0-.469-2.383,2.637,2.637,0,0,0-2.559-1.445A2.523,2.523,0,0,0-18.569-8,5.7,5.7,0,0,0-19.3-5.029a4.961,4.961,0,0,0,.732,2.783A2.58,2.58,0,0,0-16.245-1.133Zm.068-9.629a4.736,4.736,0,0,1,3.418,1.348,5.263,5.263,0,0,1,1.4,3.965,6.8,6.8,0,0,1-1.23,4.18A4.451,4.451,0,0,1-16.411.381a4.311,4.311,0,0,1-3.428-1.46A5.767,5.767,0,0,1-21.108-5a6.239,6.239,0,0,1,1.338-4.2A4.49,4.49,0,0,1-16.177-10.762Zm6.865-3.584h1.689v8.33l4.512-4.443H-.864l-4,3.916L-.64,0H-2.886L-6.147-5.273-7.622-3.926V0H-9.312ZM5.083-10.693a4.771,4.771,0,0,1,2.158.522A3.98,3.98,0,0,1,8.833-8.818a4.666,4.666,0,0,1,.7,1.846,12.076,12.076,0,0,1,.156,2.3H2.026a4.473,4.473,0,0,0,.752,2.554,2.518,2.518,0,0,0,2.178.962,2.815,2.815,0,0,0,2.2-.908,3.062,3.062,0,0,0,.664-1.221H9.546A3.64,3.64,0,0,1,9.092-2,4.567,4.567,0,0,1,8.228-.84,4.1,4.1,0,0,1,6.245.215,6.022,6.022,0,0,1,4.81.371,4.4,4.4,0,0,1,1.5-1.05,5.529,5.529,0,0,1,.142-5.029,6.011,6.011,0,0,1,1.509-9.121,4.51,4.51,0,0,1,5.083-10.693Zm2.8,4.629a4.554,4.554,0,0,0-.5-1.826A2.553,2.553,0,0,0,4.976-9.16a2.674,2.674,0,0,0-2.031.874,3.3,3.3,0,0,0-.869,2.222Zm3.965-4.395h1.67v1.484a4.684,4.684,0,0,1,1.572-1.318,4.193,4.193,0,0,1,1.846-.4,3.043,3.043,0,0,1,3.008,1.553,5.514,5.514,0,0,1,.43,2.432V0H18.589V-6.592a3.569,3.569,0,0,0-.283-1.543,1.717,1.717,0,0,0-1.7-.977,3.46,3.46,0,0,0-1.025.127,2.641,2.641,0,0,0-1.27.859,2.587,2.587,0,0,0-.571,1.069,7.2,7.2,0,0,0-.132,1.577V0H11.851ZM24.019-3.281a2.556,2.556,0,0,0,.439,1.348,2.762,2.762,0,0,0,2.3.85,3.4,3.4,0,0,0,1.719-.425,1.411,1.411,0,0,0,.742-1.313,1.123,1.123,0,0,0-.6-1.025,7.083,7.083,0,0,0-1.5-.5l-1.4-.352a6.812,6.812,0,0,1-1.973-.742,2.218,2.218,0,0,1-1.133-1.973,3.014,3.014,0,0,1,1.069-2.4,4.266,4.266,0,0,1,2.876-.918,3.992,3.992,0,0,1,3.408,1.387,3.009,3.009,0,0,1,.635,1.895H28.95a2.034,2.034,0,0,0-.42-1.084,2.678,2.678,0,0,0-2.1-.693,2.51,2.51,0,0,0-1.509.381,1.194,1.194,0,0,0-.513,1.006,1.238,1.238,0,0,0,.674,1.094,4.049,4.049,0,0,0,1.152.43l1.162.283a8.985,8.985,0,0,1,2.539.889,2.353,2.353,0,0,1,1.025,2.119A3.229,3.229,0,0,1,29.9-.615,4.51,4.51,0,0,1,26.675.4a4.33,4.33,0,0,1-3.306-1.06,4.007,4.007,0,0,1-1.04-2.622ZM-42.988,20.34a5.371,5.371,0,0,0,1.621-.205,3.566,3.566,0,0,0,1.855-1.465,6,6,0,0,0,.83-2.227,8.493,8.493,0,0,0,.146-1.5,7,7,0,0,0-1.06-4.141,3.914,3.914,0,0,0-3.413-1.475h-3.447V20.34Zm-5.42-12.686H-42.6a5.477,5.477,0,0,1,4.59,2.1,7.741,7.741,0,0,1,1.455,4.854,9.67,9.67,0,0,1-.859,4.131A5.3,5.3,0,0,1-42.617,22h-5.791Zm14.121,3.936H-32.5V22h-1.787Zm0-3.936H-32.5V9.646h-1.787ZM-28.8,18.719a2.556,2.556,0,0,0,.439,1.348,2.762,2.762,0,0,0,2.3.85,3.4,3.4,0,0,0,1.719-.425,1.411,1.411,0,0,0,.742-1.313,1.123,1.123,0,0,0-.6-1.025,7.083,7.083,0,0,0-1.5-.5l-1.4-.352a6.812,6.812,0,0,1-1.973-.742A2.218,2.218,0,0,1-30.2,14.588a3.014,3.014,0,0,1,1.069-2.4,4.266,4.266,0,0,1,2.876-.918,3.992,3.992,0,0,1,3.408,1.387,3.009,3.009,0,0,1,.635,1.895h-1.66a2.034,2.034,0,0,0-.42-1.084,2.678,2.678,0,0,0-2.1-.693,2.51,2.51,0,0,0-1.509.381,1.194,1.194,0,0,0-.513,1.006,1.238,1.238,0,0,0,.674,1.094,4.049,4.049,0,0,0,1.152.43l1.162.283a8.985,8.985,0,0,1,2.539.889,2.353,2.353,0,0,1,1.025,2.119,3.229,3.229,0,0,1-1.06,2.412A4.51,4.51,0,0,1-26.143,22.4a4.33,4.33,0,0,1-3.306-1.06,4.007,4.007,0,0,1-1.04-2.622Zm9.307-10.1h1.777v2.92h1.67v1.436h-1.67V19.8a.739.739,0,0,0,.371.732,1.577,1.577,0,0,0,.684.107q.127,0,.273,0t.342-.024V22a3.924,3.924,0,0,1-.63.127,5.989,5.989,0,0,1-.708.039,1.908,1.908,0,0,1-1.67-.63,2.8,2.8,0,0,1-.439-1.636V12.977h-1.416V11.541h1.416Zm5.254,2.92h1.67v1.807a3.992,3.992,0,0,1,1.006-1.284,2.608,2.608,0,0,1,1.846-.757q.049,0,.166.01t.4.039v1.855a2.626,2.626,0,0,0-.288-.039q-.132-.01-.288-.01a2.508,2.508,0,0,0-2.041.854,2.983,2.983,0,0,0-.713,1.968V22h-1.758Zm6.611.049H-5.84V22H-7.627Zm0-3.936H-5.84V9.646H-7.627Zm4.307-.049h1.709v5.205A3.9,3.9,0,0,1-.234,11.663a3.871,3.871,0,0,1,1.738-.4A4.075,4.075,0,0,1,4.673,12.61a5.72,5.72,0,0,1,1.216,3.96,6.791,6.791,0,0,1-1.2,4.121,3.9,3.9,0,0,1-3.33,1.641,3.412,3.412,0,0,1-2.012-.576A4.858,4.858,0,0,1-1.7,20.662V22H-3.32ZM1.25,20.779a2.349,2.349,0,0,0,2.134-1.133,5.578,5.578,0,0,0,.708-2.988,4.9,4.9,0,0,0-.708-2.734A2.332,2.332,0,0,0,1.3,12.84a2.908,2.908,0,0,0-2.1.889,3.991,3.991,0,0,0-.9,2.93,6.475,6.475,0,0,0,.371,2.393A2.564,2.564,0,0,0,1.25,20.779ZM9.7,11.541v6.943a2.928,2.928,0,0,0,.254,1.309,1.772,1.772,0,0,0,1.748.938,2.471,2.471,0,0,0,2.5-1.641,6.509,6.509,0,0,0,.361-2.412V11.541h1.758V22h-1.66l.02-1.543a3.546,3.546,0,0,1-.85,1.006,3.739,3.739,0,0,1-2.441.82A3.149,3.149,0,0,1,8.34,20.789,4.45,4.45,0,0,1,7.9,18.65V11.541Zm9.717-2.92h1.777v2.92h1.67v1.436h-1.67V19.8a.739.739,0,0,0,.371.732,1.577,1.577,0,0,0,.684.107q.127,0,.273,0t.342-.024V22a3.924,3.924,0,0,1-.63.127,5.989,5.989,0,0,1-.708.039,1.908,1.908,0,0,1-1.67-.63,2.8,2.8,0,0,1-.439-1.636V12.977H18V11.541h1.416Zm5.205,2.969h1.787V22H24.619Zm0-3.936h1.787V9.646H24.619Zm8.594,13.213a2.424,2.424,0,0,0,2.4-1.323A6.592,6.592,0,0,0,36.26,16.6a5.242,5.242,0,0,0-.469-2.383,2.637,2.637,0,0,0-2.559-1.445A2.523,2.523,0,0,0,30.889,14a5.7,5.7,0,0,0-.732,2.969,4.961,4.961,0,0,0,.732,2.783A2.58,2.58,0,0,0,33.213,20.867Zm.068-9.629A4.736,4.736,0,0,1,36.7,12.586a5.263,5.263,0,0,1,1.4,3.965,6.8,6.8,0,0,1-1.23,4.18,4.451,4.451,0,0,1-3.818,1.65,4.311,4.311,0,0,1-3.428-1.46A5.767,5.767,0,0,1,28.35,17a6.239,6.239,0,0,1,1.338-4.2A4.49,4.49,0,0,1,33.281,11.238Zm6.9.3h1.67v1.484a4.684,4.684,0,0,1,1.572-1.318,4.193,4.193,0,0,1,1.846-.4,3.043,3.043,0,0,1,3.008,1.553,5.514,5.514,0,0,1,.43,2.432V22H46.924V15.408a3.569,3.569,0,0,0-.283-1.543,1.717,1.717,0,0,0-1.7-.977,3.46,3.46,0,0,0-1.025.127,2.641,2.641,0,0,0-1.27.859,2.587,2.587,0,0,0-.571,1.069,7.2,7.2,0,0,0-.132,1.577V22H40.186Z" transform="translate(978.951 5897.995)"/>
  </g>
</svg>
