<svg xmlns="http://www.w3.org/2000/svg" xmlns:xlink="http://www.w3.org/1999/xlink" viewBox="723.696 6554.408 543.006 323.067">
  <defs>
    <style>
      .cls-1, .cls-7 {
        fill: #fff;
      }

      .cls-1 {
        font-size: 17px;
        font-family: Helvetica;
      }

      .cls-2 {
        fill: #744100;
      }

      .cls-3 {
        fill: #5e3361;
      }

      .cls-4 {
        fill: #ffbb10;
      }

      .cls-5 {
        fill: #e73d5d;
      }

      .cls-6 {
        fill: #5485f3;
      }

      .cls-10, .cls-11, .cls-8, .cls-9 {
        fill: none;
        stroke-miterlimit: 10;
      }

      .cls-8 {
        stroke: #e73d5d;
      }

      .cls-9 {
        stroke: #ffbb10;
      }

      .cls-10 {
        stroke: #5485f3;
      }

      .cls-11 {
        stroke: #5e3361;
      }

      .cls-12 {
        fill: #feba0f;
      }

      .cls-13 {
        fill: #2a2e3d;
      }

      .cls-14 {
        filter: url(#Path_1217);
      }
    </style>
    <filter id="Path_1217" x="832.642" y="6612.583" width="222.556" height="264.892" filterUnits="userSpaceOnUse">
      <feOffset dy="-4" input="SourceAlpha"/>
      <feGaussianBlur stdDeviation="15" result="blur"/>
      <feFlood flood-opacity="0.161"/>
      <feComposite operator="in" in2="blur"/>
      <feComposite in="SourceGraphic"/>
    </filter>
  </defs>
  <g id="Group_957" data-name="Group 957" transform="translate(592 175)">
    <text id="Tokens_Distribution" data-name="Tokens
Distribution" class="cls-1" transform="translate(427.685 6512.283)"><tspan x="-26.932" y="0">Tokens</tspan><tspan x="-42.517" y="20">Distribution</tspan></text>
    <g id="Group_952" data-name="Group 952" transform="translate(791.925 6661.476) rotate(180)">
      <g id="Group_942" data-name="Group 942" transform="translate(162.048)">
        <path id="Path_1215" data-name="Path 1215" class="cls-2" d="M0,74.4A132.285,132.285,0,0,1,118.735,0" transform="translate(92.943)"/>
        <path id="Path_1216" data-name="Path 1216" class="cls-3" d="M0,74.4l118.735,57.646V0A132.285,132.285,0,0,0,0,74.4Z" transform="translate(92.943)"/>
        <path id="Path_1218" data-name="Path 1218" class="cls-2" d="M49.58,0A132.442,132.442,0,0,1,0,65.867" transform="translate(287.616 174.892)"/>
        <path id="Path_1219" data-name="Path 1219" class="cls-4" d="M75.989,108.768A132.662,132.662,0,0,0,125.569,42.9L0,0Z" transform="translate(211.679 132.042)"/>
        <g class="cls-14" transform="matrix(-1, 0, 0, -1, 1221.88, 6836.48)">
          <path id="Path_1217-2" data-name="Path 1217" class="cls-5" d="M125.517,174.892a132.694,132.694,0,0,0,7.039-42.593A132.308,132.308,0,0,0,.257,0H0V132.042Z" transform="translate(1010.2 6836.48) rotate(180)"/>
        </g>
        <path id="Path_1220" data-name="Path 1220" class="cls-2" d="M0,0" transform="translate(0 282.067)"/>
        <path id="Path_1221" data-name="Path 1221" class="cls-2" d="M208.031,166.415A132.334,132.334,0,0,1,0,57.9,131.863,131.863,0,0,1,13.307,0" transform="translate(79.636 74.396)"/>
        <path id="Path_1222" data-name="Path 1222" class="cls-6" d="M13.307,0A132.361,132.361,0,0,0,132.3,190.2a131.764,131.764,0,0,0,75.732-23.788L132.042,57.646Z" transform="translate(79.637 74.396)"/>
        <circle id="Ellipse_379" data-name="Ellipse 379" class="cls-7" cx="73.882" cy="73.882" r="73.882" transform="translate(285.602 206.384) rotate(180)"/>
      </g>
      <path id="Path_1223" data-name="Path 1223" class="cls-8" d="M0,33.653,33.653,0H198.3" transform="translate(458.779 21.278)"/>
      <path id="Path_1224" data-name="Path 1224" class="cls-9" d="M0,0,33.91,33.91H167.031" transform="translate(476.696 191.127)"/>
      <path id="Path_1225" data-name="Path 1225" class="cls-10" d="M139.173,0,113.741,25.432H0" transform="translate(125.166 199.275)"/>
      <path id="Path_1226" data-name="Path 1226" class="cls-11" d="M294.56,32.111,262.448,0H121.926" transform="translate(0 21.322)"/>
    </g>
    <circle id="Ellipse_386" data-name="Ellipse 386" class="cls-6" cx="4" cy="4" r="4" transform="translate(663.522 6432.593)"/>
    <circle id="Ellipse_387" data-name="Ellipse 387" class="cls-3" cx="4" cy="4" r="4" transform="translate(666.702 6635.709)"/>
    <ellipse id="Ellipse_388" data-name="Ellipse 388" class="cls-12" cx="4" cy="3.777" rx="4" ry="3.777" transform="translate(141.696 6432.934)"/>
    <circle id="Ellipse_390" data-name="Ellipse 390" class="cls-5" cx="4" cy="4" r="4" transform="translate(131.696 6635.934)"/>
    <path id="Path_1272" data-name="Path 1272" class="cls-6" d="M7.272-5.446v-6.972L2.342-5.446ZM7.3,0V-3.76H.559V-5.65l7.047-9.775H9.238v9.979H11.5V-3.76H9.238V0ZM18.187-15.383a4.545,4.545,0,0,1,4.318,2.46,11.006,11.006,0,0,1,1.031,5.21A12.546,12.546,0,0,1,22.6-2.524,4.575,4.575,0,0,1,18.176.419a4.432,4.432,0,0,1-4.125-2.406A11.018,11.018,0,0,1,12.923-7.38a13.324,13.324,0,0,1,.677-4.5Q14.867-15.383,18.187-15.383Zm-.021,14.04a2.752,2.752,0,0,0,2.4-1.332q.892-1.332.892-4.963a12.262,12.262,0,0,0-.645-4.313,2.452,2.452,0,0,0-2.5-1.692,2.617,2.617,0,0,0-2.5,1.606,11.09,11.09,0,0,0-.79,4.732,11.62,11.62,0,0,0,.5,3.781A2.752,2.752,0,0,0,18.165-1.343Zm21.3-6.134a3.6,3.6,0,0,1,2.643,1.1,3.6,3.6,0,0,1,1.1,2.643,3.6,3.6,0,0,1-1.1,2.643A3.6,3.6,0,0,1,39.467,0a3.614,3.614,0,0,1-2.653-1.1,3.6,3.6,0,0,1-1.1-2.643,3.6,3.6,0,0,1,1.1-2.643A3.614,3.614,0,0,1,39.467-7.477Zm-1.558-7.842H39.1L30.5.408H29.3ZM28.918-8.959a2.143,2.143,0,0,0,1.574-.65,2.131,2.131,0,0,0,.65-1.563,2.131,2.131,0,0,0-.65-1.563,2.143,2.143,0,0,0-1.574-.65,2.14,2.14,0,0,0-1.563.645,2.126,2.126,0,0,0-.65,1.568,2.131,2.131,0,0,0,.65,1.563A2.131,2.131,0,0,0,28.918-8.959Zm0-5.962a3.6,3.6,0,0,1,2.653,1.1,3.619,3.619,0,0,1,1.1,2.648,3.6,3.6,0,0,1-1.1,2.643,3.614,3.614,0,0,1-2.653,1.1,3.6,3.6,0,0,1-2.643-1.1,3.6,3.6,0,0,1-1.1-2.643,3.619,3.619,0,0,1,1.1-2.648A3.593,3.593,0,0,1,28.918-14.921Zm10.549,13.4a2.131,2.131,0,0,0,1.563-.65,2.131,2.131,0,0,0,.65-1.563A2.131,2.131,0,0,0,41.03-5.3a2.131,2.131,0,0,0-1.563-.65,2.143,2.143,0,0,0-1.574.65,2.131,2.131,0,0,0-.65,1.563,2.131,2.131,0,0,0,.65,1.563A2.143,2.143,0,0,0,39.467-1.525Z" transform="translate(610.421 6429.512)"/>
    <path id="Path_1276" data-name="Path 1276" class="cls-5" d="M7.272-5.446v-6.972L2.342-5.446ZM7.3,0V-3.76H.559V-5.65l7.047-9.775H9.238v9.979H11.5V-3.76H9.238V0ZM18.187-15.383a4.545,4.545,0,0,1,4.318,2.46,11.006,11.006,0,0,1,1.031,5.21A12.546,12.546,0,0,1,22.6-2.524,4.575,4.575,0,0,1,18.176.419a4.432,4.432,0,0,1-4.125-2.406A11.018,11.018,0,0,1,12.923-7.38a13.324,13.324,0,0,1,.677-4.5Q14.867-15.383,18.187-15.383Zm-.021,14.04a2.752,2.752,0,0,0,2.4-1.332q.892-1.332.892-4.963a12.262,12.262,0,0,0-.645-4.313,2.452,2.452,0,0,0-2.5-1.692,2.617,2.617,0,0,0-2.5,1.606,11.09,11.09,0,0,0-.79,4.732,11.62,11.62,0,0,0,.5,3.781A2.752,2.752,0,0,0,18.165-1.343Zm21.3-6.134a3.6,3.6,0,0,1,2.643,1.1,3.6,3.6,0,0,1,1.1,2.643,3.6,3.6,0,0,1-1.1,2.643A3.6,3.6,0,0,1,39.467,0a3.614,3.614,0,0,1-2.653-1.1,3.6,3.6,0,0,1-1.1-2.643,3.6,3.6,0,0,1,1.1-2.643A3.614,3.614,0,0,1,39.467-7.477Zm-1.558-7.842H39.1L30.5.408H29.3ZM28.918-8.959a2.143,2.143,0,0,0,1.574-.65,2.131,2.131,0,0,0,.65-1.563,2.131,2.131,0,0,0-.65-1.563,2.143,2.143,0,0,0-1.574-.65,2.14,2.14,0,0,0-1.563.645,2.126,2.126,0,0,0-.65,1.568,2.131,2.131,0,0,0,.65,1.563A2.131,2.131,0,0,0,28.918-8.959Zm0-5.962a3.6,3.6,0,0,1,2.653,1.1,3.619,3.619,0,0,1,1.1,2.648,3.6,3.6,0,0,1-1.1,2.643,3.614,3.614,0,0,1-2.653,1.1,3.6,3.6,0,0,1-2.643-1.1,3.6,3.6,0,0,1-1.1-2.643,3.619,3.619,0,0,1,1.1-2.648A3.593,3.593,0,0,1,28.918-14.921Zm10.549,13.4a2.131,2.131,0,0,0,1.563-.65,2.131,2.131,0,0,0,.65-1.563A2.131,2.131,0,0,0,41.03-5.3a2.131,2.131,0,0,0-1.563-.65,2.143,2.143,0,0,0-1.574.65,2.131,2.131,0,0,0-.65,1.563,2.131,2.131,0,0,0,.65,1.563A2.143,2.143,0,0,0,39.467-1.525Z" transform="translate(145.846 6629.567)"/>
    <path id="Path_1274" data-name="Path 1274" class="cls-3" d="M2.105-10.893v-1.482a7.877,7.877,0,0,0,2.922-.682,3.362,3.362,0,0,0,1.235-2.261H7.788V0H5.726V-10.893ZM17.95.419a4.834,4.834,0,0,1-3.958-1.5,5.561,5.561,0,0,1-1.23-3.647h2.02a5.009,5.009,0,0,0,.559,2.17,2.938,2.938,0,0,0,2.718,1.214,3.563,3.563,0,0,0,2.449-.816,2.681,2.681,0,0,0,.924-2.105,2.451,2.451,0,0,0-.972-2.224,4.919,4.919,0,0,0-2.7-.634q-.193,0-.392.005t-.4.016V-8.809q.3.032.5.043t.44.011A4.037,4.037,0,0,0,19.69-9.1a2.184,2.184,0,0,0,1.225-2.148A2.1,2.1,0,0,0,20.1-13.02a3.046,3.046,0,0,0-1.9-.623,2.819,2.819,0,0,0-2.675,1.289,4.468,4.468,0,0,0-.462,2.02H13.148a5.8,5.8,0,0,1,.688-2.922A4.335,4.335,0,0,1,17.993-15.4a5.634,5.634,0,0,1,3.642,1.047,3.683,3.683,0,0,1,1.289,3.035,3.387,3.387,0,0,1-.763,2.3,3.2,3.2,0,0,1-1.225.859,3.338,3.338,0,0,1,1.9,1.284,3.884,3.884,0,0,1,.682,2.326,4.74,4.74,0,0,1-1.45,3.588A5.72,5.72,0,0,1,17.95.419Zm21.517-7.9a3.6,3.6,0,0,1,2.643,1.1,3.6,3.6,0,0,1,1.1,2.643,3.6,3.6,0,0,1-1.1,2.643A3.6,3.6,0,0,1,39.467,0a3.614,3.614,0,0,1-2.653-1.1,3.6,3.6,0,0,1-1.1-2.643,3.6,3.6,0,0,1,1.1-2.643A3.614,3.614,0,0,1,39.467-7.477Zm-1.558-7.842H39.1L30.5.408H29.3ZM28.918-8.959a2.143,2.143,0,0,0,1.574-.65,2.131,2.131,0,0,0,.65-1.563,2.131,2.131,0,0,0-.65-1.563,2.143,2.143,0,0,0-1.574-.65,2.14,2.14,0,0,0-1.563.645,2.126,2.126,0,0,0-.65,1.568,2.131,2.131,0,0,0,.65,1.563A2.131,2.131,0,0,0,28.918-8.959Zm0-5.962a3.6,3.6,0,0,1,2.653,1.1,3.619,3.619,0,0,1,1.1,2.648,3.6,3.6,0,0,1-1.1,2.643,3.614,3.614,0,0,1-2.653,1.1,3.6,3.6,0,0,1-2.643-1.1,3.6,3.6,0,0,1-1.1-2.643,3.619,3.619,0,0,1,1.1-2.648A3.593,3.593,0,0,1,28.918-14.921Zm10.549,13.4a2.131,2.131,0,0,0,1.563-.65,2.131,2.131,0,0,0,.65-1.563A2.131,2.131,0,0,0,41.03-5.3a2.131,2.131,0,0,0-1.563-.65,2.143,2.143,0,0,0-1.574.65,2.131,2.131,0,0,0-.65,1.563,2.131,2.131,0,0,0,.65,1.563A2.143,2.143,0,0,0,39.467-1.525Z" transform="translate(626.485 6630.744)"/>
    <path id="Path_1271" data-name="Path 1271" class="cls-4" d="M11.5-15.125v1.687a17.968,17.968,0,0,0-1.971,2.5A25.378,25.378,0,0,0,7.358-7.09,26.282,26.282,0,0,0,5.94-3.427Q5.629-2.363,5.135,0H3A26.325,26.325,0,0,1,6.22-8.766a27.75,27.75,0,0,1,3.094-4.415H.806v-1.944ZM27.231-7.477a3.6,3.6,0,0,1,2.643,1.1,3.6,3.6,0,0,1,1.1,2.643,3.6,3.6,0,0,1-1.1,2.643A3.6,3.6,0,0,1,27.231,0a3.614,3.614,0,0,1-2.653-1.1,3.6,3.6,0,0,1-1.1-2.643,3.6,3.6,0,0,1,1.1-2.643A3.614,3.614,0,0,1,27.231-7.477Zm-1.558-7.842h1.192L18.262.408H17.069ZM16.683-8.959a2.143,2.143,0,0,0,1.574-.65,2.131,2.131,0,0,0,.65-1.563,2.131,2.131,0,0,0-.65-1.563,2.143,2.143,0,0,0-1.574-.65,2.14,2.14,0,0,0-1.563.645,2.126,2.126,0,0,0-.65,1.568,2.131,2.131,0,0,0,.65,1.563A2.131,2.131,0,0,0,16.683-8.959Zm0-5.962a3.6,3.6,0,0,1,2.653,1.1,3.619,3.619,0,0,1,1.1,2.648,3.6,3.6,0,0,1-1.1,2.643,3.614,3.614,0,0,1-2.653,1.1,3.6,3.6,0,0,1-2.643-1.1,3.6,3.6,0,0,1-1.1-2.643,3.619,3.619,0,0,1,1.1-2.648A3.593,3.593,0,0,1,16.683-14.921Zm10.549,13.4a2.131,2.131,0,0,0,1.563-.65,2.131,2.131,0,0,0,.65-1.563,2.131,2.131,0,0,0-.65-1.563,2.131,2.131,0,0,0-1.563-.65,2.143,2.143,0,0,0-1.574.65,2.131,2.131,0,0,0-.65,1.563,2.131,2.131,0,0,0,.65,1.563A2.143,2.143,0,0,0,27.231-1.525Z" transform="translate(153.88 6426.007)"/>
    <path id="Path_1273" data-name="Path 1273" class="cls-6" d="M1.18-11.477H3.406l3.3,9.7,3.273-9.7h2.2V0H10.7V-6.773q0-.352.016-1.164t.016-1.742L7.461,0H5.922l-3.3-9.68v.352q0,.422.02,1.285t.02,1.27V0H1.18Zm14.258,9.25a1.158,1.158,0,0,0,.445.961,1.651,1.651,0,0,0,1.055.352,3.207,3.207,0,0,0,1.438-.344,1.935,1.935,0,0,0,1.172-1.867V-4.258a2.406,2.406,0,0,1-.664.273,5.659,5.659,0,0,1-.8.156l-.852.109a3.257,3.257,0,0,0-1.148.32A1.248,1.248,0,0,0,15.438-2.227ZM18.844-5.07a.764.764,0,0,0,.648-.406,1.236,1.236,0,0,0,.094-.539,1.142,1.142,0,0,0-.512-1.043,2.745,2.745,0,0,0-1.465-.324,1.861,1.861,0,0,0-1.562.594,1.953,1.953,0,0,0-.336.977H14.4a2.416,2.416,0,0,1,1-2.152,4.122,4.122,0,0,1,2.238-.605,4.554,4.554,0,0,1,2.4.563,1.908,1.908,0,0,1,.914,1.75v4.82a.617.617,0,0,0,.09.352.433.433,0,0,0,.379.133q.094,0,.211-.012T21.883-1V.039a3.917,3.917,0,0,1-.5.117,3.654,3.654,0,0,1-.469.023,1.157,1.157,0,0,1-1.055-.516,1.99,1.99,0,0,1-.242-.773,3.578,3.578,0,0,1-1.234.977,3.818,3.818,0,0,1-1.773.414,2.637,2.637,0,0,1-1.9-.707,2.349,2.349,0,0,1-.738-1.77A2.279,2.279,0,0,1,14.7-4,3.457,3.457,0,0,1,16.6-4.789Zm4.453-3.3h1.336v1.445a3.193,3.193,0,0,1,.8-1.027,2.086,2.086,0,0,1,1.477-.605q.039,0,.133.008l.32.031v1.484a2.1,2.1,0,0,0-.23-.031q-.105-.008-.23-.008a2.007,2.007,0,0,0-1.633.684,2.386,2.386,0,0,0-.57,1.574V0H23.3Zm5.258-3.109h1.352v6.664l3.609-3.555h1.8l-3.2,3.133L35.492,0H33.7L31.086-4.219l-1.18,1.078V0H28.555ZM40.07-8.555a3.817,3.817,0,0,1,1.727.418A3.184,3.184,0,0,1,43.07-7.055a3.733,3.733,0,0,1,.563,1.477,9.661,9.661,0,0,1,.125,1.844H37.625a3.579,3.579,0,0,0,.6,2.043,2.014,2.014,0,0,0,1.742.77,2.252,2.252,0,0,0,1.758-.727,2.449,2.449,0,0,0,.531-.977h1.383A2.912,2.912,0,0,1,43.277-1.6a3.654,3.654,0,0,1-.691.926A3.277,3.277,0,0,1,41,.172,4.818,4.818,0,0,1,39.852.3,3.524,3.524,0,0,1,37.2-.84a4.423,4.423,0,0,1-1.086-3.184A4.809,4.809,0,0,1,37.211-7.3,3.608,3.608,0,0,1,40.07-8.555Zm2.242,3.7a3.643,3.643,0,0,0-.4-1.461,2.042,2.042,0,0,0-1.93-1.016,2.139,2.139,0,0,0-1.625.7,2.641,2.641,0,0,0-.7,1.777ZM45.766-10.7h1.422v2.336h1.336v1.148H47.188v5.461a.591.591,0,0,0,.3.586,1.262,1.262,0,0,0,.547.086q.1,0,.219,0t.273-.02V0a3.139,3.139,0,0,1-.5.1,4.791,4.791,0,0,1-.566.031,1.527,1.527,0,0,1-1.336-.5,2.239,2.239,0,0,1-.352-1.309V-7.219H44.633V-8.367h1.133ZM49.93-8.328h1.43V0H49.93Zm0-3.148h1.43v1.594H49.93Zm3.555,3.109H54.82V-7.18a3.747,3.747,0,0,1,1.258-1.055,3.354,3.354,0,0,1,1.477-.32,2.435,2.435,0,0,1,2.406,1.242A4.411,4.411,0,0,1,60.3-5.367V0h-1.43V-5.273a2.856,2.856,0,0,0-.227-1.234,1.374,1.374,0,0,0-1.359-.781,2.768,2.768,0,0,0-.82.1,2.113,2.113,0,0,0-1.016.688A2.07,2.07,0,0,0,55-5.645a5.758,5.758,0,0,0-.105,1.262V0H53.484Zm11.852-.148a3.05,3.05,0,0,1,1.719.484,3.86,3.86,0,0,1,.813.8V-8.289h1.3V-.68A5.611,5.611,0,0,1,68.7,1.836a3.366,3.366,0,0,1-3.3,1.7,4.054,4.054,0,0,1-2.273-.605,2.361,2.361,0,0,1-1.031-1.895h1.43a1.591,1.591,0,0,0,.406.867,2.071,2.071,0,0,0,1.5.469,2.064,2.064,0,0,0,2.117-1.141,6.424,6.424,0,0,0,.273-2.4A2.759,2.759,0,0,1,66.8-.211,3.379,3.379,0,0,1,65.227.1a3.352,3.352,0,0,1-2.379-.965,4.243,4.243,0,0,1-1.02-3.191,4.833,4.833,0,0,1,1.027-3.281A3.177,3.177,0,0,1,65.336-8.516Zm2.531,4.3a3.488,3.488,0,0,0-.641-2.3,2.052,2.052,0,0,0-1.633-.75,2.016,2.016,0,0,0-2.031,1.391,5.453,5.453,0,0,0-.289,1.945,3.453,3.453,0,0,0,.574,2.152,1.854,1.854,0,0,0,1.543.738,2.166,2.166,0,0,0,2.133-1.367A4.41,4.41,0,0,0,67.867-4.219Z" transform="translate(583.446 6453.939)"/>
    <path id="Path_1277" data-name="Path 1277" class="cls-5" d="M6.18-11.773a5.9,5.9,0,0,1,2.8.625A4.078,4.078,0,0,1,11.07-8H9.531A2.8,2.8,0,0,0,8.367-9.832a4.007,4.007,0,0,0-2.227-.574,3.489,3.489,0,0,0-2.684,1.2,5.13,5.13,0,0,0-1.09,3.563,5.692,5.692,0,0,0,.9,3.332A3.321,3.321,0,0,0,6.2-1.031a3.741,3.741,0,0,0,2.574-.9A3.777,3.777,0,0,0,9.813-4.852H6.219V-6.141h5.039V0h-1L9.883-1.477a5.894,5.894,0,0,1-1.4,1.2A5.242,5.242,0,0,1,5.883.3a5.069,5.069,0,0,1-3.508-1.32,6.266,6.266,0,0,1-1.6-4.547,6.521,6.521,0,0,1,1.563-4.586A4.967,4.967,0,0,1,6.18-11.773Zm8.375,9.547A1.158,1.158,0,0,0,15-1.266a1.651,1.651,0,0,0,1.055.352,3.207,3.207,0,0,0,1.438-.344,1.935,1.935,0,0,0,1.172-1.867V-4.258A2.406,2.406,0,0,1,18-3.984a5.659,5.659,0,0,1-.8.156l-.852.109A3.257,3.257,0,0,0,15.2-3.4,1.248,1.248,0,0,0,14.555-2.227ZM17.961-5.07a.764.764,0,0,0,.648-.406,1.236,1.236,0,0,0,.094-.539,1.142,1.142,0,0,0-.512-1.043,2.745,2.745,0,0,0-1.465-.324,1.861,1.861,0,0,0-1.562.594,1.953,1.953,0,0,0-.336.977H13.516a2.416,2.416,0,0,1,1-2.152,4.122,4.122,0,0,1,2.238-.605,4.554,4.554,0,0,1,2.4.563,1.908,1.908,0,0,1,.914,1.75v4.82a.617.617,0,0,0,.09.352.433.433,0,0,0,.379.133q.094,0,.211-.012T21-1V.039a3.917,3.917,0,0,1-.5.117,3.654,3.654,0,0,1-.469.023,1.157,1.157,0,0,1-1.055-.516,1.99,1.99,0,0,1-.242-.773A3.578,3.578,0,0,1,17.5-.133a3.818,3.818,0,0,1-1.773.414,2.637,2.637,0,0,1-1.9-.707,2.349,2.349,0,0,1-.738-1.77A2.279,2.279,0,0,1,13.813-4a3.457,3.457,0,0,1,1.906-.789Zm4.414-3.3h1.391V-7.18a4.674,4.674,0,0,1,.906-.9,2.726,2.726,0,0,1,1.578-.477,2.484,2.484,0,0,1,1.609.492,2.573,2.573,0,0,1,.625.828,3.039,3.039,0,0,1,1.1-1,3.073,3.073,0,0,1,1.422-.324,2.325,2.325,0,0,1,2.3,1.219,3.984,3.984,0,0,1,.328,1.766V0H32.172V-5.812a1.354,1.354,0,0,0-.418-1.148,1.654,1.654,0,0,0-1.02-.312,2.024,2.024,0,0,0-1.426.555,2.436,2.436,0,0,0-.6,1.852V0h-1.43V-5.461a2.837,2.837,0,0,0-.2-1.242,1.239,1.239,0,0,0-1.2-.586,2.062,2.062,0,0,0-1.449.617,3.025,3.025,0,0,0-.652,2.234V0H22.375Zm16.813-.187a3.817,3.817,0,0,1,1.727.418,3.184,3.184,0,0,1,1.273,1.082,3.733,3.733,0,0,1,.563,1.477,9.661,9.661,0,0,1,.125,1.844H36.742a3.579,3.579,0,0,0,.6,2.043,2.014,2.014,0,0,0,1.742.77,2.252,2.252,0,0,0,1.758-.727,2.449,2.449,0,0,0,.531-.977h1.383A2.912,2.912,0,0,1,42.395-1.6a3.654,3.654,0,0,1-.691.926,3.277,3.277,0,0,1-1.586.844A4.818,4.818,0,0,1,38.969.3,3.524,3.524,0,0,1,36.32-.84a4.423,4.423,0,0,1-1.086-3.184A4.809,4.809,0,0,1,36.328-7.3,3.608,3.608,0,0,1,39.188-8.555Zm2.242,3.7a3.643,3.643,0,0,0-.4-1.461A2.042,2.042,0,0,0,39.1-7.328a2.139,2.139,0,0,0-1.625.7,2.641,2.641,0,0,0-.7,1.777Zm8.508.766a4.148,4.148,0,0,0,.57,2.25,2,2,0,0,0,1.828.906,1.925,1.925,0,0,0,1.605-.84,3.966,3.966,0,0,0,.629-2.41,3.564,3.564,0,0,0-.648-2.348,2.023,2.023,0,0,0-1.6-.762,2.114,2.114,0,0,0-1.723.813A3.721,3.721,0,0,0,49.938-4.086Zm2.117-4.43a2.977,2.977,0,0,1,1.609.406,3.78,3.78,0,0,1,.852.82v-4.227h1.352V0H54.6V-1.164A3.042,3.042,0,0,1,53.438-.047,3.332,3.332,0,0,1,51.9.3,3.117,3.117,0,0,1,49.477-.879a4.6,4.6,0,0,1-1.023-3.129,5.4,5.4,0,0,1,.934-3.168A3.057,3.057,0,0,1,52.055-8.516Zm9.375-.039a3.817,3.817,0,0,1,1.727.418A3.184,3.184,0,0,1,64.43-7.055a3.733,3.733,0,0,1,.563,1.477,9.66,9.66,0,0,1,.125,1.844H58.984a3.579,3.579,0,0,0,.6,2.043,2.014,2.014,0,0,0,1.742.77,2.252,2.252,0,0,0,1.758-.727,2.449,2.449,0,0,0,.531-.977H65A2.912,2.912,0,0,1,64.637-1.6a3.654,3.654,0,0,1-.691.926,3.277,3.277,0,0,1-1.586.844A4.818,4.818,0,0,1,61.211.3,3.524,3.524,0,0,1,58.563-.84a4.423,4.423,0,0,1-1.086-3.184A4.809,4.809,0,0,1,58.57-7.3,3.608,3.608,0,0,1,61.43-8.555Zm2.242,3.7a3.643,3.643,0,0,0-.4-1.461,2.042,2.042,0,0,0-1.93-1.016,2.139,2.139,0,0,0-1.625.7,2.641,2.641,0,0,0-.7,1.777Zm3.859-3.516,2.234,6.813L72.1-8.367h1.539L70.484,0h-1.5L65.9-8.367Zm10.8-.187a3.817,3.817,0,0,1,1.727.418,3.184,3.184,0,0,1,1.273,1.082,3.733,3.733,0,0,1,.563,1.477,9.66,9.66,0,0,1,.125,1.844H75.883a3.579,3.579,0,0,0,.6,2.043,2.014,2.014,0,0,0,1.742.77,2.252,2.252,0,0,0,1.758-.727,2.449,2.449,0,0,0,.531-.977H81.9A2.912,2.912,0,0,1,81.535-1.6a3.654,3.654,0,0,1-.691.926,3.277,3.277,0,0,1-1.586.844A4.818,4.818,0,0,1,78.109.3,3.524,3.524,0,0,1,75.461-.84a4.423,4.423,0,0,1-1.086-3.184A4.809,4.809,0,0,1,75.469-7.3,3.608,3.608,0,0,1,78.328-8.555Zm2.242,3.7a3.643,3.643,0,0,0-.4-1.461,2.042,2.042,0,0,0-1.93-1.016,2.139,2.139,0,0,0-1.625.7,2.641,2.641,0,0,0-.7,1.777Zm3.211-6.625h1.406V0H83.781ZM90.617-.906a1.939,1.939,0,0,0,1.918-1.059,5.274,5.274,0,0,0,.52-2.355,4.194,4.194,0,0,0-.375-1.906,2.11,2.11,0,0,0-2.047-1.156,2.018,2.018,0,0,0-1.875.984,4.563,4.563,0,0,0-.586,2.375A3.969,3.969,0,0,0,88.758-1.8,2.064,2.064,0,0,0,90.617-.906Zm.055-7.7a3.789,3.789,0,0,1,2.734,1.078,4.21,4.21,0,0,1,1.117,3.172,5.442,5.442,0,0,1-.984,3.344A3.561,3.561,0,0,1,90.484.3,3.449,3.449,0,0,1,87.742-.863,4.613,4.613,0,0,1,86.727-4,4.991,4.991,0,0,1,87.8-7.359,3.592,3.592,0,0,1,90.672-8.609ZM99.727-.945a2.006,2.006,0,0,0,1.637-.824,3.922,3.922,0,0,0,.652-2.465,4.6,4.6,0,0,0-.289-1.719,2,2,0,0,0-2-1.383,1.994,1.994,0,0,0-2,1.461,5.79,5.79,0,0,0-.289,1.984,4.206,4.206,0,0,0,.289,1.648A1.994,1.994,0,0,0,99.727-.945ZM96.086-8.328h1.367v1.109a3.413,3.413,0,0,1,.922-.883,2.967,2.967,0,0,1,1.672-.469,3.144,3.144,0,0,1,2.414,1.09,4.465,4.465,0,0,1,.992,3.113,4.781,4.781,0,0,1-1.43,3.906,3.23,3.23,0,0,1-2.109.742,2.863,2.863,0,0,1-1.586-.414,3.654,3.654,0,0,1-.836-.8V3.336H96.086Zm9.008-.039h1.391V-7.18a4.674,4.674,0,0,1,.906-.9,2.726,2.726,0,0,1,1.578-.477,2.484,2.484,0,0,1,1.609.492,2.573,2.573,0,0,1,.625.828,3.039,3.039,0,0,1,1.1-1,3.073,3.073,0,0,1,1.422-.324,2.325,2.325,0,0,1,2.3,1.219,3.984,3.984,0,0,1,.328,1.766V0h-1.461V-5.812a1.354,1.354,0,0,0-.418-1.148,1.654,1.654,0,0,0-1.02-.312,2.024,2.024,0,0,0-1.426.555,2.436,2.436,0,0,0-.6,1.852V0H110V-5.461a2.837,2.837,0,0,0-.2-1.242,1.239,1.239,0,0,0-1.2-.586,2.062,2.062,0,0,0-1.449.617,3.025,3.025,0,0,0-.652,2.234V0h-1.406Zm16.813-.187a3.817,3.817,0,0,1,1.727.418,3.184,3.184,0,0,1,1.273,1.082,3.733,3.733,0,0,1,.563,1.477,9.66,9.66,0,0,1,.125,1.844h-6.133a3.579,3.579,0,0,0,.6,2.043,2.014,2.014,0,0,0,1.742.77,2.252,2.252,0,0,0,1.758-.727,2.449,2.449,0,0,0,.531-.977h1.383a2.912,2.912,0,0,1-.363,1.027,3.654,3.654,0,0,1-.691.926,3.277,3.277,0,0,1-1.586.844A4.818,4.818,0,0,1,121.688.3,3.524,3.524,0,0,1,119.039-.84a4.423,4.423,0,0,1-1.086-3.184A4.809,4.809,0,0,1,119.047-7.3,3.608,3.608,0,0,1,121.906-8.555Zm2.242,3.7a3.643,3.643,0,0,0-.4-1.461,2.042,2.042,0,0,0-1.93-1.016,2.139,2.139,0,0,0-1.625.7,2.641,2.641,0,0,0-.7,1.777Zm3.172-3.516h1.336V-7.18a3.747,3.747,0,0,1,1.258-1.055,3.354,3.354,0,0,1,1.477-.32A2.435,2.435,0,0,1,133.8-7.312a4.411,4.411,0,0,1,.344,1.945V0h-1.43V-5.273a2.855,2.855,0,0,0-.227-1.234,1.374,1.374,0,0,0-1.359-.781,2.768,2.768,0,0,0-.82.1,2.113,2.113,0,0,0-1.016.688,2.07,2.07,0,0,0-.457.855,5.758,5.758,0,0,0-.105,1.262V0H127.32ZM136.5-10.7h1.422v2.336h1.336v1.148h-1.336v5.461a.591.591,0,0,0,.3.586,1.262,1.262,0,0,0,.547.086q.1,0,.219,0t.273-.02V0a3.139,3.139,0,0,1-.5.1,4.791,4.791,0,0,1-.566.031,1.527,1.527,0,0,1-1.336-.5A2.239,2.239,0,0,1,136.5-1.68V-7.219h-1.133V-8.367H136.5Z" transform="translate(145.823 6659.801)"/>
    <path id="Path_1275" data-name="Path 1275" class="cls-3" d="M1.219-11.477H2.773V-1.367H8.586V0H1.219Zm12.2,2.922a3.817,3.817,0,0,1,1.727.418,3.184,3.184,0,0,1,1.273,1.082,3.733,3.733,0,0,1,.563,1.477A9.661,9.661,0,0,1,17.1-3.734H10.969a3.579,3.579,0,0,0,.6,2.043,2.014,2.014,0,0,0,1.742.77,2.252,2.252,0,0,0,1.758-.727,2.449,2.449,0,0,0,.531-.977h1.383A2.912,2.912,0,0,1,16.621-1.6a3.654,3.654,0,0,1-.691.926,3.277,3.277,0,0,1-1.586.844A4.818,4.818,0,0,1,13.2.3,3.524,3.524,0,0,1,10.547-.84,4.423,4.423,0,0,1,9.461-4.023,4.809,4.809,0,0,1,10.555-7.3,3.608,3.608,0,0,1,13.414-8.555Zm2.242,3.7a3.643,3.643,0,0,0-.4-1.461,2.042,2.042,0,0,0-1.93-1.016,2.139,2.139,0,0,0-1.625.7,2.641,2.641,0,0,0-.7,1.777Zm6.125-3.664a3.05,3.05,0,0,1,1.719.484,3.86,3.86,0,0,1,.813.8V-8.289h1.3V-.68a5.611,5.611,0,0,1-.469,2.516,3.366,3.366,0,0,1-3.3,1.7,4.054,4.054,0,0,1-2.273-.605,2.361,2.361,0,0,1-1.031-1.895h1.43a1.591,1.591,0,0,0,.406.867,2.071,2.071,0,0,0,1.5.469,2.064,2.064,0,0,0,2.117-1.141,6.424,6.424,0,0,0,.273-2.4,2.759,2.759,0,0,1-1.016.953A3.379,3.379,0,0,1,21.672.1a3.352,3.352,0,0,1-2.379-.965,4.243,4.243,0,0,1-1.02-3.191A4.833,4.833,0,0,1,19.3-7.336,3.177,3.177,0,0,1,21.781-8.516Zm2.531,4.3a3.488,3.488,0,0,0-.641-2.3,2.052,2.052,0,0,0-1.633-.75,2.016,2.016,0,0,0-2.031,1.391,5.453,5.453,0,0,0-.289,1.945,3.453,3.453,0,0,0,.574,2.152,1.854,1.854,0,0,0,1.543.738,2.166,2.166,0,0,0,2.133-1.367A4.41,4.41,0,0,0,24.313-4.219ZM28.8-2.227a1.158,1.158,0,0,0,.445.961A1.651,1.651,0,0,0,30.3-.914a3.207,3.207,0,0,0,1.438-.344,1.935,1.935,0,0,0,1.172-1.867V-4.258a2.406,2.406,0,0,1-.664.273,5.659,5.659,0,0,1-.8.156l-.852.109a3.257,3.257,0,0,0-1.148.32A1.248,1.248,0,0,0,28.8-2.227ZM32.211-5.07a.764.764,0,0,0,.648-.406,1.236,1.236,0,0,0,.094-.539,1.142,1.142,0,0,0-.512-1.043,2.745,2.745,0,0,0-1.465-.324,1.861,1.861,0,0,0-1.562.594,1.953,1.953,0,0,0-.336.977H27.766a2.416,2.416,0,0,1,1-2.152,4.122,4.122,0,0,1,2.238-.605,4.554,4.554,0,0,1,2.4.563,1.908,1.908,0,0,1,.914,1.75v4.82a.617.617,0,0,0,.09.352.433.433,0,0,0,.379.133q.094,0,.211-.012T35.25-1V.039a3.917,3.917,0,0,1-.5.117,3.654,3.654,0,0,1-.469.023,1.157,1.157,0,0,1-1.055-.516,1.99,1.99,0,0,1-.242-.773,3.578,3.578,0,0,1-1.234.977,3.818,3.818,0,0,1-1.773.414,2.637,2.637,0,0,1-1.9-.707,2.349,2.349,0,0,1-.738-1.77A2.279,2.279,0,0,1,28.063-4a3.457,3.457,0,0,1,1.906-.789Zm4.453-6.406H38.07V0H36.664ZM48.109-8.555a3.817,3.817,0,0,1,1.727.418,3.184,3.184,0,0,1,1.273,1.082,3.733,3.733,0,0,1,.563,1.477A9.661,9.661,0,0,1,51.8-3.734H45.664a3.579,3.579,0,0,0,.6,2.043,2.014,2.014,0,0,0,1.742.77,2.252,2.252,0,0,0,1.758-.727,2.449,2.449,0,0,0,.531-.977H51.68A2.912,2.912,0,0,1,51.316-1.6a3.654,3.654,0,0,1-.691.926,3.277,3.277,0,0,1-1.586.844A4.818,4.818,0,0,1,47.891.3,3.524,3.524,0,0,1,45.242-.84a4.423,4.423,0,0,1-1.086-3.184A4.809,4.809,0,0,1,45.25-7.3,3.608,3.608,0,0,1,48.109-8.555Zm2.242,3.7a3.643,3.643,0,0,0-.4-1.461,2.042,2.042,0,0,0-1.93-1.016,2.139,2.139,0,0,0-1.625.7,2.641,2.641,0,0,0-.7,1.777Zm2.375-3.516h1.82l1.922,2.945,1.945-2.945,1.711.039L57.3-4.289,60.25,0h-1.8L56.375-3.141,54.359,0H52.578l2.945-4.289ZM65.055-.945a2.006,2.006,0,0,0,1.637-.824,3.922,3.922,0,0,0,.652-2.465,4.6,4.6,0,0,0-.289-1.719,2,2,0,0,0-2-1.383,1.994,1.994,0,0,0-2,1.461,5.79,5.79,0,0,0-.289,1.984,4.207,4.207,0,0,0,.289,1.648A1.994,1.994,0,0,0,65.055-.945ZM61.414-8.328h1.367v1.109A3.413,3.413,0,0,1,63.7-8.1a2.967,2.967,0,0,1,1.672-.469,3.144,3.144,0,0,1,2.414,1.09,4.465,4.465,0,0,1,.992,3.113,4.781,4.781,0,0,1-1.43,3.906,3.23,3.23,0,0,1-2.109.742,2.863,2.863,0,0,1-1.586-.414,3.654,3.654,0,0,1-.836-.8V3.336H61.414Zm12.492-.227a3.817,3.817,0,0,1,1.727.418,3.184,3.184,0,0,1,1.273,1.082,3.733,3.733,0,0,1,.563,1.477,9.66,9.66,0,0,1,.125,1.844H71.461a3.579,3.579,0,0,0,.6,2.043,2.014,2.014,0,0,0,1.742.77,2.252,2.252,0,0,0,1.758-.727,2.449,2.449,0,0,0,.531-.977h1.383A2.912,2.912,0,0,1,77.113-1.6a3.654,3.654,0,0,1-.691.926,3.277,3.277,0,0,1-1.586.844A4.818,4.818,0,0,1,73.688.3,3.524,3.524,0,0,1,71.039-.84a4.423,4.423,0,0,1-1.086-3.184A4.809,4.809,0,0,1,71.047-7.3,3.608,3.608,0,0,1,73.906-8.555Zm2.242,3.7a3.643,3.643,0,0,0-.4-1.461,2.042,2.042,0,0,0-1.93-1.016,2.139,2.139,0,0,0-1.625.7,2.641,2.641,0,0,0-.7,1.777ZM79.32-8.367h1.336V-7.18a3.747,3.747,0,0,1,1.258-1.055,3.354,3.354,0,0,1,1.477-.32A2.435,2.435,0,0,1,85.8-7.312a4.411,4.411,0,0,1,.344,1.945V0h-1.43V-5.273a2.856,2.856,0,0,0-.227-1.234,1.374,1.374,0,0,0-1.359-.781,2.768,2.768,0,0,0-.82.1,2.113,2.113,0,0,0-1.016.688,2.07,2.07,0,0,0-.457.855,5.758,5.758,0,0,0-.105,1.262V0H79.32Zm9.734,5.742a2.045,2.045,0,0,0,.352,1.078,2.209,2.209,0,0,0,1.844.68,2.719,2.719,0,0,0,1.375-.34,1.129,1.129,0,0,0,.594-1.051.9.9,0,0,0-.477-.82,5.666,5.666,0,0,0-1.2-.4l-1.117-.281a5.45,5.45,0,0,1-1.578-.594,1.775,1.775,0,0,1-.906-1.578,2.411,2.411,0,0,1,.855-1.922,3.413,3.413,0,0,1,2.3-.734A3.194,3.194,0,0,1,93.82-7.477a2.407,2.407,0,0,1,.508,1.516H93a1.627,1.627,0,0,0-.336-.867,2.143,2.143,0,0,0-1.68-.555,2.008,2.008,0,0,0-1.207.3.955.955,0,0,0-.41.8.991.991,0,0,0,.539.875,3.239,3.239,0,0,0,.922.344l.93.227a7.188,7.188,0,0,1,2.031.711,1.882,1.882,0,0,1,.82,1.7,2.584,2.584,0,0,1-.848,1.93A3.608,3.608,0,0,1,91.18.32a3.464,3.464,0,0,1-2.645-.848,3.206,3.206,0,0,1-.832-2.1ZM99.7-8.555a3.817,3.817,0,0,1,1.727.418A3.184,3.184,0,0,1,102.7-7.055a3.733,3.733,0,0,1,.563,1.477,9.66,9.66,0,0,1,.125,1.844H97.258a3.579,3.579,0,0,0,.6,2.043,2.014,2.014,0,0,0,1.742.77,2.252,2.252,0,0,0,1.758-.727,2.449,2.449,0,0,0,.531-.977h1.383A2.912,2.912,0,0,1,102.91-1.6a3.654,3.654,0,0,1-.691.926,3.277,3.277,0,0,1-1.586.844A4.818,4.818,0,0,1,99.484.3,3.524,3.524,0,0,1,96.836-.84,4.423,4.423,0,0,1,95.75-4.023,4.809,4.809,0,0,1,96.844-7.3,3.608,3.608,0,0,1,99.7-8.555Zm2.242,3.7a3.643,3.643,0,0,0-.4-1.461,2.042,2.042,0,0,0-1.93-1.016,2.139,2.139,0,0,0-1.625.7,2.641,2.641,0,0,0-.7,1.777Zm4.008,2.227a2.045,2.045,0,0,0,.352,1.078,2.209,2.209,0,0,0,1.844.68,2.719,2.719,0,0,0,1.375-.34,1.129,1.129,0,0,0,.594-1.051.9.9,0,0,0-.477-.82,5.666,5.666,0,0,0-1.2-.4l-1.117-.281a5.45,5.45,0,0,1-1.578-.594,1.775,1.775,0,0,1-.906-1.578,2.411,2.411,0,0,1,.855-1.922,3.413,3.413,0,0,1,2.3-.734,3.194,3.194,0,0,1,2.727,1.109,2.407,2.407,0,0,1,.508,1.516H109.9a1.627,1.627,0,0,0-.336-.867,2.143,2.143,0,0,0-1.68-.555,2.008,2.008,0,0,0-1.207.3.955.955,0,0,0-.41.8.991.991,0,0,0,.539.875,3.239,3.239,0,0,0,.922.344l.93.227a7.188,7.188,0,0,1,2.031.711,1.882,1.882,0,0,1,.82,1.7,2.584,2.584,0,0,1-.848,1.93,3.608,3.608,0,0,1-2.582.813,3.464,3.464,0,0,1-2.645-.848,3.206,3.206,0,0,1-.832-2.1Z" transform="translate(553.446 6659.055)"/>
    <path id="Path_1270" data-name="Path 1270" class="cls-4" d="M6.172-11.789a5.254,5.254,0,0,1,4.5,1.953,6.329,6.329,0,0,1,1.141,3.9,6.822,6.822,0,0,1-1.3,4.273,5.174,5.174,0,0,1-4.367,2,5.22,5.22,0,0,1-4.164-1.75A6.608,6.608,0,0,1,.625-5.68,6.784,6.784,0,0,1,1.781-9.664,5.009,5.009,0,0,1,6.172-11.789ZM6.328-1.055A3.237,3.237,0,0,0,9.3-2.527a6.268,6.268,0,0,0,.918-3.387A4.831,4.831,0,0,0,9.16-9.172a3.613,3.613,0,0,0-2.895-1.234A3.769,3.769,0,0,0,3.359-9.184,5.153,5.153,0,0,0,2.234-5.578,5.268,5.268,0,0,0,3.2-2.363,3.629,3.629,0,0,0,6.328-1.055Zm7.43-9.648H15.18v2.336h1.336v1.148H15.18v5.461a.591.591,0,0,0,.3.586,1.262,1.262,0,0,0,.547.086q.1,0,.219,0t.273-.02V0a3.139,3.139,0,0,1-.5.1,4.791,4.791,0,0,1-.566.031,1.527,1.527,0,0,1-1.336-.5,2.239,2.239,0,0,1-.352-1.309V-7.219H12.625V-8.367h1.133Zm4.164-.812h1.406v4.281a4.06,4.06,0,0,1,.9-.891,3.031,3.031,0,0,1,1.7-.445A2.507,2.507,0,0,1,24.391-7.3a4.343,4.343,0,0,1,.352,1.93V0H23.3V-5.273a2.949,2.949,0,0,0-.234-1.352,1.5,1.5,0,0,0-1.437-.687,2.4,2.4,0,0,0-1.586.6,2.892,2.892,0,0,0-.711,2.273V0H17.922ZM30.3-8.555a3.817,3.817,0,0,1,1.727.418A3.184,3.184,0,0,1,33.3-7.055a3.733,3.733,0,0,1,.563,1.477,9.661,9.661,0,0,1,.125,1.844H27.859a3.579,3.579,0,0,0,.6,2.043,2.014,2.014,0,0,0,1.742.77,2.252,2.252,0,0,0,1.758-.727,2.449,2.449,0,0,0,.531-.977h1.383A2.912,2.912,0,0,1,33.512-1.6a3.654,3.654,0,0,1-.691.926,3.277,3.277,0,0,1-1.586.844A4.818,4.818,0,0,1,30.086.3,3.524,3.524,0,0,1,27.438-.84a4.423,4.423,0,0,1-1.086-3.184A4.809,4.809,0,0,1,27.445-7.3,3.608,3.608,0,0,1,30.3-8.555Zm2.242,3.7a3.643,3.643,0,0,0-.4-1.461,2.042,2.042,0,0,0-1.93-1.016,2.139,2.139,0,0,0-1.625.7,2.641,2.641,0,0,0-.7,1.777Zm3.211-3.516h1.336v1.445a3.193,3.193,0,0,1,.8-1.027,2.086,2.086,0,0,1,1.477-.605q.039,0,.133.008l.32.031v1.484a2.1,2.1,0,0,0-.23-.031q-.105-.008-.23-.008a2.007,2.007,0,0,0-1.633.684,2.386,2.386,0,0,0-.57,1.574V0H35.758Zm13.219-.187a3.817,3.817,0,0,1,1.727.418,3.184,3.184,0,0,1,1.273,1.082,3.733,3.733,0,0,1,.563,1.477,9.661,9.661,0,0,1,.125,1.844H46.531a3.579,3.579,0,0,0,.6,2.043,2.014,2.014,0,0,0,1.742.77,2.252,2.252,0,0,0,1.758-.727,2.449,2.449,0,0,0,.531-.977h1.383A2.912,2.912,0,0,1,52.184-1.6a3.654,3.654,0,0,1-.691.926,3.277,3.277,0,0,1-1.586.844A4.818,4.818,0,0,1,48.758.3,3.524,3.524,0,0,1,46.109-.84a4.423,4.423,0,0,1-1.086-3.184A4.809,4.809,0,0,1,46.117-7.3,3.608,3.608,0,0,1,48.977-8.555Zm2.242,3.7a3.643,3.643,0,0,0-.4-1.461,2.042,2.042,0,0,0-1.93-1.016,2.139,2.139,0,0,0-1.625.7,2.641,2.641,0,0,0-.7,1.777Zm2.375-3.516h1.82l1.922,2.945,1.945-2.945,1.711.039-2.82,4.039L61.117,0h-1.8L57.242-3.141,55.227,0H53.445l2.945-4.289ZM65.922-.945a2.006,2.006,0,0,0,1.637-.824,3.922,3.922,0,0,0,.652-2.465,4.6,4.6,0,0,0-.289-1.719,2,2,0,0,0-2-1.383,1.994,1.994,0,0,0-2,1.461,5.79,5.79,0,0,0-.289,1.984,4.207,4.207,0,0,0,.289,1.648A1.994,1.994,0,0,0,65.922-.945ZM62.281-8.328h1.367v1.109A3.413,3.413,0,0,1,64.57-8.1a2.967,2.967,0,0,1,1.672-.469,3.144,3.144,0,0,1,2.414,1.09,4.465,4.465,0,0,1,.992,3.113,4.781,4.781,0,0,1-1.43,3.906,3.23,3.23,0,0,1-2.109.742,2.863,2.863,0,0,1-1.586-.414,3.654,3.654,0,0,1-.836-.8V3.336H62.281Zm12.492-.227a3.817,3.817,0,0,1,1.727.418,3.184,3.184,0,0,1,1.273,1.082,3.733,3.733,0,0,1,.563,1.477,9.66,9.66,0,0,1,.125,1.844H72.328a3.579,3.579,0,0,0,.6,2.043,2.014,2.014,0,0,0,1.742.77,2.252,2.252,0,0,0,1.758-.727,2.449,2.449,0,0,0,.531-.977h1.383A2.912,2.912,0,0,1,77.98-1.6a3.654,3.654,0,0,1-.691.926A3.277,3.277,0,0,1,75.7.172,4.818,4.818,0,0,1,74.555.3,3.524,3.524,0,0,1,71.906-.84,4.423,4.423,0,0,1,70.82-4.023,4.809,4.809,0,0,1,71.914-7.3,3.608,3.608,0,0,1,74.773-8.555Zm2.242,3.7a3.643,3.643,0,0,0-.4-1.461,2.042,2.042,0,0,0-1.93-1.016,2.139,2.139,0,0,0-1.625.7,2.641,2.641,0,0,0-.7,1.777Zm3.172-3.516h1.336V-7.18a3.747,3.747,0,0,1,1.258-1.055,3.354,3.354,0,0,1,1.477-.32,2.435,2.435,0,0,1,2.406,1.242,4.411,4.411,0,0,1,.344,1.945V0h-1.43V-5.273a2.856,2.856,0,0,0-.227-1.234,1.374,1.374,0,0,0-1.359-.781,2.768,2.768,0,0,0-.82.1,2.113,2.113,0,0,0-1.016.688,2.07,2.07,0,0,0-.457.855,5.758,5.758,0,0,0-.105,1.262V0H80.188Zm9.734,5.742a2.045,2.045,0,0,0,.352,1.078,2.209,2.209,0,0,0,1.844.68,2.719,2.719,0,0,0,1.375-.34,1.129,1.129,0,0,0,.594-1.051.9.9,0,0,0-.477-.82,5.666,5.666,0,0,0-1.2-.4l-1.117-.281a5.45,5.45,0,0,1-1.578-.594A1.775,1.775,0,0,1,88.8-5.93a2.411,2.411,0,0,1,.855-1.922,3.413,3.413,0,0,1,2.3-.734,3.194,3.194,0,0,1,2.727,1.109A2.407,2.407,0,0,1,95.2-5.961H93.867a1.627,1.627,0,0,0-.336-.867,2.143,2.143,0,0,0-1.68-.555,2.008,2.008,0,0,0-1.207.3.955.955,0,0,0-.41.8.991.991,0,0,0,.539.875,3.239,3.239,0,0,0,.922.344l.93.227a7.188,7.188,0,0,1,2.031.711,1.882,1.882,0,0,1,.82,1.7,2.584,2.584,0,0,1-.848,1.93A3.608,3.608,0,0,1,92.047.32,3.464,3.464,0,0,1,89.4-.527a3.206,3.206,0,0,1-.832-2.1Zm10.648-5.93a3.817,3.817,0,0,1,1.727.418,3.184,3.184,0,0,1,1.273,1.082,3.733,3.733,0,0,1,.563,1.477,9.66,9.66,0,0,1,.125,1.844H98.125a3.579,3.579,0,0,0,.6,2.043,2.014,2.014,0,0,0,1.742.77,2.252,2.252,0,0,0,1.758-.727,2.449,2.449,0,0,0,.531-.977h1.383a2.912,2.912,0,0,1-.363,1.027,3.654,3.654,0,0,1-.691.926A3.277,3.277,0,0,1,101.5.172,4.818,4.818,0,0,1,100.352.3,3.524,3.524,0,0,1,97.7-.84a4.423,4.423,0,0,1-1.086-3.184A4.809,4.809,0,0,1,97.711-7.3,3.608,3.608,0,0,1,100.57-8.555Zm2.242,3.7a3.643,3.643,0,0,0-.4-1.461,2.042,2.042,0,0,0-1.93-1.016,2.139,2.139,0,0,0-1.625.7,2.641,2.641,0,0,0-.7,1.777Zm4.008,2.227a2.045,2.045,0,0,0,.352,1.078,2.209,2.209,0,0,0,1.844.68,2.719,2.719,0,0,0,1.375-.34,1.129,1.129,0,0,0,.594-1.051.9.9,0,0,0-.477-.82,5.666,5.666,0,0,0-1.2-.4l-1.117-.281a5.45,5.45,0,0,1-1.578-.594A1.775,1.775,0,0,1,105.7-5.93a2.411,2.411,0,0,1,.855-1.922,3.413,3.413,0,0,1,2.3-.734,3.194,3.194,0,0,1,2.727,1.109,2.407,2.407,0,0,1,.508,1.516h-1.328a1.627,1.627,0,0,0-.336-.867,2.143,2.143,0,0,0-1.68-.555,2.008,2.008,0,0,0-1.207.3.955.955,0,0,0-.41.8.991.991,0,0,0,.539.875,3.239,3.239,0,0,0,.922.344l.93.227a7.188,7.188,0,0,1,2.031.711,1.882,1.882,0,0,1,.82,1.7,2.584,2.584,0,0,1-.848,1.93,3.608,3.608,0,0,1-2.582.813A3.464,3.464,0,0,1,106.3-.527a3.206,3.206,0,0,1-.832-2.1Z" transform="translate(154.013 6456.241)"/>
    <path id="Path_1278" data-name="Path 1278" class="cls-13" d="M-22.935-7.773a3.766,3.766,0,0,0,2.163-.547,2.226,2.226,0,0,0,.8-1.973,2.116,2.116,0,0,0-1.113-2.09,3.638,3.638,0,0,0-1.592-.293h-4.746v4.9Zm-6.436-6.572h6.641a6.623,6.623,0,0,1,2.705.479A3.388,3.388,0,0,1-18-10.479a3.811,3.811,0,0,1-.532,2.109,3.846,3.846,0,0,1-1.489,1.318,2.934,2.934,0,0,1,1.265.9,3.227,3.227,0,0,1,.474,1.807l.068,1.924A5.914,5.914,0,0,0-18.081-1.2a1.2,1.2,0,0,0,.625.879V0h-2.383A1.792,1.792,0,0,1-20-.479a9.185,9.185,0,0,1-.1-1.133L-20.21-4a2.01,2.01,0,0,0-1.045-1.885A4.322,4.322,0,0,0-23-6.152h-4.424V0H-29.37ZM-14.048-2.783a1.448,1.448,0,0,0,.557,1.2,2.064,2.064,0,0,0,1.318.439,4.008,4.008,0,0,0,1.8-.43A2.418,2.418,0,0,0-8.911-3.906V-5.322a3.007,3.007,0,0,1-.83.342,7.073,7.073,0,0,1-1,.2l-1.064.137a4.071,4.071,0,0,0-1.436.4A1.56,1.56,0,0,0-14.048-2.783ZM-9.79-6.338a.955.955,0,0,0,.811-.508,1.545,1.545,0,0,0,.117-.674,1.428,1.428,0,0,0-.64-1.3,3.432,3.432,0,0,0-1.831-.405,2.327,2.327,0,0,0-1.953.742,2.442,2.442,0,0,0-.42,1.221h-1.641a3.02,3.02,0,0,1,1.255-2.69,5.152,5.152,0,0,1,2.8-.757,5.693,5.693,0,0,1,3,.7A2.385,2.385,0,0,1-7.153-7.822V-1.8a.771.771,0,0,0,.112.439.542.542,0,0,0,.474.166q.117,0,.264-.015t.313-.044v1.3A4.9,4.9,0,0,1-6.616.2,4.567,4.567,0,0,1-7.2.225,1.446,1.446,0,0,1-8.521-.42a2.487,2.487,0,0,1-.3-.967A4.472,4.472,0,0,1-10.366-.166a4.773,4.773,0,0,1-2.217.518,3.3,3.3,0,0,1-2.378-.884,2.936,2.936,0,0,1-.923-2.212A2.849,2.849,0,0,1-14.976-5a4.321,4.321,0,0,1,2.383-.986Zm5.518-4.072h1.787V0H-4.272Zm0-3.936h1.787v1.992H-4.272ZM1.216-3.281a2.556,2.556,0,0,0,.439,1.348,2.762,2.762,0,0,0,2.3.85,3.4,3.4,0,0,0,1.719-.425,1.411,1.411,0,0,0,.742-1.313,1.123,1.123,0,0,0-.6-1.025,7.083,7.083,0,0,0-1.5-.5L2.925-4.7A6.812,6.812,0,0,1,.952-5.439,2.218,2.218,0,0,1-.181-7.412a3.014,3.014,0,0,1,1.069-2.4,4.266,4.266,0,0,1,2.876-.918A3.992,3.992,0,0,1,7.173-9.346a3.009,3.009,0,0,1,.635,1.895H6.147a2.034,2.034,0,0,0-.42-1.084,2.678,2.678,0,0,0-2.1-.693,2.51,2.51,0,0,0-1.509.381,1.194,1.194,0,0,0-.513,1.006A1.238,1.238,0,0,0,2.28-6.748a4.049,4.049,0,0,0,1.152.43l1.162.283a8.985,8.985,0,0,1,2.539.889A2.353,2.353,0,0,1,8.159-3.027,3.229,3.229,0,0,1,7.1-.615,4.51,4.51,0,0,1,3.872.4,4.33,4.33,0,0,1,.566-.659,4.007,4.007,0,0,1-.474-3.281Zm13.311-7.412a4.771,4.771,0,0,1,2.158.522,3.98,3.98,0,0,1,1.592,1.353,4.666,4.666,0,0,1,.7,1.846,12.076,12.076,0,0,1,.156,2.3H11.47a4.473,4.473,0,0,0,.752,2.554,2.518,2.518,0,0,0,2.178.962,2.815,2.815,0,0,0,2.2-.908,3.062,3.062,0,0,0,.664-1.221h1.729A3.64,3.64,0,0,1,18.535-2,4.567,4.567,0,0,1,17.671-.84,4.1,4.1,0,0,1,15.688.215a6.022,6.022,0,0,1-1.436.156A4.4,4.4,0,0,1,10.942-1.05,5.529,5.529,0,0,1,9.585-5.029a6.011,6.011,0,0,1,1.367-4.092A4.51,4.51,0,0,1,14.526-10.693Zm2.8,4.629a4.554,4.554,0,0,0-.5-1.826,2.553,2.553,0,0,0-2.412-1.27,2.674,2.674,0,0,0-2.031.874,3.3,3.3,0,0,0-.869,2.222Zm5.078.957a5.184,5.184,0,0,0,.713,2.813,2.5,2.5,0,0,0,2.285,1.133,2.407,2.407,0,0,0,2.007-1.05A4.958,4.958,0,0,0,28.2-5.225a4.455,4.455,0,0,0-.811-2.935,2.528,2.528,0,0,0-2-.952A2.643,2.643,0,0,0,23.232-8.1,4.652,4.652,0,0,0,22.407-5.107Zm2.646-5.537a3.721,3.721,0,0,1,2.012.508A4.725,4.725,0,0,1,28.13-9.111v-5.283h1.689V0H28.237V-1.455a3.8,3.8,0,0,1-1.455,1.4,4.165,4.165,0,0,1-1.924.43A3.9,3.9,0,0,1,21.831-1.1,5.746,5.746,0,0,1,20.552-5.01a6.751,6.751,0,0,1,1.167-3.96A3.821,3.821,0,0,1,25.054-10.645Zm-46.138,18.3h9.951V9.412h-8.008v4.355H-12.1v1.709h-7.041V22h-1.943Zm13.555,3.887v6.943a2.928,2.928,0,0,0,.254,1.309,1.772,1.772,0,0,0,1.748.938,2.471,2.471,0,0,0,2.5-1.641,6.509,6.509,0,0,0,.361-2.412V11.541H-.908V22h-1.66l.02-1.543a3.546,3.546,0,0,1-.85,1.006,3.739,3.739,0,0,1-2.441.82,3.149,3.149,0,0,1-3.047-1.494,4.45,4.45,0,0,1-.439-2.139V11.541Zm9.365,0h1.67v1.484a4.684,4.684,0,0,1,1.572-1.318,4.193,4.193,0,0,1,1.846-.4,3.043,3.043,0,0,1,3.008,1.553,5.514,5.514,0,0,1,.43,2.432V22H8.574V15.408a3.569,3.569,0,0,0-.283-1.543,1.717,1.717,0,0,0-1.7-.977,3.46,3.46,0,0,0-1.025.127,2.641,2.641,0,0,0-1.27.859,2.587,2.587,0,0,0-.571,1.069,7.2,7.2,0,0,0-.132,1.577V22H1.836Zm12.236,5.352a5.184,5.184,0,0,0,.713,2.813,2.5,2.5,0,0,0,2.285,1.133,2.407,2.407,0,0,0,2.007-1.05,4.958,4.958,0,0,0,.786-3.013,4.455,4.455,0,0,0-.811-2.935,2.528,2.528,0,0,0-2-.952A2.643,2.643,0,0,0,14.9,13.9,4.652,4.652,0,0,0,14.072,16.893Zm2.646-5.537a3.721,3.721,0,0,1,2.012.508,4.725,4.725,0,0,1,1.064,1.025V7.605h1.689V22H19.9V20.545a3.8,3.8,0,0,1-1.455,1.4,4.165,4.165,0,0,1-1.924.43A3.9,3.9,0,0,1,13.5,20.9a5.746,5.746,0,0,1-1.279-3.911,6.751,6.751,0,0,1,1.167-3.96A3.821,3.821,0,0,1,16.719,11.355Z" transform="translate(416.685 6526.856)"/>
  </g>
</svg>
