<svg xmlns="http://www.w3.org/2000/svg" xmlns:xlink="http://www.w3.org/1999/xlink" viewBox="2487.624 4443.806 581.792 266.829"><defs><style>.a{fill:rgba(0,0,0,0);stroke:#707070;}.b{clip-path:url(#a);}.c{fill:#504b81;}.d{fill:#552934;}.e{fill:#f66055;}.f{fill:#f79f55;}.g{fill:#e6688f;}.h{fill:#9a3655;}.i{fill:#fff;}.j{font-size:15px;font-family:Helvetica;}.k,.l,.m,.n{fill:none;}.k{stroke:#9a3655;}.l{stroke:#f79f55;}.m{stroke:#e6688f;}.n{stroke:#f66055;}.o{filter:url(#b);}</style><clipPath id="a"><path class="a" d="M120.818,241.635a121.71,121.71,0,0,1-24.349-2.455A120.157,120.157,0,0,1,53.268,221,121.17,121.17,0,0,1,9.495,167.846a120.207,120.207,0,0,1-7.04-22.679,122,122,0,0,1,0-48.7,120.157,120.157,0,0,1,18.179-43.2A121.171,121.171,0,0,1,73.79,9.495a120.209,120.209,0,0,1,22.679-7.04,122,122,0,0,1,48.7,0,120.156,120.156,0,0,1,43.2,18.179A121.17,121.17,0,0,1,232.141,73.79a120.21,120.21,0,0,1,7.04,22.679,122,122,0,0,1,0,48.7A120.157,120.157,0,0,1,221,188.368a121.169,121.169,0,0,1-53.156,43.773,120.208,120.208,0,0,1-22.679,7.04A121.71,121.71,0,0,1,120.818,241.635Zm0-192.733a71.915,71.915,0,1,0,71.915,71.915A72,72,0,0,0,120.818,48.9Z" transform="translate(0 0)"/></clipPath><filter id="b" x="2670.512" y="4445.6" width="160.932" height="160.844" filterUnits="userSpaceOnUse"><feOffset dy="3" input="SourceAlpha"/><feGaussianBlur stdDeviation="5" result="c"/><feFlood flood-opacity="0.302"/><feComposite operator="in" in2="c"/><feComposite in="SourceGraphic"/></filter></defs><g transform="translate(1758 4191)"><g transform="translate(858 -4313)"><g class="b" transform="translate(81 4591)"><g class="o" transform="matrix(1, 0, 0, 1, -2697, -4469)"><path class="c" d="M823.958,4796.992l-130.932-76.773v-54.071Z" transform="translate(1992.49 -208.55)"/></g><path class="d" d="M691.812,4665.872l132.419,131.043-64.264-131.043Z" transform="translate(-704.787 -4677.47)"/><path class="e" d="M691.716,4685.994l1.31,109.519L823.1,4816.987Z" transform="translate(-704.514 -4698.44)"/><path class="f" d="M692.44,4799.79l1.56,87.974,130.232-49.246Z" transform="translate(-704.787 -4719.686)"/><path class="g" d="M692.44,4799.79l1.56,87.974,130.232-49.246Z" transform="translate(-3476.143 -3239.943) rotate(-37)"/><path class="h" d="M760.368,4667H957.64l.286,264.477H693.942v-42.441l129.988-91.841Z" transform="translate(-704.771 -4677.787)"/></g><circle class="i" cx="91.854" cy="91.854" r="91.854" transform="translate(109.464 4619.464)"/></g><path d="M7.844-10.312v1.15A12.251,12.251,0,0,0,6.5-7.456,17.3,17.3,0,0,0,5.017-4.834a17.919,17.919,0,0,0-.967,2.5Q3.838-1.611,3.5,0H2.043a17.949,17.949,0,0,1,2.2-5.977A18.92,18.92,0,0,1,6.35-8.987H.549v-1.326Zm4.556-.176a3.1,3.1,0,0,1,2.944,1.677,7.5,7.5,0,0,1,.7,3.552,8.554,8.554,0,0,1-.637,3.538A3.12,3.12,0,0,1,12.393.286,3.022,3.022,0,0,1,9.58-1.355a7.512,7.512,0,0,1-.769-3.677A9.084,9.084,0,0,1,9.272-8.1,3.158,3.158,0,0,1,12.4-10.488ZM12.385-.916a1.876,1.876,0,0,0,1.633-.908,6.575,6.575,0,0,0,.608-3.384,8.36,8.36,0,0,0-.439-2.941A1.672,1.672,0,0,0,12.48-9.3a1.784,1.784,0,0,0-1.7,1.095,7.561,7.561,0,0,0-.538,3.226A7.923,7.923,0,0,0,10.583-2.4,1.876,1.876,0,0,0,12.385-.916ZM26.909-5.1a2.455,2.455,0,0,1,1.8.747,2.455,2.455,0,0,1,.747,1.8,2.455,2.455,0,0,1-.747,1.8,2.455,2.455,0,0,1-1.8.747A2.464,2.464,0,0,1,25.1-.747a2.455,2.455,0,0,1-.747-1.8,2.455,2.455,0,0,1,.747-1.8A2.464,2.464,0,0,1,26.909-5.1Zm-1.062-5.347h.813L20.793.278H19.98Zm-6.13,4.336a1.461,1.461,0,0,0,1.073-.443,1.453,1.453,0,0,0,.443-1.066,1.453,1.453,0,0,0-.443-1.066,1.461,1.461,0,0,0-1.073-.443,1.459,1.459,0,0,0-1.066.439,1.449,1.449,0,0,0-.443,1.069,1.453,1.453,0,0,0,.443,1.066A1.453,1.453,0,0,0,19.717-6.108Zm0-4.065a2.458,2.458,0,0,1,1.809.751,2.468,2.468,0,0,1,.747,1.805,2.455,2.455,0,0,1-.747,1.8,2.464,2.464,0,0,1-1.809.747,2.455,2.455,0,0,1-1.8-.747,2.455,2.455,0,0,1-.747-1.8,2.468,2.468,0,0,1,.747-1.805A2.449,2.449,0,0,1,19.717-10.173ZM26.909-1.04a1.453,1.453,0,0,0,1.066-.443,1.453,1.453,0,0,0,.443-1.066,1.453,1.453,0,0,0-.443-1.066,1.453,1.453,0,0,0-1.066-.443,1.461,1.461,0,0,0-1.073.443,1.453,1.453,0,0,0-.443,1.066,1.453,1.453,0,0,0,.443,1.066A1.461,1.461,0,0,0,26.909-1.04Z" transform="translate(1197 404)"/><text class="j" transform="translate(899 404)"><tspan x="0" y="0">15%</tspan></text><text class="j" transform="translate(927 328)"><tspan x="0" y="0">7%</tspan></text><text class="j" transform="translate(912 475)"><tspan x="0" y="0">3%</tspan></text><text class="j" transform="translate(969 288)"><tspan x="0" y="0">5%</tspan></text><path d="M-22.014-3.636a5.163,5.163,0,0,1-.457,2.4A3.327,3.327,0,0,1-25.691.324a3.739,3.739,0,0,1-2.341-.743A3.141,3.141,0,0,1-29-3.063v-.872h1.552v.872a2.2,2.2,0,0,0,.444,1.5,1.752,1.752,0,0,0,1.382.5,1.691,1.691,0,0,0,1.727-.9,5.889,5.889,0,0,0,.249-2.1v-8.126h1.635Zm3.461,1.27a1.23,1.23,0,0,0,.473,1.021,1.754,1.754,0,0,0,1.121.374,3.407,3.407,0,0,0,1.527-.365A2.056,2.056,0,0,0-14.186-3.32v-1.2a2.556,2.556,0,0,1-.706.291,6.012,6.012,0,0,1-.847.166l-.9.116a3.46,3.46,0,0,0-1.22.34A1.326,1.326,0,0,0-18.552-2.366Zm3.619-3.021a.812.812,0,0,0,.689-.432,1.313,1.313,0,0,0,.1-.573A1.213,1.213,0,0,0-14.688-7.5a2.917,2.917,0,0,0-1.556-.344,1.978,1.978,0,0,0-1.66.631,2.075,2.075,0,0,0-.357,1.038h-1.395A2.567,2.567,0,0,1-18.59-8.463a4.379,4.379,0,0,1,2.378-.643,4.839,4.839,0,0,1,2.548.6,2.028,2.028,0,0,1,.971,1.859v5.122a.656.656,0,0,0,.1.374.46.46,0,0,0,.4.141q.1,0,.224-.012t.266-.037v1.1a4.161,4.161,0,0,1-.531.125,3.882,3.882,0,0,1-.5.025,1.229,1.229,0,0,1-1.121-.548,2.114,2.114,0,0,1-.257-.822A3.8,3.8,0,0,1-15.423-.141,4.057,4.057,0,0,1-17.307.3a2.8,2.8,0,0,1-2.021-.751,2.5,2.5,0,0,1-.784-1.88,2.422,2.422,0,0,1,.772-1.917,3.673,3.673,0,0,1,2.025-.838Zm8.118-3.76a3.876,3.876,0,0,1,2.445.73A3.5,3.5,0,0,1-3.237-5.9H-4.69A2.682,2.682,0,0,0-5.3-7.267a1.914,1.914,0,0,0-1.519-.544A2.1,2.1,0,0,0-8.857-6.417a5.54,5.54,0,0,0-.4,2.233,4.2,4.2,0,0,0,.564,2.25,1.936,1.936,0,0,0,1.776.913A1.942,1.942,0,0,0-5.441-1.59,3.127,3.127,0,0,0-4.69-3.146h1.453A3.9,3.9,0,0,1-4.482-.56,3.885,3.885,0,0,1-7.031.257,3.4,3.4,0,0,1-9.812-1.017,4.877,4.877,0,0,1-10.849-4.2,5.363,5.363,0,0,1-9.712-7.844,3.675,3.675,0,0,1-6.815-9.147Zm5.039-3.046H-.34v7.081L3.495-8.89H5.4L2-5.562,5.595,0H3.686L.913-4.482-.34-3.337V0H-1.776ZM10.509-1a2.132,2.132,0,0,0,1.739-.876A4.167,4.167,0,0,0,12.941-4.5a4.888,4.888,0,0,0-.307-1.826,2.12,2.12,0,0,0-2.125-1.469A2.119,2.119,0,0,0,8.384-6.242a6.152,6.152,0,0,0-.307,2.108,4.469,4.469,0,0,0,.307,1.751A2.119,2.119,0,0,0,10.509-1ZM6.641-8.849H8.093V-7.67a3.627,3.627,0,0,1,.979-.938,3.153,3.153,0,0,1,1.776-.5,3.34,3.34,0,0,1,2.565,1.158A4.744,4.744,0,0,1,14.468-4.64q0,2.905-1.519,4.15A3.432,3.432,0,0,1,10.708.3a3.042,3.042,0,0,1-1.685-.44A3.882,3.882,0,0,1,8.135-1V3.544H6.641Zm13.1,7.886a2.061,2.061,0,0,0,2.038-1.125,5.6,5.6,0,0,0,.552-2.5,4.456,4.456,0,0,0-.4-2.025,2.241,2.241,0,0,0-2.175-1.229A2.145,2.145,0,0,0,17.764-6.8a4.848,4.848,0,0,0-.623,2.523,4.217,4.217,0,0,0,.623,2.366A2.193,2.193,0,0,0,19.739-.963ZM19.8-9.147A4.026,4.026,0,0,1,22.7-8a4.473,4.473,0,0,1,1.187,3.37,5.782,5.782,0,0,1-1.046,3.553A3.783,3.783,0,0,1,19.6.324,3.664,3.664,0,0,1,16.685-.917,4.9,4.9,0,0,1,15.605-4.25a5.3,5.3,0,0,1,1.137-3.569A3.817,3.817,0,0,1,19.8-9.147Zm6.167-2.225h1.511V-8.89H28.9v1.22H27.476v5.8a.628.628,0,0,0,.315.623,1.341,1.341,0,0,0,.581.091q.108,0,.232,0t.291-.021V0a3.335,3.335,0,0,1-.535.108,5.09,5.09,0,0,1-.6.033,1.622,1.622,0,0,1-1.419-.535,2.379,2.379,0,0,1-.374-1.39V-7.67h-1.2V-8.89h1.2Z" transform="translate(851 332)"/><path d="M-67.481-12.194v1.453H-71.59V0h-1.677V-10.741h-4.109v-1.453ZM-64.526-.963a2.061,2.061,0,0,0,2.038-1.125,5.6,5.6,0,0,0,.552-2.5,4.456,4.456,0,0,0-.4-2.025A2.241,2.241,0,0,0-64.51-7.844,2.145,2.145,0,0,0-66.5-6.8a4.848,4.848,0,0,0-.623,2.523A4.217,4.217,0,0,0-66.5-1.909,2.193,2.193,0,0,0-64.526-.963Zm.058-8.185A4.026,4.026,0,0,1-61.563-8a4.473,4.473,0,0,1,1.187,3.37,5.782,5.782,0,0,1-1.046,3.553,3.783,3.783,0,0,1-3.246,1.4A3.664,3.664,0,0,1-67.581-.917,4.9,4.9,0,0,1-68.66-4.25a5.3,5.3,0,0,1,1.137-3.569A3.817,3.817,0,0,1-64.468-9.147ZM-45.1-12.194v1.453h-4.109V0h-1.677V-10.741H-55v-1.453Zm1.312-.042H-42.3v4.549a4.314,4.314,0,0,1,.955-.946,3.22,3.22,0,0,1,1.8-.473,2.664,2.664,0,0,1,2.623,1.353,4.614,4.614,0,0,1,.374,2.05V0H-38.08V-5.6a3.134,3.134,0,0,0-.249-1.436,1.591,1.591,0,0,0-1.527-.73,2.544,2.544,0,0,0-1.685.639A3.073,3.073,0,0,0-42.3-4.715V0h-1.494Zm13.157,3.146a4.055,4.055,0,0,1,1.834.444A3.383,3.383,0,0,1-27.447-7.5a3.966,3.966,0,0,1,.6,1.569,10.264,10.264,0,0,1,.133,1.959h-6.516A3.8,3.8,0,0,0-32.593-1.8a2.14,2.14,0,0,0,1.851.818,2.393,2.393,0,0,0,1.868-.772,2.6,2.6,0,0,0,.564-1.038h1.469A3.094,3.094,0,0,1-27.227-1.7a3.882,3.882,0,0,1-.735.984,3.482,3.482,0,0,1-1.685.9,5.119,5.119,0,0,1-1.22.133A3.744,3.744,0,0,1-33.68-.892a4.7,4.7,0,0,1-1.154-3.383,5.11,5.11,0,0,1,1.162-3.478A3.834,3.834,0,0,1-30.634-9.089Zm2.382,3.935a3.871,3.871,0,0,0-.423-1.552,2.17,2.17,0,0,0-2.05-1.079,2.273,2.273,0,0,0-1.727.743,2.806,2.806,0,0,0-.739,1.888Zm8.45-7.039h5.487a3.72,3.72,0,0,1,2.623.917,3.328,3.328,0,0,1,1,2.577,3.747,3.747,0,0,1-.888,2.486,3.365,3.365,0,0,1-2.731,1.058H-18.15V0H-19.8Zm7.438,3.5a1.835,1.835,0,0,0-1-1.826,3.6,3.6,0,0,0-1.5-.257H-18.15v4.225h3.287a3.142,3.142,0,0,0,1.805-.473A1.875,1.875,0,0,0-12.364-8.691Zm3.586-.2h1.419v1.536A3.393,3.393,0,0,1-6.5-8.446a2.217,2.217,0,0,1,1.569-.643q.042,0,.141.008l.34.033v1.577A2.232,2.232,0,0,0-4.7-7.5q-.112-.008-.245-.008a2.132,2.132,0,0,0-1.735.726,2.535,2.535,0,0,0-.606,1.673V0H-8.778ZM.369-.963A2.061,2.061,0,0,0,2.407-2.088a5.6,5.6,0,0,0,.552-2.5,4.456,4.456,0,0,0-.4-2.025A2.241,2.241,0,0,0,.386-7.844,2.145,2.145,0,0,0-1.606-6.8a4.848,4.848,0,0,0-.623,2.523,4.217,4.217,0,0,0,.623,2.366A2.193,2.193,0,0,0,.369-.963ZM.427-9.147A4.026,4.026,0,0,1,3.333-8,4.473,4.473,0,0,1,4.52-4.632,5.782,5.782,0,0,1,3.474-1.079,3.783,3.783,0,0,1,.228.324,3.664,3.664,0,0,1-2.685-.917,4.9,4.9,0,0,1-3.764-4.25,5.3,5.3,0,0,1-2.627-7.819,3.817,3.817,0,0,1,.427-9.147Zm7.363-1.32H6.3v-1.727H7.79ZM4.885,2.25a2.974,2.974,0,0,0,1.208-.178q.2-.145.2-.909V-8.849H7.79V1.32a2.683,2.683,0,0,1-.315,1.453,2.182,2.182,0,0,1-1.984.813q-.108,0-.228-.008t-.378-.033Zm8.89-11.339a4.055,4.055,0,0,1,1.834.444A3.383,3.383,0,0,1,16.963-7.5a3.966,3.966,0,0,1,.6,1.569,10.264,10.264,0,0,1,.133,1.959H11.177A3.8,3.8,0,0,0,11.816-1.8a2.14,2.14,0,0,0,1.851.818,2.393,2.393,0,0,0,1.868-.772A2.6,2.6,0,0,0,16.1-2.789h1.469A3.094,3.094,0,0,1,17.183-1.7a3.882,3.882,0,0,1-.735.984,3.482,3.482,0,0,1-1.685.9,5.119,5.119,0,0,1-1.22.133A3.744,3.744,0,0,1,10.729-.892,4.7,4.7,0,0,1,9.575-4.275a5.11,5.11,0,0,1,1.162-3.478A3.834,3.834,0,0,1,13.775-9.089Zm2.382,3.935a3.871,3.871,0,0,0-.423-1.552,2.17,2.17,0,0,0-2.05-1.079,2.273,2.273,0,0,0-1.727.743,2.806,2.806,0,0,0-.739,1.888Zm6.8-3.993a3.876,3.876,0,0,1,2.445.73A3.5,3.5,0,0,1,26.533-5.9H25.081a2.682,2.682,0,0,0-.606-1.365,1.914,1.914,0,0,0-1.519-.544,2.1,2.1,0,0,0-2.042,1.395,5.54,5.54,0,0,0-.4,2.233,4.2,4.2,0,0,0,.564,2.25,1.936,1.936,0,0,0,1.776.913A1.942,1.942,0,0,0,24.33-1.59a3.127,3.127,0,0,0,.751-1.556h1.453A3.9,3.9,0,0,1,25.288-.56,3.885,3.885,0,0,1,22.74.257a3.4,3.4,0,0,1-2.781-1.274A4.877,4.877,0,0,1,18.922-4.2a5.363,5.363,0,0,1,1.137-3.644A3.675,3.675,0,0,1,22.956-9.147Zm5.371-2.225h1.511V-8.89h1.419v1.22H29.837v5.8a.628.628,0,0,0,.315.623,1.341,1.341,0,0,0,.581.091q.108,0,.232,0t.291-.021V0a3.335,3.335,0,0,1-.535.108,5.09,5.09,0,0,1-.6.033A1.622,1.622,0,0,1,28.7-.394a2.379,2.379,0,0,1-.374-1.39V-7.67h-1.2V-8.89h1.2Zm17.921-.822v1.453H42.139V0H40.462V-10.741H36.353v-1.453Zm3.129,3.1a4.055,4.055,0,0,1,1.834.444A3.383,3.383,0,0,1,52.565-7.5a3.966,3.966,0,0,1,.6,1.569A10.264,10.264,0,0,1,53.3-3.968H46.779A3.8,3.8,0,0,0,47.418-1.8a2.14,2.14,0,0,0,1.851.818,2.393,2.393,0,0,0,1.868-.772A2.6,2.6,0,0,0,51.7-2.789h1.469A3.094,3.094,0,0,1,52.785-1.7a3.882,3.882,0,0,1-.735.984,3.482,3.482,0,0,1-1.685.9,5.119,5.119,0,0,1-1.22.133A3.744,3.744,0,0,1,46.331-.892a4.7,4.7,0,0,1-1.154-3.383,5.11,5.11,0,0,1,1.162-3.478A3.834,3.834,0,0,1,49.377-9.089ZM51.76-5.155a3.871,3.871,0,0,0-.423-1.552,2.17,2.17,0,0,0-2.05-1.079,2.273,2.273,0,0,0-1.727.743,2.806,2.806,0,0,0-.739,1.888Zm4.516,2.789a1.23,1.23,0,0,0,.473,1.021,1.754,1.754,0,0,0,1.121.374A3.407,3.407,0,0,0,59.4-1.336,2.056,2.056,0,0,0,60.641-3.32v-1.2a2.556,2.556,0,0,1-.706.291,6.012,6.012,0,0,1-.847.166l-.9.116a3.46,3.46,0,0,0-1.22.34A1.326,1.326,0,0,0,56.275-2.366Zm3.619-3.021a.812.812,0,0,0,.689-.432,1.313,1.313,0,0,0,.1-.573A1.213,1.213,0,0,0,60.139-7.5a2.917,2.917,0,0,0-1.556-.344,1.978,1.978,0,0,0-1.66.631,2.076,2.076,0,0,0-.357,1.038H55.171a2.567,2.567,0,0,1,1.067-2.287,4.379,4.379,0,0,1,2.378-.643,4.839,4.839,0,0,1,2.548.6,2.028,2.028,0,0,1,.971,1.859v5.122a.656.656,0,0,0,.1.374.46.46,0,0,0,.4.141q.1,0,.224-.012t.266-.037v1.1a4.161,4.161,0,0,1-.531.125,3.882,3.882,0,0,1-.5.025,1.229,1.229,0,0,1-1.121-.548,2.114,2.114,0,0,1-.257-.822A3.8,3.8,0,0,1,59.4-.141,4.057,4.057,0,0,1,57.52.3,2.8,2.8,0,0,1,55.5-.452a2.5,2.5,0,0,1-.784-1.88,2.422,2.422,0,0,1,.772-1.917,3.673,3.673,0,0,1,2.025-.838Zm4.69-3.5h1.478v1.262a4.966,4.966,0,0,1,.963-.955A2.9,2.9,0,0,1,68.7-9.089a2.639,2.639,0,0,1,1.71.523,2.733,2.733,0,0,1,.664.88,3.229,3.229,0,0,1,1.17-1.058,3.265,3.265,0,0,1,1.511-.344A2.471,2.471,0,0,1,76.2-7.794a4.233,4.233,0,0,1,.349,1.876V0H74.993V-6.176a1.438,1.438,0,0,0-.444-1.22,1.758,1.758,0,0,0-1.083-.332,2.15,2.15,0,0,0-1.515.589,2.588,2.588,0,0,0-.635,1.967V0H69.8V-5.8a3.015,3.015,0,0,0-.216-1.32,1.316,1.316,0,0,0-1.27-.623,2.191,2.191,0,0,0-1.54.656,3.214,3.214,0,0,0-.693,2.374V0H64.584Z" transform="translate(807 424)"/><path d="M-46.422-6.607a3.2,3.2,0,0,0,1.839-.465,1.892,1.892,0,0,0,.677-1.677,1.8,1.8,0,0,0-.946-1.776,3.092,3.092,0,0,0-1.353-.249H-50.24v4.167Zm-5.47-5.586h5.645a5.629,5.629,0,0,1,2.3.407,2.88,2.88,0,0,1,1.718,2.88,3.239,3.239,0,0,1-.452,1.793,3.269,3.269,0,0,1-1.266,1.121,2.494,2.494,0,0,1,1.075.764,2.743,2.743,0,0,1,.4,1.536l.058,1.635A5.027,5.027,0,0,0-42.3-1.021a1.02,1.02,0,0,0,.531.747V0h-2.025a1.523,1.523,0,0,1-.133-.407,7.807,7.807,0,0,1-.083-.963l-.1-2.034a1.709,1.709,0,0,0-.888-1.6,3.674,3.674,0,0,0-1.486-.224h-3.76V0h-1.652Zm15.581,3.1a4.055,4.055,0,0,1,1.834.444A3.383,3.383,0,0,1-33.124-7.5a3.966,3.966,0,0,1,.6,1.569,10.264,10.264,0,0,1,.133,1.959H-38.91A3.8,3.8,0,0,0-38.271-1.8a2.14,2.14,0,0,0,1.851.818,2.393,2.393,0,0,0,1.868-.772,2.6,2.6,0,0,0,.564-1.038h1.469A3.094,3.094,0,0,1-32.9-1.7a3.882,3.882,0,0,1-.735.984,3.482,3.482,0,0,1-1.685.9,5.119,5.119,0,0,1-1.22.133A3.744,3.744,0,0,1-39.358-.892a4.7,4.7,0,0,1-1.154-3.383A5.11,5.11,0,0,1-39.35-7.753,3.834,3.834,0,0,1-36.312-9.089Zm2.382,3.935a3.871,3.871,0,0,0-.423-1.552A2.17,2.17,0,0,0-36.4-7.786a2.273,2.273,0,0,0-1.727.743,2.806,2.806,0,0,0-.739,1.888Zm4.258,2.366A2.173,2.173,0,0,0-29.3-1.644a2.347,2.347,0,0,0,1.959.722,2.889,2.889,0,0,0,1.461-.361A1.2,1.2,0,0,0-25.247-2.4a.955.955,0,0,0-.506-.872,6.02,6.02,0,0,0-1.278-.423l-1.187-.3A5.79,5.79,0,0,1-29.9-4.624,1.886,1.886,0,0,1-30.858-6.3a2.562,2.562,0,0,1,.909-2.042,3.626,3.626,0,0,1,2.445-.78,3.394,3.394,0,0,1,2.9,1.179,2.558,2.558,0,0,1,.54,1.61h-1.411a1.729,1.729,0,0,0-.357-.921,2.276,2.276,0,0,0-1.785-.589,2.133,2.133,0,0,0-1.282.324,1.015,1.015,0,0,0-.436.855,1.052,1.052,0,0,0,.573.93,3.442,3.442,0,0,0,.979.365l.988.241a7.637,7.637,0,0,1,2.158.755,2,2,0,0,1,.872,1.8,2.745,2.745,0,0,1-.9,2.05A3.834,3.834,0,0,1-27.413.34a3.681,3.681,0,0,1-2.81-.9,3.406,3.406,0,0,1-.884-2.229Zm11.314-6.3a4.055,4.055,0,0,1,1.834.444A3.383,3.383,0,0,1-15.17-7.5a3.966,3.966,0,0,1,.6,1.569,10.264,10.264,0,0,1,.133,1.959h-6.516A3.8,3.8,0,0,0-20.316-1.8a2.14,2.14,0,0,0,1.851.818A2.393,2.393,0,0,0-16.6-1.751a2.6,2.6,0,0,0,.564-1.038h1.469A3.094,3.094,0,0,1-14.95-1.7a3.882,3.882,0,0,1-.735.984,3.482,3.482,0,0,1-1.685.9,5.119,5.119,0,0,1-1.22.133A3.744,3.744,0,0,1-21.4-.892a4.7,4.7,0,0,1-1.154-3.383A5.11,5.11,0,0,1-21.4-7.753,3.834,3.834,0,0,1-18.357-9.089Zm2.382,3.935A3.871,3.871,0,0,0-16.4-6.707a2.17,2.17,0,0,0-2.05-1.079,2.273,2.273,0,0,0-1.727.743,2.806,2.806,0,0,0-.739,1.888Zm3.412-3.735h1.419v1.536a3.393,3.393,0,0,1,.855-1.092A2.217,2.217,0,0,1-8.72-9.089q.042,0,.141.008l.34.033v1.577A2.232,2.232,0,0,0-8.483-7.5q-.112-.008-.245-.008a2.132,2.132,0,0,0-1.735.726,2.535,2.535,0,0,0-.606,1.673V0h-1.494Zm6.35,0,2.374,7.238L-1.357-8.89H.278L-3.075,0H-4.669L-7.948-8.89Zm12.85-3.3h8.458V-10.7H8.288V-7h5.985v1.453H8.288V0H6.636ZM20.192-.963a2.061,2.061,0,0,0,2.038-1.125,5.6,5.6,0,0,0,.552-2.5,4.456,4.456,0,0,0-.4-2.025,2.241,2.241,0,0,0-2.175-1.229A2.145,2.145,0,0,0,18.216-6.8a4.848,4.848,0,0,0-.623,2.523,4.217,4.217,0,0,0,.623,2.366A2.193,2.193,0,0,0,20.192-.963Zm.058-8.185A4.026,4.026,0,0,1,23.155-8a4.473,4.473,0,0,1,1.187,3.37A5.782,5.782,0,0,1,23.3-1.079a3.783,3.783,0,0,1-3.246,1.4A3.664,3.664,0,0,1,17.137-.917,4.9,4.9,0,0,1,16.058-4.25,5.3,5.3,0,0,1,17.2-7.819,3.817,3.817,0,0,1,20.25-9.147Zm7.363.257v5.9a2.488,2.488,0,0,0,.216,1.112,1.506,1.506,0,0,0,1.486.8,2.1,2.1,0,0,0,2.125-1.395,5.533,5.533,0,0,0,.307-2.05V-8.89H33.24V0H31.829l.017-1.312a3.014,3.014,0,0,1-.722.855,3.178,3.178,0,0,1-2.075.7,2.677,2.677,0,0,1-2.59-1.27,3.782,3.782,0,0,1-.374-1.818V-8.89Zm7.96,0h1.419v1.262a3.981,3.981,0,0,1,1.336-1.121,3.564,3.564,0,0,1,1.569-.34,2.587,2.587,0,0,1,2.557,1.32A4.687,4.687,0,0,1,42.82-5.7V0H41.3V-5.6a3.034,3.034,0,0,0-.241-1.312,1.459,1.459,0,0,0-1.444-.83,2.941,2.941,0,0,0-.872.108,2.245,2.245,0,0,0-1.079.73A2.2,2.2,0,0,0,37.179-6a6.118,6.118,0,0,0-.112,1.341V0H35.573Zm10.4,4.549a4.407,4.407,0,0,0,.606,2.391,2.123,2.123,0,0,0,1.942.963,2.046,2.046,0,0,0,1.706-.892A4.214,4.214,0,0,0,50.9-4.441a3.787,3.787,0,0,0-.689-2.494,2.149,2.149,0,0,0-1.7-.809,2.246,2.246,0,0,0-1.83.863A3.954,3.954,0,0,0,45.974-4.341Zm2.25-4.707a3.163,3.163,0,0,1,1.71.432,4.017,4.017,0,0,1,.9.872v-4.491h1.436V0H50.929V-1.237A3.233,3.233,0,0,1,49.693-.05a3.54,3.54,0,0,1-1.635.365A3.311,3.311,0,0,1,45.484-.934,4.884,4.884,0,0,1,44.4-4.258a5.739,5.739,0,0,1,.992-3.366A3.248,3.248,0,0,1,48.223-9.048Z" transform="translate(840 500)"/><path d="M-55.541-7.039a3.705,3.705,0,0,0,1.627-.291A1.674,1.674,0,0,0-53-8.973a1.584,1.584,0,0,0-.971-1.61,4.365,4.365,0,0,0-1.627-.232h-2.947v3.777Zm.556,5.628a2.512,2.512,0,0,0,2.167-.88,2.216,2.216,0,0,0,.407-1.345A1.789,1.789,0,0,0-53.6-5.445,4.493,4.493,0,0,0-55.267-5.7h-3.279v4.292Zm-5.18-10.783h5.238a3.472,3.472,0,0,1,3.046,1.278,2.954,2.954,0,0,1,.531,1.743A2.745,2.745,0,0,1-52-7.28a3.2,3.2,0,0,1-.979.714,4.144,4.144,0,0,1,1.4.805,2.922,2.922,0,0,1,.822,2.2A3.4,3.4,0,0,1-51.5-1.428,4.16,4.16,0,0,1-55.009,0h-5.155ZM-45.455-.963a2.061,2.061,0,0,0,2.038-1.125,5.6,5.6,0,0,0,.552-2.5,4.456,4.456,0,0,0-.4-2.025,2.241,2.241,0,0,0-2.175-1.229A2.145,2.145,0,0,0-47.431-6.8a4.848,4.848,0,0,0-.623,2.523,4.217,4.217,0,0,0,.623,2.366A2.193,2.193,0,0,0-45.455-.963Zm.058-8.185A4.026,4.026,0,0,1-42.492-8,4.473,4.473,0,0,1-41.3-4.632a5.782,5.782,0,0,1-1.046,3.553A3.783,3.783,0,0,1-45.6.324,3.664,3.664,0,0,1-48.51-.917,4.9,4.9,0,0,1-49.589-4.25a5.3,5.3,0,0,1,1.137-3.569A3.817,3.817,0,0,1-45.4-9.147Zm7.363.257v5.9a2.489,2.489,0,0,0,.216,1.112,1.506,1.506,0,0,0,1.486.8,2.1,2.1,0,0,0,2.125-1.395,5.533,5.533,0,0,0,.307-2.05V-8.89h1.494V0h-1.411l.017-1.312a3.014,3.014,0,0,1-.722.855,3.178,3.178,0,0,1-2.075.7,2.677,2.677,0,0,1-2.59-1.27,3.782,3.782,0,0,1-.374-1.818V-8.89Zm7.96,0h1.419v1.262a3.981,3.981,0,0,1,1.336-1.121,3.564,3.564,0,0,1,1.569-.34,2.587,2.587,0,0,1,2.557,1.32A4.687,4.687,0,0,1-22.827-5.7V0h-1.519V-5.6a3.034,3.034,0,0,0-.241-1.312,1.459,1.459,0,0,0-1.444-.83,2.941,2.941,0,0,0-.872.108,2.245,2.245,0,0,0-1.079.73A2.2,2.2,0,0,0-28.468-6a6.118,6.118,0,0,0-.112,1.341V0h-1.494Zm9.753-2.482h1.511V-8.89h1.419v1.22H-18.81v5.8a.628.628,0,0,0,.315.623,1.341,1.341,0,0,0,.581.091q.108,0,.232,0t.291-.021V0a3.335,3.335,0,0,1-.535.108,5.09,5.09,0,0,1-.6.033,1.622,1.622,0,0,1-1.419-.535,2.379,2.379,0,0,1-.374-1.39V-7.67h-1.2V-8.89h1.2Zm9.978,2.482h1.652q-.315.855-1.4,3.9-.813,2.291-1.361,3.735A25.253,25.253,0,0,1-13.281,2.9a2.087,2.087,0,0,1-1.826.747,3.583,3.583,0,0,1-.486-.025,3.836,3.836,0,0,1-.419-.091V2.167a5.154,5.154,0,0,0,.564.133,2.2,2.2,0,0,0,.307.025,1.076,1.076,0,0,0,.61-.137,1.263,1.263,0,0,0,.328-.336q.042-.066.3-.681t.374-.913L-16.817-8.89h1.693l2.382,7.238Zm8.027-3.3H3.171a3.72,3.72,0,0,1,2.623.917,3.328,3.328,0,0,1,1,2.577A3.747,3.747,0,0,1,5.9-6.213,3.365,3.365,0,0,1,3.171-5.155H-.664V0H-2.316Zm7.438,3.5a1.835,1.835,0,0,0-1-1.826,3.6,3.6,0,0,0-1.5-.257H-.664v4.225H2.623a3.142,3.142,0,0,0,1.805-.473A1.875,1.875,0,0,0,5.122-8.691Zm3.586-.2h1.419v1.536a3.393,3.393,0,0,1,.855-1.092,2.217,2.217,0,0,1,1.569-.643q.042,0,.141.008l.34.033v1.577a2.232,2.232,0,0,0-.245-.033q-.112-.008-.245-.008a2.132,2.132,0,0,0-1.735.726A2.535,2.535,0,0,0,10.2-5.113V0H8.708ZM17.855-.963a2.061,2.061,0,0,0,2.038-1.125,5.6,5.6,0,0,0,.552-2.5,4.456,4.456,0,0,0-.4-2.025,2.241,2.241,0,0,0-2.175-1.229A2.145,2.145,0,0,0,15.879-6.8a4.848,4.848,0,0,0-.623,2.523,4.217,4.217,0,0,0,.623,2.366A2.193,2.193,0,0,0,17.855-.963Zm.058-8.185A4.026,4.026,0,0,1,20.818-8a4.473,4.473,0,0,1,1.187,3.37,5.782,5.782,0,0,1-1.046,3.553,3.783,3.783,0,0,1-3.246,1.4A3.664,3.664,0,0,1,14.8-.917,4.9,4.9,0,0,1,13.721-4.25a5.3,5.3,0,0,1,1.137-3.569A3.817,3.817,0,0,1,17.913-9.147Zm9.006.1a3.24,3.24,0,0,1,1.826.515,4.1,4.1,0,0,1,.863.847V-8.807h1.378V-.722a5.962,5.962,0,0,1-.5,2.673,3.576,3.576,0,0,1-3.511,1.81,4.307,4.307,0,0,1-2.416-.643,2.509,2.509,0,0,1-1.1-2.013h1.519a1.691,1.691,0,0,0,.432.921,2.2,2.2,0,0,0,1.594.5,2.193,2.193,0,0,0,2.25-1.212,6.825,6.825,0,0,0,.291-2.548A2.932,2.932,0,0,1,28.472-.224,3.59,3.59,0,0,1,26.8.108,3.562,3.562,0,0,1,24.276-.917a4.509,4.509,0,0,1-1.083-3.391,5.135,5.135,0,0,1,1.092-3.486A3.375,3.375,0,0,1,26.919-9.048Zm2.689,4.565a3.706,3.706,0,0,0-.681-2.449,2.181,2.181,0,0,0-1.735-.8A2.142,2.142,0,0,0,25.035-6.25a5.794,5.794,0,0,0-.307,2.067,3.669,3.669,0,0,0,.61,2.287,1.97,1.97,0,0,0,1.639.784,2.3,2.3,0,0,0,2.266-1.453A4.685,4.685,0,0,0,29.609-4.482ZM33.278-8.89H34.7v1.536a3.393,3.393,0,0,1,.855-1.092,2.217,2.217,0,0,1,1.569-.643q.042,0,.141.008l.34.033v1.577a2.232,2.232,0,0,0-.245-.033q-.112-.008-.245-.008a2.132,2.132,0,0,0-1.735.726,2.535,2.535,0,0,0-.606,1.673V0H33.278Zm6.765,6.524a1.23,1.23,0,0,0,.473,1.021,1.754,1.754,0,0,0,1.121.374,3.407,3.407,0,0,0,1.527-.365A2.056,2.056,0,0,0,44.409-3.32v-1.2a2.556,2.556,0,0,1-.706.291,6.012,6.012,0,0,1-.847.166l-.9.116a3.46,3.46,0,0,0-1.22.34A1.326,1.326,0,0,0,40.043-2.366Zm3.619-3.021a.812.812,0,0,0,.689-.432,1.313,1.313,0,0,0,.1-.573A1.213,1.213,0,0,0,43.907-7.5a2.917,2.917,0,0,0-1.556-.344,1.978,1.978,0,0,0-1.66.631,2.076,2.076,0,0,0-.357,1.038H38.939a2.567,2.567,0,0,1,1.067-2.287,4.379,4.379,0,0,1,2.378-.643,4.839,4.839,0,0,1,2.548.6A2.028,2.028,0,0,1,45.9-6.649v5.122a.656.656,0,0,0,.1.374.46.46,0,0,0,.4.141q.1,0,.224-.012t.266-.037v1.1a4.161,4.161,0,0,1-.531.125,3.882,3.882,0,0,1-.5.025,1.229,1.229,0,0,1-1.121-.548,2.114,2.114,0,0,1-.257-.822A3.8,3.8,0,0,1,43.172-.141,4.057,4.057,0,0,1,41.288.3a2.8,2.8,0,0,1-2.021-.751,2.5,2.5,0,0,1-.784-1.88,2.422,2.422,0,0,1,.772-1.917,3.673,3.673,0,0,1,2.025-.838Zm4.69-3.5H49.83v1.262a4.966,4.966,0,0,1,.963-.955,2.9,2.9,0,0,1,1.677-.506,2.639,2.639,0,0,1,1.71.523,2.733,2.733,0,0,1,.664.88,3.229,3.229,0,0,1,1.17-1.058,3.265,3.265,0,0,1,1.511-.344,2.471,2.471,0,0,1,2.44,1.295,4.233,4.233,0,0,1,.349,1.876V0H58.761V-6.176a1.438,1.438,0,0,0-.444-1.22,1.758,1.758,0,0,0-1.083-.332,2.15,2.15,0,0,0-1.515.589,2.588,2.588,0,0,0-.635,1.967V0H53.565V-5.8a3.015,3.015,0,0,0-.216-1.32,1.316,1.316,0,0,0-1.27-.623,2.191,2.191,0,0,0-1.54.656,3.214,3.214,0,0,0-.693,2.374V0H48.352Z" transform="translate(891 265)"/><path d="M-33.722-12.526a5,5,0,0,1,3.594,1.22,4.309,4.309,0,0,1,1.419,2.772h-1.61A3.351,3.351,0,0,0-31.41-10.4a3.46,3.46,0,0,0-2.3-.689,3.68,3.68,0,0,0-2.909,1.266,5.77,5.77,0,0,0-1.108,3.881,5.637,5.637,0,0,0,1,3.474,3.5,3.5,0,0,0,2.984,1.332,3.153,3.153,0,0,0,2.781-1.4A5.335,5.335,0,0,0-30.2-4.482h1.61A5.5,5.5,0,0,1-30.02-1.253,5.08,5.08,0,0,1-33.938.315,5.171,5.171,0,0,1-37.507-.971q-1.9-1.7-1.9-5.254A6.712,6.712,0,0,1-37.98-10.65,5.215,5.215,0,0,1-33.722-12.526Zm6.981,3.636h1.419v1.536a3.393,3.393,0,0,1,.855-1.092A2.217,2.217,0,0,1-22.9-9.089q.042,0,.141.008l.34.033v1.577a2.232,2.232,0,0,0-.245-.033q-.112-.008-.245-.008a2.132,2.132,0,0,0-1.735.726,2.535,2.535,0,0,0-.606,1.673V0h-1.494Zm9.147,7.927a2.061,2.061,0,0,0,2.038-1.125A5.6,5.6,0,0,0-15-4.59a4.456,4.456,0,0,0-.4-2.025,2.241,2.241,0,0,0-2.175-1.229A2.145,2.145,0,0,0-19.569-6.8a4.848,4.848,0,0,0-.623,2.523,4.217,4.217,0,0,0,.623,2.366A2.193,2.193,0,0,0-17.594-.963Zm.058-8.185A4.026,4.026,0,0,1-14.63-8a4.473,4.473,0,0,1,1.187,3.37,5.782,5.782,0,0,1-1.046,3.553,3.783,3.783,0,0,1-3.246,1.4A3.664,3.664,0,0,1-20.648-.917,4.9,4.9,0,0,1-21.727-4.25,5.3,5.3,0,0,1-20.59-7.819,3.817,3.817,0,0,1-17.535-9.147Zm6.558.257,1.71,7.006L-7.533-8.89h1.677l1.743,6.964L-2.3-8.89H-.8L-3.383,0H-4.935l-1.81-6.881L-8.5,0h-1.552l-2.565-8.89ZM1.556-4.341a4.407,4.407,0,0,0,.606,2.391A2.123,2.123,0,0,0,4.1-.988,2.046,2.046,0,0,0,5.811-1.88a4.214,4.214,0,0,0,.668-2.561A3.787,3.787,0,0,0,5.79-6.935a2.149,2.149,0,0,0-1.7-.809,2.246,2.246,0,0,0-1.83.863A3.954,3.954,0,0,0,1.556-4.341Zm2.25-4.707a3.163,3.163,0,0,1,1.71.432,4.017,4.017,0,0,1,.9.872v-4.491H7.857V0H6.512V-1.237A3.233,3.233,0,0,1,5.275-.05,3.54,3.54,0,0,1,3.64.315,3.311,3.311,0,0,1,1.067-.934,4.884,4.884,0,0,1-.021-4.258,5.739,5.739,0,0,1,.971-7.624,3.248,3.248,0,0,1,3.806-9.048Zm7.147,6.259a2.173,2.173,0,0,0,.374,1.146,2.347,2.347,0,0,0,1.959.722,2.889,2.889,0,0,0,1.461-.361A1.2,1.2,0,0,0,15.377-2.4a.955.955,0,0,0-.506-.872,6.02,6.02,0,0,0-1.278-.423l-1.187-.3a5.79,5.79,0,0,1-1.677-.631A1.886,1.886,0,0,1,9.766-6.3a2.562,2.562,0,0,1,.909-2.042,3.626,3.626,0,0,1,2.445-.78,3.394,3.394,0,0,1,2.9,1.179,2.558,2.558,0,0,1,.54,1.61H15.145a1.729,1.729,0,0,0-.357-.921A2.276,2.276,0,0,0,13-7.844a2.133,2.133,0,0,0-1.282.324,1.015,1.015,0,0,0-.436.855,1.052,1.052,0,0,0,.573.93,3.442,3.442,0,0,0,.979.365l.988.241a7.637,7.637,0,0,1,2.158.755,2,2,0,0,1,.872,1.8,2.745,2.745,0,0,1-.9,2.05A3.834,3.834,0,0,1,13.211.34a3.681,3.681,0,0,1-2.81-.9,3.406,3.406,0,0,1-.884-2.229Zm8.757.423a1.23,1.23,0,0,0,.473,1.021A1.754,1.754,0,0,0,21.3-.971a3.407,3.407,0,0,0,1.527-.365A2.056,2.056,0,0,0,24.076-3.32v-1.2a2.556,2.556,0,0,1-.706.291,6.012,6.012,0,0,1-.847.166l-.9.116a3.46,3.46,0,0,0-1.22.34A1.326,1.326,0,0,0,19.71-2.366Zm3.619-3.021a.812.812,0,0,0,.689-.432,1.313,1.313,0,0,0,.1-.573A1.213,1.213,0,0,0,23.574-7.5a2.917,2.917,0,0,0-1.556-.344,1.978,1.978,0,0,0-1.66.631A2.075,2.075,0,0,0,20-6.176H18.606a2.567,2.567,0,0,1,1.067-2.287,4.379,4.379,0,0,1,2.378-.643,4.839,4.839,0,0,1,2.548.6,2.028,2.028,0,0,1,.971,1.859v5.122a.656.656,0,0,0,.1.374.46.46,0,0,0,.4.141q.1,0,.224-.012t.266-.037v1.1a4.161,4.161,0,0,1-.531.125,3.882,3.882,0,0,1-.5.025,1.229,1.229,0,0,1-1.121-.548,2.114,2.114,0,0,1-.257-.822A3.8,3.8,0,0,1,22.84-.141,4.057,4.057,0,0,1,20.955.3a2.8,2.8,0,0,1-2.021-.751,2.5,2.5,0,0,1-.784-1.88,2.422,2.422,0,0,1,.772-1.917,3.673,3.673,0,0,1,2.025-.838Zm4.731-6.807h1.494V0H28.061Zm7.438,3.1a4.055,4.055,0,0,1,1.834.444A3.383,3.383,0,0,1,38.686-7.5a3.966,3.966,0,0,1,.6,1.569,10.264,10.264,0,0,1,.133,1.959H32.9A3.8,3.8,0,0,0,33.539-1.8a2.14,2.14,0,0,0,1.851.818,2.393,2.393,0,0,0,1.868-.772,2.6,2.6,0,0,0,.564-1.038h1.469A3.094,3.094,0,0,1,38.906-1.7a3.882,3.882,0,0,1-.735.984,3.482,3.482,0,0,1-1.685.9,5.119,5.119,0,0,1-1.22.133A3.744,3.744,0,0,1,32.452-.892,4.7,4.7,0,0,1,31.3-4.275,5.11,5.11,0,0,1,32.46-7.753,3.834,3.834,0,0,1,35.5-9.089Zm2.382,3.935a3.871,3.871,0,0,0-.423-1.552,2.17,2.17,0,0,0-2.05-1.079,2.273,2.273,0,0,0-1.727.743,2.806,2.806,0,0,0-.739,1.888Z" transform="translate(1272 404)"/><path class="k" d="M155.063,4474.527l-13-28" transform="translate(851.938 -4183.523)"/><path class="l" d="M72.007,4627.272,34.459,4640.6" transform="translate(874.194 -4188)"/><path class="m" d="M72.007,4627.272,34.459,4640.6" transform="translate(-461.312 -3936.955) rotate(-17)"/><path class="n" d="M69.977,4562.571l-33.552-7.757" transform="matrix(1, 0.017, -0.017, 1, 954.797, -4199.992)"/><path class="k" d="M108.945,4485.543l-24-22" transform="matrix(0.999, 0.035, -0.035, 0.999, 1021.659, -4172.789)"/></g></svg>