<svg xmlns="http://www.w3.org/2000/svg" xmlns:xlink="http://www.w3.org/1999/xlink" viewBox="1013.33 6508.474 607.837 279.162">
  <defs>
    <style>
      .cls-1 {
        fill: rgba(0,0,0,0);
        stroke: #707070;
      }

      .cls-2 {
        fill: #fff;
      }

      .cls-3 {
        clip-path: url(#clip-path);
      }

      .cls-4 {
        fill: #504b81;
      }

      .cls-5 {
        fill: #552934;
      }

      .cls-6 {
        fill: #f66055;
      }

      .cls-7 {
        fill: #f79f55;
      }

      .cls-8 {
        fill: #9a3655;
      }

      .cls-9 {
        fill: #202933;
      }

      .cls-10 {
        fill: none;
        stroke: #fff;
      }

      .cls-11 {
        filter: url(#Path_265);
      }
    </style>
    <clipPath id="clip-path">
      <path id="Exclusion_1" data-name="Exclusion 1" class="cls-1" d="M120.818,241.636a121.712,121.712,0,0,1-24.349-2.455A120.156,120.156,0,0,1,53.267,221,121.17,121.17,0,0,1,9.494,167.846a120.206,120.206,0,0,1-7.04-22.679,122,122,0,0,1,0-48.7,120.156,120.156,0,0,1,18.179-43.2A121.17,121.17,0,0,1,73.79,9.494a120.206,120.206,0,0,1,22.679-7.04,122,122,0,0,1,48.7,0,120.156,120.156,0,0,1,43.2,18.179A121.17,121.17,0,0,1,232.141,73.79a120.207,120.207,0,0,1,7.04,22.679,122,122,0,0,1,0,48.7A120.156,120.156,0,0,1,221,188.368a121.17,121.17,0,0,1-53.156,43.773,120.206,120.206,0,0,1-22.679,7.04A121.712,121.712,0,0,1,120.818,241.636Zm0-192.733a71.915,71.915,0,1,0,71.915,71.915A72,72,0,0,0,120.818,48.9Z" transform="translate(0 0)"/>
    </clipPath>
    <filter id="Path_265" x="1213.512" y="6522.6" width="160.932" height="160.844" filterUnits="userSpaceOnUse">
      <feOffset dy="3" input="SourceAlpha"/>
      <feGaussianBlur stdDeviation="5" result="blur"/>
      <feFlood flood-opacity="0.302"/>
      <feComposite operator="in" in2="blur"/>
      <feComposite in="SourceGraphic"/>
    </filter>
  </defs>
  <g id="Group_898" data-name="Group 898" transform="translate(357 142)">
    <path id="Path_1121" data-name="Path 1121" class="cls-2" d="M4.387-10.532a2.9,2.9,0,0,1,2.45.912,3.076,3.076,0,0,1,.692,1.879h-1.3a2.4,2.4,0,0,0-.374-.974,1.662,1.662,0,0,0-1.443-.659A2,2,0,0,0,2.651-8.353a5.887,5.887,0,0,0-.725,2.926,2.866,2.866,0,0,1,1.143-1,3.3,3.3,0,0,1,1.406-.293,3.421,3.421,0,0,1,2.3.842,3.129,3.129,0,0,1,.981,2.512,3.811,3.811,0,0,1-.93,2.531A3.277,3.277,0,0,1,4.175.271,3.4,3.4,0,0,1,1.633-.846,5.355,5.355,0,0,1,.564-4.607,10.122,10.122,0,0,1,1.04-7.925,3.38,3.38,0,0,1,4.387-10.532ZM4.292-.9a1.809,1.809,0,0,0,1.556-.7,2.7,2.7,0,0,0,.516-1.652A2.824,2.824,0,0,0,5.9-4.786a1.829,1.829,0,0,0-1.677-.729,2.187,2.187,0,0,0-1.49.564,2.145,2.145,0,0,0-.641,1.7,2.478,2.478,0,0,0,.582,1.674A2.016,2.016,0,0,0,4.292-.9Zm8.13-5.193a1.849,1.849,0,0,0,1.362-.487,1.579,1.579,0,0,0,.491-1.161,1.53,1.53,0,0,0-.469-1.077,1.89,1.89,0,0,0-1.428-.491A1.732,1.732,0,0,0,11-8.818a1.7,1.7,0,0,0-.425,1.15,1.372,1.372,0,0,0,.549,1.157A2.081,2.081,0,0,0,12.422-6.094ZM12.5-.9a2.321,2.321,0,0,0,1.52-.494,1.8,1.8,0,0,0,.6-1.476A1.912,1.912,0,0,0,14-4.417a2.385,2.385,0,0,0-1.6-.527,2.214,2.214,0,0,0-1.542.538,1.9,1.9,0,0,0-.6,1.49A2.03,2.03,0,0,0,10.814-1.5,2.18,2.18,0,0,0,12.5-.9ZM10.627-5.588a2.622,2.622,0,0,1-.857-.549,2.075,2.075,0,0,1-.579-1.523,2.737,2.737,0,0,1,.85-2.014,3.276,3.276,0,0,1,2.41-.842,3.345,3.345,0,0,1,2.366.795,2.459,2.459,0,0,1,.857,1.857,2.428,2.428,0,0,1-.5,1.589,2.984,2.984,0,0,1-.864.674,3.354,3.354,0,0,1,1.025.688,2.651,2.651,0,0,1,.7,1.9A3.253,3.253,0,0,1,15.1-.663,3.485,3.485,0,0,1,12.473.3,4.063,4.063,0,0,1,9.884-.531,2.885,2.885,0,0,1,8.826-2.944,2.819,2.819,0,0,1,9.28-4.552,2.836,2.836,0,0,1,10.627-5.588ZM26.909-5.1a2.455,2.455,0,0,1,1.8.747,2.455,2.455,0,0,1,.747,1.8,2.455,2.455,0,0,1-.747,1.8,2.455,2.455,0,0,1-1.8.747A2.464,2.464,0,0,1,25.1-.747a2.455,2.455,0,0,1-.747-1.8,2.455,2.455,0,0,1,.747-1.8A2.464,2.464,0,0,1,26.909-5.1Zm-1.062-5.347h.813L20.793.278H19.98Zm-6.13,4.336a1.461,1.461,0,0,0,1.073-.443,1.453,1.453,0,0,0,.443-1.066,1.453,1.453,0,0,0-.443-1.066,1.461,1.461,0,0,0-1.073-.443,1.459,1.459,0,0,0-1.066.439,1.449,1.449,0,0,0-.443,1.069,1.453,1.453,0,0,0,.443,1.066A1.453,1.453,0,0,0,19.717-6.108Zm0-4.065a2.458,2.458,0,0,1,1.809.751,2.468,2.468,0,0,1,.747,1.805,2.455,2.455,0,0,1-.747,1.8,2.464,2.464,0,0,1-1.809.747,2.455,2.455,0,0,1-1.8-.747,2.455,2.455,0,0,1-.747-1.8,2.468,2.468,0,0,1,.747-1.805A2.449,2.449,0,0,1,19.717-10.173ZM26.909-1.04a1.453,1.453,0,0,0,1.066-.443,1.453,1.453,0,0,0,.443-1.066,1.453,1.453,0,0,0-.443-1.066,1.453,1.453,0,0,0-1.066-.443,1.461,1.461,0,0,0-1.073.443,1.453,1.453,0,0,0-.443,1.066,1.453,1.453,0,0,0,.443,1.066A1.461,1.461,0,0,0,26.909-1.04Z" transform="translate(1136 6529)"/>
    <path id="Path_1116" data-name="Path 1116" class="cls-2" d="M-93.67-12.194h1.652V-1.453h6.176V0H-93.67Zm10.4,9.828A1.23,1.23,0,0,0-82.8-1.345a1.754,1.754,0,0,0,1.121.374,3.407,3.407,0,0,0,1.527-.365A2.056,2.056,0,0,0-78.9-3.32v-1.2a2.556,2.556,0,0,1-.706.291,6.012,6.012,0,0,1-.847.166l-.9.116a3.46,3.46,0,0,0-1.22.34A1.326,1.326,0,0,0-83.269-2.366Zm3.619-3.021a.812.812,0,0,0,.689-.432,1.313,1.313,0,0,0,.1-.573A1.213,1.213,0,0,0-79.405-7.5a2.917,2.917,0,0,0-1.556-.344,1.978,1.978,0,0,0-1.66.631,2.075,2.075,0,0,0-.357,1.038h-1.395a2.567,2.567,0,0,1,1.067-2.287,4.379,4.379,0,0,1,2.378-.643,4.839,4.839,0,0,1,2.548.6,2.028,2.028,0,0,1,.971,1.859v5.122a.656.656,0,0,0,.1.374.46.46,0,0,0,.4.141q.1,0,.224-.012t.266-.037v1.1a4.161,4.161,0,0,1-.531.125,3.882,3.882,0,0,1-.5.025,1.229,1.229,0,0,1-1.121-.548,2.114,2.114,0,0,1-.257-.822A3.8,3.8,0,0,1-80.14-.141,4.057,4.057,0,0,1-82.024.3a2.8,2.8,0,0,1-2.021-.751,2.5,2.5,0,0,1-.784-1.88,2.422,2.422,0,0,1,.772-1.917,3.673,3.673,0,0,1,2.025-.838Zm5.379-3.5,1.71,7.006,1.735-7.006h1.677l1.743,6.964,1.818-6.964h1.494L-66.676,0h-1.552l-1.81-6.881L-71.789,0h-1.552l-2.565-8.89Zm15.29-.2a4.055,4.055,0,0,1,1.834.444A3.383,3.383,0,0,1-55.794-7.5a3.966,3.966,0,0,1,.6,1.569,10.264,10.264,0,0,1,.133,1.959h-6.516A3.8,3.8,0,0,0-60.94-1.8a2.14,2.14,0,0,0,1.851.818,2.393,2.393,0,0,0,1.868-.772,2.6,2.6,0,0,0,.564-1.038h1.469A3.094,3.094,0,0,1-55.574-1.7a3.882,3.882,0,0,1-.735.984,3.482,3.482,0,0,1-1.685.9,5.119,5.119,0,0,1-1.22.133A3.744,3.744,0,0,1-62.028-.892a4.7,4.7,0,0,1-1.154-3.383,5.11,5.11,0,0,1,1.162-3.478A3.834,3.834,0,0,1-58.981-9.089ZM-56.6-5.155a3.871,3.871,0,0,0-.423-1.552,2.17,2.17,0,0,0-2.05-1.079,2.273,2.273,0,0,0-1.727.743,2.806,2.806,0,0,0-.739,1.888Zm3.412-3.735h1.419v1.536a3.393,3.393,0,0,1,.855-1.092,2.217,2.217,0,0,1,1.569-.643q.042,0,.141.008l.34.033v1.577a2.232,2.232,0,0,0-.245-.033q-.112-.008-.245-.008a2.132,2.132,0,0,0-1.735.726,2.535,2.535,0,0,0-.606,1.673V0h-1.494Zm8.2-1.179h-1.137l-2.225-2.4H-46.5Zm3.968,7.28a2.173,2.173,0,0,0,.374,1.146,2.347,2.347,0,0,0,1.959.722,2.889,2.889,0,0,0,1.461-.361A1.2,1.2,0,0,0-36.594-2.4a.955.955,0,0,0-.506-.872,6.02,6.02,0,0,0-1.278-.423l-1.187-.3a5.79,5.79,0,0,1-1.677-.631A1.886,1.886,0,0,1-42.205-6.3,2.562,2.562,0,0,1-41.3-8.342a3.626,3.626,0,0,1,2.445-.78,3.394,3.394,0,0,1,2.9,1.179,2.558,2.558,0,0,1,.54,1.61h-1.411a1.729,1.729,0,0,0-.357-.921,2.276,2.276,0,0,0-1.785-.589,2.133,2.133,0,0,0-1.282.324,1.015,1.015,0,0,0-.436.855,1.052,1.052,0,0,0,.573.93,3.442,3.442,0,0,0,.979.365l.988.241a7.637,7.637,0,0,1,2.158.755,2,2,0,0,1,.872,1.8,2.745,2.745,0,0,1-.9,2.05A3.834,3.834,0,0,1-38.76.34a3.681,3.681,0,0,1-2.81-.9,3.406,3.406,0,0,1-.884-2.229Zm13.48.423a1.23,1.23,0,0,0,.473,1.021,1.754,1.754,0,0,0,1.121.374,3.407,3.407,0,0,0,1.527-.365A2.056,2.056,0,0,0-23.172-3.32v-1.2a2.556,2.556,0,0,1-.706.291,6.012,6.012,0,0,1-.847.166l-.9.116a3.46,3.46,0,0,0-1.22.34A1.326,1.326,0,0,0-27.538-2.366Zm3.619-3.021a.812.812,0,0,0,.689-.432,1.313,1.313,0,0,0,.1-.573A1.213,1.213,0,0,0-23.674-7.5a2.917,2.917,0,0,0-1.556-.344,1.978,1.978,0,0,0-1.66.631,2.075,2.075,0,0,0-.357,1.038h-1.395a2.567,2.567,0,0,1,1.067-2.287A4.379,4.379,0,0,1-25.2-9.106a4.839,4.839,0,0,1,2.548.6,2.028,2.028,0,0,1,.971,1.859v5.122a.656.656,0,0,0,.1.374.46.46,0,0,0,.4.141q.1,0,.224-.012t.266-.037v1.1a4.161,4.161,0,0,1-.531.125,3.882,3.882,0,0,1-.5.025A1.229,1.229,0,0,1-22.84-.357a2.114,2.114,0,0,1-.257-.822A3.8,3.8,0,0,1-24.408-.141,4.057,4.057,0,0,1-26.293.3a2.8,2.8,0,0,1-2.021-.751,2.5,2.5,0,0,1-.784-1.88,2.422,2.422,0,0,1,.772-1.917A3.673,3.673,0,0,1-26.3-5.088Zm4.69-3.5h1.419v1.262a3.981,3.981,0,0,1,1.336-1.121,3.564,3.564,0,0,1,1.569-.34,2.587,2.587,0,0,1,2.557,1.32A4.687,4.687,0,0,1-11.982-5.7V0H-13.5V-5.6a3.034,3.034,0,0,0-.241-1.312,1.459,1.459,0,0,0-1.444-.83,2.941,2.941,0,0,0-.872.108,2.245,2.245,0,0,0-1.079.73A2.2,2.2,0,0,0-17.623-6a6.118,6.118,0,0,0-.112,1.341V0h-1.494Zm10.4,4.549a4.407,4.407,0,0,0,.606,2.391A2.123,2.123,0,0,0-6.28-.988,2.046,2.046,0,0,0-4.574-1.88a4.214,4.214,0,0,0,.668-2.561,3.787,3.787,0,0,0-.689-2.494,2.149,2.149,0,0,0-1.7-.809,2.246,2.246,0,0,0-1.83.863A3.954,3.954,0,0,0-8.828-4.341Zm2.25-4.707a3.163,3.163,0,0,1,1.71.432,4.017,4.017,0,0,1,.9.872v-4.491h1.436V0H-3.872V-1.237A3.233,3.233,0,0,1-5.109-.05,3.54,3.54,0,0,1-6.744.315,3.311,3.311,0,0,1-9.318-.934a4.884,4.884,0,0,1-1.087-3.324,5.739,5.739,0,0,1,.992-3.366A3.248,3.248,0,0,1-6.578-9.048Zm14.41-.1a3.876,3.876,0,0,1,2.445.73A3.5,3.5,0,0,1,11.409-5.9H9.957a2.682,2.682,0,0,0-.606-1.365,1.914,1.914,0,0,0-1.519-.544A2.1,2.1,0,0,0,5.79-6.417a5.54,5.54,0,0,0-.4,2.233,4.2,4.2,0,0,0,.564,2.25,1.936,1.936,0,0,0,1.776.913A1.942,1.942,0,0,0,9.206-1.59a3.127,3.127,0,0,0,.751-1.556h1.453A3.9,3.9,0,0,1,10.164-.56,3.885,3.885,0,0,1,7.616.257,3.4,3.4,0,0,1,4.835-1.017,4.877,4.877,0,0,1,3.8-4.2,5.363,5.363,0,0,1,4.935-7.844,3.675,3.675,0,0,1,7.832-9.147Zm8.6,8.185a2.061,2.061,0,0,0,2.038-1.125,5.6,5.6,0,0,0,.552-2.5,4.456,4.456,0,0,0-.4-2.025,2.241,2.241,0,0,0-2.175-1.229A2.145,2.145,0,0,0,14.456-6.8a4.848,4.848,0,0,0-.623,2.523,4.217,4.217,0,0,0,.623,2.366A2.193,2.193,0,0,0,16.431-.963Zm.058-8.185A4.026,4.026,0,0,1,19.395-8a4.473,4.473,0,0,1,1.187,3.37,5.782,5.782,0,0,1-1.046,3.553A3.783,3.783,0,0,1,16.29.324,3.664,3.664,0,0,1,13.377-.917,4.9,4.9,0,0,1,12.3-4.25a5.3,5.3,0,0,1,1.137-3.569A3.817,3.817,0,0,1,16.49-9.147Zm5.869.257h1.419v1.262a3.981,3.981,0,0,1,1.336-1.121,3.564,3.564,0,0,1,1.569-.34A2.587,2.587,0,0,1,29.24-7.77,4.687,4.687,0,0,1,29.6-5.7V0H28.086V-5.6a3.034,3.034,0,0,0-.241-1.312,1.459,1.459,0,0,0-1.444-.83,2.941,2.941,0,0,0-.872.108,2.245,2.245,0,0,0-1.079.73A2.2,2.2,0,0,0,23.964-6a6.118,6.118,0,0,0-.112,1.341V0H22.358ZM32.7-2.789a2.173,2.173,0,0,0,.374,1.146,2.347,2.347,0,0,0,1.959.722,2.889,2.889,0,0,0,1.461-.361A1.2,1.2,0,0,0,37.125-2.4a.955.955,0,0,0-.506-.872,6.02,6.02,0,0,0-1.278-.423l-1.187-.3a5.79,5.79,0,0,1-1.677-.631A1.886,1.886,0,0,1,31.514-6.3a2.562,2.562,0,0,1,.909-2.042,3.626,3.626,0,0,1,2.445-.78,3.394,3.394,0,0,1,2.9,1.179,2.558,2.558,0,0,1,.54,1.61H36.893a1.729,1.729,0,0,0-.357-.921,2.276,2.276,0,0,0-1.785-.589,2.133,2.133,0,0,0-1.282.324,1.015,1.015,0,0,0-.436.855,1.052,1.052,0,0,0,.573.93,3.442,3.442,0,0,0,.979.365l.988.241a7.637,7.637,0,0,1,2.158.755,2,2,0,0,1,.872,1.8,2.745,2.745,0,0,1-.9,2.05A3.834,3.834,0,0,1,34.959.34a3.681,3.681,0,0,1-2.81-.9,3.406,3.406,0,0,1-.884-2.229Zm9.106-6.1v5.9a2.489,2.489,0,0,0,.216,1.112,1.506,1.506,0,0,0,1.486.8,2.1,2.1,0,0,0,2.125-1.395,5.533,5.533,0,0,0,.307-2.05V-8.89h1.494V0H46.024l.017-1.312a3.014,3.014,0,0,1-.722.855,3.178,3.178,0,0,1-2.075.7,2.677,2.677,0,0,1-2.59-1.27,3.782,3.782,0,0,1-.374-1.818V-8.89Zm8-3.3H51.3V0H49.809Zm4.034.822h1.511V-8.89h1.419v1.22H55.354v5.8a.628.628,0,0,0,.315.623,1.341,1.341,0,0,0,.581.091q.108,0,.232,0t.291-.021V0a3.336,3.336,0,0,1-.535.108,5.09,5.09,0,0,1-.6.033,1.622,1.622,0,0,1-1.419-.535,2.379,2.379,0,0,1-.374-1.39V-7.67h-1.2V-8.89h1.2Zm5.57,9.006a1.23,1.23,0,0,0,.473,1.021,1.754,1.754,0,0,0,1.121.374,3.407,3.407,0,0,0,1.527-.365A2.056,2.056,0,0,0,63.779-3.32v-1.2a2.556,2.556,0,0,1-.706.291,6.012,6.012,0,0,1-.847.166l-.9.116a3.46,3.46,0,0,0-1.22.34A1.326,1.326,0,0,0,59.413-2.366Zm3.619-3.021a.812.812,0,0,0,.689-.432,1.313,1.313,0,0,0,.1-.573A1.213,1.213,0,0,0,63.277-7.5a2.917,2.917,0,0,0-1.556-.344,1.978,1.978,0,0,0-1.66.631A2.076,2.076,0,0,0,59.7-6.176H58.309a2.567,2.567,0,0,1,1.067-2.287,4.379,4.379,0,0,1,2.378-.643,4.839,4.839,0,0,1,2.548.6,2.028,2.028,0,0,1,.971,1.859v5.122a.656.656,0,0,0,.1.374.46.46,0,0,0,.4.141q.1,0,.224-.012t.266-.037v1.1a4.161,4.161,0,0,1-.531.125,3.882,3.882,0,0,1-.5.025,1.229,1.229,0,0,1-1.121-.548,2.114,2.114,0,0,1-.257-.822A3.8,3.8,0,0,1,62.542-.141,4.057,4.057,0,0,1,60.658.3a2.8,2.8,0,0,1-2.021-.751,2.5,2.5,0,0,1-.784-1.88,2.422,2.422,0,0,1,.772-1.917,3.673,3.673,0,0,1,2.025-.838Zm4.69-3.5h1.419v1.262a3.981,3.981,0,0,1,1.336-1.121,3.564,3.564,0,0,1,1.569-.34A2.587,2.587,0,0,1,74.6-7.77,4.687,4.687,0,0,1,74.969-5.7V0H73.449V-5.6a3.034,3.034,0,0,0-.241-1.312,1.459,1.459,0,0,0-1.444-.83,2.941,2.941,0,0,0-.872.108,2.245,2.245,0,0,0-1.079.73A2.2,2.2,0,0,0,69.328-6a6.118,6.118,0,0,0-.112,1.341V0H67.722Zm9.753-2.482h1.511V-8.89h1.419v1.22H78.986v5.8a.628.628,0,0,0,.315.623,1.341,1.341,0,0,0,.581.091q.108,0,.232,0t.291-.021V0a3.335,3.335,0,0,1-.535.108,5.09,5.09,0,0,1-.6.033,1.622,1.622,0,0,1-1.419-.535,2.379,2.379,0,0,1-.374-1.39V-7.67h-1.2V-8.89h1.2Zm7.006,1.3H83.344l-2.225-2.4H82.97Zm3.968,7.28a2.173,2.173,0,0,0,.374,1.146,2.347,2.347,0,0,0,1.959.722,2.889,2.889,0,0,0,1.461-.361A1.2,1.2,0,0,0,92.873-2.4a.955.955,0,0,0-.506-.872,6.02,6.02,0,0,0-1.278-.423l-1.187-.3a5.79,5.79,0,0,1-1.677-.631A1.886,1.886,0,0,1,87.262-6.3a2.562,2.562,0,0,1,.909-2.042,3.626,3.626,0,0,1,2.445-.78,3.394,3.394,0,0,1,2.9,1.179,2.558,2.558,0,0,1,.54,1.61H92.641a1.729,1.729,0,0,0-.357-.921A2.276,2.276,0,0,0,90.5-7.844a2.133,2.133,0,0,0-1.282.324,1.015,1.015,0,0,0-.436.855,1.052,1.052,0,0,0,.573.93,3.442,3.442,0,0,0,.979.365l.988.241a7.637,7.637,0,0,1,2.158.755,2,2,0,0,1,.872,1.8,2.745,2.745,0,0,1-.9,2.05A3.834,3.834,0,0,1,90.707.34a3.681,3.681,0,0,1-2.81-.9,3.406,3.406,0,0,1-.884-2.229Z" transform="translate(750 6464)"/>
    <path id="Path_1117" data-name="Path 1117" class="cls-2" d="M-44.106-1.411a4.565,4.565,0,0,0,1.378-.174,3.031,3.031,0,0,0,1.577-1.245,5.1,5.1,0,0,0,.706-1.893A7.219,7.219,0,0,0-40.321-6a5.953,5.953,0,0,0-.9-3.52,3.327,3.327,0,0,0-2.9-1.253h-2.93v9.363Zm-4.607-10.783h4.939a4.655,4.655,0,0,1,3.9,1.785,6.58,6.58,0,0,1,1.237,4.125,8.22,8.22,0,0,1-.73,3.511A4.507,4.507,0,0,1-43.791,0h-4.922Zm15.705,3.1a4.055,4.055,0,0,1,1.834.444A3.383,3.383,0,0,1-29.821-7.5a3.966,3.966,0,0,1,.6,1.569,10.264,10.264,0,0,1,.133,1.959h-6.516A3.8,3.8,0,0,0-34.967-1.8a2.14,2.14,0,0,0,1.851.818,2.393,2.393,0,0,0,1.868-.772,2.6,2.6,0,0,0,.564-1.038h1.469A3.094,3.094,0,0,1-29.6-1.7a3.882,3.882,0,0,1-.735.984,3.482,3.482,0,0,1-1.685.9,5.119,5.119,0,0,1-1.22.133A3.744,3.744,0,0,1-36.054-.892a4.7,4.7,0,0,1-1.154-3.383,5.11,5.11,0,0,1,1.162-3.478A3.834,3.834,0,0,1-33.008-9.089Zm2.382,3.935a3.871,3.871,0,0,0-.423-1.552A2.17,2.17,0,0,0-33.1-7.786a2.273,2.273,0,0,0-1.727.743,2.806,2.806,0,0,0-.739,1.888Zm4.1-3.735,2.374,7.238,2.482-7.238h1.635L-23.387,0h-1.594L-28.26-8.89Zm11.472-.2a4.055,4.055,0,0,1,1.834.444A3.383,3.383,0,0,1-11.866-7.5a3.966,3.966,0,0,1,.6,1.569,10.264,10.264,0,0,1,.133,1.959h-6.516A3.8,3.8,0,0,0-17.012-1.8a2.14,2.14,0,0,0,1.851.818,2.393,2.393,0,0,0,1.868-.772,2.6,2.6,0,0,0,.564-1.038h1.469A3.094,3.094,0,0,1-11.646-1.7a3.882,3.882,0,0,1-.735.984,3.482,3.482,0,0,1-1.685.9,5.119,5.119,0,0,1-1.22.133A3.744,3.744,0,0,1-18.1-.892a4.7,4.7,0,0,1-1.154-3.383,5.11,5.11,0,0,1,1.162-3.478A3.834,3.834,0,0,1-15.053-9.089Zm2.382,3.935a3.871,3.871,0,0,0-.423-1.552,2.17,2.17,0,0,0-2.05-1.079,2.273,2.273,0,0,0-1.727.743,2.806,2.806,0,0,0-.739,1.888Zm3.412-7.039h1.494V0H-9.26ZM-2-.963A2.061,2.061,0,0,0,.042-2.088a5.6,5.6,0,0,0,.552-2.5A4.456,4.456,0,0,0,.2-6.616,2.241,2.241,0,0,0-1.98-7.844,2.145,2.145,0,0,0-3.972-6.8a4.848,4.848,0,0,0-.623,2.523,4.217,4.217,0,0,0,.623,2.366A2.193,2.193,0,0,0-2-.963Zm.058-8.185A4.026,4.026,0,0,1,.967-8a4.473,4.473,0,0,1,1.187,3.37A5.782,5.782,0,0,1,1.108-1.079,3.783,3.783,0,0,1-2.137.324,3.664,3.664,0,0,1-5.051-.917,4.9,4.9,0,0,1-6.13-4.25,5.3,5.3,0,0,1-4.993-7.819,3.817,3.817,0,0,1-1.938-9.147ZM7.682-1A2.132,2.132,0,0,0,9.421-1.88,4.167,4.167,0,0,0,10.115-4.5a4.888,4.888,0,0,0-.307-1.826A2.12,2.12,0,0,0,7.682-7.794,2.119,2.119,0,0,0,5.557-6.242,6.152,6.152,0,0,0,5.25-4.134a4.469,4.469,0,0,0,.307,1.751A2.119,2.119,0,0,0,7.682-1ZM3.814-8.849H5.267V-7.67a3.627,3.627,0,0,1,.979-.938,3.153,3.153,0,0,1,1.776-.5,3.34,3.34,0,0,1,2.565,1.158A4.744,4.744,0,0,1,11.642-4.64q0,2.905-1.519,4.15A3.432,3.432,0,0,1,7.882.3,3.042,3.042,0,0,1,6.2-.141,3.882,3.882,0,0,1,5.308-1V3.544H3.814Zm9.571-.042h1.478v1.262a4.966,4.966,0,0,1,.963-.955A2.9,2.9,0,0,1,17.5-9.089a2.639,2.639,0,0,1,1.71.523,2.733,2.733,0,0,1,.664.88,3.229,3.229,0,0,1,1.17-1.058,3.265,3.265,0,0,1,1.511-.344A2.471,2.471,0,0,1,25-7.794a4.233,4.233,0,0,1,.349,1.876V0H23.794V-6.176A1.438,1.438,0,0,0,23.35-7.4a1.758,1.758,0,0,0-1.083-.332,2.15,2.15,0,0,0-1.515.589,2.588,2.588,0,0,0-.635,1.967V0H18.6V-5.8a3.015,3.015,0,0,0-.216-1.32,1.316,1.316,0,0,0-1.27-.623,2.191,2.191,0,0,0-1.54.656,3.214,3.214,0,0,0-.693,2.374V0H13.385Zm17.863-.2a4.055,4.055,0,0,1,1.834.444A3.383,3.383,0,0,1,34.436-7.5a3.966,3.966,0,0,1,.6,1.569,10.264,10.264,0,0,1,.133,1.959H28.65A3.8,3.8,0,0,0,29.289-1.8a2.14,2.14,0,0,0,1.851.818,2.393,2.393,0,0,0,1.868-.772,2.6,2.6,0,0,0,.564-1.038h1.469A3.094,3.094,0,0,1,34.656-1.7a3.882,3.882,0,0,1-.735.984,3.482,3.482,0,0,1-1.685.9,5.119,5.119,0,0,1-1.22.133A3.744,3.744,0,0,1,28.2-.892a4.7,4.7,0,0,1-1.154-3.383A5.11,5.11,0,0,1,28.21-7.753,3.834,3.834,0,0,1,31.248-9.089Zm2.382,3.935a3.871,3.871,0,0,0-.423-1.552,2.17,2.17,0,0,0-2.05-1.079,2.273,2.273,0,0,0-1.727.743,2.806,2.806,0,0,0-.739,1.888ZM37-8.89H38.42v1.262a3.981,3.981,0,0,1,1.336-1.121,3.564,3.564,0,0,1,1.569-.34,2.587,2.587,0,0,1,2.557,1.32A4.687,4.687,0,0,1,44.247-5.7V0H42.728V-5.6a3.034,3.034,0,0,0-.241-1.312,1.459,1.459,0,0,0-1.444-.83,2.941,2.941,0,0,0-.872.108,2.245,2.245,0,0,0-1.079.73A2.2,2.2,0,0,0,38.607-6a6.118,6.118,0,0,0-.112,1.341V0H37Zm9.753-2.482h1.511V-8.89h1.419v1.22H48.265v5.8a.628.628,0,0,0,.315.623,1.341,1.341,0,0,0,.581.091q.108,0,.232,0t.291-.021V0a3.336,3.336,0,0,1-.535.108,5.09,5.09,0,0,1-.6.033,1.622,1.622,0,0,1-1.419-.535,2.379,2.379,0,0,1-.374-1.39V-7.67h-1.2V-8.89h1.2Z" transform="translate(764 6560)"/>
    <path id="Path_1115" data-name="Path 1115" class="cls-2" d="M-53.449-12.526a5.582,5.582,0,0,1,4.781,2.075,6.725,6.725,0,0,1,1.212,4.142,7.248,7.248,0,0,1-1.386,4.541A5.5,5.5,0,0,1-53.482.357,5.546,5.546,0,0,1-57.906-1.5a7.021,7.021,0,0,1-1.436-4.532,7.209,7.209,0,0,1,1.229-4.233A5.322,5.322,0,0,1-53.449-12.526Zm.166,11.405a3.439,3.439,0,0,0,3.158-1.565,6.66,6.66,0,0,0,.975-3.6,5.133,5.133,0,0,0-1.125-3.461,3.839,3.839,0,0,0-3.075-1.312,4,4,0,0,0-3.088,1.3,5.475,5.475,0,0,0-1.2,3.831,5.6,5.6,0,0,0,1.025,3.416A3.855,3.855,0,0,0-53.283-1.121Zm7.894-10.251h1.511V-8.89h1.419v1.22h-1.419v5.8a.628.628,0,0,0,.315.623,1.341,1.341,0,0,0,.581.091q.108,0,.232,0t.291-.021V0a3.336,3.336,0,0,1-.535.108,5.09,5.09,0,0,1-.6.033,1.622,1.622,0,0,1-1.419-.535,2.379,2.379,0,0,1-.374-1.39V-7.67h-1.2V-8.89h1.2Zm4.424-.863h1.494v4.549a4.314,4.314,0,0,1,.955-.946,3.22,3.22,0,0,1,1.8-.473,2.664,2.664,0,0,1,2.623,1.353,4.614,4.614,0,0,1,.374,2.05V0h-1.536V-5.6A3.134,3.134,0,0,0-35.5-7.039a1.591,1.591,0,0,0-1.527-.73,2.544,2.544,0,0,0-1.685.639,3.073,3.073,0,0,0-.755,2.416V0h-1.494Zm13.157,3.146a4.055,4.055,0,0,1,1.834.444A3.383,3.383,0,0,1-24.62-7.5a3.966,3.966,0,0,1,.6,1.569,10.264,10.264,0,0,1,.133,1.959h-6.516A3.8,3.8,0,0,0-29.767-1.8a2.14,2.14,0,0,0,1.851.818,2.393,2.393,0,0,0,1.868-.772,2.6,2.6,0,0,0,.564-1.038h1.469A3.094,3.094,0,0,1-24.4-1.7a3.882,3.882,0,0,1-.735.984,3.482,3.482,0,0,1-1.685.9,5.119,5.119,0,0,1-1.22.133A3.744,3.744,0,0,1-30.854-.892a4.7,4.7,0,0,1-1.154-3.383,5.11,5.11,0,0,1,1.162-3.478A3.834,3.834,0,0,1-27.808-9.089Zm2.382,3.935a3.871,3.871,0,0,0-.423-1.552A2.17,2.17,0,0,0-27.9-7.786a2.273,2.273,0,0,0-1.727.743,2.806,2.806,0,0,0-.739,1.888Zm3.412-3.735h1.419v1.536a3.393,3.393,0,0,1,.855-1.092,2.217,2.217,0,0,1,1.569-.643q.042,0,.141.008l.34.033v1.577a2.232,2.232,0,0,0-.245-.033q-.112-.008-.245-.008a2.132,2.132,0,0,0-1.735.726,2.535,2.535,0,0,0-.606,1.673V0h-1.494Zm14.045-.2a4.055,4.055,0,0,1,1.834.444A3.383,3.383,0,0,1-4.781-7.5a3.966,3.966,0,0,1,.6,1.569,10.264,10.264,0,0,1,.133,1.959h-6.516A3.8,3.8,0,0,0-9.928-1.8a2.14,2.14,0,0,0,1.851.818,2.393,2.393,0,0,0,1.868-.772,2.6,2.6,0,0,0,.564-1.038h1.469A3.094,3.094,0,0,1-4.561-1.7,3.882,3.882,0,0,1-5.3-.714a3.482,3.482,0,0,1-1.685.9A5.119,5.119,0,0,1-8.2.315,3.744,3.744,0,0,1-11.015-.892a4.7,4.7,0,0,1-1.154-3.383,5.11,5.11,0,0,1,1.162-3.478A3.834,3.834,0,0,1-7.969-9.089Zm2.382,3.935A3.871,3.871,0,0,0-6.01-6.707,2.17,2.17,0,0,0-8.06-7.786a2.273,2.273,0,0,0-1.727.743,2.806,2.806,0,0,0-.739,1.888ZM-3.063-8.89h1.934L.913-5.761,2.98-8.89,4.8-8.849l-3,4.292L4.931,0H3.021L.813-3.337-1.328,0H-3.221L-.091-4.557ZM10.036-1a2.132,2.132,0,0,0,1.739-.876A4.167,4.167,0,0,0,12.468-4.5a4.888,4.888,0,0,0-.307-1.826,2.12,2.12,0,0,0-2.125-1.469A2.119,2.119,0,0,0,7.911-6.242,6.152,6.152,0,0,0,7.6-4.134a4.469,4.469,0,0,0,.307,1.751A2.119,2.119,0,0,0,10.036-1ZM6.167-8.849H7.62V-7.67A3.627,3.627,0,0,1,8.6-8.608a3.153,3.153,0,0,1,1.776-.5,3.34,3.34,0,0,1,2.565,1.158A4.744,4.744,0,0,1,14-4.64q0,2.905-1.519,4.15A3.432,3.432,0,0,1,10.235.3,3.042,3.042,0,0,1,8.55-.141,3.882,3.882,0,0,1,7.662-1V3.544H6.167ZM19.44-9.089a4.055,4.055,0,0,1,1.834.444A3.383,3.383,0,0,1,22.628-7.5a3.966,3.966,0,0,1,.6,1.569,10.264,10.264,0,0,1,.133,1.959H16.842A3.8,3.8,0,0,0,17.481-1.8a2.14,2.14,0,0,0,1.851.818A2.393,2.393,0,0,0,21.2-1.751a2.6,2.6,0,0,0,.564-1.038h1.469A3.094,3.094,0,0,1,22.848-1.7a3.882,3.882,0,0,1-.735.984,3.482,3.482,0,0,1-1.685.9,5.119,5.119,0,0,1-1.22.133A3.744,3.744,0,0,1,16.394-.892,4.7,4.7,0,0,1,15.24-4.275,5.11,5.11,0,0,1,16.4-7.753,3.834,3.834,0,0,1,19.44-9.089Zm2.382,3.935A3.871,3.871,0,0,0,21.4-6.707a2.17,2.17,0,0,0-2.05-1.079,2.273,2.273,0,0,0-1.727.743,2.806,2.806,0,0,0-.739,1.888Zm3.37-3.735h1.419v1.262a3.981,3.981,0,0,1,1.336-1.121,3.564,3.564,0,0,1,1.569-.34,2.587,2.587,0,0,1,2.557,1.32A4.687,4.687,0,0,1,32.439-5.7V0H30.92V-5.6a3.034,3.034,0,0,0-.241-1.312,1.459,1.459,0,0,0-1.444-.83,2.941,2.941,0,0,0-.872.108,2.245,2.245,0,0,0-1.079.73A2.2,2.2,0,0,0,26.8-6a6.118,6.118,0,0,0-.112,1.341V0H25.193Zm12.883-.257a3.876,3.876,0,0,1,2.445.73A3.5,3.5,0,0,1,41.653-5.9H40.2a2.682,2.682,0,0,0-.606-1.365,1.914,1.914,0,0,0-1.519-.544,2.1,2.1,0,0,0-2.042,1.395,5.54,5.54,0,0,0-.4,2.233,4.2,4.2,0,0,0,.564,2.25,1.936,1.936,0,0,0,1.776.913,1.942,1.942,0,0,0,1.473-.569A3.127,3.127,0,0,0,40.2-3.146h1.453A3.9,3.9,0,0,1,40.408-.56,3.885,3.885,0,0,1,37.86.257a3.4,3.4,0,0,1-2.781-1.274A4.877,4.877,0,0,1,34.042-4.2a5.363,5.363,0,0,1,1.137-3.644A3.675,3.675,0,0,1,38.076-9.147Zm8.774.058a4.055,4.055,0,0,1,1.834.444A3.383,3.383,0,0,1,50.037-7.5a3.966,3.966,0,0,1,.6,1.569,10.264,10.264,0,0,1,.133,1.959H44.251A3.8,3.8,0,0,0,44.891-1.8a2.14,2.14,0,0,0,1.851.818,2.393,2.393,0,0,0,1.868-.772,2.6,2.6,0,0,0,.564-1.038h1.469A3.094,3.094,0,0,1,50.257-1.7a3.882,3.882,0,0,1-.735.984,3.482,3.482,0,0,1-1.685.9,5.119,5.119,0,0,1-1.22.133A3.744,3.744,0,0,1,43.8-.892a4.7,4.7,0,0,1-1.154-3.383,5.11,5.11,0,0,1,1.162-3.478A3.834,3.834,0,0,1,46.85-9.089Zm2.382,3.935a3.871,3.871,0,0,0-.423-1.552,2.17,2.17,0,0,0-2.05-1.079,2.273,2.273,0,0,0-1.727.743,2.806,2.806,0,0,0-.739,1.888ZM53.49-2.789a2.173,2.173,0,0,0,.374,1.146,2.347,2.347,0,0,0,1.959.722,2.889,2.889,0,0,0,1.461-.361A1.2,1.2,0,0,0,57.915-2.4a.955.955,0,0,0-.506-.872,6.02,6.02,0,0,0-1.278-.423l-1.187-.3a5.79,5.79,0,0,1-1.677-.631A1.886,1.886,0,0,1,52.3-6.3a2.562,2.562,0,0,1,.909-2.042,3.626,3.626,0,0,1,2.445-.78,3.394,3.394,0,0,1,2.9,1.179,2.558,2.558,0,0,1,.54,1.61H57.682a1.729,1.729,0,0,0-.357-.921,2.276,2.276,0,0,0-1.785-.589,2.133,2.133,0,0,0-1.282.324,1.015,1.015,0,0,0-.436.855,1.052,1.052,0,0,0,.573.93,3.442,3.442,0,0,0,.979.365l.988.241a7.637,7.637,0,0,1,2.158.755,2,2,0,0,1,.872,1.8,2.745,2.745,0,0,1-.9,2.05A3.834,3.834,0,0,1,55.748.34a3.681,3.681,0,0,1-2.81-.9,3.406,3.406,0,0,1-.884-2.229Z" transform="translate(858 6379)"/>
    <path id="Path_1122" data-name="Path 1122" class="cls-2" d="M-36.067-12.194H-33.7l3.5,10.31,3.478-10.31h2.341V0h-1.569V-7.2q0-.374.017-1.237t.017-1.851L-29.393,0h-1.635l-3.5-10.285v.374q0,.448.021,1.365T-34.49-7.2V0h-1.577Zm15.149,9.828a1.23,1.23,0,0,0,.473,1.021,1.754,1.754,0,0,0,1.121.374A3.407,3.407,0,0,0-17.8-1.336,2.056,2.056,0,0,0-16.552-3.32v-1.2a2.556,2.556,0,0,1-.706.291,6.012,6.012,0,0,1-.847.166l-.9.116a3.46,3.46,0,0,0-1.22.34A1.326,1.326,0,0,0-20.918-2.366ZM-17.3-5.387a.812.812,0,0,0,.689-.432,1.313,1.313,0,0,0,.1-.573A1.213,1.213,0,0,0-17.054-7.5a2.917,2.917,0,0,0-1.556-.344,1.978,1.978,0,0,0-1.66.631,2.075,2.075,0,0,0-.357,1.038h-1.395a2.567,2.567,0,0,1,1.067-2.287,4.379,4.379,0,0,1,2.378-.643,4.839,4.839,0,0,1,2.548.6,2.028,2.028,0,0,1,.971,1.859v5.122a.656.656,0,0,0,.1.374.46.46,0,0,0,.4.141q.1,0,.224-.012t.266-.037v1.1A4.161,4.161,0,0,1-14.6.166a3.882,3.882,0,0,1-.5.025A1.229,1.229,0,0,1-16.22-.357a2.114,2.114,0,0,1-.257-.822A3.8,3.8,0,0,1-17.789-.141,4.057,4.057,0,0,1-19.673.3a2.8,2.8,0,0,1-2.021-.751,2.5,2.5,0,0,1-.784-1.88,2.422,2.422,0,0,1,.772-1.917,3.673,3.673,0,0,1,2.025-.838Zm4.731-3.5h1.419v1.536a3.393,3.393,0,0,1,.855-1.092,2.217,2.217,0,0,1,1.569-.643q.042,0,.141.008l.34.033v1.577A2.232,2.232,0,0,0-8.488-7.5q-.112-.008-.245-.008a2.132,2.132,0,0,0-1.735.726,2.535,2.535,0,0,0-.606,1.673V0h-1.494Zm5.586-3.3h1.436v7.081L-1.71-8.89H.2L-3.2-5.562.39,0H-1.519L-4.292-4.482-5.545-3.337V0H-6.981Zm12.235,3.1a4.055,4.055,0,0,1,1.834.444A3.383,3.383,0,0,1,8.442-7.5a3.966,3.966,0,0,1,.6,1.569,10.264,10.264,0,0,1,.133,1.959H2.656A3.8,3.8,0,0,0,3.3-1.8a2.14,2.14,0,0,0,1.851.818,2.393,2.393,0,0,0,1.868-.772,2.6,2.6,0,0,0,.564-1.038H9.048A3.094,3.094,0,0,1,8.662-1.7a3.882,3.882,0,0,1-.735.984,3.482,3.482,0,0,1-1.685.9,5.119,5.119,0,0,1-1.22.133A3.744,3.744,0,0,1,2.208-.892,4.7,4.7,0,0,1,1.054-4.275,5.11,5.11,0,0,1,2.216-7.753,3.834,3.834,0,0,1,5.254-9.089ZM7.637-5.155a3.871,3.871,0,0,0-.423-1.552,2.17,2.17,0,0,0-2.05-1.079,2.273,2.273,0,0,0-1.727.743A2.806,2.806,0,0,0,2.7-5.155Zm3.669-6.217h1.511V-8.89h1.419v1.22H12.816v5.8a.628.628,0,0,0,.315.623,1.341,1.341,0,0,0,.581.091q.108,0,.232,0t.291-.021V0A3.335,3.335,0,0,1,13.7.108a5.09,5.09,0,0,1-.6.033,1.622,1.622,0,0,1-1.419-.535,2.379,2.379,0,0,1-.374-1.39V-7.67H10.1V-8.89h1.2ZM15.73-8.849h1.519V0H15.73Zm0-3.345h1.519V-10.5H15.73Zm3.777,3.3h1.419v1.262a3.981,3.981,0,0,1,1.336-1.121,3.564,3.564,0,0,1,1.569-.34,2.587,2.587,0,0,1,2.557,1.32A4.687,4.687,0,0,1,26.753-5.7V0H25.234V-5.6a3.034,3.034,0,0,0-.241-1.312,1.459,1.459,0,0,0-1.444-.83,2.941,2.941,0,0,0-.872.108,2.245,2.245,0,0,0-1.079.73A2.2,2.2,0,0,0,21.113-6,6.118,6.118,0,0,0,21-4.657V0H19.507ZM32.1-9.048a3.24,3.24,0,0,1,1.826.515,4.1,4.1,0,0,1,.863.847V-8.807h1.378V-.722a5.962,5.962,0,0,1-.5,2.673,3.576,3.576,0,0,1-3.511,1.81,4.307,4.307,0,0,1-2.416-.643,2.509,2.509,0,0,1-1.1-2.013h1.519a1.691,1.691,0,0,0,.432.921,2.2,2.2,0,0,0,1.594.5,2.193,2.193,0,0,0,2.25-1.212,6.825,6.825,0,0,0,.291-2.548A2.932,2.932,0,0,1,33.651-.224a3.59,3.59,0,0,1-1.668.332A3.562,3.562,0,0,1,29.455-.917a4.509,4.509,0,0,1-1.083-3.391,5.135,5.135,0,0,1,1.092-3.486A3.375,3.375,0,0,1,32.1-9.048Zm2.689,4.565a3.706,3.706,0,0,0-.681-2.449,2.181,2.181,0,0,0-1.735-.8A2.142,2.142,0,0,0,30.215-6.25a5.794,5.794,0,0,0-.307,2.067,3.669,3.669,0,0,0,.61,2.287,1.97,1.97,0,0,0,1.639.784,2.3,2.3,0,0,0,2.266-1.453A4.685,4.685,0,0,0,34.789-4.482Z" transform="translate(1228 6530)"/>
    <g id="Group_835" data-name="Group 835" transform="translate(0 470)">
      <g id="Group_26" data-name="Group 26" transform="translate(802 1343)">
        <g id="Group_1" data-name="Group 1" class="cls-3" transform="translate(81 4591)">
          <g class="cls-11" transform="matrix(1, 0, 0, 1, -1240, -6546)">
            <path id="Path_265-2" data-name="Path 265" class="cls-4" d="M823.958,4796.992l-130.932-76.773v-54.071Z" transform="translate(535.49 1868.45)"/>
          </g>
          <path id="Path_264" data-name="Path 264" class="cls-5" d="M691.812,4665.872l132.419,131.043-64.264-131.043Z" transform="translate(-704.787 -4677.47)"/>
          <path id="Path_266" data-name="Path 266" class="cls-6" d="M691.716,4685.994l1.31,109.519L823.1,4816.987Z" transform="translate(-704.514 -4698.44)"/>
          <path id="Path_267" data-name="Path 267" class="cls-7" d="M692.44,4799.79l1.56,87.974,130.232-49.246Z" transform="translate(-704.787 -4719.686)"/>
          <path id="Path_268" data-name="Path 268" class="cls-8" d="M760.368,4667H957.64l.286,264.477H693.942v-85.9l129.988-48.388Z" transform="translate(-704.771 -4677.787)"/>
        </g>
        <path id="Path_965" data-name="Path 965" class="cls-9" d="M91.854,0A91.854,91.854,0,1,1,0,91.854,91.854,91.854,0,0,1,91.854,0Z" transform="translate(109.464 4619.464)"/>
      </g>
      <g id="Group_836" data-name="Group 836" transform="translate(1 -1)">
        <path id="Path_1118" data-name="Path 1118" class="cls-2" d="M.469,0a6.117,6.117,0,0,1,.56-2.358,4.536,4.536,0,0,1,1.9-1.824L4.336-5a6.621,6.621,0,0,0,1.326-.937,1.926,1.926,0,0,0,.6-1.392,1.943,1.943,0,0,0-.549-1.454,2,2,0,0,0-1.465-.538A1.914,1.914,0,0,0,2.373-8.291a3.671,3.671,0,0,0-.308,1.523H.725A4.708,4.708,0,0,1,1.23-9a3.172,3.172,0,0,1,3.025-1.523,3.279,3.279,0,0,1,2.633.974A3.259,3.259,0,0,1,7.72-7.383a2.947,2.947,0,0,1-.886,2.153A8.676,8.676,0,0,1,5-3.97l-1,.557a6.5,6.5,0,0,0-1.128.754,2.748,2.748,0,0,0-.923,1.414H7.668V0ZM12.4-10.488a3.1,3.1,0,0,1,2.944,1.677,7.5,7.5,0,0,1,.7,3.552,8.554,8.554,0,0,1-.637,3.538A3.12,3.12,0,0,1,12.393.286,3.022,3.022,0,0,1,9.58-1.355a7.512,7.512,0,0,1-.769-3.677A9.084,9.084,0,0,1,9.272-8.1,3.158,3.158,0,0,1,12.4-10.488ZM12.385-.916a1.876,1.876,0,0,0,1.633-.908,6.575,6.575,0,0,0,.608-3.384,8.36,8.36,0,0,0-.439-2.941A1.672,1.672,0,0,0,12.48-9.3a1.784,1.784,0,0,0-1.7,1.095,7.561,7.561,0,0,0-.538,3.226A7.923,7.923,0,0,0,10.583-2.4,1.876,1.876,0,0,0,12.385-.916ZM26.909-5.1a2.455,2.455,0,0,1,1.8.747,2.455,2.455,0,0,1,.747,1.8,2.455,2.455,0,0,1-.747,1.8,2.455,2.455,0,0,1-1.8.747A2.464,2.464,0,0,1,25.1-.747a2.455,2.455,0,0,1-.747-1.8,2.455,2.455,0,0,1,.747-1.8A2.464,2.464,0,0,1,26.909-5.1Zm-1.062-5.347h.813L20.793.278H19.98Zm-6.13,4.336a1.461,1.461,0,0,0,1.073-.443,1.453,1.453,0,0,0,.443-1.066,1.453,1.453,0,0,0-.443-1.066,1.461,1.461,0,0,0-1.073-.443,1.459,1.459,0,0,0-1.066.439,1.449,1.449,0,0,0-.443,1.069,1.453,1.453,0,0,0,.443,1.066A1.453,1.453,0,0,0,19.717-6.108Zm0-4.065a2.458,2.458,0,0,1,1.809.751,2.468,2.468,0,0,1,.747,1.805,2.455,2.455,0,0,1-.747,1.8,2.464,2.464,0,0,1-1.809.747,2.455,2.455,0,0,1-1.8-.747,2.455,2.455,0,0,1-.747-1.8,2.468,2.468,0,0,1,.747-1.805A2.449,2.449,0,0,1,19.717-10.173ZM26.909-1.04a1.453,1.453,0,0,0,1.066-.443,1.453,1.453,0,0,0,.443-1.066,1.453,1.453,0,0,0-.443-1.066,1.453,1.453,0,0,0-1.066-.443,1.461,1.461,0,0,0-1.073.443,1.453,1.453,0,0,0-.443,1.066,1.453,1.453,0,0,0,.443,1.066A1.461,1.461,0,0,0,26.909-1.04Z" transform="translate(843 6060)"/>
        <path id="Path_1119" data-name="Path 1119" class="cls-2" d="M7.844-10.312v1.15A12.251,12.251,0,0,0,6.5-7.456,17.3,17.3,0,0,0,5.017-4.834a17.919,17.919,0,0,0-.967,2.5Q3.838-1.611,3.5,0H2.043a17.949,17.949,0,0,1,2.2-5.977A18.92,18.92,0,0,1,6.35-8.987H.549v-1.326ZM18.567-5.1a2.455,2.455,0,0,1,1.8.747,2.455,2.455,0,0,1,.747,1.8,2.455,2.455,0,0,1-.747,1.8,2.455,2.455,0,0,1-1.8.747,2.464,2.464,0,0,1-1.809-.747,2.455,2.455,0,0,1-.747-1.8,2.455,2.455,0,0,1,.747-1.8A2.464,2.464,0,0,1,18.567-5.1ZM17.5-10.444h.813L12.451.278h-.813Zm-6.13,4.336a1.461,1.461,0,0,0,1.073-.443,1.453,1.453,0,0,0,.443-1.066,1.453,1.453,0,0,0-.443-1.066,1.461,1.461,0,0,0-1.073-.443,1.459,1.459,0,0,0-1.066.439,1.449,1.449,0,0,0-.443,1.069,1.453,1.453,0,0,0,.443,1.066A1.453,1.453,0,0,0,11.375-6.108Zm0-4.065a2.458,2.458,0,0,1,1.809.751,2.468,2.468,0,0,1,.747,1.805,2.455,2.455,0,0,1-.747,1.8,2.464,2.464,0,0,1-1.809.747,2.455,2.455,0,0,1-1.8-.747,2.455,2.455,0,0,1-.747-1.8,2.468,2.468,0,0,1,.747-1.805A2.449,2.449,0,0,1,11.375-10.173ZM18.567-1.04a1.453,1.453,0,0,0,1.066-.443,1.453,1.453,0,0,0,.443-1.066,1.453,1.453,0,0,0-.443-1.066,1.453,1.453,0,0,0-1.066-.443,1.461,1.461,0,0,0-1.073.443,1.453,1.453,0,0,0-.443,1.066,1.453,1.453,0,0,0,.443,1.066A1.461,1.461,0,0,0,18.567-1.04Z" transform="translate(871 5984)"/>
        <path id="Path_1120" data-name="Path 1120" class="cls-2" d="M1.853-2.673A1.828,1.828,0,0,0,2.9-1.113a2.528,2.528,0,0,0,1.084.22A2.035,2.035,0,0,0,5.72-1.641,2.683,2.683,0,0,0,6.284-3.3,2.163,2.163,0,0,0,5.614-5a2.326,2.326,0,0,0-1.608-.6,2.421,2.421,0,0,0-1.168.264,2.5,2.5,0,0,0-.831.732L.864-4.666l.8-5.647H7.112v1.274H2.651L2.2-6.123a3.276,3.276,0,0,1,.7-.417,3.532,3.532,0,0,1,1.355-.242,3.467,3.467,0,0,1,2.446.93,3.076,3.076,0,0,1,1,2.358A4.047,4.047,0,0,1,6.786-.872,3.555,3.555,0,0,1,3.853.264,3.736,3.736,0,0,1,1.586-.458a2.862,2.862,0,0,1-1.1-2.216ZM18.567-5.1a2.455,2.455,0,0,1,1.8.747,2.455,2.455,0,0,1,.747,1.8,2.455,2.455,0,0,1-.747,1.8,2.455,2.455,0,0,1-1.8.747,2.464,2.464,0,0,1-1.809-.747,2.455,2.455,0,0,1-.747-1.8,2.455,2.455,0,0,1,.747-1.8A2.464,2.464,0,0,1,18.567-5.1ZM17.5-10.444h.813L12.451.278h-.813Zm-6.13,4.336a1.461,1.461,0,0,0,1.073-.443,1.453,1.453,0,0,0,.443-1.066,1.453,1.453,0,0,0-.443-1.066,1.461,1.461,0,0,0-1.073-.443,1.459,1.459,0,0,0-1.066.439,1.449,1.449,0,0,0-.443,1.069,1.453,1.453,0,0,0,.443,1.066A1.453,1.453,0,0,0,11.375-6.108Zm0-4.065a2.458,2.458,0,0,1,1.809.751,2.468,2.468,0,0,1,.747,1.805,2.455,2.455,0,0,1-.747,1.8,2.464,2.464,0,0,1-1.809.747,2.455,2.455,0,0,1-1.8-.747,2.455,2.455,0,0,1-.747-1.8,2.468,2.468,0,0,1,.747-1.805A2.449,2.449,0,0,1,11.375-10.173ZM18.567-1.04a1.453,1.453,0,0,0,1.066-.443,1.453,1.453,0,0,0,.443-1.066,1.453,1.453,0,0,0-.443-1.066,1.453,1.453,0,0,0-1.066-.443,1.461,1.461,0,0,0-1.073.443,1.453,1.453,0,0,0-.443,1.066,1.453,1.453,0,0,0,.443,1.066A1.461,1.461,0,0,0,18.567-1.04Z" transform="translate(913 5944)"/>
        <path id="Path_328" data-name="Path 328" class="cls-10" d="M154.791,4474.527l-12.728-28" transform="translate(795.226 1472.342)"/>
        <path id="Path_329" data-name="Path 329" class="cls-10" d="M72.007,4627.272,34.459,4640.6" transform="translate(817.194 1469)"/>
        <path id="Path_330" data-name="Path 330" class="cls-10" d="M69.425,4562.814l-33-8" transform="matrix(0.996, 0.087, -0.087, 0.996, 1216.171, 1468.208)"/>
        <path id="Path_331" data-name="Path 331" class="cls-10" d="M108.945,4486.543l-24-23" transform="translate(808.319 1483.979)"/>
      </g>
    </g>
  </g>
</svg>
