<svg xmlns="http://www.w3.org/2000/svg" viewBox="808 1743 148.567 109"><defs><style>.a{opacity:0.95;}.b,.d{fill:#fff;}.c{fill:rgba(255,255,255,0);}.d{opacity:0;}.e{fill:#6f5163;}</style></defs><g class="a" transform="translate(797.157 1743.039)"><g transform="translate(51.867 -0.039)"><path class="b" d="M142.871,76.544a6.685,6.685,0,0,0-1.6.246c-1.414.43-2.829.922-4.182,1.476a78.623,78.623,0,0,0-17.771,9.9,8.441,8.441,0,0,1-1.23.8l-.184-.184,1.107-1.66c.062-.062.062-.123.123-.185.307-.246.615-.492.984-.738.43-.307.861-.676,1.291-.984s.8-.615,1.23-.984.861-.676,1.291-1.045c.492-.43,1.045-.8,1.537-1.23.43-.307.861-.676,1.23-.984.492-.369.984-.8,1.537-1.168.43-.307.861-.676,1.23-.984s.738-.553,1.107-.922a3.485,3.485,0,0,0,.492-.8,3.637,3.637,0,0,0,.307-2.275c-.061-.676-.184-1.353-.246-2.091-.061-.676-.184-1.291-.246-1.968-.123-.861-.246-1.783-.369-2.644-.061-.676-.184-1.291-.246-1.968-.123-1.045-.308-2.091-.43-3.136-.123-.861-.246-1.722-.307-2.644-.123-1.107-.307-2.214-.43-3.321a2.991,2.991,0,0,0-.8-1.722,4.021,4.021,0,0,0-1.6-1.045c-.43-.184-.922-.307-1.353-.492l.184-.184c.123-.184.246-.43.43-.676.246-.43.492-.922.738-1.353l2.583-4.8c.676-1.291,1.353-2.521,2.091-3.813,1.107-1.968,2.152-4,3.259-5.965l2.583-4.8a4.772,4.772,0,0,0,.738-2.4,9.961,9.961,0,0,0-.062-1.353c-.123-2.152-.307-4.3-.492-6.457q-.184-2.675-.369-5.35c-.184-2.4-.369-4.858-.553-7.256a4.748,4.748,0,0,0-.123-.922,3.159,3.159,0,0,0-2.091-2.521,11.484,11.484,0,0,0-1.353-.43c-3.075-.615-6.088-1.291-9.162-1.968-2.583-.553-5.165-1.168-7.81-1.722-2.583-.553-5.227-1.107-7.81-1.722a6.3,6.3,0,0,0-2.4-.061,3.578,3.578,0,0,0-2.214,1.291c-.553.738-1.168,1.414-1.783,2.152l-.062.061c-.492.615-.984,1.291-1.537,1.906-.553.676-1.168,1.353-1.722,2.091l-.061.061c-.553.676-1.045,1.353-1.6,2.029s-1.168,1.353-1.722,2.091l-.061.061c-.553.676-1.045,1.353-1.6,1.968-.553.676-3.2,4-3.321,4.12-.307.307-.984,1.23-1.107,1.291a9.041,9.041,0,0,0-.8,1.045,3.119,3.119,0,0,0-.553.984,4.326,4.326,0,0,0-.246,2.644A20.374,20.374,0,0,0,88.2,26.55c.184.553.43,1.045.615,1.537.615,1.66,1.23,3.382,1.845,5.042,1.291,3.505,2.583,7.01,3.813,10.577a3.155,3.155,0,0,0,.922,1.414,8.018,8.018,0,0,0,.922.615c-3.075,4.735-6.088,9.47-9.162,14.2a2.8,2.8,0,0,0-.492,1.168,1.283,1.283,0,0,0,.492,1.476,1.3,1.3,0,0,0,1.66-.123,6.522,6.522,0,0,0,.922-.922c2.706-3.2,5.411-6.457,8.117-9.654,1.23-1.476,2.46-2.89,3.69-4.3.43.123.8.307,1.23.43-1.783,2.46-3.628,4.919-5.473,7.379-2.337,3.136-4.92,6.088-7.318,9.162A5.563,5.563,0,0,0,89,66.766,2.053,2.053,0,0,0,89.5,68.8a1.5,1.5,0,0,0,1.783.246A8.932,8.932,0,0,0,92.877,68a19.988,19.988,0,0,0,1.6-1.66c-.062.676-.062,1.414-.123,2.091-.369.553-.676,1.107-1.107,1.66-.738,1.045-1.476,2.091-2.152,3.136a2,2,0,0,0,.246,2.583,1.943,1.943,0,0,0,2.46-.061c.061-.062.123-.062.184-.123v.061c-.123,1.906-.246,3.813-.307,5.719-.369.492-.676.922-1.045,1.414A16.948,16.948,0,0,0,91.586,84.6a2.269,2.269,0,0,0,.308,2.521,2.026,2.026,0,0,0,2.521-.062,8.305,8.305,0,0,0,1.968-1.6c.369-.369.676-.738,1.045-1.107.738.185,1.414.369,2.152.492.061,0,.123.061.184.061a3.489,3.489,0,0,0-.492.8c-.8,1.291-.738,2.337.061,3.013s1.845.492,2.952-.492c.738-.676,1.476-1.414,2.152-2.152,1.045.246,2.091.492,3.2.738-1.291,2.152-2.521,4.3-3.751,6.518a7.709,7.709,0,0,0-.553,1.537,1.872,1.872,0,0,0,.738,2.029,1.954,1.954,0,0,0,2.152.062c.369-.184.738-.369,1.045-.553a1.377,1.377,0,0,1-.43,1.045c-1.968,2.4-3.874,4.858-5.842,7.256a12.992,12.992,0,0,0-1.291,1.906,1.49,1.49,0,0,0,.307,1.845,1.745,1.745,0,0,0,2.029.307,8,8,0,0,0,1.414-1.107c.8-.8,1.537-1.722,2.337-2.583a118.414,118.414,0,0,1,16.234-14.7,145.948,145.948,0,0,1,15-9.408c1.6-.922,3.075-1.906,4.612-2.952.43-.307.8-.8,1.23-1.168C142.994,76.667,142.933,76.605,142.871,76.544ZM103.7,45.121l-1.107-.369c-.553-.184-1.045-.369-1.6-.553-.307-.123-.615-.184-.922-.307a6.045,6.045,0,0,0-.984-.307,6.836,6.836,0,0,1-.984-.43,3.364,3.364,0,0,1-1.353-1.6c-1.107-3.136-2.275-6.211-3.382-9.347-.553-1.476-1.107-2.952-1.6-4.489-.184-.492-.369-.922-.553-1.353-.062-.246-.615-1.783-.738-2.4a3.79,3.79,0,0,1,.185-2.337,6.14,6.14,0,0,1,.492-.861c.184-.246.615-.861.676-.922s.676-.861.984-1.168c.123-.123,2.46-3.013,2.952-3.628.492-.553.922-1.168,1.414-1.722a.06.06,0,0,1,.062-.061c.492-.615,1.045-1.23,1.537-1.845s.922-1.168,1.414-1.783a.06.06,0,0,1,.061-.061c.492-.615,1.045-1.23,1.537-1.845.43-.553.922-1.107,1.353-1.722a.06.06,0,0,1,.061-.061c.553-.615,1.045-1.23,1.6-1.906a3.04,3.04,0,0,1,1.968-1.107A4.774,4.774,0,0,1,108.866,3c2.275.492,4.612.984,6.887,1.476s4.612.984,6.887,1.537c2.706.615,5.35,1.168,8.056,1.783a4.686,4.686,0,0,1,1.23.369,2.928,2.928,0,0,1,1.845,2.275c.061.246.061.553.123.8.185,2.152.307,4.3.492,6.457.123,1.6.246,3.136.369,4.735.123,1.906.307,3.813.43,5.719a8.217,8.217,0,0,1,0,1.23,4.436,4.436,0,0,1-.676,2.152c-.8,1.414-1.537,2.829-2.337,4.243-.984,1.783-1.906,3.505-2.89,5.288-.615,1.107-1.23,2.214-1.845,3.382-.8,1.414-1.537,2.829-2.337,4.243-.246.43-.43.8-.676,1.23h0a4.315,4.315,0,0,1-.369.553,2.523,2.523,0,0,1-2.091.8h-.123a8.69,8.69,0,0,1-1.353-.369c-.369-.123-.8-.246-1.168-.369-1.476-.492-3.013-1.045-4.489-1.537-.062,0-.184-.062-.246-.062l-1.66-.553c-1.537-.553-3.075-1.045-4.674-1.6-.061,0-.061,0-.123-.062-.184-.061-.369-.123-.615-.184-.922-.307-1.906-.615-2.829-.922A4.876,4.876,0,0,0,103.7,45.121Zm13.037,40.462a2.232,2.232,0,0,1-1.045.43,3.48,3.48,0,0,1-1.353-.123c-.43-.123-.861-.185-1.23-.307-.307-.062-14.328-3.382-15.5-3.628a3.466,3.466,0,0,1-.738-.246,1.821,1.821,0,0,1-1.045-1.845c.061-1.722.184-3.444.307-5.165.123-1.6.185-3.136.246-4.735.061-1.414.184-2.829.246-4.243,0-.307.061-.615.061-.922s.062-.676.062-.984a3.15,3.15,0,0,1,.553-1.66,14.188,14.188,0,0,1,.861-1.168c.246-.369.492-.738.738-1.045.123-.184.246-.307.369-.492.246-.369.553-.676.8-1.045s.492-.738.738-1.045a4.306,4.306,0,0,1,.492-.615c.184-.246.307-.43.492-.676.123-.184.246-.307.369-.492.246-.369.553-.676.8-1.045s.492-.738.738-1.045a4.308,4.308,0,0,1,.492-.615c.184-.246.307-.43.492-.676a1.867,1.867,0,0,0,.307-.43c.307-.369.553-.738.861-1.045.123-.184.369-.246.615-.369a2.593,2.593,0,0,1,1.168-.184,4.081,4.081,0,0,1,1.23.369c.676.246,1.291.492,1.968.676,1.168.43,2.337.861,3.567,1.291.984.369,1.906.676,2.89,1.045.676.246,1.414.492,2.091.738,1.291.492,2.644.922,3.936,1.414.43.184.861.307,1.353.492a3.373,3.373,0,0,1,.922.492c.061.061.184.123.246.184s.184.123.246.246a2.428,2.428,0,0,1,.738,1.476l.369,2.952h0c.123.738.184,1.537.307,2.275l.369,2.767a16.56,16.56,0,0,0,.246,1.722c0,.184.062.307.062.492.061.615.184,1.23.246,1.845.061.553.123,1.107.246,1.722.062.615.184,1.23.246,1.783a3.577,3.577,0,0,1-.246,1.968c-.123.246-.307.43-.43.676a10.7,10.7,0,0,1-.922.8c-.369.307-.738.553-1.107.861-.43.369-.861.676-1.353,1.045-.184.184-.43.307-.615.492-.184.123-.307.246-.492.369-.43.369-.922.676-1.353,1.045a13.5,13.5,0,0,1-1.107.861c-.369.307-.738.553-1.045.861-.369.307-.738.553-1.107.861-.43.369-.861.676-1.291,1.045A2.074,2.074,0,0,0,116.737,85.583Z" transform="translate(-86.613 0.039)"/></g><g transform="translate(107.633 18.31)"><path class="b" d="M218.726,34.327a.747.747,0,0,0,.061-.307,21.091,21.091,0,0,1-.615,2.029l-9.654,24.782-9.531-25.274a5.421,5.421,0,0,1-.369-1.783c0-1.107,2.767-3.874,2.767-3.874H191.3V82.846h3.013c.984,0,.923-1.168.923-2.46V47.3L206,76.635l15-39.54Z" transform="translate(-182.691 -29.838)"/><path class="b" d="M177.3,29.9s2.644,2.89,2.89,3.321A3.507,3.507,0,0,1,180.559,35V77.742a3.765,3.765,0,0,1-.369,1.845c-.246.43-2.89,3.321-2.89,3.321h7.625V29.9Z" transform="translate(-177.3 -29.838)"/><path class="b" d="M225.316,29.9s1.906,1.906,2.644,2.89h0l3.689,4.059L215.969,78.111l-.369-.984,2.091,5.719L230.973,47.3V77.68a3.765,3.765,0,0,1-.369,1.845c-.246.43-2.89,3.259-2.89,3.259h7.564V29.9Z" transform="translate(-192.048 -29.838)"/><path class="b" d="M253.95,79.486a3.766,3.766,0,0,1-.369-1.845V34.9a3.507,3.507,0,0,1,.369-1.783c.246-.43,2.89-3.321,2.89-3.321H249.4V82.807h7.441S254.2,79.917,253.95,79.486Z" transform="translate(-205.064 -29.8)"/><path class="b" d="M196.2,33.59c3.874-3.505,5.288-3.69,5.288-3.69H191.4V82.846h3.013a1.056,1.056,0,0,0,.492-.123c.246-.184.43-.43.43-1.23V47.3C195.459,47.118,195.028,34.635,196.2,33.59Z" transform="translate(-182.73 -29.838)"/></g><g transform="translate(10.843 18.371)"><g transform="translate(8.425 5.227)"><path class="b" d="M56.66,42.4l-3.2-4H33.6V60.783H58.259v-8.24s-2.275,3.136-2.583,3.505a1.588,1.588,0,0,1-1.291.553H37.966V42.4Z" transform="translate(-33.6 -38.4)"/></g><path class="b" d="M27.279,34.389v-.307h21.4l4.428,5.534h0c.307.369,3.075,3.505,3.075,3.505v-11.5s0-.984-.492-1.353a5.835,5.835,0,0,0-2.337-.369H19.9s2.644,2.89,2.89,3.321a3.765,3.765,0,0,1,.369,1.845V77.742a3.765,3.765,0,0,1-.369,1.845c-.246.43-2.89,3.321-2.89,3.321h7.441V34.389Z" transform="translate(-19.9 -29.9)"/><g transform="translate(8.425 28.656)"><path class="b" d="M33.6,100.79h7.625s-2.583-2.829-2.89-3.259a3.765,3.765,0,0,1-.369-1.845V80.743H54.385a1.588,1.588,0,0,1,1.291.553c.307.369,2.583,3.505,2.583,3.505V76.5H33.6Z" transform="translate(-33.6 -76.5)"/></g></g><rect class="c" width="1.045" height="52.946" transform="translate(150.924 18.371)"/><path class="c" d="M0,0H1.045V52.946H0Z" transform="translate(115.258 18.371)"/><path class="c" d="M228.129,35.176a6.677,6.677,0,0,1-.123.922l2.4,2.706-15,39.54.553,1.476,15.681-41.262-3.69-4.059C227.883,34.561,228.129,34.93,228.129,35.176Z" transform="translate(-84.338 -13.3)"/><path class="c" d="M52.377,36.7H31.9V85.464h1.045V61.174H57.6V60.129H32.945V37.745H52.808l3.2,4H56.5a1.466,1.466,0,0,1,1.23.553L53.3,36.761h-.922Z" transform="translate(-13.678 -14.147)"/><g transform="translate(55.506 2.789)"><path class="d" d="M132.851,9.5c-2.706-.615-5.35-1.168-8.056-1.783-2.275-.492-4.612-.984-6.887-1.537-2.275-.492-4.612-.984-6.887-1.476a4.8,4.8,0,0,0-2.091-.061,3.328,3.328,0,0,0-1.968,1.107c-.492.615-1.045,1.23-1.6,1.906a.06.06,0,0,1-.061.061c-.43.553-.922,1.107-1.353,1.722-.492.615-1.045,1.23-1.537,1.845a.06.06,0,0,1-.062.061c-.492.615-.922,1.168-1.414,1.783s-1.045,1.23-1.537,1.845a.06.06,0,0,1-.062.061c-.492.553-.922,1.168-1.414,1.722-.492.615-2.829,3.505-2.952,3.628-.308.307-.861,1.107-.984,1.168a3.979,3.979,0,0,0-.676.922,3.918,3.918,0,0,0-.492.861,3.79,3.79,0,0,0-.184,2.337c.123.615.676,2.152.738,2.4.184.492.369.922.553,1.353.553,1.476,1.107,2.952,1.6,4.489,1.107,3.136,2.275,6.211,3.382,9.347a2.5,2.5,0,0,0,.861,1.23,4.3,4.3,0,0,0,1.476.8c1.168.369,2.337.8,3.505,1.168l5.534,1.845c2.152.738,4.3,1.476,6.457,2.152,1.968.676,3.936,1.353,5.965,2.029a4.341,4.341,0,0,0,1.476.369,2.523,2.523,0,0,0,2.091-.8l.369-.553c.246-.369.43-.8.676-1.23.8-1.414,1.537-2.829,2.337-4.243.615-1.107,1.23-2.214,1.845-3.382.984-1.783,1.906-3.505,2.89-5.288.8-1.414,1.537-2.829,2.337-4.243a4.436,4.436,0,0,0,.676-2.152v-1.23c-.123-1.906-.307-3.813-.43-5.719-.123-1.6-.246-3.136-.369-4.735-.185-2.152-.307-4.3-.492-6.457a3.6,3.6,0,0,0-.123-.8,3.025,3.025,0,0,0-1.845-2.275A4.79,4.79,0,0,1,132.851,9.5Z" transform="translate(-92.531 -4.561)"/><path class="b" d="M95.68,23.547c-.061-.307.8-1.476.861-1.6.43-.492.8-.984,1.23-1.476.307-.43.676-.8.984-1.23s.676-.8.984-1.23c.676-.8,1.353-1.66,2.029-2.46.615-.8,1.291-1.6,1.906-2.4.676-.8,1.291-1.6,1.968-2.4.369-.43.676-.861,1.045-1.291.615-.738,1.23-1.537,1.845-2.275a2.931,2.931,0,0,1,3.136-1.045c1.414.246,2.767.615,4.182.922,2.029.43,4.12.922,6.149,1.353s4.12.861,6.149,1.353c1.845.43,3.751.8,5.6,1.23.123.061.307.123.43.184a1.031,1.031,0,0,1,.185,1.23c-.062.123-.185.307-.246.43-.43.738-.861,1.414-1.353,2.152-.43.676-.861,1.353-1.291,1.968-.43.676-.861,1.353-1.23,2.029-.43.676-.861,1.353-1.291,1.968-.369.615-.738,1.23-1.168,1.845-.246.369-1.045,1.66-1.168,1.845-.369.553-.676,1.107-1.045,1.66s-.738,1.168-1.107,1.722c-.308.553-.676,1.045-.984,1.6a2.156,2.156,0,0,0-.307.492,2.9,2.9,0,0,1-3.136,1.23c-.676-.184-1.414-.369-2.091-.553L114.067,29.7c-2.706-.738-5.411-1.537-8.117-2.275-2.521-.676-4.981-1.414-7.5-2.091-.615-.184-1.168-.369-1.783-.492C96.726,24.593,95.435,24.408,95.68,23.547Zm20.231-.246-.184.184A1.686,1.686,0,0,0,115.6,25.7a2.339,2.339,0,0,0,1.107.8,4.376,4.376,0,0,0,3.505-.246,2.9,2.9,0,0,0,1.414-1.291,1.721,1.721,0,0,0-.43-2.275,3.031,3.031,0,0,0-1.414-.676,5.258,5.258,0,0,0-1.968.061A5.106,5.106,0,0,0,115.912,23.3Zm-13.282-.8a1.692,1.692,0,0,0,.922.492,4.106,4.106,0,0,0,3.075-.246,2.78,2.78,0,0,0,1.353-1.168,1.588,1.588,0,0,0,0-1.722,1.7,1.7,0,0,0-.861-.738A3.676,3.676,0,0,0,104.105,19a3.154,3.154,0,0,0-1.783,1.291A1.653,1.653,0,0,0,102.629,22.5Zm12.237-9.9.307-.307a1.778,1.778,0,0,0,.061-1.906,2.28,2.28,0,0,0-1.045-.8,4.07,4.07,0,0,0-2.829,0,3.162,3.162,0,0,0-1.6,1.107,1.76,1.76,0,0,0-.123,2.091,2.212,2.212,0,0,0,.861.676,3.907,3.907,0,0,0,2.644.184A3.136,3.136,0,0,0,114.866,12.6Zm-2.029,6.58a1.982,1.982,0,0,0,.861.492,4,4,0,0,0,2.091.123,3.326,3.326,0,0,0,2.337-1.476,1.573,1.573,0,0,0,.062-1.783,1.977,1.977,0,0,0-1.291-.922,4.056,4.056,0,0,0-3.259.369,2.731,2.731,0,0,0-1.168,1.045A1.657,1.657,0,0,0,112.837,19.181ZM122.86,13.4l-.184.184a1.658,1.658,0,0,0-.123,2.029,2.167,2.167,0,0,0,1.23.861,3.951,3.951,0,0,0,3.505-.553,2.591,2.591,0,0,0,.984-1.168,1.462,1.462,0,0,0-.123-1.414,2.3,2.3,0,0,0-.8-.738,3.27,3.27,0,0,0-2.4-.307A3.5,3.5,0,0,0,122.86,13.4Z" transform="translate(-93.732 -5.137)"/><path class="b" d="M94.9,40.065v-.246a1.074,1.074,0,0,1,1.107-.922.226.226,0,0,1,.184.062c2.706.8,5.473,1.6,8.179,2.4,2.521.738,4.981,1.414,7.5,2.152,2.091.615,4.181,1.23,6.334,1.845.676.184,1.414.369,2.091.615a2.552,2.552,0,0,1,.8.43,2.011,2.011,0,0,1,.676.922,6.99,6.99,0,0,1,.369,1.537c.369,2.029.738,4,1.107,6.026.43,2.337.8,4.673,1.23,6.949.123.676.246,1.353.369,1.968v.184a.821.821,0,0,1-.369.922,1.018,1.018,0,0,1-.738,0c-1.783-.615-3.505-1.168-5.288-1.783-1.476-.492-2.89-.984-4.366-1.476-1.66-.553-3.259-1.107-4.919-1.66l-4.981-1.66c-.553-.184-1.168-.369-1.722-.615a3.6,3.6,0,0,1-1.045-.615,2.212,2.212,0,0,1-.738-1.107c-.307-.861-.676-1.783-.984-2.644-.369-.922-.676-1.845-1.045-2.829l-2.767-7.564c-.123-.43-.307-.8-.43-1.23C95.331,41.541,94.962,40.127,94.9,40.065Zm4.428,3.321a1.121,1.121,0,0,0-.123,1.291,4.677,4.677,0,0,0,.738,1.168,6.867,6.867,0,0,0,1.476,1.168,6.055,6.055,0,0,0,2.091.738,3,3,0,0,0,1.045-.061.989.989,0,0,0,.676-1.107,1.14,1.14,0,0,0-.123-.43,3.055,3.055,0,0,0-.8-1.168,6.619,6.619,0,0,0-1.476-1.107,4.934,4.934,0,0,0-2.091-.676A1.288,1.288,0,0,0,99.328,43.386Zm12.545,8.179a7.883,7.883,0,0,0-.922-.615,5.014,5.014,0,0,0-2.091-.738,3.505,3.505,0,0,0-.8.062.933.933,0,0,0-.676,1.168,2.75,2.75,0,0,0,.8,1.353,6.725,6.725,0,0,0,2.337,1.537,3.28,3.28,0,0,0,1.722.246,1.131,1.131,0,0,0,.861-.492,1.058,1.058,0,0,0,.062-.861A4.527,4.527,0,0,0,111.872,51.564Zm4.8,8.609a2.018,2.018,0,0,1,.492.369,4.515,4.515,0,0,0,2.152.922,2.986,2.986,0,0,0,1.045,0,.87.87,0,0,0,.676-1.045,2.2,2.2,0,0,0-.246-.676,4.65,4.65,0,0,0-1.168-1.291,6.645,6.645,0,0,0-1.845-.984,2.626,2.626,0,0,0-1.537-.061.824.824,0,0,0-.676.984c0,.123.062.246.062.369A3.274,3.274,0,0,0,116.669,60.173Z" transform="translate(-93.443 -17.78)"/><path class="b" d="M147.966,26.317c.308-.553.676-1.045.984-1.6.308-.492.677-1.045.984-1.537.307-.553.676-1.045.984-1.6a14.3,14.3,0,0,1,1.045-1.6l.922-1.476a.72.72,0,0,1,.676-.307.618.618,0,0,1,.369.615c.061.615.123,1.23.123,1.783.061,1.23.184,2.4.246,3.628l.185,2.214c.123,1.783.246,3.628.43,5.411.061,1.045.184,2.091.246,3.136a8.2,8.2,0,0,1,0,1.23,4.611,4.611,0,0,1-.553,1.845c-.43.8-.861,1.537-1.291,2.337-.8,1.414-1.537,2.829-2.337,4.243-.615,1.107-1.23,2.214-1.845,3.382-.984,1.783-1.968,3.567-2.89,5.35-.43.738-.8,1.537-1.23,2.275-.062.062-.062.123-.123.185a.439.439,0,0,1-.676.061l-.184-.184c-.123-.861-.307-1.783-.492-2.644-.185-1.045-.369-2.152-.553-3.2-.184-1.23-.431-2.46-.615-3.69s-.43-2.4-.615-3.628c-.184-.984-.369-2.029-.492-3.013a5.278,5.278,0,0,1,.861-3.813c.369-.553.676-1.045.984-1.6.369-.553.676-1.107,1.045-1.6.184-.307.369-.553.553-.861C144.646,31.79,147.6,26.932,147.966,26.317Zm-.061,13.9c.184.123.369.061.615-.061a2.142,2.142,0,0,0,.676-.8,8.8,8.8,0,0,0,1.107-3.936c0-.246-.062-.553-.062-.8-.061-.184-.123-.43-.307-.492a.511.511,0,0,0-.492.123,2.321,2.321,0,0,0-.615.738,7.962,7.962,0,0,0-.922,2.644,6.222,6.222,0,0,0-.123,1.845A.67.67,0,0,0,147.9,40.215Z" transform="translate(-111.274 -9.813)"/></g><path class="b" d="M124.948,85.6c-1.66-.615-3.321-1.168-4.981-1.783-1.845-.676-3.69-1.291-5.534-1.968a9.344,9.344,0,0,0-1.23-.369,1.547,1.547,0,0,0-1.168.184,3.258,3.258,0,0,0-.615.369c-.307.308-.553.676-.861,1.045a1.866,1.866,0,0,0-.307.43c-.185.246-.308.431-.492.676a4.3,4.3,0,0,1-.492.615c-.246.369-.492.738-.738,1.045-.246.369-.553.676-.8,1.045-.123.184-.246.307-.369.492-.184.246-.307.43-.492.676a4.3,4.3,0,0,1-.492.615c-.246.369-.492.738-.738,1.045-.246.369-.553.676-.8,1.045-.123.185-.246.307-.369.492-.246.369-.492.738-.738,1.045-.307.369-.553.8-.861,1.168a3.8,3.8,0,0,0-.553,1.66c-.062.615-.062,1.291-.123,1.906-.061,1.414-.184,2.829-.246,4.243-.062,1.6-.185,3.136-.246,4.735-.123,1.722-.185,3.444-.307,5.165a1.821,1.821,0,0,0,1.045,1.845,3.468,3.468,0,0,0,.738.246c1.168.246,2.275.553,3.444.8,2.583.615,5.227,1.23,7.81,1.845l5.534,1.291a3.434,3.434,0,0,0,1.353.185,2.232,2.232,0,0,0,1.045-.43c.246-.184.553-.43.8-.615.43-.369.861-.676,1.291-1.045.369-.307.738-.553,1.107-.861s.738-.553,1.045-.861a13.509,13.509,0,0,1,1.107-.861c.43-.369.922-.738,1.353-1.045.369-.307.738-.553,1.107-.861.431-.369.861-.676,1.353-1.045.369-.307.738-.553,1.107-.861a5.741,5.741,0,0,0,.922-.8c.123-.246.307-.43.43-.676a3.957,3.957,0,0,0,.307-2.091c-.062-.615-.184-1.23-.246-1.783s-.123-1.107-.246-1.722c-.123-.8-.184-1.537-.307-2.337a16.584,16.584,0,0,0-.246-1.722l-.369-2.767c-.123-.738-.185-1.537-.308-2.275L132.2,89.78a2.144,2.144,0,0,0-.738-1.476,3.53,3.53,0,0,0-1.414-.922C128.453,86.829,126.669,86.214,124.948,85.6Z" transform="translate(-40.436 -31.377)"/><g transform="translate(66.74 72.79)"><path class="e" d="M127.14,132.621a1.676,1.676,0,0,0-.738.369.635.635,0,0,0-.184.922,1.913,1.913,0,0,0,.553.43,3.638,3.638,0,0,0,1.168.308,3.511,3.511,0,0,0,1.783-.246,1.339,1.339,0,0,0,.492-.308.667.667,0,0,0,.246-.553.623.623,0,0,0-.246-.43,1.275,1.275,0,0,0-.615-.369A4.208,4.208,0,0,0,127.14,132.621Z" transform="translate(-116.687 -123.825)"/><path class="e" d="M119.236,125.829a2.046,2.046,0,0,0,.615-.369.668.668,0,0,0,.061-.922,1.479,1.479,0,0,0-.492-.369,4.06,4.06,0,0,0-1.66-.369,4.134,4.134,0,0,0-1.476.246,2.537,2.537,0,0,0-.676.43.559.559,0,0,0-.061.676.9.9,0,0,0,.307.369,3.623,3.623,0,0,0,.492.246,3.21,3.21,0,0,0,1.291.246A2.464,2.464,0,0,0,119.236,125.829Z" transform="translate(-112.595 -120.477)"/><path class="e" d="M134.1,127.771a4.544,4.544,0,0,0-1.291,0,2.547,2.547,0,0,0-1.414.553.662.662,0,0,0-.061,1.107,1.639,1.639,0,0,0,.615.369,4.5,4.5,0,0,0,2.706.062,2.027,2.027,0,0,0,.8-.43.644.644,0,0,0,.061-.984l-.061-.062h0a.848.848,0,0,0-.246-.184A2.763,2.763,0,0,0,134.1,127.771Z" transform="translate(-118.602 -121.988)"/><path class="e" d="M114.305,129.156a3.732,3.732,0,0,0-2.583,0,1.224,1.224,0,0,0-.738.492.6.6,0,0,0,0,.861,2.169,2.169,0,0,0,.8.492,4.022,4.022,0,0,0,1.906.123,2.762,2.762,0,0,0,1.107-.43.618.618,0,0,0,.308-.677c0-.184-.123-.307-.308-.43A.6.6,0,0,0,114.305,129.156Z" transform="translate(-110.8 -122.45)"/><path class="e" d="M124.317,118.583a5.1,5.1,0,0,0-2.152-.123,2.8,2.8,0,0,0-1.168.492.8.8,0,0,0,0,1.291,2.414,2.414,0,0,0,.8.369,4.1,4.1,0,0,0,2.275.061,2.925,2.925,0,0,0,1.107-.492.731.731,0,0,0,.308-.861.827.827,0,0,0-.369-.43A6.9,6.9,0,0,0,124.317,118.583Z" transform="translate(-114.602 -118.396)"/><path class="e" d="M140.213,122.783a4.28,4.28,0,0,0-1.968-.123,4.533,4.533,0,0,0-.861.246,1.744,1.744,0,0,0-.676.492.746.746,0,0,0-.061.8,1.208,1.208,0,0,0,.8.553,4.6,4.6,0,0,0,3.013.061,1.568,1.568,0,0,0,.738-.492.57.57,0,0,0,.184-.738.826.826,0,0,0-.369-.43C140.766,123.029,140.52,122.906,140.213,122.783Z" transform="translate(-120.72 -120.013)"/></g><g transform="translate(63.112 56.165)"><path class="e" d="M106.191,115.423a1.916,1.916,0,0,0-.43.553,6.348,6.348,0,0,0-.861,3.013,1.564,1.564,0,0,0,.185.922.372.372,0,0,0,.492-.062,2.3,2.3,0,0,0,.369-.43,7.366,7.366,0,0,0,.922-2.767,1.826,1.826,0,0,0-.062-.984c-.061-.184-.123-.307-.307-.369A.4.4,0,0,0,106.191,115.423Z" transform="translate(-104.9 -100.579)"/><path class="e" d="M106.684,104.728a7.615,7.615,0,0,0,.738-1.968,9.215,9.215,0,0,0,.123-1.353.881.881,0,0,0-.246-.615c-.307-.061-.492.123-.676.369a5.41,5.41,0,0,0-.369.615,6.993,6.993,0,0,0-.676,2.46,1.515,1.515,0,0,0,.123,1.045c.123.307.553.062.676-.061A5.654,5.654,0,0,1,106.684,104.728Z" transform="translate(-105.147 -94.988)"/><path class="e" d="M113.891,105.884a2.729,2.729,0,0,0-.492.676,7.457,7.457,0,0,0-.676,1.968,8.329,8.329,0,0,0-.123,1.23.968.968,0,0,0,.246.8.449.449,0,0,0,.553-.123,2.209,2.209,0,0,0,.43-.615,6.539,6.539,0,0,0,.738-2.091,3.606,3.606,0,0,0,.061-1.414.789.789,0,0,0-.246-.615A.605.605,0,0,0,113.891,105.884Z" transform="translate(-107.865 -96.882)"/><path class="e" d="M114.191,91.508a4.365,4.365,0,0,0-.615.861,6.346,6.346,0,0,0-.676,2.4V95.5c.062.492.492.553.676.369a2.913,2.913,0,0,0,.738-1.168.874.874,0,0,0,.123-.369c.123-.43.308-1.291.43-1.906v-.492a.538.538,0,0,0-.307-.553C114.437,91.323,114.314,91.385,114.191,91.508Z" transform="translate(-107.981 -91.361)"/></g><g transform="translate(75.569 54.636)"><path class="e" d="M134.658,98.793A1.2,1.2,0,0,0,133.49,99.9a2.118,2.118,0,0,0,.246,1.23,3.06,3.06,0,0,0,.922,1.045,2.448,2.448,0,0,0,1.291.553,1.825,1.825,0,0,0,.984-.123,1.1,1.1,0,0,0,.43-.308,1.472,1.472,0,0,0,.246-1.23,3.169,3.169,0,0,0-.984-1.6c-.123-.061-.246-.184-.43-.308A2.6,2.6,0,0,0,134.658,98.793Z" transform="translate(-128.361 -92.689)"/><path class="e" d="M127.024,103.5a1.4,1.4,0,0,0-1.168.43,1.427,1.427,0,0,0-.369,1.291,3.024,3.024,0,0,0,1.107,1.845l.553.369a2.383,2.383,0,0,0,1.476.308,1.317,1.317,0,0,0,1.168-.922,1.583,1.583,0,0,0,.062-.922,3.06,3.06,0,0,0-1.045-1.66,3.752,3.752,0,0,1-.369-.246A2.193,2.193,0,0,0,127.024,103.5Z" transform="translate(-125.277 -94.506)"/><path class="e" d="M126.291,88.89a1.237,1.237,0,0,0-1.107,1.045,1.975,1.975,0,0,0,.062.861,3.948,3.948,0,0,0,1.107,1.537,2.278,2.278,0,0,0,1.107.492,1.692,1.692,0,0,0,1.107-.123A1.1,1.1,0,0,0,129,92.4a1.473,1.473,0,0,0,.246-1.23,3.17,3.17,0,0,0-.984-1.6,3.229,3.229,0,0,0-.676-.43A2.323,2.323,0,0,0,126.291,88.89Z" transform="translate(-125.159 -88.874)"/><path class="e" d="M143.245,108.79a1.249,1.249,0,0,0-1.045.676,1.516,1.516,0,0,0-.123,1.045,3.169,3.169,0,0,0,.984,1.6,6.5,6.5,0,0,0,.676.43,1.923,1.923,0,0,0,1.168.246,1.243,1.243,0,0,0,1.23-1.291,2.468,2.468,0,0,0-.184-.922,3.285,3.285,0,0,0-1.414-1.476A2.017,2.017,0,0,0,143.245,108.79Z" transform="translate(-131.659 -96.537)"/><path class="e" d="M141.605,94.286a1.171,1.171,0,0,0-1.045.922,1.689,1.689,0,0,0,.123,1.23,3.151,3.151,0,0,0,1.783,1.66,1.824,1.824,0,0,0,.984.123,1.31,1.31,0,0,0,1.168-1.537,3.685,3.685,0,0,0-.984-1.783c-.184-.123-.369-.246-.615-.43A2.738,2.738,0,0,0,141.605,94.286Z" transform="translate(-131.064 -90.949)"/></g></g></svg>