<?xml version="1.0" encoding="utf-8"?>
<!-- Generator: Adobe Illustrator 22.0.1, SVG Export Plug-In . SVG Version: 6.00 Build 0)  -->
<svg version="1.1" id="Слой_1" xmlns="http://www.w3.org/2000/svg" xmlns:xlink="http://www.w3.org/1999/xlink" x="0px" y="0px"
	 viewBox="0 0 1000 1000" style="enable-background:new 0 0 1000 1000;" xml:space="preserve">
<g id="Layer_2_2_">
	<g id="Layer_1-2_2_">
		<path fill="#2A2E3D" d="M575.3,151.1c-40.9-40.8-107.2-40.8-148.1,0l-65.7,65.5l45.3,45.3l65.7-65.5c15.8-15.9,41.6-16,57.5-0.2
			c0.1,0.1,0.1,0.1,0.2,0.2l274.9,274.9c15.9,15.8,16,41.6,0.2,57.5c-0.1,0.1-0.1,0.1-0.2,0.2L529.9,803.7
			c-15.8,15.9-41.6,16-57.5,0.2c-0.1-0.1-0.1-0.1-0.2-0.2L197.6,528.8c-15.9-15.8-16-41.6-0.2-57.5c0.1-0.1,0.1-0.1,0.2-0.2
			l114.8-114.8l97.8,97.9c-25.6,50.6-5.3,112.3,45.2,137.9c50.6,25.6,112.3,5.3,137.9-45.2c25.6-50.6,5.3-112.3-45.2-137.9
			c-29.1-14.7-63.5-14.7-92.7,0l-143-143L152,426.3c-40.8,40.9-40.8,107.2,0,148.1L427,849.3c40.9,40.9,107.2,40.9,148.1,0
			L850,574.4c40.8-40.9,40.8-107.2,0-148.1L575.3,151.1z M501.2,460.3c22.2-0.2,40.3,17.7,40.5,39.8c0.2,22.2-17.7,40.3-39.8,40.5
			c-22.2,0.2-40.3-17.7-40.5-39.8c0-0.2,0-0.4,0-0.6C461.5,478.1,479.3,460.4,501.2,460.3z"/>
	</g>
</g>
</svg>
