<svg xmlns="http://www.w3.org/2000/svg" viewBox="0 0 558.49 118.42"><title>Asset 1</title><g id="Layer_2" data-name="Layer 2"><g id="Layer_1-2" data-name="Layer 1"><rect x="213.77" y="31.48" width="9.11" height="55.45"/><path d="M263.37,39.32a18.76,18.76,0,0,1,9.46,2.42,16.32,16.32,0,0,1,6.46,6.54l7.92-4.6A25.79,25.79,0,0,0,277.27,34a28,28,0,0,0-13.9-3.57q-12.52,0-20.76,8.28a27.91,27.91,0,0,0-8.24,20.48,27.91,27.91,0,0,0,8.24,20.48Q250.84,88,263.37,88a27.94,27.94,0,0,0,14-3.6,25.61,25.61,0,0,0,9.86-9.7l-7.92-4.52a15.79,15.79,0,0,1-6.42,6.54,19,19,0,0,1-9.5,2.41q-8.88,0-14.38-5.62a19.56,19.56,0,0,1-5.51-14.26A19.55,19.55,0,0,1,249,45Q254.5,39.33,263.37,39.32Z"/><polygon points="307.02 63.25 329.2 63.25 329.2 54.61 307.02 54.61 307.02 40.2 331.18 40.2 331.18 31.48 297.91 31.48 297.91 86.94 331.57 86.94 331.57 78.22 307.02 78.22 307.02 63.25"/><path d="M417.4,31.48,397.28,86.93h9.9l3.88-11.17h23.58l3.91,11.17h9.82l-20-55.45Zm-3.33,35.73,8.81-25,8.76,25Z"/><polygon points="484.03 59.2 467.31 31.48 457.48 31.48 457.48 86.94 466.59 86.94 466.59 47.32 483.47 75.29 484.57 75.29 501.45 47.4 501.45 86.94 510.56 86.94 510.56 31.48 500.81 31.48 484.03 59.2"/><polygon points="533.93 78.22 533.93 63.25 556.11 63.25 556.11 54.61 533.93 54.61 533.93 40.2 558.09 40.2 558.09 31.48 524.82 31.48 524.82 86.94 558.49 86.94 558.49 78.22 533.93 78.22"/><path d="M349,39.52a27.66,27.66,0,0,0-7.56,19.69A27.62,27.62,0,0,0,349,78.93a25,25,0,0,0,19,8h21.78V60h-9.11V78.22H368a16.64,16.64,0,0,1-12.8-5.35q-4.95-5.34-4.95-13.66a19.36,19.36,0,0,1,4.95-13.63A16.59,16.59,0,0,1,368,40.2h21.78V31.48H368A25,25,0,0,0,349,39.52Z"/><path d="M175.75,31.48H154V40.2h21.79a16.64,16.64,0,0,1,12.79,5.34q5,5.35,5,13.67a19.35,19.35,0,0,1-5,13.62,16.55,16.55,0,0,1-12.79,5.39H163.07V48.6H154V86.93h21.79a25,25,0,0,0,19-8,27.62,27.62,0,0,0,7.57-19.68,27.61,27.61,0,0,0-7.57-19.73A25,25,0,0,0,175.75,31.48Z"/><rect x="213.77" y="13.85" width="9.08" height="9.08"/><path d="M70.76,4.78a16.35,16.35,0,0,0-23.1,0L37.41,15l7.07,7.07L54.73,11.85a6.34,6.34,0,0,1,9,0l42.88,42.88a6.34,6.34,0,0,1,0,9L63.69,106.57a6.34,6.34,0,0,1-9,0L11.85,63.69a6.34,6.34,0,0,1,0-9l17.9-17.91L45,52.05A16,16,0,1,0,52.05,45l-22.3-22.3-25,25a16.35,16.35,0,0,0,0,23.1l42.88,42.88a16.34,16.34,0,0,0,23.1,0l42.88-42.88a16.35,16.35,0,0,0,0-23.1ZM59.21,53A6.26,6.26,0,1,1,53,59.21,6.25,6.25,0,0,1,59.21,53Z"/></g></g></svg>