<svg xmlns="http://www.w3.org/2000/svg" viewBox="480 10794 24 15.6">
  <defs>
    <style>
      .cls-1 {
        fill: #aeaeae;
      }
    </style>
  </defs>
  <g id="envelope" transform="translate(480 10693.555)">
    <g id="Group_44" data-name="Group 44" transform="translate(0 100.445)">
      <path id="Path_352" data-name="Path 352" class="cls-1" d="M23.983,101.758a1.276,1.276,0,0,0-1.229-1.313h0l-21.525.032a1.183,1.183,0,0,0-.869.386,1.355,1.355,0,0,0-.359.93l.017,12.938a1.354,1.354,0,0,0,.361.929,1.182,1.182,0,0,0,.868.384h0l21.525-.032A1.276,1.276,0,0,0,24,114.7Zm-2.58,0L12,108.754,2.58,101.79Zm-5.426,8.312,5.577,4.626-19.124.028,5.611-4.655a.689.689,0,0,0,.109-.923.588.588,0,0,0-.862-.117l-6.043,5.013L1.23,102.39l10.422,7.7a.582.582,0,0,0,.7,0l10.4-7.735.016,11.687-6.04-5.011a.588.588,0,0,0-.862.117A.689.689,0,0,0,15.977,110.074Z" transform="translate(0 -100.445)"/>
    </g>
  </g>
</svg>
