<svg xmlns="http://www.w3.org/2000/svg" viewBox="649.374 416.634 68.243 68.243">
  <defs>
    <style>
      .cls-1 {
        fill: #fff;
      }
    </style>
  </defs>
  <g id="play-button" transform="translate(649.374 416.634)">
    <path id="Path_333" data-name="Path 333" class="cls-1" d="M48.8,31.259,23.778,14.2A1.137,1.137,0,0,0,22,15.137V49.259a1.137,1.137,0,0,0,1.778.939L48.8,33.138a1.136,1.136,0,0,0,0-1.879ZM24.275,47.106V17.29L46.141,32.2Z" transform="translate(3.023 1.923)"/>
    <path id="Path_334" data-name="Path 334" class="cls-1" d="M34.122,0A34.122,34.122,0,1,0,68.243,34.122,34.16,34.16,0,0,0,34.122,0Zm0,65.968A31.847,31.847,0,1,1,65.968,34.122,31.883,31.883,0,0,1,34.122,65.968Z"/>
  </g>
</svg>
