<svg xmlns="http://www.w3.org/2000/svg" viewBox="853 9651 40.001 40">
  <defs>
    <style>
      .cls-1 {
        fill: #fff;
      }
    </style>
  </defs>
  <g id="slack" transform="translate(853 9650.993)">
    <g id="Group_41" data-name="Group 41" transform="translate(0 0.007)">
      <path id="Path_343" data-name="Path 343" class="cls-1" d="M39.826,21.457a3.562,3.562,0,0,0-4.49-2.288l-3.59,1.168c-.8-2.45-1.643-5.055-2.438-7.5L32.9,11.67a3.563,3.563,0,0,0-2.2-6.778L27.106,6.06,25.938,2.47a3.562,3.562,0,1,0-6.775,2.2l1.168,3.59L12.83,10.7c-.708-2.183-1.165-3.59-1.165-3.59a3.563,3.563,0,0,0-6.778,2.2L6.055,12.9,2.35,14.107a3.564,3.564,0,0,0,2.2,6.775c.015,0,1.473-.478,3.705-1.205l2.438,7.5L6.988,28.383a3.564,3.564,0,0,0,2.2,6.775c.015-.005,1.473-.478,3.708-1.205L14.1,37.658a3.564,3.564,0,0,0,6.775-2.2c0-.015-.478-1.47-1.2-3.705,2.45-.8,5.055-1.643,7.5-2.438l1.205,3.705a3.564,3.564,0,0,0,6.775-2.2c-.005-.015-.478-1.47-1.205-3.705l3.59-1.168A3.564,3.564,0,0,0,39.826,21.457ZM17.47,24.978c-.8-2.45-1.643-5.055-2.438-7.5,2.45-.8,5.055-1.643,7.5-2.438l2.438,7.5Z" transform="translate(0 -0.007)"/>
    </g>
  </g>
</svg>
