<svg xmlns="http://www.w3.org/2000/svg" viewBox="1045 9653 36.753 32">
  <defs>
    <style>
      .cls-1 {
        fill: #fff;
      }
    </style>
  </defs>
  <g id="telegram" transform="translate(1045 9633.6)">
    <path id="XMLID_497_" class="cls-1" d="M.649,34.744l8.469,3.161L12.4,48.447a1,1,0,0,0,1.583.477L18.7,45.075a1.408,1.408,0,0,1,1.717-.048l8.514,6.182a1,1,0,0,0,1.564-.6l6.237-30A1,1,0,0,0,35.4,19.469L.639,32.877A1,1,0,0,0,.649,34.744Zm11.218,1.478L28.419,26.029a.288.288,0,0,1,.348.456l-13.659,12.7a2.832,2.832,0,0,0-.878,1.694l-.465,3.448a.428.428,0,0,1-.835.061L11.14,38.1A1.666,1.666,0,0,1,11.868,36.223Z" transform="translate(0 0)"/>
  </g>
</svg>
