<svg xmlns="http://www.w3.org/2000/svg" xmlns:xlink="http://www.w3.org/1999/xlink" viewBox="5675 -1718 350 393">
  <defs>
    <style>
      .cls-1 {
        fill: #2a2e3d;
        opacity: 0.9;
      }

      .cls-2 {
        fill: #1d1f27;
        opacity: 0.35;
      }

      .cls-3 {
        fill: url(#linear-gradient);
      }

      .cls-4 {
        opacity: 0.7;
      }

      .cls-14, .cls-5, .cls-7, .cls-8, .cls-9 {
        fill: none;
      }

      .cls-5, .cls-7, .cls-8 {
        stroke: #fff;
      }

      .cls-10, .cls-12, .cls-13, .cls-16, .cls-19, .cls-22, .cls-6 {
        fill: #fff;
      }

      .cls-6 {
        font-size: 14px;
      }

      .cls-10, .cls-12, .cls-6 {
        font-family: Helvetica;
      }

      .cls-7 {
        opacity: 0.13;
      }

      .cls-8 {
        opacity: 0.3;
      }

      .cls-9 {
        stroke: #000;
        opacity: 0.26;
      }

      .cls-10 {
        font-size: 26px;
        letter-spacing: 0.02em;
      }

      .cls-11 {
        fill: #627bfa;
      }

      .cls-12, .cls-13 {
        font-size: 16px;
      }

      .cls-13, .cls-16 {
        font-family: Helvetica-Light, Helvetica;
        font-weight: 300;
      }

      .cls-14 {
        stroke: #0f1016;
        opacity: 0.23;
      }

      .cls-15 {
        fill: #4962e1;
      }

      .cls-16 {
        font-size: 28px;
      }

      .cls-17 {
        fill: #3a319a;
      }

      .cls-18 {
        opacity: 0.58;
      }

      .cls-20 {
        fill: #b4b4b4;
      }

      .cls-21 {
        fill: #dfdfdf;
      }

      .cls-22, .cls-23 {
        opacity: 0.6;
      }

      .cls-24 {
        filter: url(#Rectangle_342);
      }
    </style>
    <linearGradient id="linear-gradient" x1="1" y1="0.5" x2="0.011" y2="0.5" gradientUnits="objectBoundingBox">
      <stop offset="0" stop-color="#627bfa"/>
      <stop offset="1" stop-color="#7d34bc"/>
    </linearGradient>
    <filter id="Rectangle_342" x="5788.958" y="-1488.5" width="123.952" height="40" filterUnits="userSpaceOnUse">
      <feOffset dy="1.5" input="SourceAlpha"/>
      <feGaussianBlur stdDeviation="1" result="blur"/>
      <feFlood flood-opacity="0.102"/>
      <feComposite operator="in" in2="blur"/>
      <feComposite in="SourceGraphic"/>
    </filter>
  </defs>
  <g id="Group_1061" data-name="Group 1061" transform="translate(4773 -1941)">
    <g id="Group_1052" data-name="Group 1052" transform="translate(1 -31)">
      <rect id="Rectangle_372" data-name="Rectangle 372" class="cls-1" width="350" height="393" rx="5" transform="translate(901 254)"/>
      <path id="Path_1270" data-name="Path 1270" class="cls-2" d="M7.5,0H294.28a7.5,7.5,0,0,1,0,15H7.5a7.5,7.5,0,0,1,0-15Z" transform="translate(925 445)"/>
      <rect id="Rectangle_373" data-name="Rectangle 373" class="cls-3" width="139.489" height="11" rx="5.5" transform="translate(926.926 447)"/>
      <circle id="Ellipse_391" data-name="Ellipse 391" class="cls-4" cx="2.5" cy="2.5" r="2.5" transform="translate(1056 450)"/>
      <line id="Line_9" data-name="Line 9" class="cls-5" y2="23" transform="translate(943 419)"/>
      <line id="Line_11" data-name="Line 11" class="cls-5" y2="23" transform="translate(1134 418)"/>
      <line id="Line_10" data-name="Line 10" class="cls-5" y2="23" transform="translate(1022 419)"/>
      <text id="Soft_cup" data-name="Soft cup" class="cls-6" transform="translate(957 434)"><tspan x="0" y="0">Soft cup</tspan></text>
      <text id="Hard_cup" data-name="Hard cup" class="cls-6" transform="translate(1143 434)"><tspan x="0" y="0">Hard cup</tspan></text>
      <path id="Path_1263" data-name="Path 1263" class="cls-7" d="M0,0H288" transform="translate(932.5 460.5)"/>
      <line id="Line_14" data-name="Line 14" class="cls-8" x2="128.732" transform="translate(932.768 447.5)"/>
      <path id="Path_1271" data-name="Path 1271" class="cls-9" d="M0,0H288" transform="translate(932.5 445.5)"/>
      <text id="Tokens_PRE-SALE" data-name="Tokens PRE-SALE" class="cls-10" transform="translate(971 290)"><tspan x="0" y="0">Tokens PRE-SALE</tspan></text>
      <g id="Symbol_4" data-name="Symbol 4" transform="translate(-138.042 448)">
        <g class="cls-24" transform="matrix(1, 0, 0, 1, -4635.96, 1524)">
          <rect id="Rectangle_342-2" data-name="Rectangle 342" class="cls-11" width="117.952" height="34" rx="2" transform="translate(5791.96 -1487)"/>
        </g>
      </g>
      <text id="Buy_Tokens" data-name="Buy Tokens" class="cls-12" transform="translate(1036 507)"><tspan x="0" y="0">Buy Tokens</tspan></text>
      <g id="Group_963" data-name="Group 963" transform="translate(12 -120)">
        <text id="Whitepaper" class="cls-13" transform="translate(917 688)"><tspan x="0" y="0">Whitepaper</tspan></text>
      </g>
      <g id="Group_964" data-name="Group 964" transform="translate(117 -120)">
        <text id="OnePage" class="cls-13" transform="translate(925 688)"><tspan x="0" y="0">OnePage</tspan></text>
      </g>
      <g id="Group_965" data-name="Group 965" transform="translate(211 -120)">
        <text id="Presentation" class="cls-13" transform="translate(925 688)"><tspan x="0" y="0">Presentation</tspan></text>
      </g>
      <line id="Line_15" data-name="Line 15" class="cls-14" x2="315" transform="translate(917.5 538.5)"/>
      <line id="Line_16" data-name="Line 16" class="cls-14" x2="314" y2="2" transform="translate(919.5 588.5)"/>
    </g>
    <g id="Group_1053" data-name="Group 1053" transform="translate(25 -76)">
      <path id="Rectangle_381" data-name="Rectangle 381" class="cls-15" d="M5,0H43.075a5,5,0,0,1,5,5V24.839a0,0,0,0,1,0,0H0a0,0,0,0,1,0,0V5A5,5,0,0,1,5,0Z" transform="translate(921.514 369.161)"/>
      <path id="Rectangle_382" data-name="Rectangle 382" class="cls-11" d="M5,0H43.075a5,5,0,0,1,5,5V24.839a0,0,0,0,1,0,0H0a0,0,0,0,1,0,0V5A5,5,0,0,1,5,0Z" transform="translate(969.59 418.839) rotate(180)"/>
      <text id="_15" data-name="15" class="cls-16" transform="translate(933.533 403.174)"><tspan x="0" y="0">15</tspan></text>
      <rect id="Rectangle_383" data-name="Rectangle 383" class="cls-17" width="3.205" height="6.41" rx="1.603" transform="translate(928.726 390.795)"/>
      <rect id="Rectangle_384" data-name="Rectangle 384" class="cls-17" width="3.205" height="6.41" rx="1.603" transform="translate(960.776 390.795)"/>
    </g>
    <g id="Group_1054" data-name="Group 1054" transform="translate(25 -76)">
      <path id="Rectangle_387" data-name="Rectangle 387" class="cls-15" d="M5,0H43.075a5,5,0,0,1,5,5V24.839a0,0,0,0,1,0,0H0a0,0,0,0,1,0,0V5A5,5,0,0,1,5,0Z" transform="translate(982.41 369.161)"/>
      <path id="Rectangle_385" data-name="Rectangle 385" class="cls-11" d="M5,0H43.075a5,5,0,0,1,5,5V24.839a0,0,0,0,1,0,0H0a0,0,0,0,1,0,0V5A5,5,0,0,1,5,0Z" transform="translate(1030.485 418.839) rotate(180)"/>
      <text id="_7" data-name="7" class="cls-16" transform="translate(999.236 403.174)"><tspan x="0" y="0">7</tspan></text>
      <rect id="Rectangle_388" data-name="Rectangle 388" class="cls-17" width="3.205" height="6.41" rx="1.603" transform="translate(989.621 390.795)"/>
      <rect id="Rectangle_386" data-name="Rectangle 386" class="cls-17" width="3.205" height="6.41" rx="1.603" transform="translate(1021.672 390.795)"/>
    </g>
    <g id="Group_1055" data-name="Group 1055" transform="translate(92 -76)">
      <path id="Rectangle_387-2" data-name="Rectangle 387" class="cls-15" d="M5,0H43.075a5,5,0,0,1,5,5V24.839a0,0,0,0,1,0,0H0a0,0,0,0,1,0,0V5A5,5,0,0,1,5,0Z" transform="translate(982.41 369.161)"/>
      <path id="Rectangle_385-2" data-name="Rectangle 385" class="cls-11" d="M5,0H43.075a5,5,0,0,1,5,5V24.839a0,0,0,0,1,0,0H0a0,0,0,0,1,0,0V5A5,5,0,0,1,5,0Z" transform="translate(1030.485 418.839) rotate(180)"/>
      <text id="_7-2" data-name="7" class="cls-16" transform="translate(999.236 403.174)"><tspan x="0" y="0">7</tspan></text>
      <rect id="Rectangle_388-2" data-name="Rectangle 388" class="cls-17" width="3.205" height="6.41" rx="1.603" transform="translate(989.621 390.795)"/>
      <rect id="Rectangle_386-2" data-name="Rectangle 386" class="cls-17" width="3.205" height="6.41" rx="1.603" transform="translate(1021.672 390.795)"/>
    </g>
    <g id="Group_1056" data-name="Group 1056" transform="translate(159 -76)">
      <path id="Rectangle_387-3" data-name="Rectangle 387" class="cls-15" d="M5,0H43.075a5,5,0,0,1,5,5V24.839a0,0,0,0,1,0,0H0a0,0,0,0,1,0,0V5A5,5,0,0,1,5,0Z" transform="translate(982.41 369.161)"/>
      <path id="Rectangle_385-3" data-name="Rectangle 385" class="cls-11" d="M5,0H43.075a5,5,0,0,1,5,5V24.839a0,0,0,0,1,0,0H0a0,0,0,0,1,0,0V5A5,5,0,0,1,5,0Z" transform="translate(1030.485 418.839) rotate(180)"/>
      <text id="_7-3" data-name="7" class="cls-16" transform="translate(999.236 403.174)"><tspan x="0" y="0">7</tspan></text>
      <rect id="Rectangle_388-3" data-name="Rectangle 388" class="cls-17" width="3.205" height="6.41" rx="1.603" transform="translate(989.621 390.795)"/>
      <rect id="Rectangle_386-3" data-name="Rectangle 386" class="cls-17" width="3.205" height="6.41" rx="1.603" transform="translate(1021.672 390.795)"/>
    </g>
    <g id="Group_1057" data-name="Group 1057" transform="translate(387 177)">
      <g id="medium" class="cls-18" transform="translate(759 371.2)">
        <path id="Path_1266" data-name="Path 1266" class="cls-19" d="M269.606,53.089l-7.622-3.664-.057-16.61a.525.525,0,0,1,.753-.475l7.226,3.475a.525.525,0,0,1,.3.473V52.714A.417.417,0,0,1,269.606,53.089Z" transform="translate(-245.456 -2.331)"/>
        <path id="Path_1267" data-name="Path 1267" class="cls-20" d="M139.909,47.094l-8.249-3.966L139.6,30.053a.525.525,0,0,1,.677-.2l7.327,3.523a.525.525,0,0,1,.221.747Z" transform="translate(-123.381)"/>
        <path id="Path_1268" data-name="Path 1268" class="cls-21" d="M26.311,53.033l-8.249-3.966L10.5,36.754a.4.4,0,0,1,.519-.575l7.043,3.387Z" transform="translate(-9.782 -5.938)"/>
        <path id="Path_1269" data-name="Path 1269" class="cls-20" d="M7.682,52,.236,48.418A.417.417,0,0,1,0,48.043V31.528a.4.4,0,0,1,.578-.364l7.7,3.7V51.624A.417.417,0,0,1,7.682,52Z" transform="translate(0 -1.241)"/>
      </g>
      <path id="reddit-big-logo" class="cls-22" d="M22.2,17.508a2.777,2.777,0,0,0-4.942-1.741,14.483,14.483,0,0,0-4.921-1.212L13.858,9.74l3.4.737a2.353,2.353,0,1,0,.153-1.59l-3.927-.851a.794.794,0,0,0-.924.536l-1.881,5.944a14.792,14.792,0,0,0-5.741,1.252A2.778,2.778,0,0,0,0,17.508a2.76,2.76,0,0,0,.811,1.961,4.839,4.839,0,0,0-.466,2.058c0,1.908,1.142,3.689,3.217,5.015a14.148,14.148,0,0,0,7.537,2,14.147,14.147,0,0,0,7.537-2c2.074-1.326,3.217-3.106,3.217-5.015a4.84,4.84,0,0,0-.466-2.058A2.76,2.76,0,0,0,22.2,17.508ZM1.219,18.46a1.8,1.8,0,0,1-.267-.952,1.827,1.827,0,0,1,1.825-1.825,1.8,1.8,0,0,1,1.162.417A8.309,8.309,0,0,0,1.219,18.46ZM5.4,20.068a1.984,1.984,0,1,1,1.984,1.984A1.986,1.986,0,0,1,5.4,20.068Zm9.769,4.527A5.692,5.692,0,0,1,11.1,25.963a5.692,5.692,0,0,1-4.069-1.368A.793.793,0,1,1,8.2,23.523a4.362,4.362,0,0,0,2.9.853,4.362,4.362,0,0,0,2.9-.853.793.793,0,0,1,1.17,1.072Zm-.353-2.543A1.984,1.984,0,1,1,16.8,20.068,1.986,1.986,0,0,1,14.814,22.051Zm6.163-3.592a8.308,8.308,0,0,0-2.72-2.36,1.8,1.8,0,0,1,1.162-.417,1.827,1.827,0,0,1,1.825,1.825A1.8,1.8,0,0,1,20.977,18.46Z" transform="translate(711 390.458)"/>
      <g id="facebook-logo" class="cls-23" transform="translate(555.459 398)">
        <path id="Path_335" data-name="Path 335" class="cls-19" d="M33,0,30.28,0a4.782,4.782,0,0,0-5.037,5.168V7.551H22.505a.428.428,0,0,0-.428.428v3.452a.428.428,0,0,0,.428.428h2.738v8.712a.428.428,0,0,0,.428.428h3.572a.428.428,0,0,0,.428-.428V11.86h3.2a.428.428,0,0,0,.428-.428V7.979a.429.429,0,0,0-.428-.428h-3.2V5.531c0-.971.231-1.464,1.5-1.464H33a.428.428,0,0,0,.428-.428V.433A.428.428,0,0,0,33,0Z" transform="translate(0)"/>
      </g>
      <g id="telegram" class="cls-23" transform="translate(663 378.6)">
        <path id="XMLID_497_" class="cls-19" d="M.426,29.47l5.558,2.074,2.151,6.918a.654.654,0,0,0,1.039.313l3.1-2.525a.924.924,0,0,1,1.127-.031l5.588,4.057a.655.655,0,0,0,1.026-.4L24.105,20.19a.655.655,0,0,0-.877-.744L.42,28.244A.655.655,0,0,0,.426,29.47Zm7.362.97L18.65,23.75a.189.189,0,0,1,.228.3L9.914,32.382a1.858,1.858,0,0,0-.576,1.112l-.305,2.263a.281.281,0,0,1-.548.04L7.31,31.67A1.094,1.094,0,0,1,7.788,30.44Z" transform="translate(0 0)"/>
      </g>
      <g id="twitter-logo-silhouette" class="cls-23" transform="translate(612.999 340.559)">
        <g id="Group_40" data-name="Group 40" transform="translate(0.001 57.441)">
          <path id="Path_340" data-name="Path 340" class="cls-19" d="M25.854,59.926a10.591,10.591,0,0,1-3.045.835,5.326,5.326,0,0,0,2.331-2.932,10.692,10.692,0,0,1-3.37,1.288,5.308,5.308,0,0,0-9.037,4.835A15.057,15.057,0,0,1,1.8,58.41a5.31,5.31,0,0,0,1.641,7.079,5.3,5.3,0,0,1-2.4-.666v.066a5.309,5.309,0,0,0,4.254,5.2,5.372,5.372,0,0,1-1.4.186,5.091,5.091,0,0,1-1-.1,5.306,5.306,0,0,0,4.953,3.683,10.641,10.641,0,0,1-6.586,2.267A11.272,11.272,0,0,1,0,76.055,14.991,14.991,0,0,0,8.13,78.441,14.985,14.985,0,0,0,23.219,63.352l-.018-.687A10.591,10.591,0,0,0,25.854,59.926Z" transform="translate(-0.001 -57.441)"/>
        </g>
      </g>
    </g>
  </g>
</svg>
