<svg xmlns="http://www.w3.org/2000/svg" viewBox="0 0 1349.52 1136.31"><defs><style>.cls-1{fill:#e8836b;}.cls-2{fill:#eaeaea;}.cls-3{fill:#ffd00d;}.cls-4{fill:#b77100;}.cls-5{fill:#9e5e00;}.cls-6{fill:#fff;}.cls-7{fill:#ca4e4b;}.cls-8{fill:#686868;}.cls-9{fill:#afafaf;}.cls-10{fill:#ffbb10;}.cls-11{fill:#4d1e51;}.cls-12{fill:#ddd;}.cls-13{fill:none;stroke:#4d1e51;stroke-miterlimit:10;stroke-width:3px;}</style></defs><title>Asset 3</title><g id="Layer_2" data-name="Layer 2"><g id="Layer_1-2" data-name="Layer 1"><rect class="cls-1" x="490.63" y="612.75" width="34.24" height="80.87" transform="translate(-69.03 60.07) rotate(-6.34)"/><rect class="cls-2" x="49.7" y="1123.44" width="1256.88" height="12.87" transform="translate(1356.28 2259.76) rotate(-180)"/><circle class="cls-3" cx="1092.44" cy="943.24" r="43.18"/><circle class="cls-4" cx="1092.44" cy="943.24" r="36.58"/><circle class="cls-4" cx="1092.44" cy="944.44" r="36.58"/><path class="cls-5" d="M1092.44,907.86a36.57,36.57,0,0,1,36.57,36c0-.2,0-.4,0-.6a36.59,36.59,0,0,0-73.17,0c0,.2,0,.4,0,.6A36.58,36.58,0,0,1,1092.44,907.86Z"/><path class="cls-3" d="M1112.84,938.54l-16-16a6.11,6.11,0,0,0-8.62,0l-3.83,3.83L1087,929l3.83-3.83a2.37,2.37,0,0,1,3.34,0l16,16a2.36,2.36,0,0,1,0,3.35l-16,16a2.37,2.37,0,0,1-3.34,0l-16-16a2.38,2.38,0,0,1,0-3.35l6.68-6.68,5.69,5.68a5.89,5.89,0,0,0-.64,2.68,6,6,0,1,0,3.28-5.32l-8.33-8.32-9.32,9.32a6.11,6.11,0,0,0,0,8.63l16,16a6.11,6.11,0,0,0,8.62,0l16-16A6.11,6.11,0,0,0,1112.84,938.54Zm-20.32,2a2.34,2.34,0,1,1-2.33,2.34A2.34,2.34,0,0,1,1092.52,940.52Z"/><ellipse class="cls-6" cx="1093.79" cy="1035.56" rx="98.66" ry="67.2"/><polygon class="cls-1" points="538.83 900.06 489.2 947.12 489.2 979.82 505.3 1029.34 537.4 991.47 536.32 947.12 538.83 900.06"/><path class="cls-2" d="M798.52,1125.05H537.4V925.2c0-93.45,57.52-160.64,129.62-160.64h0c95.08,0,131.5,132.18,131.5,225.62Z"/><path class="cls-1" d="M683.76,752.7h0L658.1,702.59h0a37.25,37.25,0,0,0-5.86-8.35c-16.86-18.08-48.38-16.09-70.39,4.44-19.91,18.56-25.22,45.94-13.58,64.38h0L594,810.15a39.26,39.26,0,0,0,4.42,8.1l0,0h0a37.56,37.56,0,0,0,6.43,6.93c19,15.83,50,9.92,69.29-13.2C689.59,793.53,692.81,769.63,683.76,752.7Z"/><path class="cls-7" d="M655.32,740.22c-11.11,37.34-32.17,54.58-60.17,57.83-2.5.29-5,.44-7.49.5l-19.4-35.48h0c-11.64-18.44-6.33-45.81,13.58-64.38,22-20.54,53.53-22.52,70.39-4.44a37.25,37.25,0,0,1,5.86,8.35h0Z"/><ellipse class="cls-1" cx="581.81" cy="677.92" rx="88.48" ry="105.51" transform="translate(-71.31 68.4) rotate(-6.34)"/><ellipse class="cls-8" cx="738.99" cy="940.48" rx="27.69" ry="43.51" transform="translate(-398.31 1310.81) rotate(-69.88)"/><ellipse class="cls-1" cx="737.93" cy="943.36" rx="24.93" ry="39.82" transform="translate(-401.71 1311.71) rotate(-69.88)"/><path class="cls-1" d="M700.06,931.25s-12.73,72.16-44.87,91.47c-34.14,20.52-115.29,54.1-115.29,54.1l12.8,40.23s137.3-8.87,169.67-49.92S775.7,955.84,775.7,955.84Z"/><path class="cls-9" d="M704.5,861.51s-5,44.17-10.73,56.49S710.72,901.9,704.5,861.51Z"/><path class="cls-9" d="M796.73,898.08s-5,44.16-10.73,56.48S803,938.46,796.73,898.08Z"/><path class="cls-7" d="M514.56,731.83s-8.61-7.91-3-11.24,16.64,4.28,21.67,3.51S527.75,741,514.56,731.83Z"/><path class="cls-10" d="M539.48,1125.05H248.76a11.75,11.75,0,0,1-11.09-7.86L177.38,945.61A11.76,11.76,0,0,1,188.47,930H479.19a11.75,11.75,0,0,1,11.09,7.86l60.29,171.59A11.75,11.75,0,0,1,539.48,1125.05Z"/><ellipse class="cls-6" cx="349.45" cy="1037.45" rx="21.17" ry="23.03" transform="translate(-368.51 211.04) rotate(-22.37)"/><path class="cls-9" d="M648.14,844.93l12.07-7.57a82.41,82.41,0,0,0,35.95-49.1l3.05-11.78S708.49,818.76,648.14,844.93Z"/><path class="cls-7" d="M540.64,757.76l-5.39-.34a1.5,1.5,0,0,1,.19-3l5.39.33A30.31,30.31,0,0,0,557.38,751a1.5,1.5,0,1,1,1.45,2.63A33.33,33.33,0,0,1,540.64,757.76Z"/><circle class="cls-11" cx="509.63" cy="698.17" r="5.19"/><circle class="cls-11" cx="558.1" cy="692.94" r="5.19"/><polygon class="cls-12" points="585.18 987.4 594.07 991.47 613.07 918.86 604.18 914.8 585.18 987.4"/><polygon class="cls-12" points="645.1 954.25 639.39 946.69 639.39 946.69 622.55 924.42 616.84 931.97 633.68 954.25 616.84 976.52 622.55 984.07 639.39 961.8 639.39 961.8 645.1 954.25 645.1 954.25 645.1 954.25"/><polygon class="cls-12" points="573.98 924.42 557.14 946.69 557.14 946.69 551.42 954.25 551.43 954.25 551.42 954.25 557.14 961.8 557.14 961.8 573.98 984.07 579.69 976.52 562.85 954.25 579.69 931.97 573.98 924.42"/><path class="cls-2" d="M100.63,764S21.69,608.18,0,597.34c0,0,127,2.55,160.41-25.63,0,0,75.93,163,94.24,187.41Z"/><path class="cls-6" d="M590.28,673.47a35,35,0,0,0-10.88-22.05A26.59,26.59,0,0,0,538.56,656a35,35,0,0,0-5.78,23.9c0,.33.08.66.13,1l-6.82.86a36.86,36.86,0,0,0-.21-4.44,33.21,33.21,0,0,0-10.33-20.91,25.74,25.74,0,0,0-20.41-7c-15.05,1.67-25.76,16.92-23.86,34a33.14,33.14,0,0,0,10.33,20.91,26.25,26.25,0,0,0,16.15,7.12,24.32,24.32,0,0,0,4.26-.11,25.71,25.71,0,0,0,18.37-11.32,32,32,0,0,0,5.4-14.17l7.88-1c3.45,13.81,14.46,23.83,27.06,24.61a25.21,25.21,0,0,0,4.42-.11,27.1,27.1,0,0,0,19.35-11.92A35,35,0,0,0,590.28,673.47Zm-73.17,24.18a21.26,21.26,0,0,1-32.8,3.65,29.22,29.22,0,0,1-9.05-18.41c-1.66-14.88,7.46-28.15,20.32-29.58a20.08,20.08,0,0,1,3.55-.08,22.33,22.33,0,0,1,13.72,6.07,30.21,30.21,0,0,1,4.26,38.35Zm64.11-2.57a23.19,23.19,0,0,1-16.51,10.23c-13.65,1.52-26.2-10.1-28-25.89a31,31,0,0,1,5.09-21.17A23.19,23.19,0,0,1,558.35,648a21.62,21.62,0,0,1,3.77-.09,23.72,23.72,0,0,1,14.58,6.44,32.09,32.09,0,0,1,4.52,40.71Z"/><path class="cls-10" d="M711.49,223.22c.13-4.67.19-9.49.16-14.49H649.49V180.07H494.78v28.66H432.55q0,7.49.16,14.48v4.86h.17c2.54,61.95,19.05,94,33.18,110.28a77.64,77.64,0,0,0,8.81,8.68,24.42,24.42,0,0,0,24.39,23.2h6.38a77.45,77.45,0,0,0,49.82,36,18,18,0,0,0-.1,1.82,16.65,16.65,0,0,0,12.37,16.08v45.08a29.05,29.05,0,0,0-24.64,28.71h58.09a29.06,29.06,0,0,0-24.86-28.74V424.15a16.65,16.65,0,0,0,12.37-16.08,17.53,17.53,0,0,0-.09-1.78,77.42,77.42,0,0,0,50-36.06h5.9a24.41,24.41,0,0,0,24.36-22.83,77.11,77.11,0,0,0,9.25-9c14.13-16.24,30.64-48.33,33.18-110.28h.17ZM467.57,337c-13.91-16-30.17-47.65-32.69-109h59.9V330.71a77.58,77.58,0,0,0,1.48,15.11H476.57A74.91,74.91,0,0,1,467.57,337Zm209.19-.15a74.37,74.37,0,0,1-9.13,8.93H648a77.58,77.58,0,0,0,1.49-15.11V228.07h59.83C706.8,289.25,690.61,320.88,676.76,336.89Z"/><path class="cls-2" d="M336.71,328.85h0a33.69,33.69,0,0,1,33.69,33.69v16.31a0,0,0,0,1,0,0H353.93a17.22,17.22,0,0,1-17.22-17.22V328.85A0,0,0,0,1,336.71,328.85Z" transform="translate(853.77 354.06) rotate(135)"/><path class="cls-2" d="M747.94,419.08h16.47a0,0,0,0,1,0,0v16.31a33.69,33.69,0,0,1-33.69,33.69h0a0,0,0,0,1,0,0V436.3A17.22,17.22,0,0,1,747.94,419.08Z" transform="translate(532.97 -398.54) rotate(45)"/><path class="cls-2" d="M766.5,371.52H783a0,0,0,0,1,0,0v16.31a33.69,33.69,0,0,1-33.69,33.69h0a0,0,0,0,1,0,0V388.74a17.22,17.22,0,0,1,17.22-17.22Z" transform="translate(504.77 -425.6) rotate(45)"/><path class="cls-2" d="M785.83,328.85h16.47a0,0,0,0,1,0,0v16.31a33.69,33.69,0,0,1-33.69,33.69h0a0,0,0,0,1,0,0V346.07A17.22,17.22,0,0,1,785.83,328.85Z" transform="translate(480.27 -451.77) rotate(45)"/><path class="cls-2" d="M805.17,286.18h16.47a0,0,0,0,1,0,0v16.31a33.69,33.69,0,0,1-33.69,33.69h0a0,0,0,0,1,0,0V303.4A17.22,17.22,0,0,1,805.17,286.18Z" transform="translate(455.76 -477.93) rotate(45)"/><path class="cls-2" d="M684.33,420.95h0A33.69,33.69,0,0,1,718,454.64v16.31a0,0,0,0,1,0,0H701.55a17.22,17.22,0,0,1-17.22-17.22V420.95A0,0,0,0,1,684.33,420.95Z" transform="translate(1402.36 891.9) rotate(-180)"/><path class="cls-2" d="M651.11,455h0a33.69,33.69,0,0,1,33.69,33.69V505a0,0,0,0,1,0,0H668.33a17.22,17.22,0,0,1-17.22-17.22V455A0,0,0,0,1,651.11,455Z" transform="translate(187.94 1147.98) rotate(-90)"/><path class="cls-2" d="M765.6,236h0a33.69,33.69,0,0,1,33.69,33.69V286a0,0,0,0,1,0,0H782.82A17.22,17.22,0,0,1,765.6,268.8V236a0,0,0,0,1,0,0Z" transform="translate(1329.56 878.29) rotate(-150)"/><path class="cls-2" d="M703.13,380.92h0a33.69,33.69,0,0,1,33.69,33.69v16.31a0,0,0,0,1,0,0H720.35a17.22,17.22,0,0,1-17.22-17.22V380.92A0,0,0,0,1,703.13,380.92Z" transform="translate(1439.95 811.84) rotate(-180)"/><path class="cls-2" d="M722.59,332.78h0a33.69,33.69,0,0,1,33.69,33.69v16.31a0,0,0,0,1,0,0H739.81a17.22,17.22,0,0,1-17.22-17.22V332.78A0,0,0,0,1,722.59,332.78Z" transform="translate(1478.87 715.56) rotate(-180)"/><path class="cls-2" d="M740.92,290.78h0a33.69,33.69,0,0,1,33.69,33.69v16.31a0,0,0,0,1,0,0H758.14a17.22,17.22,0,0,1-17.22-17.22V290.78A0,0,0,0,1,740.92,290.78Z" transform="translate(1515.54 631.56) rotate(180)"/><path class="cls-2" d="M374.61,419.08h0a33.69,33.69,0,0,1,33.69,33.69v16.31a0,0,0,0,1,0,0H391.82a17.22,17.22,0,0,1-17.22-17.22V419.08A0,0,0,0,1,374.61,419.08Z" transform="translate(982.26 481.3) rotate(135)"/><path class="cls-2" d="M356,371.52h0a33.69,33.69,0,0,1,33.69,33.69v16.31a0,0,0,0,1,0,0H373.26A17.22,17.22,0,0,1,356,404.3V371.52A0,0,0,0,1,356,371.52Z" transform="translate(916.94 413.22) rotate(135)"/><path class="cls-2" d="M317.38,286.18h0a33.69,33.69,0,0,1,33.69,33.69v16.31a0,0,0,0,1,0,0H334.6A17.22,17.22,0,0,1,317.38,319V286.18A0,0,0,0,1,317.38,286.18Z" transform="translate(790.6 294.89) rotate(135)"/><path class="cls-2" d="M438.21,420.95h16.47a0,0,0,0,1,0,0v16.31A33.69,33.69,0,0,1,421,470.95h0a0,0,0,0,1,0,0V438.17A17.22,17.22,0,0,1,438.21,420.95Z"/><path class="cls-2" d="M471.43,455h16.47a0,0,0,0,1,0,0v16.31A33.69,33.69,0,0,1,454.21,505h0a0,0,0,0,1,0,0V472.24A17.22,17.22,0,0,1,471.43,455Z" transform="translate(-8.96 951.08) rotate(-90)"/><path class="cls-2" d="M356.94,236h16.47a0,0,0,0,1,0,0v16.31A33.69,33.69,0,0,1,339.72,286h0a0,0,0,0,1,0,0V253.23A17.22,17.22,0,0,1,356.94,236Z" transform="translate(-82.74 213.25) rotate(-30)"/><path class="cls-2" d="M419.41,380.92h16.47a0,0,0,0,1,0,0v16.31a33.69,33.69,0,0,1-33.69,33.69h0a0,0,0,0,1,0,0V398.14A17.22,17.22,0,0,1,419.41,380.92Z"/><path class="cls-2" d="M400,332.78h16.47a0,0,0,0,1,0,0v16.31a33.69,33.69,0,0,1-33.69,33.69h0a0,0,0,0,1,0,0V350A17.22,17.22,0,0,1,400,332.78Z"/><path class="cls-2" d="M381.62,290.78H398.1a0,0,0,0,1,0,0v16.31a33.69,33.69,0,0,1-33.69,33.69h0a0,0,0,0,1,0,0V308A17.22,17.22,0,0,1,381.62,290.78Z"/><path class="cls-2" d="M920.6,659.62c0,18.51-11.71,28.17-24.51,28.17-13.47,0-24.09-10.07-24.09-26.67,0-15.79,9.67-27.77,24.78-27.77S920.6,644.51,920.6,659.62Zm-33.22,1c0,9.26,3.13,15.93,9.12,15.93s8.71-6,8.71-15.93c0-9-2.45-15.92-8.84-15.92C890.24,644.65,887.38,651.72,887.38,660.57Zm9.8,64.25L948,633.35h11.17l-50.91,91.47Zm87.12-28.45c0,18.51-11.71,28.17-24.5,28.17-13.34,0-24-10.07-24.1-26.67,0-15.79,9.67-27.77,24.78-27.77S984.3,681.26,984.3,696.37Zm-33.08,1c-.13,9.26,3,15.93,9,15.93s8.72-6,8.72-15.93c0-9-2.32-15.92-8.72-15.92S951.22,688.47,951.22,697.32Z"/><path class="cls-10" d="M1242.73,1057.19c5.37-5.61,5.86-16,5-29.94-6.35-.44-15.65.64-19,0-8-16-19.5-28.36-35.89-35.89.55-10.4,1.92-20,7.93-25-14.58-1-27,8.91-34.87,18-7.09-7.33-17.58-13.2-29.94-17.33l-7.67,13.64a107.39,107.39,0,0,0-70.57.24l-10-13.44a.11.11,0,0,0-.1-.1c-15.66,5.17-30,13.3-41.26,25-7.29-.54-6.46-15.31,3-13-15.37-10.49-23.89,18.28-9,21.93-12.4,17.77-13.64,55.83,3,69.82,2.42,21,6.12,40.72,16.35,53.92h33.5c-.9-6.79-1.78-14.08-1-22,20.35,4.63,44.53,6,68.8,4,3.74,6.21,7.33,12.51,11.82,18h33.19c-1.18-8.81-2.55-18-.15-27,8-1.48,49.06-11.91,76.83-40.82ZM1197,1012.68a8.23,8.23,0,1,1-8.27,8.22,8.21,8.21,0,0,1,8.27-8.22Z"/><path class="cls-10" d="M1260,979.84l-1.61-2.53s1.84-1.17,4.89-3.33l1.74,2.45C1261.85,978.64,1260,979.79,1260,979.84Z"/><path class="cls-10" d="M1274.65,969.2l-1.85-2.36c3.1-2.43,6.21-5,9.23-7.58l2,2.28C1280.93,964.16,1277.79,966.74,1274.65,969.2ZM1293,953.47l-2-2.19c2.92-2.74,5.78-5.55,8.51-8.36l2.16,2.09C1298.82,947.85,1295.93,950.7,1293,953.47Zm16.81-17.34-2.25-2c2.65-3,5.21-6.11,7.61-9.17l2.36,1.85C1315.07,929.93,1312.47,933.06,1309.78,936.13Zm14.89-19-2.47-1.7c2.28-3.31,4.43-6.68,6.39-10l2.59,1.53C1329.18,910.28,1327,913.71,1324.67,917.08Zm12.26-20.85-2.7-1.32c1.76-3.61,3.36-7.26,4.75-10.87l2.8,1.08C1340.36,888.8,1338.73,892.54,1336.93,896.23Zm8.65-22.64-2.9-.79a109.76,109.76,0,0,0,2.53-11.56l3,.48A115.1,115.1,0,0,1,1345.58,873.59Zm3.84-24-3-.14c.07-1.48.1-3,.1-4.46,0-2.44-.09-4.92-.27-7.35l3-.22c.19,2.5.28,5,.28,7.57C1349.52,846.56,1349.49,848.1,1349.42,849.63ZM1344.67,826a105.16,105.16,0,0,0-2.94-11.45l2.86-.91a108.89,108.89,0,0,1,3,11.78Zm-7.12-22.52c-1.56-3.54-3.33-7.11-5.28-10.6l2.62-1.46c2,3.57,3.81,7.23,5.41,10.86Zm-11.5-20.71c-2.15-3.2-4.51-6.42-7-9.59l2.36-1.86c2.54,3.23,4.95,6.52,7.14,9.77Zm-14.68-18.69c-2.58-2.88-5.35-5.78-8.21-8.62l2.11-2.13c2.9,2.88,5.71,5.82,8.34,8.74Zm-16.88-16.8c-2.88-2.59-5.93-5.2-9.06-7.77l1.91-2.32c3.16,2.6,6.24,5.24,9.15,7.86Zm-18.42-15.19c-3.15-2.43-6.36-4.86-9.55-7.22l1.79-2.41c3.2,2.37,6.43,4.82,9.59,7.25Zm-19.23-14.25c-3.24-2.31-6.54-4.62-9.81-6.85l1.69-2.47c3.29,2.24,6.61,4.55,9.86,6.87Zm-19.76-13.5c-3.31-2.17-6.7-4.34-10.07-6.45l1.59-2.54c3.39,2.12,6.8,4.3,10.13,6.48Zm-20.27-12.71c-3.38-2-6.86-4.08-10.32-6.07l1.5-2.6c3.48,2,7,4,10.37,6.1Zm-20.74-11.94c-3.45-1.9-7-3.81-10.54-5.68l1.4-2.65c3.56,1.88,7.12,3.8,10.58,5.7Zm-21.17-11.18c-3.52-1.78-7.12-3.57-10.73-5.32l1.32-2.7c3.61,1.76,7.23,3.56,10.76,5.35ZM1153.37,658c-3.52-1.64-7.18-3.33-10.88-5l1.23-2.74c3.72,1.69,7.39,3.38,10.92,5Zm-21.83-9.87q-5.57-2.45-11-4.77l1.18-2.75q5.44,2.32,11,4.77Zm-22-9.44-11.07-4.62,1.15-2.77q5.46,2.27,11.08,4.62Zm-22.15-9.23-11.07-4.64,1.17-2.77q5.43,2.3,11.06,4.64Zm-22.11-9.37c-4-1.73-7.55-3.33-11-4.89l1.24-2.73c3.41,1.56,7,3.15,10.94,4.87Zm-21.87-10c-3.77-1.84-7.39-3.68-10.73-5.46l1.41-2.65c3.31,1.77,6.89,3.59,10.64,5.42Zm-21.24-11.37c-3.58-2.13-7-4.31-10.18-6.48l1.69-2.48c3.12,2.14,6.5,4.28,10,6.39Zm-19.91-13.66c-3.22-2.58-6.28-5.26-9.09-8l2.09-2.16c2.74,2.65,5.73,5.28,8.88,7.8Zm-17.35-16.83a109.16,109.16,0,0,1-7.26-9.69l2.5-1.66a108,108,0,0,0,7,9.43ZM971.5,548.08A113.67,113.67,0,0,1,966.57,537l2.79-1.08a113.74,113.74,0,0,0,4.81,10.76Zm-8.74-22.53c-.88-3.14-1.68-6.43-2.37-9.76-.14-.68-.27-1.36-.4-2l3-.54q.18,1,.39,2c.68,3.27,1.46,6.48,2.32,9.56Zm-4.26-23.87c-.25-3.5-.38-7.26-.38-11.16v-.94h3v.94c0,3.83.13,7.51.37,10.94Zm3-24-3-.18c.23-3.81.56-7.85,1-12l3,.31C962.09,469.9,961.76,473.9,961.53,477.67Zm2.37-23.78-3-.39c.5-3.8,1.08-7.81,1.73-11.92l3,.46C965,446.13,964.4,450.12,963.9,453.89Zm3.69-23.66-3-.52c.67-3.78,1.4-7.77,2.17-11.84l3,.56C969,422.49,968.25,426.46,967.59,430.23Zm4.46-23.56-2.94-.59q1.17-5.83,2.42-11.78l2.93.62Q973.23,400.85,972.05,406.67Zm4.9-23.49-2.93-.63q1.26-5.82,2.54-11.74l2.94.64Q978.21,377.36,977,383.18Zm5.12-23.46-2.93-.64,2.57-11.73,2.93.64Zm5.13-23.46-2.93-.64q1.28-5.83,2.53-11.7l2.93.62Q988.48,330.42,987.2,336.26Zm5-23.46-2.93-.61q1.22-5.87,2.41-11.74l2.94.59Q993.43,306.94,992.21,312.8ZM997,289.25l-2.94-.57q1.14-5.9,2.22-11.8l3,.54Q998.11,283.33,997,289.25Zm4.34-23.69-3-.5c.69-4,1.35-8,1.95-11.83l3,.47C1002.65,257.54,1002,261.54,1001.3,265.56Zm3.75-23.76-3-.42c.57-4,1.11-8,1.59-11.87l3,.37C1006.16,233.74,1005.63,237.75,1005.05,241.8Zm3-23.88-3-.31c.42-4,.8-8,1.12-11.92l3,.25C1008.83,209.86,1008.45,213.89,1008,217.92Zm2-24-3-.16c.23-4.06.4-8.08.51-11.95l3,.08C1010.39,185.79,1010.22,189.84,1010,193.92Zm-2.36-24.06c0-4.07-.12-8.08-.29-11.94l3-.13c.18,3.89.28,8,.3,12.05ZM1006.56,146c-.35-4-.8-8-1.33-11.85l3-.41c.53,3.89,1,7.92,1.34,12Zm-3.28-23.6c-.78-4-1.67-7.86-2.66-11.6l2.9-.77c1,3.8,1.91,7.77,2.7,11.79Zm-424.56-1-3-.4c.54-4,1.27-8,2.16-11.93l2.92.67C580,113.59,579.24,117.52,578.72,121.46Zm418.44-22c-1.31-3.8-2.77-7.52-4.34-11l2.75-1.21c1.59,3.61,3.08,7.4,4.42,11.27ZM584,98.4l-2.84-1a117.14,117.14,0,0,1,4.43-11.3l2.73,1.24A116.39,116.39,0,0,0,584,98.4ZM987.54,77.79a116,116,0,0,0-6.27-10L983.74,66c2.27,3.27,4.44,6.73,6.42,10.29Zm-393.76-.91-2.59-1.52a118,118,0,0,1,6.66-10.14L600.27,67A112.77,112.77,0,0,0,593.78,76.88ZM974,58.42a113.53,113.53,0,0,0-8.2-8.51l2-2.19a114,114,0,0,1,8.43,8.74Zm-366.26-.6-2.23-2c2.68-3,5.55-5.85,8.55-8.59l2,2.21C613.17,52.11,610.36,54.93,607.75,57.82Zm349-15.5c-3.1-2.33-6.4-4.57-9.8-6.63l1.56-2.56c3.48,2.11,6.86,4.4,10,6.79ZM625.2,41.85l-1.82-2.39c3.16-2.4,6.51-4.73,10-6.92l1.61,2.53C631.57,37.22,628.29,39.5,625.2,41.85ZM936.54,30c-3.47-1.69-7.13-3.29-10.86-4.75l1.09-2.79c3.81,1.48,7.54,3.11,11.09,4.85ZM645.2,29.09l-1.42-2.64c3.49-1.86,7.14-3.65,10.86-5.32l1.23,2.74C652.21,25.51,648.62,27.27,645.2,29.09Zm269.26-7.71c-3.7-1.13-7.56-2.18-11.48-3.11l.69-2.91c4,.94,7.91,2,11.67,3.15Zm-247.59-2-1-2.81c3.69-1.38,7.54-2.7,11.43-3.91l.89,2.86C674.3,16.7,670.51,18,666.87,19.36ZM891.3,15.82c-3.94-.77-7.9-1.51-11.77-2.21l.53-3c3.88.71,7.86,1.45,11.81,2.23ZM689.6,12.26l-.74-2.9c3.82-1,7.78-1.89,11.76-2.71l.6,2.93C697.29,10.4,693.38,11.3,689.6,12.26Zm178.12-.69c-4-.66-8-1.28-11.83-1.86l.44-3c3.9.58,7.9,1.21,11.88,1.87ZM844,8.05c-4-.52-8-1-11.89-1.45l.34-3c3.91.44,7.93.93,11.94,1.46ZM713,7.42l-.48-3c3.89-.63,7.9-1.21,11.93-1.7l.37,3C720.78,6.23,716.81,6.79,713,7.42Zm107.29-2c-4-.37-8-.71-11.92-1l.22-3c3.94.28,8,.62,12,1Zm-83.59-.89-.27-3c3.94-.34,8-.63,12-.86l.16,3C744.56,3.85,740.55,4.14,736.65,4.48Zm59.72-.84c-4-.2-8-.36-12-.47l.08-3c4,.11,8,.27,12,.47Zm-35.87-.5-.07-3C764.14.05,767.94,0,771.74,0h.72V3h-.72C768,3,764.19,3.05,760.5,3.14Z"/><path class="cls-10" d="M577.51,140h-3c0-2,0-4.07.13-6.06l3,.13C577.55,136,577.51,138,577.51,140Z"/><path class="cls-10" d="M272.52,373.36l-.94-2.85c3.75-1.23,5.79-1.72,5.87-1.74l.69,2.92S276.13,372.18,272.52,373.36Z"/><path class="cls-10" d="M95.12,554l-3-.53c.71-3.91,1.59-7.9,2.62-11.88l2.9.75C96.67,546.27,95.81,550.19,95.12,554Zm6-23.11L98.23,530c1.28-3.81,2.71-7.64,4.25-11.38l2.78,1.14C103.74,523.4,102.33,527.16,101.08,530.91Zm9.1-22.08-2.69-1.33c1.78-3.61,3.7-7.21,5.72-10.71l2.6,1.5C113.82,501.73,111.93,505.28,110.18,508.83Zm11.94-20.69-2.5-1.67c2.23-3.34,4.6-6.67,7-9.88l2.39,1.82C126.65,481.57,124.31,484.85,122.12,488.14Zm14.48-19-2.27-2c2.63-3,5.39-6,8.23-8.93l2.14,2.1C141.91,463.2,139.18,466.16,136.6,469.14Zm16.61-17.27-2.09-2.15c2.9-2.81,5.85-5.6,8.79-8.31l2,2.21C159,446.3,156.09,449.08,153.21,451.87Zm17.67-16.27-2-2.26c3-2.65,6.14-5.28,9.23-7.82l1.91,2.32C177,430.36,173.89,433,170.88,435.6Zm18.53-15.26L187.58,418c3.19-2.48,6.45-4.92,9.67-7.26l1.76,2.43C195.82,415.46,192.59,417.88,189.41,420.34Zm19.42-14.1-1.68-2.48c3.36-2.28,6.77-4.51,10.13-6.62l1.6,2.54C215.55,401.77,212.17,404,208.83,406.24Zm20.32-12.76-1.51-2.6c3.53-2,7.1-4,10.6-5.85l1.4,2.66C236.17,389.51,232.64,391.46,229.15,393.48Zm21.22-11.14-1.28-2.72c3.75-1.76,7.49-3.41,11.1-4.88l1.13,2.78C257.76,379,254.07,380.59,250.37,382.34Z"/><path class="cls-10" d="M90.18,571.72c0-.09,0-2.26.33-6.13l3,.26c-.33,3.71-.32,5.83-.32,5.85Z"/><path class="cls-10" d="M181.21,804.37c-2.58-3-3.83-4.65-3.88-4.72l2.4-1.79s1.25,1.66,3.75,4.54Z"/><path class="cls-10" d="M333.94,902.46c-3.58-1.34-7.17-2.74-10.67-4.14l1.12-2.78c3.48,1.39,7.05,2.77,10.6,4.11Zm-21.24-8.52c-3.5-1.5-7-3.05-10.46-4.63l1.25-2.72c3.42,1.56,6.92,3.1,10.4,4.59Zm-20.8-9.5c-3.43-1.67-6.87-3.4-10.23-5.14l1.39-2.66c3.32,1.72,6.74,3.44,10.15,5.1Zm-20.32-10.53c-3.34-1.84-6.69-3.75-9.94-5.66l1.51-2.59c3.24,1.9,6.56,3.79,9.88,5.62Zm-19.74-11.58c-3.24-2-6.47-4.11-9.62-6.2l1.66-2.5c3.12,2.08,6.34,4.15,9.55,6.15Zm-19.06-12.67c-3.13-2.21-6.24-4.49-9.24-6.76l1.8-2.39c3,2.25,6.07,4.51,9.17,6.7Zm-18.27-13.81c-3-2.42-5.95-4.89-8.79-7.35l2-2.27c2.81,2.44,5.73,4.89,8.71,7.29Zm-17.3-15c-2.86-2.68-5.62-5.38-8.2-8l2.14-2.09c2.56,2.61,5.29,5.28,8.11,7.93Z"/><path class="cls-10" d="M350.39,908.31q-2.86-1-5.69-2l1-2.83q2.81,1,5.66,1.94Z"/><path class="cls-10" d="M921.62,588.1c-.26-4-.6-8-1-11.89l3-.31c.41,3.92.75,8,1,12Zm-2.5-23.72c-.59-4-1.27-7.92-2-11.75l2.95-.57c.76,3.87,1.44,7.87,2,11.88ZM914.53,541c-1-3.88-2-7.74-3.17-11.47l2.87-.88c1.16,3.78,2.24,7.7,3.21,11.63Zm-7-22.75c-1.38-3.74-2.88-7.45-4.46-11l2.74-1.22c1.61,3.64,3.13,7.4,4.53,11.2ZM898,496.51c-1.84-3.52-3.81-7-5.86-10.34l2.56-1.57c2.08,3.4,4.08,6.94,6,10.52Zm-12.44-20.23c-2.32-3.23-4.77-6.38-7.29-9.38l2.29-1.93c2.57,3.06,5.07,6.27,7.44,9.56Zm-15.29-18.16c-2.78-2.82-5.69-5.55-8.67-8.11l2-2.27c3,2.61,6,5.4,8.85,8.28Zm-18-15.48c-3.23-2.34-6.57-4.54-9.91-6.54l1.54-2.57c3.42,2,6.83,4.29,10.13,6.68Zm-20.38-12.13a76.91,76.91,0,0,0-11-4.33l.79-2.89a77.74,77.74,0,0,1,11.45,4.51Z"/><path class="cls-10" d="M1008,944.7c-4-1-7.89-2.07-11.65-3.32l1-2.85c3.67,1.23,7.5,2.32,11.39,3.25ZM985,937a118.05,118.05,0,0,1-10.83-5.48l1.49-2.6c3.38,1.93,6.93,3.73,10.55,5.34Zm-21-12a113.11,113.11,0,0,1-9.45-7.61l2-2.24a112.75,112.75,0,0,0,9.21,7.42Zm-18.05-16.18c-2.68-3-5.27-6.12-7.69-9.38l2.41-1.79c2.36,3.19,4.89,6.27,7.5,9.16Zm-14.46-19.45c-2.06-3.39-4-7-5.85-10.62l2.68-1.34c1.79,3.58,3.72,7.08,5.74,10.4Zm-10.84-21.65c-1.5-3.67-2.9-7.49-4.18-11.36l2.85-.95c1.26,3.82,2.64,7.57,4.11,11.17Zm-7.62-23c-1-3.82-1.93-7.78-2.75-11.78l2.94-.6c.81,3.94,1.72,7.85,2.71,11.61ZM908.15,821c-.6-3.92-1.11-7.95-1.53-12l3-.31c.42,4,.92,8,1.51,11.84Zm-2.51-24c-.24-4-.39-8-.46-12.07l3-.05c.07,4,.22,8,.45,11.94ZM908.25,773l-3-.08c.15-5.36.43-9.52.64-12.07l3,.25C908.67,763.56,908.4,767.66,908.25,773Z"/><path class="cls-10" d="M819,830.85l-1.49-2.6c3.46-2,6.88-4.08,10.18-6.2l1.62,2.52C825.93,826.72,822.46,828.83,819,830.85Zm20.29-13.08-1.75-2.44c3.23-2.33,6.41-4.76,9.46-7.23l1.89,2.33C845.74,812.94,842.52,815.4,839.24,817.77ZM858,802.56l-2-2.22c3-2.68,5.83-5.47,8.55-8.28l2.16,2.09C863.93,797,861,799.83,858,802.56Zm16.81-17.38-2.29-1.93c2.6-3.07,5.07-6.22,7.35-9.35l2.43,1.76C880,778.86,877.47,782.06,874.82,785.18ZM889,765.56,886.46,764a78,78,0,0,0,5.45-10.42l2.79,1.09A78.16,78.16,0,0,1,889,765.56Z"/><polygon class="cls-10" points="168.59 800.66 165.61 800.27 168.55 778.2 187.38 790.88 185.71 793.37 170.89 783.39 168.59 800.66"/><polygon class="cls-10" points="293.51 378.13 291.04 376.44 301.12 361.68 283.86 359.27 284.27 356.3 306.32 359.38 293.51 378.13"/><polygon class="cls-10" points="576.8 164.86 564.2 145.98 566.69 144.31 576.61 159.18 585.3 144.07 587.9 145.57 576.8 164.86"/><polygon class="cls-10" points="924.32 613.41 911.72 594.52 914.22 592.86 924.13 607.72 932.83 592.62 935.43 594.12 924.32 613.41"/><polygon class="cls-10" points="818.79 842.72 796.63 840.69 808.52 821.35 811.07 822.92 801.71 838.15 819.06 839.73 818.79 842.72"/><polygon class="cls-10" points="1010.2 955.94 1009.45 953.04 1026.73 948.53 1015.31 935.37 1017.58 933.41 1032.17 950.21 1010.2 955.94"/><path class="cls-11" d="M553.14,631a185.66,185.66,0,0,1-40.65,6.81c-11.71.6-18.4-2.14-26.27-9-9.08-7.91-23.69-57.24-6.51-54.28,55.84,9.63,61,4.24,78.31-2.38,22.81-8.7,61.91-9.13,81.28.54,26.85,13.42,17.46,32.38,30.45,95.45,12.74,61.85,5.34,67.59,5.34,67.59s-17.48-10.19-19.9-23.33,7.92-35.33-.61-49.15-28.05-15.71-28.28,1A52.46,52.46,0,0,0,634,692.46s-21.47-30.6-23.63-49.68,15.86-37.75-13.32-26.32C580.66,622.89,564.3,627.88,553.14,631Z"/><path class="cls-11" d="M536.55,582s-29.13,4.69-32.11-17.62c0,0,17.64,14.29,53.58,7.78S536.55,582,536.55,582Z"/><path class="cls-13" d="M539.07,681.06s19.16,3.1,27.39-5.22"/><path class="cls-13" d="M490.74,684s19.17,3.1,27.4-5.23"/></g></g></svg>