<svg xmlns="http://www.w3.org/2000/svg" viewBox="1071 1874 22.562 22.562"><defs><style>.a{fill:#fff;}</style></defs><path class="a" d="M22.535,10.529a11.278,11.278,0,0,0-10.5-10.5V0h-1.5V.026a11.279,11.279,0,0,0-10.5,10.5H0v1.5H.026a11.278,11.278,0,0,0,10.5,10.5v.027h1.5v-.027a11.276,11.276,0,0,0,10.5-10.5h.027v-1.5ZM7.062,2.459A11.959,11.959,0,0,0,5.293,6.016H3.04A9.828,9.828,0,0,1,7.062,2.459ZM2.253,7.521H4.9a17.863,17.863,0,0,0-.37,3.008H1.533A9.692,9.692,0,0,1,2.253,7.521Zm-.72,4.512H4.527a17.863,17.863,0,0,0,.37,3.008H2.253A9.692,9.692,0,0,1,1.533,12.033ZM3.04,16.545H5.291A11.925,11.925,0,0,0,7.062,20.1,9.818,9.818,0,0,1,3.04,16.545Zm7.489,4.416c-1.546-.414-2.877-2.074-3.685-4.416h3.685Zm0-5.92H6.421a16.81,16.81,0,0,1-.39-3.008h4.5Zm0-4.512h-4.5a16.811,16.811,0,0,1,.39-3.008h4.108Zm0-4.512H6.844c.808-2.342,2.139-4,3.685-4.415Zm8.993,0h-2.25A11.926,11.926,0,0,0,15.5,2.459,9.838,9.838,0,0,1,19.522,6.016ZM12.033,1.6c1.545.412,2.877,2.073,3.685,4.415H12.033Zm0,5.919h4.106a16.946,16.946,0,0,1,.391,3.008h-4.5Zm0,4.512h4.5a16.673,16.673,0,0,1-.391,3.008H12.033Zm0,8.928V16.545h3.685C14.91,18.887,13.578,20.548,12.033,20.961ZM15.5,20.1a12.016,12.016,0,0,0,1.772-3.557h2.25A9.827,9.827,0,0,1,15.5,20.1Zm4.809-5.061H17.664a17.863,17.863,0,0,0,.37-3.008h2.993A9.648,9.648,0,0,1,20.309,15.041Zm-2.274-4.512a17.863,17.863,0,0,0-.37-3.008h2.644a9.692,9.692,0,0,1,.72,3.008Z" transform="translate(1071 1874)"/></svg>